<svg xmlns="http://www.w3.org/2000/svg" viewBox="0 0 1586.21 1381.03"><defs><style>.b{fill:#010202}.c{fill:#785b2d}.d{fill:#c0842b}.e{fill:#fff}.i{fill:#0e374f}.j{fill:#e2b4d4}.k{fill:#fddaac}.m{fill:#f4c69d}.q{fill:#23b7c4}.r{fill:#b84c25}.s{fill:#020203}.t{fill:#754f12}</style></defs><path d="M1424.52 870.87l2 24-18.3 23.5 2.9 11.4 1.3 15.8-16 12-18.7 2.7 21.3 9.3 8 12.7-1.3 8.7-5.3 6-6.7 2.7 13.3 6 21.3 18L1449 1055l7.3 28-2 23.3 1.2 4.5-10.5-.5 7.2 31.2-19.1 2.9 23.9 19.2 17.3 24s6.7 15.3 6.7 18 2 16 2 16l-.7 12-1.3 3.6-24.7 1.7-10 3.3-10.7 7.3-4 22-28.7 16.7-42.7 18-26.7 10-32.8 7-65.9 5-74 1.3-79.3 1.3-103.3 3.3-78 12-89.3 14.7-98.7 18.7s-100-10.7-102-10-110.7-30-110.7-30l-88-16.7-103.3 2.7-103.3 10.7-60.7-10-42-34-14-28-6.7-24-19.3-19.3-11.3-27.3s-9.8 6.6-12.7 9.3-20-18-20-18l-14.7-36v-33.3l11.3-35.3 42.7-28 26.7-9.3-2.7-15.3 6-10.7-5.3-8.7s.7-13.3 3.3-14 14.7-8 14.7-8l11.6-1.4-17.3-14-10-18.7-7.3-15.3-20.7-8 7.3-12.7 76-47.3s116.7-58.7 118.7-58 98.7-22 98.7-22l102.7 4s90.7 2.7 92.7 2 42-2.7 42-2.7h25.3l42.7-4 69.3-4 10-1.3 8 3.3 54.7-2 10 1.3 16-2.7 47.3.7 20 2h84l11.3-.7 8.7 3.3 18 2 24.7.7 11.3 1.3 64 4 20.7 2.7 14.7 1.3 84.7 12 55.3 2 42.7 5.3 36 8.7 13.3 10 16.7 8z" fill="#e2c85c"/><path class="b" d="M114.52 1309.37c19.3 17.3 44.4 27.3 71.4 29.4 23.8 1.9 47.6-1.2 71.2-3.8 26.2-3 52.5-5.9 78.8-7.5a515.73 515.73 0 0 1 149.1 13.2c46.5 10.9 92.2 25.3 139.2 33.7 47.4 8.5 94.2 8.7 141.8 1.5 49.9-7.5 98.7-21 148.4-29.5 102-17.5 205.9-14.3 308.9-18.4 25.2-1 50.6-1.7 75.7-4.7a249.66 249.66 0 0 0 68.9-18.2c19.5-8.3 40.3-16.9 57.5-29.5 10.9-8 20.1-18.2 23.1-31.2 10.9-.6 21.8-1.3 32.7-2a3.06 3.06 0 0 0 2.6-1.9c6.7-18.8 0-39-10.8-54.9-10.3-15.2-24.4-27.4-36.1-41.5l12.1-.6a1.61 1.61 0 0 0 1.5-2c-2.1-9.6-4.2-19.1-6.4-28.7q3.9-.15 7.8-.6a1.92 1.92 0 0 0 1.8-1.4c10-45.6-16.6-94.7-59.5-112a19.44 19.44 0 0 0 8.2-4.2c7.8-6.7 5-17.6-1.9-23.8-4.7-4.2-10.9-6.2-16.8-8.5 14.8-2 29.1-9.5 30.6-26.2.6-7-2-13.9-8.1-17.7a35.53 35.53 0 0 0 16.5-13c13-19.2-.3-43.8-14.9-57.6-35.8-33.7-90.6-35.3-136.7-39.8-62.3-6.1-124.6-11.8-187-16.4-124.7-9.2-249.8-13.3-374.8-7.1-62.2 3.1-124.5 7-186.8 6.9-31.2-.1-62.2-1.8-93.3-3.6-29.7-1.7-59.3-2.4-88.8 1.6-55.5 7.5-108.1 28-158.2 52.2-25.2 12.2-49.9 25.3-74.5 38.6-21.8 11.7-43.8 23.8-58.5 44.3a3.59 3.59 0 0 0 1.3 4.9 147.46 147.46 0 0 0 22 8.6v.8a48.58 48.58 0 0 0 7.9 24.1c6.4 9.8 15.1 17.5 25 23.6-11.4 1.7-23.5 5.1-27.7 17.2-2.6 7.4 0 13.9 5.1 18.2a18.5 18.5 0 0 0-8.1 13.8 28 28 0 0 0-.1 5c-30.4 7.8-56.4 30-68.2 59.5-14 34.9-4.4 78.2 22.1 104.6a4.54 4.54 0 0 0 5.4.7l12.9-7.8a83.82 83.82 0 0 0 7.5 18.3c7.2 12.8 17.8 23.5 30.1 31.9a3.25 3.25 0 0 0-2.9 4 110.77 110.77 0 0 0 9.4 26.2 19.83 19.83 0 0 0 1.1 2 156.47 156.47 0 0 0 5.9 17.5m1340.7-144.4a99.46 99.46 0 0 0-13.9-8.5l6.5-.3c2.4 3 4.9 5.9 7.4 8.8zm0 3c-53 4.9-106 10.1-159 15.2-95.4 9.2-190.8 17.3-286.2 26.6q-71.85 7-143.8 14c-31.3 3-62.6 5.7-93.9 8.9 2.1-.9 4.3-1.8 6.4-2.6 40.5-16 84.1-21.2 127-26.2 93-10.9 186.1-20.9 279.5-28.8 83.8-7.1 167.6-13.8 251.5-18.5a96.79 96.79 0 0 1 18.5 11.4zm8.3-15.8c-4.2.2-8.3.5-12.5.8-1.2-1.5-2.3-2.9-3.4-4.4-1.7-2.3-5.5-.1-3.8 2.2.6.8 1.2 1.7 1.8 2.5l-10 .6-4.5-1.8c-1.3-.5-1.8 1.6-.6 2 .1 0 .1 0 .2.1h-.1c-93 5.7-186 11.3-278.8 19.5-92.1 8.1-184.3 15.9-276 27.6-20.7 2.6-41.4 5.8-61.7 10.8s-39.7 12.4-58.8 21.1c-1.4.7-2.9 1.3-4.3 2-9.5 1.1-19.1 2.2-28.6 3.5-2.8.4-2.9 4.6 0 4.5l12.7-.9c-12.6 5.4-25.5 9.9-39.1 11.4-18.8 2.1-35.6-3.5-51.3-13.5-4.1-2.6-8.2-5.5-12.3-8.4a.72.72 0 0 0-.4-1.3c-.4 0-.8.1-1.2.1-21.3-15.3-43.1-32.2-70.6-29.3-10.4 1.1-20.4 4.3-30.4 7a262.58 262.58 0 0 1-31.7 6.7 320.69 320.69 0 0 1-66.4 2.3c-87.5-5.4-169.4-38.9-254.3-57.8.5-.1 1-.2 1.6-.3 23.9-4.5 48.3-5.5 72.5-6.7 25.9-1.2 51.8-2.4 77.8-3.4 182.3-7.2 364.9-7.6 547.4-4.6 90.1 1.5 180 1 270-4.9 89.2-5.8 178.2-15.3 267.1-25 14.1 5.8 28.4 10.1 43.6 10.2 2.1 9.03 4.1 18.2 6.1 27.4zm-840.5 79.5c-6.6 1.1-13.2 2.5-19.9 3.6-10.7 1.9-21.5 3.6-32.3 4.9-20.2 2.5-40.5 4.2-60.8 3.3-35.7-1.6-69.7-13.3-105.3-16.1-36-2.8-71.7 5.5-107.6 4.5-35.4-1-70.8-7.6-105.2-15.5-27.4-6.3-55.6-15.3-75.3-36.2a273.26 273.26 0 0 1 49.6-18.3 2.75 2.75 0 0 0 2.4 2.5c10.9 2.2 21.8 4.7 32.6 7.4 85.5 21.2 170 54.4 259.5 52a292.72 292.72 0 0 0 62.5-8.3c20.3-5.1 40-13.5 61-6.8 14.5 4.7 26.7 13.8 38.8 23zm-526.1-279.6c8.3 2.1 16.7 3.7 25.2 5 19.9 3.1 40 5.6 60 7.8 41.3 4.6 82.9 7.9 124.4 9.7a1783.12 1783.12 0 0 0 225.3-4.4c36.8-3 73.5-7.3 110-12.4 37.8-5.3 75.5-10.3 113.7-7.9 37 2.3 73.5 8.9 110.3 13.6 35.4 4.5 70.9 6.9 106.5 4.8 67.9-3.9 135-21.4 195.7-52.1 3.3-1.6.4-6.4-2.8-4.9-70.1 33.7-147 52-224.9 51.9-71.7-.1-142-19-213.8-17.7-36.7.6-72.9 6.3-109.2 10.7s-72.9 7.8-109.6 10.1a1879.73 1879.73 0 0 1-221.4.5c-36.6-2.1-73.2-5.3-109.6-9.6-18.4-2.2-36.9-4.5-55.2-7.4-16.2-2.6-32.3-6.1-47.2-12.9 7.1-9 16-16.3 25.6-22.6 21.6-14.1 45.3-25.5 68.2-37.3 24.6-12.7 49.4-24.9 75-35.6 51.2-21.4 104.9-35.7 160.7-35.9 29.8-.1 59.5 2.8 89.2 3.9s59.6.9 89.3 0c60.1-1.9 120-6.5 180.1-8.5 120.1-4 240.2 1.6 359.9 11.3 59.7 4.8 119.3 10.7 178.9 16.8 24.1 2.5 48.4 4.6 71.7 11.5 22.2 6.5 45.6 18.4 57.8 39 6.4 10.7 9.8 25.3 1.3 35.9-6 7.5-15.7 10.6-25.2 12-1.2.1-2.4.2-3.6.4l-3.6.3c-28.4 1.6-56-6.4-82.9-14.4-43.8-12.9-95.9-26.2-136.6 2.5-2.6 1.8-.1 6.2 2.5 4.3a85.9 85.9 0 0 1 33.9-14.1c55-10.6 106.1 20.8 159.5 27.2 12.1 1.5 27.1 2.3 40.2-1.1 4.5 1.3 8.2 3.9 9.6 9.2 2.7 10.1-4.6 20.4-13.4 24.4-6.6 3-13.9 3.8-21.1 3.8a21.61 21.61 0 0 1-5.9-5.4c-1.2-1.7-4.1-.1-2.8 1.7a18.69 18.69 0 0 0 3.2 3.6l-6.7-.3q-37.2-1.8-74.5-.4c-49.7 1.7-99.2 6.7-148.6 12.6-99.7 11.9-198.9 25.5-299.3 29.7-49.4 2.1-98.7 1.1-148.2 1-23.1 0-46.4 1-69.2 5.7-20.9 4.3-40.5 12.4-59.9 21.3-19.7 9-39.4 18.7-60.4 24.3-21.6 5.8-43.3 5.6-65 .2-3.7-.9-7.4-2-11.1-3.1l4.4-.9c3.4-.7 1.9-5.7-1.4-5.1-4.5.8-9.1 1.7-13.6 2.5-13.4-4.7-26.5-10.3-39.7-15.6-20.7-8.3-41.7-15.1-63.8-18.6-45.4-7.3-91.7-4.7-137.2-11.3-21.1-3-43.1-7.7-61.9-18-15.9-8.97-31-22.7-32.8-41.7zm28.3 49.7a1.67 1.67 0 0 0 1.1-.9c25.1 13.6 57.1 17.9 83.2 20.2 48.5 4.4 98.1.9 145.4 14.2 21.7 6.1 42.6 15.8 63.8 24.1-20.3 3.3-40.9 5.6-61.4 4.1a142.5 142.5 0 0 1-37.1-7.7c-12.1-4.2-23.9-9.6-36.3-13.1-24.6-7-50.5-7.1-75.9-7.6l-82.9-1.5c-8.1-.1-22.9.3-25.7-9.8-3.9-13.97 16.1-19.6 25.8-21.97zm-20.8 36.2a5.55 5.55 0 0 0 .8-.6c1 .4 2.1.8 3.1 1.1 12 3.3 25.5 1.8 37.8 2 15.3.3 30.6.5 46 .8 29.4.5 59.8-.6 88.4 7 13.6 3.6 26.5 9.6 39.8 14.1a151.73 151.73 0 0 0 41.6 7.5c22.6 1 45-2.3 67.2-6.5 18.4 6.6 37.3 11.6 57.3 11.7 45 .1 83.6-26.2 124.3-41.5 48.5-18.2 100.3-14.2 151-14 53.5.2 107.1-1.8 160.5-5.8 106.2-7.9 211-26.8 317-36.1 26.5-2.3 53-3.8 79.6-4.3 13.1-.2 26.1-.2 39.2.1 11.6.3 23.4 1.5 35.1 1.2 7.2 3.7 15.5 5.7 21.6 11.5 5.4 5.1 7.2 13.6.1 18.1-3.8 2.4-8.7 3.1-13.3 3.1a1.1 1.1 0 0 0-.8 0c-1.1 0-2.1 0-3.1-.1-7.6-.4-15.1-2.1-22.7-3.1-9-1.2-18-2.1-27.1-2.9-17.5-1.4-35-2-52.5-2-64.6.1-128.8 8.4-192.9 16.1-32 3.8-64.1 7.2-96 11.5-15.9 2.1-31.1 5.9-46.5 10.3a223.67 223.67 0 0 1-46 7.9c-31.8 2.1-63.5 1.2-95.2 5-30.8 3.7-61.4 9.5-92.2 13.5-31.1 4-62.6 6.1-93.8 2.2-29.2-3.6-59.7-13.1-88.4-2.1-3.9 1.5-2.2 7.9 1.8 6.4a74.74 74.74 0 0 1 22.5-4.8c15.8-.9 31.4 2.2 46.9 4.9a300.56 300.56 0 0 0 46.3 4.9c31.8.7 63.4-3.8 94.8-8.9 32.2-5.2 64.4-11 97-12.9 32-1.8 64.5 0 95.9-7.5 15.7-3.7 30.9-9.3 46.9-12 16.7-2.9 33.6-4.6 50.3-6.6 33.1-4.1 66.2-8.3 99.4-12.3 65.5-7.9 131.7-14.3 197.7-9.5 16.3 1.2 32.3 3.6 48.5 5.7a59.05 59.05 0 0 0 12 .5c43.4 15 71.7 63.5 62.5 108.7a84.15 84.15 0 0 1-28.7-1.8 142.28 142.28 0 0 1-18.2-5.7c.5-1.2 0-2.8-1.6-2.7-1.4.1-2.7.3-4.1.4-29.1-12-56.2-29.8-88.6-30.7-40.9-1.1-76 22.3-113.2 35.3-20.8 7.2-42.1 12.1-64.2 10.2-24.2-2.1-47.3-10.7-69.9-19.1-22.8-8.5-45.6-16.5-69.6-21.4a343.83 343.83 0 0 0-72.9-7c-50.3.5-99.4 12.6-148.7 21.5-51.9 9.4-104.5 13.6-157.2 15.1-52.2 1.4-104.5.5-156.7-.5s-104.1-2.4-155.3-13.1c-24.5-5.1-48.9-11.2-73.9-13.7-21.7-2.1-43.2.1-64.9 1.2-20.2 1-42.1 1.3-60.5-8.4-8.4-4.5-15.8-10.5-19.4-19.6a28.11 28.11 0 0 1-1-3.1c2.3-.4 4.7-.7 7.1-1 3.9-.4 3.9-6.5 0-6.1-2.7.3-5.4.7-8 1.2-.1-5.4 1.7-10.47 7.1-13.3zm-55.7 169.9c-22.9-24.6-31.4-60-20.4-92.2 9.7-28.4 34.8-49.9 63.6-57.2 3.1 11.8 12.9 21.3 23.5 27.1 17.1 9.2 37.4 10.6 56.4 9.9 22.4-.8 44.7-4 67.1-2.5 26.7 1.8 52.6 8.8 78.6 14.3 52.2 11.2 105.3 12.3 158.5 13.4 53.6 1.1 107.1 2 160.7-.1 53.2-2.1 106.1-7.2 158.5-17s104.8-22.2 158.5-20a347.88 347.88 0 0 1 77.2 12.1c24 6.7 46.9 16.6 70.5 24.5 22.2 7.4 45.6 12.8 69.2 10.4 20.5-2.1 39.4-9.6 58.3-17.6 39.6-16.8 79.7-37.9 123.7-24.8 18.3 5.5 36 15.1 54 23.1-98.4 9.9-196.7 19.8-295.5 24.8-91.1 4.6-181.9 2.1-273.1.5q-137.55-2.25-275.2-.7c-91.7 1.1-183.4 3.6-275.1 7-43.6 1.6-88.8.9-131.1 12.7-38.9 10.8-73.7 31.5-107.9 52.3zm1402.3 66.3c-13.4 14.4-32.3 22.7-49.7 30.9-22.4 10.6-45.2 19.6-69.6 24.1s-49.6 5.4-74.5 6.5-49.6 1.2-74.4 1.5c-49.6.5-99.2.6-148.7 3.5a970.3 970.3 0 0 0-144.1 19.1c-47.7 10-95.2 22.1-143.9 26.2-47.4 4-93.7-2.2-139.8-13-44.9-10.5-89.1-24-134.5-32.7-47.6-9.1-95.2-9.6-143.4-5.4-24.6 2.1-49 5.3-73.5 7.9-23 2.4-46.6 4-69.4-.8a106.29 106.29 0 0 1-64-40.9 148.91 148.91 0 0 1-7.7-26.8c-.4-2.3-.8-4.6-1.1-7a144 144 0 0 0 39.7 14.1c45.5 9 91.8-.7 137.6-2.4 47.7-1.8 95.6.2 143.4.9l145.3 2q72.7 1 145.3 1.9c46.9.6 94.5 3.2 141.1-3.3 47-6.5 92-21.6 139.5-24.7s95.6-1.3 143.2-1l144.6.7c24.7.1 49.5.3 74.2.2 5 .5 9.9.9 14.9 1.2 26.6 1.6 53.3 1 80-.4a46.54 46.54 0 0 1-10.5 17.7zm44.8-25.2c-10 .6-19.9 1.2-29.9 1.7.1-.9.1-1.8.2-2.7a1.55 1.55 0 0 0-3.1 0c-.1 1-.2 1.9-.3 2.9-8.3.4-16.7.8-25 1.1a1.42 1.42 0 0 0-.6-.2c-11.8-.6-23.6-1.2-35.5-1.4l-44.7-.6c-34-3.7-67.2-12.1-100.6-19.4-35.8-7.8-71.5-13.6-108.3-12.9-39 .7-78.1 3.9-117.1 6.1-39.2 2.2-78.4 4.6-117.6 6.9-2.1.1-2.1 3.4 0 3.3q66.3-3.15 132.5-6.5c38.9-2 78-5.4 116.9-5.4 37.4 0 73.7 7.6 109.9 16 17.6 4.1 35.1 8.2 52.8 11.6-69.2-.7-138.5-1-207.7-1.4-46.5-.3-93.5-2.3-139.8 3.6-45.5 5.8-89.3 20.8-135.2 24.4-46.7 3.7-94 1.1-140.8.3q-71.25-1-142.6-2.2c-47.5-.7-95.1-1.5-142.6-2.1-46.7-.6-93.6-2.2-140.3.5-44.1 2.5-90.4 11.2-133.8-.7A127.74 127.74 0 0 1 95 1247a3.75 3.75 0 0 0-.1-1 25.28 25.28 0 0 1-12.4-7.6c-14.2-11.2-25.3-25.9-30.3-43.9 13.9-8.3 28.1-16.4 42.6-23.5 22 24.4 54.7 33.7 85.9 40.1 35.3 7.2 71.3 14.1 107.5 14.1 37.3 0 74.4-11 111.7-5.7 18 2.6 35.5 7.7 53.2 11.4a246.56 246.56 0 0 0 52.8 5.5 343 343 0 0 0 54.5-5c16.1-2.6 32.8-5.1 48.6-9.4 12.8 9.7 25.6 19.4 41.3 23.9 30.4 8.9 59.7-4.2 87.7-17 43.2-3.5 86.4-8.5 129.5-12.7q143-14 285.9-28.5c48.1-4.9 96.1-10.2 144.2-15s96.1-9.5 144.2-14.4a1.52 1.52 0 0 0 1-.6c7.8 8.6 15.9 17 22.9 26.3 11.22 15.07 19.3 34.57 13.52 53.17z"/><path class="c" d="M1087.12 1260.57c16.8-3 34.3-2.9 51.4-2.7 17.9.2 35.7 1.3 53.5 2.3 34.8 2.1 69.8 4.2 104.7.9 9.3-.9 18.5-2.6 27.8-3.6 6.5-.7 13.1-.4 17 5.5a1.62 1.62 0 0 1-2.2 2.2c-6.3-3.7-13.3-2.4-20.1-1.2q-12.15 2.1-24.3 3.3a477.74 477.74 0 0 1-49.3 1.7c-33.4-.4-66.8-2.7-100.3-3.2-19.1-.2-38 1.2-57.1 1.8-4.1.1-5.1-6.3-1.1-7zM733.52 1110.47c23.8-1.6 47.4-3.1 71-6.4 23-3.2 45.9-7 68.9-10.2 41.3-5.7 83.3-9.1 124.6-1.7 22.4 4 44.1 11.4 63.6 23.4 3.6 2.2.4 7.8-3.3 5.7-35.8-19.9-76.6-26.2-117.2-25.4-44 .8-87.2 10.1-130.7 15.6-25.3 3.2-51.4 6.2-76.9 3.2a2.1 2.1 0 0 1 0-4.2zM593.12 1114.67c5-2.5 11.1-2.5 16.6-3.1 6.7-.8 13.4-1.4 20.2-1.9 13.2-.9 26.4-1.3 39.6-1.4 2.7 0 2.6 4 0 4.1-12.9.7-25.8 1.7-38.6 3.1-6.1.7-12.2 1.3-18.3 2.1s-12.8 2.7-18.9 1.5c-2-.3-2.4-3.5-.6-4.4zM306.82 974.17c13.3-1.4 27.5 2.2 40.7 3.9 13 1.7 26 3.2 39.1 4.5 26.3 2.6 52.7 4.2 79.1 3.7s52.7-3 78.4-8.6c26.4-5.7 51.1-16.4 77-23.8a279 279 0 0 1 43.6-9.1c14.9-1.8 30.3-3 45.2-1.3a2.05 2.05 0 0 1 0 4.1c-14.1 1.6-28.3 2.2-42.4 4.4a360.89 360.89 0 0 0-38.8 8.1c-26 7.1-50.7 18.3-77 24.6-51.3 12.4-104.6 12-156.9 7.1q-22.35-2.1-44.7-5.1c-7.2-.9-14.3-2-21.5-3-7.8-1.1-15.3-1.9-22.6-4.9a2.37 2.37 0 0 1 .8-4.6zM1142.12 981.77c11.5-5.6 24.5-8.7 37-11.1a249.3 249.3 0 0 1 38.6-4.4 252.09 252.09 0 0 1 38.8 1.8c7.1.9 14 2.3 21.1 3.2 3.2.4 6.4.7 9.7.8s5.9-.7 8.7 1.1a1.92 1.92 0 0 1 .4 2.9c-3.6 3.8-11.1 2.5-15.8 2.2-6.5-.4-12.9-1.5-19.3-2.4a239.27 239.27 0 0 0-39.7-2.5 228.58 228.58 0 0 0-38.6 3.9c-13.1 2.4-25.6 6.6-38.5 9.7-3.2.6-5.4-3.8-2.4-5.2zM171.12 1279.27c53.6 12.1 109.6 12.2 163.8 3.7 26.9-4.2 53.5-7.5 80.8-7.2 28.3.3 56.6 2.7 84.9 4.3 31.4 1.8 62.7 4 94 7.2a1.25 1.25 0 0 1 0 2.5c-56.4.2-112.7-3.8-169.1-5.2-14.3-.4-28.7-.5-43 .5-13.7.9-27.2 3-40.7 5-26.8 4-53.6 6.8-80.7 6.5-30.6-.4-61.5-5.4-91.2-12.4-3.3-.8-1.92-5.6 1.2-4.9zM92.22 1180.47c.6-2.6 3.7-3 5.5-1.5 3.7 3 6.5 7.1 9.8 10.6a111 111 0 0 0 10.7 9.8 116.05 116.05 0 0 0 25.7 15.6 118.39 118.39 0 0 0 27.9 8.5 143.16 143.16 0 0 0 14.5 1.7c4.6.4 9.6-.1 13.9 1.9 2.4 1.1 1.9 4.5 0 5.7-4.3 2.7-10.4 2.3-15.4 2.2a93.14 93.14 0 0 1-14.9-1.7 119.63 119.63 0 0 1-30.8-10.1 123.68 123.68 0 0 1-26.5-17.1c-5.8-4.9-12.7-10.9-17.2-17.7a1.85 1.85 0 0 1-3.5 0c-1.1-2.9-.4-5.1.3-7.9z"/><path class="d" d="M788.42 959.07c5-1.4 10.4-.3 15.5.3 5.5.6 11.1 1.1 16.6 1.6 11.1 1 22.1 1.8 33.2 2.5 10.8.6 21.5 1.2 32.3 1.6 10.4.4 23.2-1.1 32.9 2.9a2.25 2.25 0 0 1 0 4.3c-9.5 3.9-21.9 2.1-32 1.9-11.4-.2-22.9-.7-34.3-1.4-11.1-.7-22.2-1.6-33.2-2.7-5.5-.5-11.1-1.1-16.6-1.7-5.2-.6-10.7-.7-15.3-3.3-2.4-1.3-1.8-5.2.9-6zM33.42 1181.57c6.8-9 17.8-14.7 27.4-20.2a310.79 310.79 0 0 1 30-15 322.14 322.14 0 0 1 66.4-20.9c49.7-10.4 100.8-11.1 151.4-8.9 15.1.7 30.2 1.6 45.3 2.5 14.9.9 30.2.9 44.8 3.9 1.9.4 1.3 3-.4 3.2-13 1.5-26.3 0-39.4-.5s-26.3-1.1-39.4-1.5c-26.2-.8-52.5-1.1-78.8.1-46.8 2.2-93 10-136.6 27.2a259 259 0 0 0-33.6 16.1c-5.3 3.1-10.5 6.3-15.6 9.8-5.5 3.7-10.4 7.7-16.6 10.2-3.4 1.5-7-3.2-4.9-6zM1060.72 1055.87c6.7 2 12.6 6.9 18.4 10.6 6.1 3.9 12 8 18.1 12 12 7.9 24.6 15 38.8 17.9 15.2 3.1 28.7-.5 42.1-7.7 5.6-3 11-6.6 17-8.6 2.4-.8 5.4-1.6 7.9-.9 2.7.7 2.9 2.2 4.7 4a1.51 1.51 0 0 1-1.5 2.5c-.8-.2-1.8.6-2.5.8-1.4.4-2.8.4-4.2.9-3.5 1.1-6.8 3.3-9.9 5.1-6.1 3.4-12.1 7-18.5 9.7-13.2 5.6-27.2 6-40.9 2.3-13.5-3.6-25.8-10.7-37.3-18.5-6-4.1-11.8-8.4-17.5-12.8s-12.5-8.4-16.8-14.3c-1.4-1.4.38-3.5 2.1-3zM1237.52 1059.87c3.7-4.7 12.3-6.7 17.8-8.4a143.32 143.32 0 0 1 21.5-5.2 161.66 161.66 0 0 1 42.8-1.4 157.7 157.7 0 0 1 41.7 10c13.5 5.3 25.6 12.7 37.6 20.6 6.6 4.4 13.2 8.7 20.2 12.5a120.39 120.39 0 0 0 10.9 5.2c3.9 1.6 8.3 2.5 11.8 4.8 2.4 1.6 1.3 4.8-1.4 5.1-6.2.8-13.3-2.6-18.8-5.1a171.57 171.57 0 0 1-17.9-9.7c-11.9-7.3-23.3-15.5-35.9-21.5-25.5-12.3-54.6-16.7-82.7-13.5a152.31 152.31 0 0 0-23.1 4.6c-3.9 1.1-7.9 2.4-11.7 3.8-3.6 1.3-7.1 3.4-10.9 3.1-2.5-.1-3.42-2.9-1.9-4.9zM702.42 1029.87c40.9-1 81.8-2.5 122.7-4.9q30.6-1.8 61.2-4.4c9.9-.8 19.7-1.7 29.6-2.6s20.1-2.7 30.1-1.1c2.2.4 1.6 3.2 0 3.9-9.5 3.8-20 3.9-30.1 4.8-9.9.9-19.7 1.8-29.6 2.6q-30.6 2.55-61.2 4.3c-40.9 2.4-81.7 3.9-122.7 4-4.2 0-4.2-6.47 0-6.6zM375.72 837.87c28.9-13.3 60.5-19.9 91.9-24 31.9-4.2 64.1-5.3 96.2-5.3 17.7 0 36.2-.7 53.7 1.6h.1c3.9.1 3.8 5.6 0 6-15.5 1.7-31.7.6-47.4.7s-31.7.4-47.5 1.2c-31.2 1.6-62.4 5-92.9 12.3-17.3 4.1-34.1 9.5-50.9 15.3-4.4 1.7-7.7-5.67-3.2-7.8zM761 902.87a806.46 806.46 0 0 0 89.3-1.5c29.6-2 58.6-2.1 88.2.8 28.9 2.8 58.1 6.7 87.2 4.1 26.9-2.4 52-12.4 77.2-21.3 13.6-4.8 27.3-9.3 41.5-11.9a121.23 121.23 0 0 1 20.8-2.1 81.86 81.86 0 0 1 9.9.3c3.6.3 7 1.9 10.5 3.1a1.85 1.85 0 0 1-.5 3.6c-3.4 0-6.7.8-10 .8-2.8 0-5.5-.1-8.3 0a139 139 0 0 0-20.3 2.5c-12.8 2.4-25.2 6.4-37.4 10.7-24.8 8.7-49.2 18.9-75.4 22.4-28.9 4-57.9.7-86.7-2.6-29.5-3.4-58.4-4.9-88.1-3.4-32.5 1.6-66.5 6.2-98.6-.9-2.3-.8-1.78-4.8.7-4.6zM557.62 908.67c7-2.8 16.4-2 23.9-2.4 8.3-.5 16.7-.9 25-1.4 3.7-.2 3.5 5.2 0 5.6-8.3 1-16.6 1.9-25 2.9-7.5.8-16.5 3.1-23.9 1.5-3.4-.8-2.7-5.1 0-6.2zM1240.32 854.37c9.1-1.3 19.3 1.3 28.4 2.4 9.6 1.2 19.2 2.4 28.8 3.7l29.7 4c4.6.6 9.2 1.2 13.8 1.9 4.4.7 9.2.6 12.6 3.7a2.66 2.66 0 0 1-.5 4.1c-4.1 2-8.7.7-13.2.2-4.3-.5-8.7-1.1-13-1.7-9.9-1.3-19.8-2.7-29.7-4s-19.8-2.7-29.6-4.2c-9.1-1.4-19.6-1.6-28-5.2-2-.8-1.62-4.6.7-4.9zM120.12 907.17c6-3.9 12.3-8.4 19.1-10.9 1.9-.7 3.3 2 1.9 3.3-3.3 3.1-7.3 5.5-11.1 7.9-2 1.3-9.1 4.5-11.1 7.7 9-.7 17.6 3.8 25.9 6.7 12.1 4.2 25 3.9 37.7 4.2 13.1.3 26.2.1 39.2-.8 6.8-.4 13.7-.9 20.5-1.6s13.7-2 20.4-1.2c2.4.3 4.2 3.9 1.4 5.1-5.6 2.5-11.7 3.3-17.8 4.1-6.5.9-13.1 1.7-19.7 2.2-13.4 1-26.8 1.5-40.2 1.4-12-.1-25.1.2-36.7-3.3-11.2-3.3-20.4-15-32.9-11.8a2.55 2.55 0 0 1-3-1.7c-1.72-5.2 2.2-8.6 6.4-11.3zM573 1156.07c14.7-3.3 29.6-5.5 44.4-8.1 10.2-1.8 22-4.4 31.3 1.7a2 2 0 0 1 .4 3.1 52.39 52.39 0 0 1-16.6 10.3 141 141 0 0 0 14.5 4 188.52 188.52 0 0 0 24.9 3.3c15.9 1.1 32 .8 47.9.7 3.8 0 5.1 5.2 1.9 7.1-8.7 5.2-17.4 10.6-25.9 16.2-7.7 5-15 10.5-22.7 15.4a7 7 0 0 0 3.3 3.6c2.2 1.3.3 4.4-2 3.3-3.2-1.5-6.8-3.7-8.8-6.6a3.49 3.49 0 0 1 .6-4.3c12.2-10 26-18.7 39.7-27a320.92 320.92 0 0 1-36.7-1.7c-15.5-1.7-32.7-4.1-46.6-11.4-2.6-1.4-1-4.8 1.4-5.1 7.6-.9 14.4-4.8 20.5-9.2-9.1-5.4-23.2-.1-32.6 1.7-12.5 2.4-25 5.2-37.6 7.1-2.88.4-4.08-3.5-1.3-4.1zM629.72 1351.77c6.3-1.8 13.7-1.2 20.3-1.5 7.5-.4 15-.8 22.4-1.5 14.5-1.3 29-4.8 43.5-5.6 4.1-.2 4.4 5.5.9 6.8-13.5 4.9-29.2 5.9-43.4 7.3-7.1.7-14.3 1.2-21.4 1.3s-15.5.9-22.2-1.3c-2.7-.9-2.9-4.7-.1-5.5z"/><path class="e" d="M642.92 1296.27c1.5-.7 3-1.5 4.5-2.2a2 2 0 0 1 2.9 1.5c19.8-1 39.6-.7 59.4-.8l31.7-.3c10.4-.1 21.8-.7 32.1.8 1.6.2 1.6 3 0 3.3-10 1.8-21 1.5-31.1 1.7-10.9.2-21.8.4-32.6.7-21.7.4-43.6 1.5-65.3.7-2.9-.1-4.3-4-1.6-5.4zM805.82 1307c10.3.3 20.6.7 30.9.5 7.7-.2 15.9-2 22.5 3.2 1.6 1.3-.2 3.4-1.8 3.1-8.4-1.5-15.9-3.5-24.5-3.2-9 .3-18 .8-27 1.4-3.3.07-3.3-5.13-.1-5zM914.92 1153.67c9.8-1.7 20.2-1.2 30.1-1.7 10.5-.5 21.1-1.1 31.6-1.7 21-1.2 42.1-2.5 63.2-3.1 3-.1 2.9 4.3 0 4.6-20.6 2.4-41.4 3.8-62.2 4.5q-15.3.6-30.6.9c-10.3.2-21.4 1.4-31.6.1-1.8-.1-2.8-3.2-.5-3.6zM841.52 1158.17c6.8-1.6 14.5-1.3 21.4-1.7 2.1-.1 2.1 3.1 0 3.3-6.8.6-14.2 2.1-21 1.6-1.6-.3-2.2-2.8-.4-3.2zM61.82 1085.77c6.9 7.5 11.1 16.2 21.8 18.6 9.8 2.3 21 1.4 31 1.3a243.72 243.72 0 0 0 30.8-1.9c10.1-1.4 19.8-4.1 29.7-6.7a1.81 1.81 0 0 1 1.4 3.3c-19.2 11-44 11.4-65.6 11.4-9.9 0-22.5 1.6-31.8-2.4-9-3.9-14.9-14-19.2-22.2-.5-1.1 1-2.4 1.9-1.4zM1064.92 993.67c3.1-.8 6.4.1 9.6.4l10.5 1.2c2.5.3 2.6 4.1 0 4-3.7-.2-7.5-.3-11.2-.5-3.2-.1-6.3.1-9.3-1.2-1.9-.8-1.3-3.5.4-3.9zM1129 1016.87q46.05-3.75 92.1-5.4c15.2-.5 30.4-.7 45.6-.8 7.6 0 15.2-.1 22.8.2 7.4.3 14.9.2 22.1 2a1.15 1.15 0 0 1 0 2.2c-7.2 1.7-14.8 1.5-22.1 1.7s-14.5.2-21.8.3c-15.5.2-31.1.6-46.6.9q-39.3.9-78.4 3c21 6.2 42.7 11 64.5 13a2.05 2.05 0 0 1 0 4.1c-8.6.6-17.2 1.3-25.9 2-8.4.6-17.4 2.7-25.8 1.6a1.58 1.58 0 0 1-.4-3.1c7.6-3.1 17.1-3 25.2-3.7l4.9-.3a508.33 508.33 0 0 1-56.9-12.9c-2.68-.8-1.98-4.6.7-4.8zM1037.92 853.07c26.3-4.7 53.7 3.1 80 3.8 24.7.7 48.4-5.1 72-11.7-9.6-2.4-18.6-5.9-27.9-9.5-12.4-4.8-24.1-10.5-37.6-6.4-.6.2-.9-.8-.3-1 11.5-3.9 24.4-2 35.7 1.8 6.2 2 12.1 4.9 18.2 7.1a136.76 136.76 0 0 0 21.8 5.6c2.3.4 2 3.8 0 4.3-25.8 7.4-52 14.7-79 14.4-13.5-.2-26.9-1.8-40.3-3a369.33 369.33 0 0 0-42.1-1.1c-2.42.1-3-3.8-.5-4.3zM985.52 861.27c5.9-2.2 13.1-2.5 19.4-3.5 2.5-.4 3.6 3.5 1.1 3.9-6.4 1-13.5 3.1-20 2.9a1.7 1.7 0 0 1-.5-3.3zM447.12 861.37c15.5-2.5 31.5-2.9 47.2-3.5l48.9-1.8 47.9-1.8 23.9-.9c8.4-.3 17.6-1.4 25.9-.4 2.1.2 3 3.6.5 4.1-7.6 1.5-15.8 1.2-23.5 1.6-8 .4-16 .6-23.9 1-16.3.6-32.6 1.3-48.9 1.9l-47.9 1.9c-16.5.7-33.4 1.7-49.9.3-1.1-.2-1.6-2.2-.2-2.4zM471.82 1029c3.4-1.9 7-2.2 10.7-2.9 4.1-.8 8-1.8 12-2.9a117.37 117.37 0 0 0 24.1-9.2c2.1-1.1 3.9 2 1.9 3.2a146.55 146.55 0 0 1-23.4 11.8c-7.1 2.7-17.1 6.3-24.7 4.3a2.36 2.36 0 0 1-.6-4.3z"/><path d="M1313.82 990.87v6l-22 18.7-7.3 22.7 2 42.7-5.3 32-17.3 5.3-20.7-17.3-14-7.3-14 18v42.7c0 6-16.7 58-16.7 58s-20 13.3-20.7 11.3-16.7-16-16.7-16l-8-37.3 6-56.7-17.3-20.7-17.7-6.2-20.9 13.5h-25.3l-12-17.3 5.3-22-11.3-24-15.3 4.7-6.7 12-11.3 30.7 2 28.7 6 30-5.3 24.7s-30 19.3-32 19.3-23.3-.7-23.3-.7l-15.3-11.3-8-20.7-.7-27.3 2-26v-44l-16-9.3-13.3 1.3-16.7-2-6-7.3 41.3-12 36.7-8.7 54.4-3.4s82.3-12.6 87.6-12.6 88.7-7.3 88.7-7.3l78-4z" fill="#3e2713"/><path class="b" d="M897.72 1040.67c.4 4.1 2.9 7.9 6.7 10.7 7.8 5.7 16.8 3.1 25.6 2.9 9.2-.2 16.1 5.1 20.2 13.2 4.6 9.1 3.9 19.9 2.4 29.7-1.5 10.2-3.9 20.3-5 30.6-1.8 17.7.4 36.2 12.1 50.3 10.1 12.2 26.4 17.8 41.5 11.9 15.5-6 26.2-21.3 29.8-37.1 4.3-19.1 1.1-39 .8-58.3-.2-10.1.2-20.2 3.1-29.9 2.6-8.5 7.8-18.7 17.3-21.1 19.3-4.8 15.9 25 16.4 35.6.6 13.5 7.2 28.8 23.3 27.3 14.9-1.3 24.8-16.8 40-16.2 9.3.4 16.6 7.8 20.6 15.6 4.6 9.2 4.5 19.8 3.7 29.8-1.7 20-4.7 40.1-.8 60 2.5 12.8 9.9 27.6 24.6 28.4 14.1.8 23.2-13 27.6-24.6 6.7-17.8 8.5-38.6 9.5-57.4.5-10.1-.9-20.8.8-30.8 1.8-10.2 12.3-22.2 22.2-12.4 5 5 6.5 12.6 11.9 17.2 5 4.2 11.6 5.1 17.8 3.1 16-5.1 21.8-21.3 21-36.8-1-19.7-7.3-38.7-.7-58.1 5.4-16 22.4-29 39.7-22.9 3 1.1 5.1-3.8 2.2-5.1a29.54 29.54 0 0 0-13.9-2.7 1 1 0 0 0-.4-1.9c-15.8-.6-31.6.6-47.5-.3-15.7-.9-31.7-.1-47.5.4-27.6.9-55.3 1.8-82.9 3.1-13.8.7-27.6 2-41.1 5.2-12.7 3-25.1 7-37.9 9.6-26.9 5.6-54.3 3.2-81.5 4.8-26.5 1.5-52.1 8.6-77.2 17.1a3.6 3.6 0 0 0-2.2.7 5.39 5.39 0 0 0-2.2 8.4zm8.1.1c13.3-4.7 26.6-9.7 40.4-13 15-3.6 30.2-5 45.5-5.5 26.8-.9 54 .1 80.3-6.3 12.7-3.1 25.1-7.1 37.9-9.4 13.6-2.5 27.5-2.9 41.4-3.4 27.7-1 55.4-1.6 83.1-3.2 13.9-.8 27.7-1.5 41.5-3.2 12.7-1.6 25.6-1.4 38.4-2.6-.7.1-1.4.3-2.1.4-15.5 3.9-26.2 17-30.2 32-4.9 18.6.5 36.5 1.7 55.1.6 9.3-.5 19.1-7.4 25.9-5.2 5.1-13.5 8.4-20.2 4.2-10.6-6.7-15.5-24.4-31.1-17.4-15.8 7.1-11.9 30.2-12.7 44a260.85 260.85 0 0 1-3.7 31.7c-1.6 9.1-3.3 18.5-7 27.1-5.2 12-18.8 28.6-32.3 15.7-5.7-5.4-8.3-13.5-9.9-21a123.34 123.34 0 0 1-2.5-30.9c.9-18.3 7.3-38-.5-55.6-5.6-12.7-17.9-22-32.2-18.6-6.9 1.7-13.6 5-20 7.9-5.8 2.7-13.2 6.2-19.5 2.9-13.1-7-7.2-29.5-9.6-41.4-2.6-13.4-14-24.1-28.1-17.6-15.7 7.3-21.2 26.2-22.9 42-2.1 19.5 1.9 39.2-.2 58.7-1.8 16.6-9.9 34.3-26.1 41.1-15.9 6.6-30.9-4.5-37.4-18.8-8.6-18.8-2.4-40.8.8-60.1 2.8-16.7 2.9-36-10.7-48.3a28.54 28.54 0 0 0-21.4-7.5c-5.1.3-10.7 1.8-15.8.7-2.4-.5-6.5-2.7-7.5-5.6z"/><path class="e" d="M1263.52 1104.37c4.4-1 8.3-2.8 10.7-6.9 2.7-4.5 2.5-9.6 3-14.6a1.32 1.32 0 0 1 2.6-.3c1.3 6.1.5 13.4-3.1 18.7-2.9 4.1-8 7.2-13.1 5.6-1.2-.5-1.4-2.2-.1-2.5zM1200 1116.67c.1-3.8-.2-7.8.5-11.6.9-4.5 4.2-9.9 9.4-7.8a1 1 0 0 1 0 1.9c-6.4 2.6-5.7 9.9-6.2 15.7-.4 4.3-.1 9.1-1.8 13.1-.3.7-1.3.4-1.5-.2-.98-3.5-.4-7.4-.4-11.1zM1173.72 1201.17c2.1.5 3.6 2.1 5.8 2.4a8 8 0 0 0 6.8-2.5c3.9-3.6 5.6-8.9 7.6-13.7.5-1.3 2.2-.7 2.6.3 3 7.8-1.7 17.4-8.9 21.3-5.1 2.8-17.4 2.9-17.2-5.5a2.73 2.73 0 0 1 3.3-2.3zM1165.72 1167a2.08 2.08 0 0 1 2.8.7c1.8 3.1.3 6.8.2 10.3a33.39 33.39 0 0 0 2.2 12.9c.9 2.6-3.4 4.5-4.6 1.9a38.4 38.4 0 0 1-3.8-14.1c-.4-3.93-.6-9.43 3.2-11.7zM1090.62 1091c4.3-1.1 8.7-1.3 12.6-3.6 3.3-2 5.5-4.9 8.2-7.4 4.7-4.2 10.9-5.6 16.7-2.9a.88.88 0 0 1-.2 1.6c-4.4 1-8.7.3-12.3 3.5-2.7 2.4-4.7 5.4-7.6 7.7-4.7 3.7-11.4 6.5-17.4 4.8-1.7-.63-1.8-3.33 0-3.7zM967.72 1159.27a1.81 1.81 0 0 1 2.8-.4c4.1 4.9 5.9 10.4 13.1 11.6 7.8 1.3 16.1-2.8 21-8.8 4.3-5.3 6.6-12.1 7.5-18.7 1.1-7.6.1-15.5 1.2-23.1a1.29 1.29 0 0 1 2.3-.3c4 8.7 4.6 20.5 2.9 29.9-1.6 9.1-6.3 17.7-13.8 23.3s-18.1 8-27 3.9c-6.1-2.67-13.4-10.1-10-17.4zM962 1121.07c.6-1.5 3.1-1.5 3.1.4-.1 3.6-.9 7.1-.8 10.7s1.4 7 1.5 10.6c0 .7-1.1 1.3-1.6.7-4.2-5.4-4.68-16.4-2.2-22.4zM926 1036.17c4.2-1 8.9 1.8 12.4 3.7 1.3.7.4 2.6-1 2.3a47.6 47.6 0 0 0-6.4-1.1 14.67 14.67 0 0 1-5.5-1.2 2 2 0 0 1 .5-3.7zM1363 263.07c5.5.2 10.9 2.4 16.4 3.2a79.52 79.52 0 0 0 8.4.8c-.1-.1-.2-.1-.3-.2-2-1.3-2.5-4.7 0-5.9 4.4-2.1 9.5-1.3 14.2-1.4.9 0 1.9-.1 2.8-.1a3.11 3.11 0 0 1 1.5-1.5c7-3.5 16.7-2.7 24.4-4s15.2-3.4 22.8-4.4c3.7-1.9 9.3 5 4 7.5a64.35 64.35 0 0 1-6.1 2.4 2.24 2.24 0 0 1-.1 1.8 4.33 4.33 0 0 0 .5-.1c5.6-1.3 11.2-2.8 16.7-4.6 11.2-3.6 22.1-8.2 33.2-12.1 2.2-.8 3.2 2.3 1.5 3.5-9.9 7.1-21.1 12-32.7 15.7a175.79 175.79 0 0 1-17.6 4.8c-5.5 1.3-11.2 2.6-16.9 1.6-1.7-.3-2.2-2.5-1.3-3.8-2.2.5-4.3.9-6.5 1.3-10.1 3.7-20.1 6.9-31.2 7.9s-27.5.7-35.8-7.9a2.73 2.73 0 0 1 2.1-4.5zM1390.32 132.27c5.4-2.5 12-1.3 17.9-2a35.32 35.32 0 0 0 16.8-6.4c2.1-1.6 3.9 1.6 2.6 3.3-4.2 5.3-9.4 8.3-15.8 10.1s-15.3 3.3-21.5.1c-1.8-1-2-4.1 0-5.1z"/><path class="e" d="M1380.52 140.67c6.7-.8 13.3 0 20-.2a110.44 110.44 0 0 0 40.4-9.5 1.21 1.21 0 0 1 .5-.5c.7-.5 1.4-1 2-1.5a3.55 3.55 0 0 1 .9-.4 2.25 2.25 0 0 1 2.1-.3A87 87 0 0 0 1458 121c2.9-2.2 6.5 2.6 3.9 5-7.8 7.5-16.2 15.1-26.3 19.2-.5.2-1 .4-1.4.6a47 47 0 0 1-14.9 6.4c-4.3 1.1-12.8 2.6-19.9 1.8-8.9.1-18.1-1.3-15.4-7.2 0-.1.1-.1.1-.2a34.26 34.26 0 0 1-4.8-1.9c-1.88-1.13-.58-3.83 1.22-4.03z"/><path fill="#dec06c" d="M1443.22 153.17l-44.7 9-23.3-3.3-7.4-17.7 13.7-17.6 42.7-19.7 25.3-11.7 4-11.3-5.7-12.7-16-18.3-6-14.3 15.7-13.7 28.3-2.3 24.4 9.6 17.6 10.7 9.4 14.7-.7 17.6-2.7 17.4-8.3 14-12.3 13.6-13.7 12.4-14 8-25 16"/><path d="M1577.22 201.87c.3 1-34.3-2.3-34.3-2.3l-105.7 16.3-61.7 13.3-34.3 10 2.3 9 13.5 4.7 20.2 2h27l117.7-20.7 28.7-12 26-5.3 5-9.3-3.3-3.7" fill="#4a606b"/><path class="i" d="M1193 292.07l-1.2 2-17.2.5-12.7-2-7.8-2.7-4.2-5.5-.3-6 4.7-3 5-1.3 6.5 1s6.8 2.5 8.3 4l4.3 4.3 7.8 3.9 6.5 2z"/><path class="e" d="M925.22 467.57l6.7 114 28.6 121.3 82.7-10-.7-32.7-1.3-42.7-7.3-74-16.7-52.6-57.3-47.3zM983 646.77c1.6-2.2 2.9-4.4 4.3-6.7a.31.31 0 0 0 .1-.2c.4-1.1.8-2.2 1.1-3.3.7-2.3 1.1-4.7 1.6-7.1v-.1c.1-1.5.3-3 .4-4.4.7-11.8 9.9-23.2 22.6-22.6 11.6.5 23.4 10 22.6 22.6-1 15.6-4.1 32-13.8 44.7-3.7 4.9-7.4 8.7-13.5 10.4-5.4 1.5-12.6.8-17.4-2.3-9.18-6-15.58-20.9-8-31z"/><path class="j" d="M931.72 889.07c.8 0 0 15 0 15l-11.8 9-9.3-1.8-7-11-4.5-27.8 2.3-11.5 5.3 21.3 1.8 2 4.3 9 6.3 3.3 8-2.5z"/><path class="k" d="M783.52 746.67l-13 7-21.7 23.3-51.3 34-19.3 16.7-13.4 5-4.6-2 1.3-19.7 6.7-19.7 8.6-3 14.4-30.6 21-31.7 71.3 20.7z"/><path class="j" d="M663.72 833.07l-4.7-5.5 2.3-13.6 5.4-13.2 5.7-7.9-8.7 1.4-11.2 12.8-5.8 14.5-1.5 13.2 18.5-1.7z"/><path class="e" d="M838.22 101.27l-4.1-7.2-4.4-23.4 15.1-4 18-9.4-.6-25.3-14-12.7h-25.4l-27.3-14-24-4.6-33.3 10.6-23.4 11.4-20.6 17.3-18.7 10-11.3 26.7 4.6 32.6 25.4 12 46-16 5.3 8 6.5 7 25.5 11.7 60.7-30.7z"/><path d="M808.82 107.27l-9.3-38s14.7 5.3 17.3-16 12.7-12 2.7-21.3-25.3-13.3-44.7-13.3-66.7 9.3-66.7 9.3l43.3-22.7 40.9 3.8 24.5 8.9 25.3 1.3 12.7 2.7 8.7 14.7 2.7 18-10 12h-11.3l-10 .7-5.2 3.3 1.2 11.3 4 17.3-9.3 6z" fill="#e5dfdf"/><path class="k" d="M994.42 411.07l19.2-11.7 38.5-26.1 39.7-43.1 46-40.5 18.7-14.7 22 8.3 23 7.4 15-1.4-3.7-8-8.3-7.6-1.3-13.7 15.3 3.3 5.3 18.7 18.7 8.9 5-4.6-8.2-24.9 10.2.6 11.5-3.7-3.8-7.6-26.7-7-9.3-.4-8.7-2.6-8-3.4-19.5.1-22.8 2.6-41.4 19.3-88.3 44.4-56.7 27 20.7-26.4 15-49.3-3.7-48-19.9-49.8-4.1-2.5-72-14.4-14-1v17l-32 38.4-30 26.6-7.3-4.3 9-22.7-26 10.4-25.7 31.6 1 23 9.7 20.7-10.7 29.3 12 18.4 53.4 27 6.9 5 4.4 6 45.3 20.6 32.7-2.3 15.7-17.3 38.2 44.4z"/><path class="m" d="M984.52 388s43-20 56-37.7 67-67 67-67 33-16 43.3-15.7 27.7 13.7 27.7 13.7l-29.7-4-9.3 10-25.7 24.3-44.8 44-35.5 30.5-21.4 12.6-20 9.6z"/><path class="i" d="M1581.52 210.87l.4 2.8 1.1 7.7-12.5 22.5-28 14-90.5 16-84.5 8-21.5-5.5-12-13-118.5 22.5-11-12.2-3.3-10.9 51.3-6.9 87.5-9.5 17 6.5h66.5l65-13.5 59-15 32-11.5"/><path class="m" d="M814.82 202l-13.3 42.3-5 5 3.3 25.7 1.5 14.2s-1.5 10.2 6.8 20.5 22.3 23.3 22.3 23.3l15.7 11 3.3 10.3-39-22.7-14.7-8.7-8-13.7L773 235.47z"/><path class="e" d="M901.72 194.27l9.3 7.5 2.7 9.8 1.8 14.7-4.5 18.5-10.3 5.5-11.5-4.7-8.7-8-2.8-8.5-1-14.8 4.3-11.7 2.7-6 8.5-2.5 9.5.2zM974.22 187.27l-12.7 4.3-9 17.2 1 17.3 4.2 15.7 7.5 5.3 15 1 12-13.5 3-13.5-1.7-14-3.5-11.3-8-7.5-7.8-1z"/><path d="M905.22 146.67l20.3 4h19.7l34 2.3 26.7 6.3 23 14.7-7.3-13.3-18.3-11.7-5-10.3-17.32-17.3 8.3-14.7-8-27.7-26.3-21.7-29.7-9L886.62 55l-14.3 20-8 15.3 7 13.7L849 98l-26.7 7.7-29.7 10-11 13.3-4 3-14.7-9.7-24.3-2.7-34.3 11-13 11.7-14.8 25.4-10 25 5.3 15.7 6.3 16.3 17 18 22 8.3 22.3 1.7 12-1.7s8.3 24.3 8.3 25.3 7.7 26.7 7.7 26.7l11 9 18.3-14 2-14.7-1.3-19-12.3-9.3 3.3-8.7 2-19 10-13.3 11-9.3 13-7 15.3-6.7-12.7 27.67-2.7 14.7-2.7 9.7 19-27.7 10-5 2.7-5 13.7-10.7 11.3-9.7 6-6.7 7.7-6 8-19.3z" fill="#b35d23"/><path class="k" d="M822.82 459.67l-43.6 1.6-44 17.7-32 28.3-5.7 28.4-4.7 1-13.3-15.4-9 16-9 10-7.7 2.4-5-5.7 3.7-21.7-8.7 1.4-7.3-4.4 6.3-10 26.8-24.3 12.9-21.3 19.7-18 50-32 66.3-30 11.3 23-.3 31.3-6.7 21.7z"/><path d="M826.62 433s-16.1-5.6-49.1 5.4-54 28-60 35-25 33-25 39-1.4 24.7-1.4 24.7l4.8-3.6 7.6-21.1 9-16 10-8 21-13 35.7-14 43.1-.3z" fill="#f7c894"/><path class="m" d="M743.52 734.27l-63.4 57.5-11.6 10.5 47-84 28 16z"/><path class="k" d="M950.12 769.17l-.1 6.6-6 15-13.5 56.5-.5 11 .5 33.5-10 7.5-14.5-8.5-3.5-30.5-3.5-9-20-53.5-2.5-31 73.6 2.4z"/><path d="M677.52 655.27l28.3-24.3 20-23s39.7-41.3 41.3-42.7 32.3-47.7 32.3-47.7l12-23.7 16-43 5-37-9.3-27.3-3.3-2.7 27.7-12.2 16.9 10.9-7.7-25.5s13.3 11.4 28 18.3c11.2 5.3 23.7 6.6 28.7 6.2 11.5-1 46.8-36.5 46.8-36.5l38.5 80 27.4 91.8a110.5 110.5 0 0 0-4.5 27.2 68.39 68.39 0 0 0 3.3 24 66.15 66.15 0 0 0-11.1 20.8 68.22 68.22 0 0 0-5.6 14.4c-9.4 2.6-15.8 12.1-16.4 21.9-.1 1.5-.2 3-.4 4.4v.1c-.6 2.4-1 4.8-1.6 7.1-.3 1.1-.7 2.2-1.1 3.3 0 .1-.1.1-.1.2a76.5 76.5 0 0 1-4.3 6.7c-6.3 8.3-3 19.9 3.6 27-10.9 11.5-14.7 14-17.9 29.5-4.3 10.9 54.3-14.1 53.8-2.5-.1 3.9-3.2 42.6-3.5 47l-47.5 13-45.5 7.3-104.5-11.4-36.3-12-33.7-11-123.3-45.7z" fill="#44b2c2"/><path class="j" d="M831.02 527.27l-26-14-4.4 5.4-6.6-4.9-3-9.5 7.5-8.5 12 7 25.5 10-5 14.5z"/><path class="m" d="M876.52 766.77l5 38.5 19.2 59.4 10.8 29.6s17-13 12-21-17-105-17-105z"/><path class="e" d="M780.52 636.27l31-63 24.5-60.5 6.5-44.5 7-114 11 6.7 12.3 51 21.8 8.8 78.5-.5 2.3-29.5-20-44.2 6.3-6.8 31.9 75.5 31.2 101.6c-2.6 8.8 5.6 17 5.2 26-.3 8.4 6.5 23.4 9 31-4.9 6.2-4.1 110.1 2.5 117.3-7.6 8-68 .2-71.7 10.5l-116.3-5.8-94-26.5z"/><path class="q" d="M990.72 203.07l-8.3-3.8-8.5.8-4.5 4-4.8 7.8-4.8 8.8-2.8 10.2 3.5 8.3a32.81 32.81 0 0 0 2.3 5.5c1 1.5 1 3 2.3 2.5s13-2.3 13-2.3a76.89 76.89 0 0 0 9.5-17.7c3.2-9.2 3.3-9.3 3.3-9.3l1.8-4.3z"/><path d="M868.82 576.17c2.6 21.4 9.6 46.5 26 61.6 9 8.3 19.8 10.7 31.8 9.3 11.1-1.3 22.9-3.2 33-8.1 20.9-10.1 26.2-35 30.6-55.6 5.5-25.9 7.7-53.3.6-79.1a2.92 2.92 0 0 0-4.2-1.8c-2.3-.8-4.8.2-7.5.6-5.4.8-10.9 1.2-16.3 1.5a171.47 171.47 0 0 1-30.4-1.1 117 117 0 0 1-29.1-7.2c-4.6-1.8-9-4.2-13.6-6.1-4-1.7-8-2.4-12.1-3.5a3 3 0 0 0-3 .7 8.65 8.65 0 0 0-2.6.8c-4.4 1.9-2.2 7.9 1.7 8.7-.1 1.1-.3 2.2-.5 3.3-.2 1.4-.5 2.8-.7 4.2-.6 3.7-1.2 7.3-1.7 11-.9 6.6-1.7 13.3-2.2 19.9a192.73 192.73 0 0 0 .2 40.9zm7.6-35.5a332.55 332.55 0 0 1 4.7-34.5c.7-3.9 2-8.1 1.2-12a70.61 70.61 0 0 1 9.7 4.1c4.2 2 8.5 4 12.9 5.6a122.28 122.28 0 0 0 27.4 6.2 182.9 182.9 0 0 0 31.4 1.1c5.1-.3 10.1-.8 15.2-1.5 2.1-.3 4.7-.3 6.8-1.1 6.4 28.1 1 56.8-6 84.3-2.5 9.7-5.4 19.5-11.3 27.7-7 9.9-17.7 13.7-29.1 15.9s-24 5.1-34.4-1.9c-8.9-5.9-14.5-15.7-18.8-25.2-9.7-21.37-11.4-45.7-9.7-68.7z"/><path class="q" d="M913.72 211.57l-12-3.5-12.8 4.8-7.3 7-.8 10 1.5 8.3 3 5 6.3-2.3s6.3-3.8 7.5-6 9.3-12.7 9.3-12.7l5.5-3.3-1.5-6.5"/><path d="M951.82 235.77c1.2 3 4.5 7.8 8.2 10 6 4.7 15.4 7.9 22.6 4.6 6.7-3.1 11.7-12.8 13-19.7.9-5 .3-10.3-.6-15.2a88.77 88.77 0 0 0-3.5-14.6c-1.7-4.7-6.2-10.7-11.4-13-4.1-4.3-12.1-3.1-16.8-.4-7.4 4.4-9.6 12.2-11.4 20.1-2.1 8.9-3.7 19.5-.1 28.2zm14.6 9.6v-.2a1.86 1.86 0 0 0-.6-2 23.83 23.83 0 0 1 5.1-20.1c3.6-3.9 16.1-10.7 19.8-3.6.1.1.1.2.2.3v4.4c-.1 7.2-1.5 15.1-7.4 20-4.2 3.5-9.1 5-14.3 2.8-.8-.5-1.8-1.1-2.8-1.6zm-2.9-30.1c4-7.5 16.4-19.8 24.1-10.1a1.75 1.75 0 0 0 1.4.7 26.46 26.46 0 0 1 1.7 7.5 14.86 14.86 0 0 0-5.5-1.8c-5.1-.7-9.9 1.2-13.8 4.4-6.3 5.4-11.8 18.1-8.3 26.7a5.07 5.07 0 0 1-1.3-.2c-.1-.1-.2-.1-.3-.2a1.23 1.23 0 0 0 .2-1.3c-3.8-8.1-2.3-18.1 1.8-25.7zm-9-4.9A26.33 26.33 0 0 1 963 193c5.4-4.8 10.4-3.6 16.5-1.8a19.47 19.47 0 0 1 2.6 2.4 34.32 34.32 0 0 1 3.7 5.4 23.67 23.67 0 0 0-8.8 0c-7.6 1.1-12.1 5.3-15.3 12.1-1.4 3.1-6.1 14.4-6.4 22.6-2.08-7.83-1.18-18.53-.78-23.33zM875.62 222.37c0 6.5 1.3 13.1 5.5 18.2l.3.3c1.3 3.6 3.7 6.3 7.9 8.6 2.4 1.3 6.6 3.2 10 2.9 3.8 1.9 9.5-2.1 12.1-4.7 4.6-4.7 6.6-11.1 7.1-17.5A57.61 57.61 0 0 0 916 208c-1.4-4.2-3.8-10.9-8.4-12.7-9.4-7.2-23.2-5.4-28.7 6.4-2.98 6.47-3.28 13.57-3.28 20.67zm15.9 22.2c-.1-.1-.3-.2-.4-.3.5-2-.2-4.3-.1-6.4a20.09 20.09 0 0 1 3-9.8c4-6.4 11.4-9.7 18.2-6a2.26 2.26 0 0 0 1.6.2v2.8c0 5.7-.7 12-4.2 16.7a13.94 13.94 0 0 1-6.9 5 17.38 17.38 0 0 0-3.2 1 9.06 9.06 0 0 1-3.8-.7 17.94 17.94 0 0 1-4.2-2.5zm-8-21.5c1.1-4.2 4.6-7 8.3-8.9 7.2-3.7 14.5-4.8 21.3-.3l.3 2.4c-5.5-4.5-16.6.9-20.6 5.6a24.51 24.51 0 0 0-5.5 12.9 27.58 27.58 0 0 0-.2 5.9 30.3 30.3 0 0 1-3.2-4.1c-.2-4.4-1.5-9.2-.4-13.5zm-4.4.2a62.32 62.32 0 0 1 3.2-14.7c1.7-5.2 4.5-9.1 9.6-11.4 4.4-2 9.2-1.5 13.6.3 1.4 3.7 4.7 7 6.2 10.9-5.3-3.5-15.1-1.7-20 1.1-9 5-13.5 14.6-11.1 24.2-.1.1-.1.2-.2.4a25.94 25.94 0 0 1-1.3-10.8zM944.62 272.27c6.9-3.6 11-9.7 8.7-17.8-1.6-5.6-6.2-9.7-7.7-15.1a1.1 1.1 0 0 1 1.1-1.4c7.5.7 12 13.5 12.3 20 .2 4.6-1.4 7.9-4.4 11.2-2.6 2.9-4.8 6.6-9.1 6.5-1.7-.2-2.52-2.6-.9-3.4zM905.92 281.37a2.65 2.65 0 0 1 5.1 1.4c-1.1 5-.6 9.1 2.3 13.3 1.2 1.7 2.6 3.3 4.8 3.7 1.8.3 3.4-.5 5.2-.4a2.25 2.25 0 0 1 1.9 3.4c-3.2 5.8-11.9 3.2-15.3-.9-5-6-6.5-13.1-4-20.5z"/><path class="r" d="M895.82 161.67l-12.7 14.7-36 11.7-26 7.3-26.3 27-6.3 24 2 9.3 7 17.3-2.3 19.7-10.7 11 1-25 3-53.7-7 81.7-5.3 3.3-5.7-15s-7.7-34.3-7.7-35.3 9-46.3 9-46.3l36-35 39.7-11.7 15.3.3 25-5.3 7-7 2.3 7.3M953.52 104c0-1-18.3-35-18.3-35l-19.7-18.7-31.3 6.3s0 8.3 1 8.3 25.3 8.3 25.3 8.3l16 14 3 11.3zM900.82 97.27l-13.3-12-20.3-8.3.3 19.7 9 2 24.3-1.4zM914.52 140.67h-6.7l-5.3-7.4 10.7-8.6 46.3-5.7 36.7 16 5.3 11.7-27-7-17-1-26.3-.4-16.7 2.4z"/><path class="r" d="M896.52 121.67l-3.3 19.3-25.7-15.3-42 3.3-36.3 21.7-24.4 31.3-9 37.3.4 40.7-7-55 23-68 22.3-20.7 46.3-16 29 3.7 26.7 17.7zM759.82 156.97l-21-6.7-12.6 5.4-2.4-10.4 2.4-14.6 19.6 1.6 21.7 11.7-7.7 14.3M750.52 176.67l-4.7 30.6-7-2.6-12.6-15-1-10.7 10.6-5.7 14.7 3.4zM749.82 250l-13 2-26-3.7-19.3-10.3-16.3-25.3s-7.3-19-7-20 3.3-22.7 3.3-22.7l11.7-13.3 5.3 27.7 3.3 10 3.3 9 13 17 6.7 7.3 16.7 10.7 8.7 1.3 9-2.3z"/><path d="M1232.42 282.27a58.51 58.51 0 0 0 9.7 5.1c.7.4 2.6-1.6 3.2-2.4a19.56 19.56 0 0 0-1.1-3.3 6.65 6.65 0 0 0 3.7-.7c.6 1.9 1.1 3.9 1.5 5.8.1.8-2.8 4.5-4.4 5-.2.1-.8.3-1.4.5-1.7.1-3.5.3-5.2.5-5.6-.9-10.7-4.6-14.5-8.8 2.8-.1 5.5-1.3 8.5-1.7z"/><path d="M625.42 689.07a3 3 0 0 0 1.1 1.7c5.8 4.2 13.5 6.2 20.2 9s13.1 5.5 19.8 8.1c13.8 5.6 27.6 11.2 41.6 16.5 1.4.5 2.8 1 4.1 1.6-4.3 3.4-7.5 8.9-10.5 13.3-3.6 5.4-6.9 10.9-10.1 16.5-3.5 6.2-7 12.4-10.2 18.8-1.9 3.7-4.9 8.2-6.3 12.5-10-3.3-16.6 10.2-21 17-3.4 5.3-6.4 10.5-8.3 16.5-.8 2.8-2.7 9-1.8 12.7a3 3 0 0 0 .9 5.8c12.8.8 26.5-4.3 36.9-11.4a99.66 99.66 0 0 0 14.5-12.2 10.8 10.8 0 0 1 1.8-1.3c2.3 0 28.5-16.2 39.2-24.9a162 162 0 0 0 17.6-16.5c2.7-2.9 5.2-5.9 7.6-9a26.12 26.12 0 0 0 4.1-6.1h.1c4.8-1.1 9.6-3.9 13.8-6.5a2.7 2.7 0 0 0 1.1-1.5 568.9 568.9 0 0 0 73.9 17c6.5 1 13.1 1.9 19.7 2.6a166.6 166.6 0 0 0 5.7 44.9c4.1 14.9 9.8 30.5 18.5 43.3a1.44 1.44 0 0 0-.9 1.2c-.9 14.2-1.1 30.3 4.2 43.8 2.2 5.7 10.5 16.4 16.6 12a2.06 2.06 0 0 0 2 .6c10.5-3.1 14.9-14.9 14.8-24.9a110.58 110.58 0 0 0-2.5-19.8c-.9-4.4-1.4-10.4-3.5-14.9a1.35 1.35 0 0 0 1.3-1c3.4-11.4 5.8-23.1 8.3-34.7 1.3-5.9 2.6-11.8 3.7-17.8.7-4 2.9-9.4.9-13.1a.71.71 0 0 0-1.1-.1c-3.3 3-3.3 9.8-4.2 14-1.2 5.6-2.3 11.2-3.5 16.9-2.4 11.2-4.6 22.4-6.7 33.6a8.74 8.74 0 0 0-.8-1 .88.88 0 0 0-1.5.4 12.75 12.75 0 0 0 0 3.9c-.3 2.5.2 5 .5 7.6.4 3.8.7 7.6 1.1 11.4.6 6.6 1.6 16.9-5.8 20.4-4.8 2.2-9.6-1.6-11.8-5.5-2-3.6-2.7-7.9-3.4-11.9a136.46 136.46 0 0 1-2-24.7c0-2.1-2.3-2.7-3.7-1.9-6.3-12.7-12.2-25.3-16.1-39.1a191.86 191.86 0 0 1-7-43.3 321.09 321.09 0 0 0 69.3-.2c-.1 6.5.9 13.3-5.5 17.1a1.15 1.15 0 0 0 .9 2.1c8.3-2 7.4-12.3 7.1-19.5 3.5-.4 6.9-1 10.4-1.6-.5-2.4-.9-4.8-1.2-7.3a312.28 312.28 0 0 1-42.1 3.9c-49.7 1.1-98.7-10-145.9-24.8-23.8-7.5-47.3-15.9-70.6-24.5-12.2-4.5-24.2-9.1-36.2-14-6.4-2.6-12.7-5.3-19-8-4.3-1.8-8.4-4.2-12.8-5.8 14.2-6.8 25.7-17.4 37.6-27.7 47.1-41 100.1-80.8 127-139.2a5.55 5.55 0 0 0 3.3-1.5 2.51 2.51 0 0 0-1.1-4.2c-.5-.1-1-.2-1.4-.3a2.47 2.47 0 0 0-1.8-.6 3.59 3.59 0 0 1-1.8-2.6 11.81 11.81 0 0 1 .4-6.7c1-3.2 4.2-6.9 7.4-5.6a2.89 2.89 0 0 0 .4 1.4 2.76 2.76 0 0 0 1.3 1.1 2.68 2.68 0 0 0 .6 3c4.1 3.9 9.6 6.3 15 7.9 3.5 1 7.6 2.1 11.4 2.1l-2.7 8.4c-4.2-2-8.6-3.4-12.6-6-1.4-.9-13.5-9.1-11.6-10.6.6-.5 1-1.4.3-2-2.1-1.7-4.8-1.3-6 1.4-1.4 3.4 1.5 6.2 3.9 8.1 6.4 5 15.7 12.6 24.5 13.3-3.3 9.3-7.1 18.5-11 27.7-16.4 38.6-32.9 77.4-57.8 111.5a2.58 2.58 0 0 0-.2 3.2c-1.4 2.1-1.1 5.6 2.1 6.6 35.8 12 73.4 20 110.8 25.1q27.75 3.75 55.8 4.8c9.5.4 18.9.5 28.4.4 4.3 0 8.9.1 13.4 0 .7-2.4 1.6-4.8 2.5-7.1-5.3-.1-10.7.3-15.9.2-9.5-.1-19-.4-28.4-.9q-27.9-1.5-55.6-5.3c-36.3-4.9-71.4-13.5-106.2-24.4 13.9-19.3 25-40.3 34.9-61.9 8.9-19.4 17.2-39.1 25.1-58.9 8.4-20.9 15.2-42.2 18.8-64.4 6.6-40.7 6-82.2 9.4-123.2a3.55 3.55 0 0 1 .9.4 3.59 3.59 0 0 0 2.7 0c.1 9 2.5 18.6 4.8 26.5a140.69 140.69 0 0 0 6.2 16.8 98.69 98.69 0 0 0 5.6 11.3c-.1 1.2 2.2 3.2 2.6 3.4.2.3 9.7 2.7 12.8 3.4 4.7 1 9.4 1.9 14.2 2.6a150.9 150.9 0 0 0 27.7 1.4c9.9-.4 20-.7 29.8-1.9 5.2-.7 15.8-.4 17.3-7a2.47 2.47 0 0 0-1-2.4c.4-2.6 0-5.6 0-7.9a121.38 121.38 0 0 0-1.1-15.9c-1.7-12-11.6-32.3-16.2-43.5 0-.1-.1-.2-.1-.3.9-.5 1.8-1 2.6-1.5 0 .1.1.2.1.4 5.8 15.7 15.6 37.9 21.9 53.4 3 7.3 5.9 14.7 8.6 22.1a2.08 2.08 0 0 0 .5 1.2c2.8 7.4 5.4 14.7 8 22.2q13.2 38.25 22.6 77.6a96.28 96.28 0 0 1 4-12.9c-5.9-22.8-12.6-45.3-20.3-67.5-2.2-6.4-10.2-24.9-12.5-31.2l29.6-13c46-35.6 82.8-88.3 132.5-119.5a1.45 1.45 0 0 0 .7.2c2.5.4 5 .2 7.4 1a37.08 37.08 0 0 1 8.1 4.3 72.31 72.31 0 0 0 12.5 6.9c8.6 3.5 19.6 5.3 28.6 2.6a3.22 3.22 0 0 0 2.5-2.9c2.1-1.9 1.9-6.2.4-8.9a16.09 16.09 0 0 1-3.5-3.4c-2.1-1.3-4.4-2.2-6.3-3.8-2.2-2-3.8-4.4-3.7-7.5.1-2.5.6-2.3.3-3.7 2.4-.7 5.5 1.1 7.8 3a2.18 2.18 0 0 1 .5-.8 6.67 6.67 0 0 1 5.3-3.2 26.22 26.22 0 0 0-2.5-2.2c-3.8-2.9-9.7-5.1-14-2.1-2.7 1.9-4.3 6.1-1.1 8.2a.75.75 0 0 0 .8.1 12 12 0 0 0 1.6 7.7 28 28 0 0 0 5.4 6c2.5 2.3 5.2 3.8 4.5 7-10.9 1.8-21 1.9-30.7-4.6-5.6-3.8-13.9-11-21.3-8.9a2.51 2.51 0 0 0-3.5-.9c-14.3 7.7-26.9 18.2-38.2 29.8-20.3 20.9-42.8 41.4-61.9 63.4-9.6 11-18.8 14.4-30.5 23.1-5.6 4.2-28.4 11.8-33.5 13.7-2.8-7.3.3.7-2.7-6.5-6.2-15.1-16.5-37.9-24.9-52a75.81 75.81 0 0 0 7.2-5.2 3.18 3.18 0 0 0 1.3-.2c20.1-8 38.4-19.9 57.6-29.8 34.5-17.7 68.7-36 103.3-53.4 15.8-7.9 33.1-16.7 51-17.8 7.5-.5 16.2-.3 23.3 1.9a43.75 43.75 0 0 1 8.6 3.7 9.13 9.13 0 0 0 1.3.8 60.36 60.36 0 0 1 10.9 8.7c.3.3 2.6 3.6 4.9 7.3 1.2-.2 2.4-.3 3.6-.5-3.5-4.6-11.5-15-11.5-15.3 0-.1 15.8 4.2 21.5 5.7a31.94 31.94 0 0 1 8.4 3.3 12.94 12.94 0 0 1 4.2 4.2c1.1-.2 2.2-.3 3.4-.6-1.2-4.2-6-7.1-9.8-8.7-8.5-3.6-18.2-5.4-27.3-6.7-.4-.1-13.5-2.5-16.2-3.2a74.39 74.39 0 0 0-25.3-2.4c-17.8 1.1-34.1 6.3-50.2 13.8-18.1 8.5-35.9 17.3-53.6 26.6-18.4 9.6-36.9 18.9-55.2 28.4-14.2 7.4-29.1 13.7-43.2 21.5a58.23 58.23 0 0 1 4-5.5c2.8-3.1 4.9-6.8 7.3-10.3 2.8-4.1 6-7.7 8.4-12 8.1-15 11.8-32.1 12.6-49.1s-1.3-34.6-4.9-51.3c-3.2-14.6-8.6-32.5-22.1-40.6a1.69 1.69 0 0 0-2.3 2.3c3.7 6.1 7.9 12 10.9 18.5a96.81 96.81 0 0 1 6.8 21.6 199.54 199.54 0 0 1 4.5 46.9c-.4 16.1-3.1 32.3-10.4 46.8-3.9 7.7-7.8 15.5-13.2 22.3-2.6 3.3-12.3 15-12.8 15.5a76.51 76.51 0 0 1-11.4 9 123.37 123.37 0 0 1-12.9 7c-3.7 1.7-8.9 2.9-11.6 6a.72.72 0 0 0 .3 1.2c4.5 1.1 9.8-1.5 13.9-3.1 2.2-.9 4.3-1.8 6.4-2.8l.3.6c5 9.8 11.5 30.5 13.2 41.4a123.39 123.39 0 0 1 1.5 17.1c0 2.5-.7 5.8-.1 8.5-2.9.7-6.6.7-9 .9-3.8.4-7.7.7-11.5.9-8.3.5-16.7.9-25 1a130 130 0 0 1-25.7-2.2c-7-1.3-14.4-4.1-21.6-4.6-1.8-3.4-3.9-6.8-5.5-10.3a121.52 121.52 0 0 1-6-16.2 119.82 119.82 0 0 1-3.7-16.8c-.9-5.6-6.1-16-6.1-15.5a9.29 9.29 0 0 0-1-.5c-.8-.2-1.5-.5-2.3-.7 0-.3-28.7-11.5-39-18.5-9.5-6.5-16.8-15.2-24.7-23.4a52.28 52.28 0 0 0 5.9-8.6c2.3-3.9 4.8-8 5.6-12.5a24.92 24.92 0 0 0-.4-9 12.48 12.48 0 0 0 6.5 2.5c2.1.1 2.8-2.5 1.6-3.9-2.4-2.8-5.5-4.7-7.8-7.7a41.07 41.07 0 0 1-5-8.6c-1.3-3.4-1.9-7.8.8-10.7 4.1-4.4 10.6 1 5.8 4.8-1.4 1.1-.7 3.3.5 4.2 2.6 1.8 5.8.7 7.7-1.6 2.3-2.9 1.9-7 .1-10-4-6.6-12.9-8.8-18.5-2.9a12.73 12.73 0 0 0-2.8 4.3v-1.1a4.57 4.57 0 0 0 .5-1.4c1.4-7.9 2.8-16 6.7-23.1a57.19 57.19 0 0 1 13.8-16.4c7.6-6.3 16.6-9.8 25.9-12.8-5.5 7.3-9.1 16.9-11.4 25-2 6.7-3.3 13.7-4.7 20.6-.5 2.6-1.2 5.1-1.5 7.8a35.43 35.43 0 0 0-.1 6.5 147.83 147.83 0 0 0-2.3 34.6c.8 15.9 4 33.4 13.1 46.6 1.2 1.8 4.7.7 3.8-1.6-6.1-15.4-12.9-30-14.3-46.7-1.4-17 2.1-35.2 9-50.7 3.1-7 7.2-13.9 12.6-19.3 5.7-5.6 13-9.4 19.2-14.3 9.3-7.3 19.9-16 27.1-26.2a24.82 24.82 0 0 0 6.5-5.2c6.2-7.2 10.5-20.8 4.2-29.2-1-1.2-3.2-1.3-3.9 0-3.1-.3-6.2-1.8-9-2.9-3.8-1.5-7.5-3.1-11.3-4.7-6.2-2.6-12.6-4.4-18.8-6.9a32.55 32.55 0 0 0-4.4-1.5c5 .1 10 .5 14.9 1 9.2.9 20 2.4 25.2 11.1a.93.93 0 0 0 1.7-.7c-4.1-17.1-28-16.6-41.8-16.9-33.6-.9-62.6 21.5-82.5 46.8-9.4 12-13.5 28.6-14.4 43.6-.3 4.3-.2 8.7-.4 13-.1 1.6-.3 3.2-.5 4.8a192.89 192.89 0 0 1-1.9-21.5 94.11 94.11 0 0 1 11.3-46.5c3.6-6.6 7.7-12.9 11.9-19.1s8.2-12.6 13.4-17.8c10.6-10.6 26.2-15.7 40.6-18.7 15.4-3.3 33.6-5 47.5 3.9a1.43 1.43 0 0 0 2-.4 65.45 65.45 0 0 1 9.2 6.3c3.9 3 8 7.5 13 8.2a1 1 0 0 0 1-1.3c-2.2-5.5-9.7-9.5-14.2-13.1-4.2-3.4-8.5-7.2-14.1-7.5a1.77 1.77 0 0 0 .8-.5c4.2-3.5 11.3-1.9 16.3-1.8 5.2.2 10.3.3 15.5.7 10.9.9 21.7 1.9 32.4 4.5a114.76 114.76 0 0 1 26.7 10.1c2.3 1.2 4.4 2.6 6.6 4-9.6-2.4-20-2.6-29.8-2.5-11.8.1-25.7.5-35.6 7.9-3.7 2.8-6.1 6.9-5 11.6.8 3.6 3.2 7 7.2 7 2.7 0 3.1-3.2 1.3-4.7-8.5-6.4 14.4-13.1 18.3-13.8 9.4-1.8 19.2-1.5 28.7-.7a69.2 69.2 0 0 1 26.6 7.4 74.83 74.83 0 0 1 10.8 7.6c2.8 2.2 5.7 3.9 8.6 5.9q-5.85-2.55-11.7-4.5c-12.1-4-24.8-7.7-37.5-8.8s-25.3 1.5-37.5 5.4c-4.4 1.4-2.4 8.5 1.9 6.9 21.6-7.9 46.3-5.6 67.9 1.5 10.4 3.4 20.8 7.1 30 13.3a54.19 54.19 0 0 1 11.3 10.1 28.62 28.62 0 0 1 2.2 3 81.38 81.38 0 0 0-15-11.2c-14.9-8.8-30.8-10.6-47.6-12.2-9.9-.9-19.7-2-29.6-3.2-3.9-.5-7.8-.8-11.7-1s-7.2-.8-10.2 1.7a1.87 1.87 0 0 0 0 2.6c2.7 2.2 6 2.1 9.3 2.6 3.9.6 7.7 1.6 11.6 2.1 8.2 1 16.7.6 24.9.4 15.6-.4 33.2 1.2 47.1 9 6.9 3.9 13.1 9.4 18.6 15.1 5.8 5.9 8.9 12.8 11.2 20.7 4.7 16.3 4.6 32.7 5.5 49.5.1 2.2 3.6 2.9 4.1.6 3.3-16.9 1.6-35.4-3.3-51.8a58.21 58.21 0 0 0-8.1-17.5c-1.1-9.1-8-17.8-14.6-23.4a75.47 75.47 0 0 0-16.6-10.2 1.55 1.55 0 0 0 .9-2.1c-1.4-2.9-1.9-5.1-4.1-7.5a40.35 40.35 0 0 0-6.6-5.8 71.84 71.84 0 0 0-8-5 6.47 6.47 0 0 0-1.1-2.9c8.9-11.1 5.8-28.5.2-40.5-13.3-28.2-49.7-39.7-78.8-36.3-14.6 1.7-29.2 7.9-38.1 20-8 10.7-9.2 25-.8 35.6a54.88 54.88 0 0 0-11.9-3.1c-10-1.3-19.4 1-29.2 2.9-15.6 3-31.4 7.4-42.9 19.1a60.23 60.23 0 0 0-5.6 6.7c-6.4-6.1-15.3-8.4-23.9-9.5-9.8-1.3-22-2.1-31.6.9a62.56 62.56 0 0 0-12.9 6 2.62 2.62 0 0 0-3.1 1.9c-3.4 2.2-6.7 4.5-9.9 6.6-7.5 5.2-13.1 10.4-17.1 18.7-5.5 8.8-10.6 18.1-13.2 27.3-2.3 8.2-.9 18.7.9 26.9 2 8.6 7.6 16.4 12.6 23.5a48 48 0 0 0 18.8 16.4 79.05 79.05 0 0 0 51.1 6.2c.1.4.2.9.3 1.3.8 3.8 1.3 7.8 3.3 11.2a2.34 2.34 0 0 0 .7.7c.4 2.5 1.1 4.9 1.5 6.9 1.3 5.8 3 11.5 4.8 17.2 2.2 6.9 5.6 17.8 13.1 20.9v.2a3 3 0 0 0 1.8 2.6 2.92 2.92 0 0 0 2.3 1.6 12.59 12.59 0 0 0 5.9-.5c6 10.2 16.2 17.8 25.7 24.3a149.27 149.27 0 0 0 21.5 12.6c5.3 2.4 10.7 4.7 16.1 6.9-.5 4.5-.8 8.9-1.1 13.4a1.7 1.7 0 0 0-.7.1c-8.7 3.3-60.2 23.5-74.5 30-21 9.5-41.4 20.1-59.7 34.3-9.3 7.2-18.8 15.1-26.5 24-6.3 7.3-11.3 15.7-16 24.2a1.84 1.84 0 0 0-1.9 0c-6.6 4.2-12.4 11.2-17.8 16.8-3 3.1-5.9 6.3-8.7 9.5-1.8 2.1-4.2 4.4-5.3 7.1-1.6 4 0 8.4 4.5 9 2.7.4 8.5 0 12-1.8-.8 3.1-1.4 6.2-2.1 9.3-.7 3.4-2.2 7.5-1.5 11.1 1.5 7.9 10 6.2 14.6 2.2 7.1-6.3 12-15.5 16.3-23.9 2.6 5.7 6.3 10.7 12 13.7 5.2 2.9 8-.4 9-5.6 1.6-8.4 3.8-15.7 8.4-23a79.17 79.17 0 0 1 17-18.6c27-21.9 62.8-28.5 96.7-28.8a21.9 21.9 0 0 1-1.2 3.3c-4.1 10.1-8.8 20.1-13.5 29.9a3 3 0 0 0-.3 1.6 9.42 9.42 0 0 0-9.4-2.9c-4.6 1-7.5 4.8-9.1 9.1-1.7 4.7-2.3 11 1.3 15a14.54 14.54 0 0 0 2.3 1.9c-7.8 13.8-15.9 27.1-25.7 39.7-19.2 24.7-42.8 44.9-66.4 65.1-12.6 10.8-25.2 21.5-37.8 32.3-11.6 9.9-23.1 20.7-37.3 26.8-2.5 1.1-1.6 5.1.6 6.3zm333.4-583.7c-2-5.8-5.3-11.1-8.4-16.4a194.33 194.33 0 0 0-11.3-17.1c-4.7-6.3-10.8-13.6-18.1-17.6a77.56 77.56 0 0 1 12.6 1.6c15.3 3 32.1 9 41.7 21.9 7.9 10.6 13.9 29.4 5.6 41.3-.8-.7-1.7-1.4-2.3-2a66.14 66.14 0 0 0-13-8.5 59 59 0 0 0-6.8-3.2zm-26.6-7.7c-2.4-8.5-11.4-16.5-17.8-21.4-8.6-6.5-18.4-11.8-28.9-14.3.3-.2.7-.4 1-.6a59 59 0 0 1 22.2-6.8 2.21 2.21 0 0 0 1.1 1.4c5.5 2.6 10.6 4.7 15.3 8.6a88.72 88.72 0 0 1 22.2 28.1c1.5 3.2 2.7 6.5 3.9 9.8a124 124 0 0 0-15.9-4.2c-.9-.2-2-.4-3.1-.6zM883 63.57a1.37 1.37 0 0 0 1.1 1.4c10.4 2.3 20.2 6.5 28.2 13.6a72.53 72.53 0 0 1 10.4 11.7c1.5 2 2.8 4.4 4.2 6.6-7.4-1.1-14.8-1.7-22.3-2.1-.7-.9-1.5-1.7-2.2-2.6a58.42 58.42 0 0 0-8.6-7.9c-5.3-3.9-14-9.2-20.8-7.7a2 2 0 0 0-.5 3.6c3 1.8 6.7 2.2 9.9 3.7a50.76 50.76 0 0 1 8.9 5.5c1.9 1.5 3.7 3.2 5.5 4.9-8.3-.5-19-2-25.8 3-5.78-12.5 1.22-26.2 12-33.7zm-184.4 150.2c5.9 8.9 13.2 16.8 22.4 22.4 7.6 4.6 18.6 8.3 27.1 4.1.4 2.4.8 4.8 1.3 7.2-17.5 5.2-38.6 2.6-53.2-8.8-12.1-9.4-21.7-25-23.4-40.2-.5-4.1-1.1-8.4-.6-12.5.5-4.3 2.3-8.2 4.1-12 2.1-4.4 4-9 6.1-13.5a111.07 111.07 0 0 0 2.6 22.1c2.42 11.6 7.12 21.2 13.62 31.2zm46.2-8.8c-10.8-2-15.9-13.2-18.3-24.1 4.7-.9 9.2-4.1 14.1-3.6 2.8.3 5.5 1.4 8.1 1.8a93.88 93.88 0 0 0-3.88 25.93zm-32.6-10c2.9 9.5 6.3 18.4 12.6 26.2 5.4 6.7 13.1 13.2 22.1 11.8.2 1.1.3 2.2.5 3.4-10 .5-18-1.4-26.5-7s-14.7-13.5-20-22.2-9.9-17.6-11.5-27.8a178.76 178.76 0 0 1-1.7-29.3c4.2-6.2 10.5-10.3 16.7-14.2-.4 8.9 1.1 17.9 2.1 26.8 1.22 10.9 2.62 21.7 5.72 32.33zm10.5-69.3c-3.1 7.1-3.6 16.3-4.1 23.7-.6 8.9-.3 18.5 2.2 27.1 2.3 8.3 4.9 18.2 10.2 25 3.1 4.1 8.5 7.7 13.8 7.2 0 1.3.1 2.5.1 3.8a151.26 151.26 0 0 0 1.4 15.1c-18.1.8-27.4-26.3-29.9-40.3-1.8-9.7-2.5-19.7-3.5-29.5-.8-8.6-2.2-17.7-1.4-26.4a59 59 0 0 1 11.22-5.7zm25 5.8c-5.6-1.7-13-3.2-19.4-2.5a22.11 22.11 0 0 1 1.8-3.4 3 3 0 0 0 .5-1.5c13.8-1.3 32.4-1.6 43 8.5-1.8 2.7-3.6 5.4-5.3 8.1-.2.2-.3.5-.5.7-4.48-5.3-13.88-8-20.08-9.9zm12.4 22.1c-4.4-3.1-12.1-3.9-16.4-4.3-5.9-.6-13.8-2-19 1.5.1-1 .2-2.1.3-3.1a110.09 110.09 0 0 1 1.7-13.3c2.6 0 5.1-.3 7.7-.2a64.6 64.6 0 0 1 12.3 1.5 49.79 49.79 0 0 1 11.8 4c2.7 1.2 5.2 3.1 7.9 4-2.18 3.1-4.28 6.5-6.28 9.9zm-9.2 18.7a27 27 0 0 0-13.2-1.5 25.15 25.15 0 0 0-12.1 6c-.4-2.7-.8-5.3-1-7.7a98.46 98.46 0 0 1-.3-13.3 2.53 2.53 0 0 0 1.9-.1c5.1-2.5 11.1-1.7 16.6-1.3a45.85 45.85 0 0 1 9.6 1.6 40.73 40.73 0 0 1 5.4 1.7c-1 1.8-1.9 3.6-2.8 5.4a83.35 83.35 0 0 0-4.08 9.2zm143.3-21.4a1.94 1.94 0 0 0-1.7 1.3c0 .1 0 .1-.1.2a1.62 1.62 0 0 0 .7 1.9c-5.5 6.4-16.6 8.5-24.3 9.2-8.7.7-17.3 1.5-25.9 2.9-14.7 2.4-29.5 6-42.4 13.7s-21.8 18.8-29.8 31.3c-8.3 12.9-10.8 29-10.8 44.2 0 1.3.1 2.5.2 3.8-1.6-9.5-1.4-19.7-1.4-29.3 0-8.9 1.7-18.1 3.1-26.9 3.1-19.4 12.6-34.2 26.6-47.6a113.45 113.45 0 0 1 21.6-16.1c3.4-2 6.9-3.9 10.5-5.6a3.08 3.08 0 0 0 1 .1c3.2-.2 6-1.5 9.1-2.1a43.53 43.53 0 0 1 11.4-.2 63.23 63.23 0 0 1 21.5 5.1c6.2 2.8 12.6 5.3 18.9 7.9 3.9 1.6 8 3.6 12 3 .1 1.1.2 2.3.3 3.4-.38-.2-.38-.2-.48-.2zm-51.2 42.9l11.1-3.3c7-2.3 14-4.7 21-7.3-1.1 1.1-2.2 2.2-3.4 3.3a176.19 176.19 0 0 1-21.1 16.5c-6.6 4.4-13 8.8-17.9 15.1a50.77 50.77 0 0 0-6.6 12.1c.6-2.4 1.3-4.7 2.1-7a116.71 116.71 0 0 1 7.3-17.6c2.12-4.1 5.02-7.8 7.5-11.8zm-60.4 52.1a4.3 4.3 0 0 0 .5 2.8c-.2 2.5-.3 5-.4 7.5-.2 5.5-.4 11-.7 16.6-.2 5.9-.5 11.7-.7 17.6-.2 5 .9 11.8-1.9 16.1a1.69 1.69 0 0 0-.2.5c-2.7-2.4-5.2-4.3-7.1-7.4.6-8.5-3.1-17.1-5-25.3-2.1-9.4-1.6-18.3 0-27.8 1.3-7.9 2.3-16.3 5.9-23.6 3.3-6.6 7.8-12.9 12.2-18.8 9-11.7 21-19.3 34.2-25.3 14.5-6.6 30.5-8.9 46.1-11.2 9.4-1.4 22.2-.3 28.2-7.8a17.23 17.23 0 0 1-.7 2.1c-2.6 6.7-7.8 10.6-14.3 13-14.5 5.4-29.5 9-44.3 13.4-13.6 4-26.1 10-35.9 20.6s-13.78 22.7-15.88 37zm3.1 56.6a56.68 56.68 0 0 0 .6-7.2c.3-6.5.3-13 .5-19.6l.2-6.9c.6 3.8 1.4 8 4.6 9.9a2.44 2.44 0 0 0 2.2.1c.1 3 .8 6.2 0 9.1-.7 2.6-2.4 4.9-3.8 7.2s-2.68 5.1-4.28 7.4zm-120.8 188.9a185.56 185.56 0 0 0-10.7 25.1c-.5 1.4-.9 2.8-1.3 4.1-3-.5-6.8 2.1-9.9 1.9-1.6-.1-4.3-.8-4.7-2.8-.3-1.2 2.2-3.7 3-4.6 1.6-1.9 3.2-3.7 4.9-5.5 3.7-4.1 7.6-8.1 11.5-11.9 2.3-2.2 4.82-4.2 7.22-6.3zm151.9-105.2a50.86 50.86 0 0 1 9.5 17.8c2.8 9.7 1.9 19.1.3 28.9-1.4 8.4-1.5 16.6-3.4 24.7-30.6-3-62.9 2.9-89 19.6-12.5 7.9-24.2 18.4-31.2 31.6a55.4 55.4 0 0 0-6.2 18.5c-.2 1.5.1 5-.9 6.2-2.5 3-6.3-.8-8-2.3a33.57 33.57 0 0 1-7.8-10.9 1.12 1.12 0 0 0-1.9 0 127.38 127.38 0 0 1-8.9 14c-2.8 3.9-6.8 10.7-11.5 12.8-11.1 4.8-7.6-11.5-6.4-16.3.6-2.4 1.2-4.7 1.9-7a3.26 3.26 0 0 0 1.2-2.1.37.37 0 0 0-.1-.3c-.1-.1-.2-.1-.3-.2.6-2 1.3-3.9 1.9-5.9a174.22 174.22 0 0 1 11.2-26c.7-.7 1.4-1.4 2-2.1a2 2 0 0 0 .3-2.1 123.89 123.89 0 0 1 16.4-22.7c6.7-7.2 14.9-12.6 22.5-18.8a234.42 234.42 0 0 1 25.2-17.9c17.2-10.4 35.7-18.9 54.1-27.2 9.72-4.4 19.3-8.47 29.12-12.3zm-8.9 113.5a2.93 2.93 0 0 0 .4-1.6 2.85 2.85 0 0 0 4.6-.7c5.4-10.8 10.6-21.8 14.9-33.1a59.82 59.82 0 0 0 3.5-17.3c.5-6.4 1.4-12.6 2.3-19 2.1-15-1.7-31.9-11.6-43.8 7.8-3 15.8-5.7 23.8-8.2-1 16.2-1.3 32.5-2.1 48.7-1.1 22.3-2.7 44.6-7 66.5-1.3 6.5-2.8 12.8-4.6 19-3.4-.9-6.9-1.5-10.1-2.8-5-2-9.3-5.2-14-7.7zm92.8 365a101.32 101.32 0 0 0 3.5 22.9c2.2 7.4 8.2 15 16.8 14 4.7-.6 7.9-3.5 9.9-7.4-.8 6.6-3.4 12.6-9.5 16.3-.2 0-.4 0-.5.2l-.3.3c-.3.1-.5.3-.8.4a2.7 2.7 0 0 0-.8.7c-5.2 2.7-10.7-4.3-12.7-8.5a46.08 46.08 0 0 1-4.1-13.2 116.11 116.11 0 0 1-1.48-25.7zm-230.4-71.4c-4.7 5.8-7.2 13.6-9 20.6-1.1 4.2-4.5 12.9-2.5 18a89.14 89.14 0 0 1-11.7 1.2c0-2-.4-4.1 0-6.1 1-4.9 3.7-9.1 6.4-13.3s5.6-8.1 8.5-12.1c2.42-3.2 4.72-7 8.32-8.3zm46.3-64.5a1.8 1.8 0 0 0 .2-1c19.6 7.4 39.6 14.4 59.7 20.5-3.8 1.9-7.7 3.3-11.6 5.1a2.14 2.14 0 0 0-.8 3.3 44.31 44.31 0 0 0-4.5 5.1c-2.5 2.8-5 5.6-7.6 8.3a172.08 172.08 0 0 1-16.7 15.2 150.71 150.71 0 0 1-34.1 20.3c-.8-.7-12.4 11-13.9 12.3a77 77 0 0 1-12.5 8.6 50.17 50.17 0 0 1-10 4.1 1.93 1.93 0 0 0-1-.3c-5.8.2-.5-17.1.5-20.3a64.61 64.61 0 0 1 8-17 8.58 8.58 0 0 1 2.2.2 3.08 3.08 0 0 0 3.6-3.4c3.2-3.5 5.5-8.6 7.8-12.3 3.4-5.6 6.6-11.3 9.9-16.9 3.1-5.4 6.2-10.7 9.6-15.8 3.52-5.5 8.6-10.4 11.22-16z"/><path d="M865.32 360.37c11.3 10.9 26.1 17.8 42.1 17.1 3.5-.2 7-.7 10.5-1.2 5.1-.8 8.7-3.6 12.6-6.7 6.7-5.2 12.4-11.8 19.3-16.8 1.9-1.4 4.4 1.3 3.2 3.2-5.2 7.7-13.8 14.1-21.4 19.2a42.34 42.34 0 0 1-24.1 7.2c-16.6-.3-33.4-6.9-44.5-19.4-1.6-1.8.7-4.1 2.3-2.6z"/><path class="s" d="M829.72 70.67c.5-2.6 4.5-1.5 4 1.1a49.39 49.39 0 0 0 .4 22.3c.1.4 3.5 8.5 1.3 8.4h-.7a1.6 1.6 0 0 1-1.4-.8 53.3 53.3 0 0 1-3.6-31z"/><path class="s" d="M661.32 79.47c.2-7.7 1.8-15.5 5.6-22.2 3.6-6.4 8.8-10.5 15.3-13.8 6.9-3.5 10-10.8 16.3-15.5a147.62 147.62 0 0 1 45.6-22.7c15.9-4.7 33.9-7.9 50-2.3 7.9 2.8 14.9 7.7 22.7 10.4s15.6 1.6 23.6 1.8 15.1 2.5 20.1 9a40.33 40.33 0 0 1 8.1 21c.5 7.2-1.8 14.4-7.7 18.9-6.4 4.9-14.4 5.6-22.2 5.3-1.7-.1-2.2-2.7-.4-3.1 6.1-1.3 13.3-2.1 18.5-5.8 6.4-4.6 7.2-12.6 5.5-19.8-1.6-6.4-5.1-14.1-11-17.5s-13.7-2.2-20.3-2a45 45 0 0 1-19.2-3.3c-6.5-2.7-12.6-6.6-19.4-8.8-14.7-4.8-31.2-1.7-45.7 2.5a139.44 139.44 0 0 0-39.8 18.7c-3.3 2.2-6.8 4.4-9.4 7.4-2.3 2.6-3.5 5.9-6.2 8.2-4.7 4-10.7 5.4-14.9 10.2-9.8 11.3-8.4 29.1-7.1 42.9.8 8.4 6.8 13.3 14 16.9 7.6 3.8 15.6 3.3 23.6 1.1a157.94 157.94 0 0 0 24.5-8.6c7.2-3.3 12.5-8.3 18.8-12.9 5.9-4.3 12.8-5.5 20-5.1a181.07 181.07 0 0 1 25.5 3c1.9.4 1.5 3.4-.5 3.4-9.2-.2-18.3-2.4-27.5-2.3a23.58 23.58 0 0 0-12.7 3.2c-3.9 2.4-6.9 6-10.5 8.8l-.3.3a43.54 43.54 0 0 1 7.7 13.6c.5 1.4-1.8 2-2.3.6a43.86 43.86 0 0 0-7.3-12.8 83.32 83.32 0 0 1-18.3 9.4c-7.8 3.1-16.1 6.3-24.5 7.4-13.6 1.7-30.9-6.8-36-20.2-2.7-7.7-2.52-17.3-2.2-25.3zM991.22 215.57h-11.5l-9.3 6.5-6.3 9.2.5 15.5 7.5 2.3c1 .3 13.5-2.8 13.5-2.8l6.8-9.3zM915.52 220.07l-8-3-11.8 5-5.5 9.2-.5 9.8s1.5 5.3 2.3 6 9.8 1.8 9.8 1.8l10-6.3 4.3-15z"/><circle class="e" cx="984.02" cy="214.57" r="8.8"/><circle class="e" cx="966.12" cy="226.87" r="4.6"/><circle class="e" cx="901.42" cy="219.67" r="8.4"/><circle class="e" cx="887.62" cy="239.37" r="3.1"/><path class="e" d="M898.52 567.07c4.6 4.2 10.5 4.8 16.5 4.9-6 7.4-6.4 18.5 1.8 25.8 4.8 4.2 11.5 4.8 16.1 0s5.6-12.1 5.3-18.6a19.42 19.42 0 0 0 2.4-.2c4.9 9.7 19.6 29 28.6 15.7 4.4-6.4.6-13.7-3.5-19.1a68.64 68.64 0 0 0-5.6-6.5 19.53 19.53 0 0 0 4.6-1.2 16.27 16.27 0 0 0 9.9-15.4c-.3-6.6-5.6-12.4-12.5-11.5-4.6.6-8.9 3.2-12.8 6.5a19.34 19.34 0 0 0-.1-10.4c-1.5-5-5.5-9.7-11-10.1-5.7-.5-10.4 3.6-12.6 8.6a19.5 19.5 0 0 0-1.3 9.8 20.14 20.14 0 0 0-8.6-4.4c-7-1.6-15.1.6-19.2 6.8-3.9 6-3.52 14.3 2 19.3zm43.5-12.7a13.26 13.26 0 0 0-10.7.7c-.6-1.4-1.3-2.7-2-4-1.5-3.8-2.2-8.1-1.2-11.9 1.2-4.5 5.7-9.4 10.8-8.1 10.4 2.6 6.2 16.2 3.08 23.3zm8.5 6.2l-2.1-1.5a10.08 10.08 0 0 0-1.7-1.9l-.1-.1a54.87 54.87 0 0 1 9.1-8.2c2.3-1.6 5-3.3 7.8-3.2 3.7.2 6.1 3.1 6.1 6.8.1 11-11.62 12.4-19.1 8.1zm-4.4 16.1a17.38 17.38 0 0 0 1.5-1.3 12.34 12.34 0 0 0 3.1-6.5c5.7 4.7 11.4 10.6 13.5 16.9 1.4 4.3-1.4 8.2-5.9 5.6a29.34 29.34 0 0 1-5.4-4.5 37.87 37.87 0 0 1-6.8-10.2zm-8.9-2.3a3.09 3.09 0 0 0-3-.7 13.55 13.55 0 0 1-2.1-1c-3.8-2.2-8.7-9.7-3.1-12.8a3 3 0 0 0 3-2c3.3-.7 6.8-.8 9.9.9a9.38 9.38 0 0 1 1.2.9 3.05 3.05 0 0 0 .5 3.7 23.48 23.48 0 0 0 2.5 1.9 8.63 8.63 0 0 1-.5 4.5 6.24 6.24 0 0 1-2.5 3.2 3.19 3.19 0 0 0-3.4 1.3 7.1 7.1 0 0 1-2.5.1zm-12.5-2.3a12 12 0 0 0 1.7 2.1 16.53 16.53 0 0 0 6.6 4 28.1 28.1 0 0 1-1.3 10.4c-1.9 5.7-7 9.2-11.8 3.9-6.2-6.6-3.4-17.1 4.8-20.4zm-22.8-20.5c3.2-5.1 10.4-5.7 15.4-3.2a22 22 0 0 1 9 8.9c-3.4 1.5-4.4 4.8-4 8.3-5.2-.2-10.7.4-15.6-1.3-5.5-1.9-8-7.5-4.8-12.7zM953.22 427.67a6.75 6.75 0 0 1 3.1.5 12.81 12.81 0 0 0 2 1.1.69.69 0 0 1 0 1.3 12.81 12.81 0 0 0-2 1.1 5.52 5.52 0 0 1-3.1.5 2.25 2.25 0 0 1 0-4.5zM933.22 430.37a8.87 8.87 0 0 1 6 .5 2.07 2.07 0 0 1 0 3.6 9.45 9.45 0 0 1-6 .5 2.43 2.43 0 0 1 0-4.6zM910.12 429.27c1.1-.8 2.8-.3 4.1-.2a1.5 1.5 0 0 1 0 3c-1.3.1-3 .6-4.1-.2a1.5 1.5 0 0 1 0-2.6zM891.72 428.37a2.55 2.55 0 0 1 2.4 0l2.4.9c1.6.6 1 3.2-.7 2.6-.9-.3-1.7-.5-2.6-.8a3 3 0 0 1-2-1.6 1 1 0 0 1 .5-1.1zM878.42 426.37a2.36 2.36 0 0 0 2.8 1.6c1.7-.4 1-3.1-.6-2.7l-.1-.1a1.25 1.25 0 0 0-2.1 1.2zM866.82 414.67a.82.82 0 0 1 1.2.1 9 9 0 0 1 .9 1 10.91 10.91 0 0 0 .6 1.1c.5.9-.7 1.9-1.4 1.1a3.92 3.92 0 0 1-.8-1 7.46 7.46 0 0 1-.7-1.2.8.8 0 0 1 .2-1.1zM859 399.87c.2.9.5 1.8.7 2.7.1.2-.3.3-.3.1l-.6-2.7c-.08-.1.12-.2.2-.1zM856.22 383.67a1 1 0 0 1 0 1.9 1 1 0 0 1 0-1.9zM974.12 421.67a4.67 4.67 0 0 1 1-.5.6.6 0 0 0 .4-.1l.9-.3a2.32 2.32 0 0 1 2.8 2.8 3.78 3.78 0 0 1-3.9 2.9 2.58 2.58 0 0 1-2.5-1.9 2.83 2.83 0 0 1 1.3-2.9zM980.42 413.47c.2-.8.5-2 1.3-2.3.5-.2 1.2-.1 1.3.5.1.8-.3 1.3-.4 2a4.52 4.52 0 0 0 .1 2c.4 1.5-2 2.1-2.3.6a6.6 6.6 0 0 1 0-2.8zM992.62 442.27a1.43 1.43 0 0 1 1.5-1.1 3.6 3.6 0 0 1 2.2.9 6.9 6.9 0 0 1 1.6 1.8c.8 1.3 2.1 3.4.4 4.7s-3.2-.4-4.1-1.6c-1.1-1.5-2.1-2.9-1.6-4.7zM1005.32 462.67c0 .2-.1.4-.1.7-.1.5-.7.5-.7 0 0-.2-.1-.4-.1-.7-.1-.6.9-.6.9 0zM996.82 458.17c.3-1.5 2.7-1.5 3.1 0a13.76 13.76 0 0 0 2.1 4.4c.9 1.4 2 2.8 1.7 4.5a1.39 1.39 0 0 1-1.1 1.1c-2.3.8-4.4-1.6-5.2-3.5a9.06 9.06 0 0 1-.6-6.5zM1009.62 482.17c.4 1.3 2.2 5 0 5.6s-2.6-3.4-3-4.8a1.56 1.56 0 0 1 3-.8zM1012.82 497.77a29.31 29.31 0 0 1 .5 2.9c0 .5-.7.7-.9.3a14.26 14.26 0 0 1-.9-2.7c-.2-.9 1.2-1.4 1.3-.5zM1017.72 515.07c.3 1 .7 2 1 3 .4 1.6-2.2 2.3-2.4.7-.2-1.1-.2-2.3-.3-3.4s1.4-1.2 1.7-.3zM1020.82 528.47a.8.8 0 0 1 0 1.6.8.8 0 0 1 0-1.6zM956.22 686.87c1-1.2 2.9-1.3 4.3-.9a9.87 9.87 0 0 1 3.2 1.7 1.77 1.77 0 0 1 .8 2.1 1.83 1.83 0 0 1-1.8 1.3c-2.3-.3-4.7.8-6.6-.8-1-.9-.7-2.4.1-3.4zM932 688.47c1.3-1.4 3.1-1.1 4.9-1.1a45.43 45.43 0 0 1 5.1.9c1.6.3 1.6 3 0 3.3a41.75 41.75 0 0 1-5.1.9c-1.7.1-3.6.4-4.9-1.1a2.05 2.05 0 0 1 0-2.9zM904.12 684.47c1.8-1.4 3.2-.7 5.2-.1 1.8.6 3.6 1.4 5.3 2.1 1.3.5 1.7 2.8 0 3.1a17.86 17.86 0 0 1-6.1.1c-1.8-.4-4.6-1.1-4.9-3.2a1.71 1.71 0 0 1 .5-2zM883.62 681.67c.4-2.8 4.8-.9 6.3-.4a1.33 1.33 0 0 1-.4 2.6c-1.6 0-6.3.6-5.9-2.2zM870 677.47a1.94 1.94 0 0 1 2.3-1.3c1.1.2 2.1.3 3.2.5a1.35 1.35 0 1 1 0 2.7c-1.1.1-2.1.3-3.2.5a1.94 1.94 0 0 1-2.3-1.3 2 2 0 0 1 0-1.1zM851.22 674.07c2.3-.1 4.7-.2 7-.2 3 0 3.6 3.7 1.4 5.2-2.7 2-6.9 1.9-9.8.2-2.5-1.4-1.3-5.1 1.4-5.2zM820 667.57a15.13 15.13 0 0 1 4.4 2.2 16.14 16.14 0 0 0 4.8 2.2c1.3.4 1.1 2.6-.3 2.5-3.9-.3-8.6-.7-11-4.2-.98-1.4.62-3.1 2.1-2.7zM798.32 662.77c1.5.1 3 .5 4.5.5 2.2 0 2.8 3.5.5 3.9a13.09 13.09 0 0 1-4.4.3c-1.5-.2-3.7-.9-3.7-2.8 0-1.6 1.78-2 3.1-1.9zM784.82 662.07a.5.5 0 1 1 0 1c-.6.1-.6-1 0-1zM852.62 405.07a2.12 2.12 0 0 1 3.1 0 7.23 7.23 0 0 1 1.2 5c-.1 1.7 0 3.6-1.3 4.8a2.05 2.05 0 0 1-2.9 0c-1.4-1.3-1.3-3.1-1.3-4.8s0-3.6 1.2-5zM853.32 437.17c.3-1 .8-1.8 1.1-2.8a1.11 1.11 0 0 1 2.1 0c.3.9.7 1.7 1 2.5a8.92 8.92 0 0 1 .3 2.8c0 1.7-.2 4.1-2.4 4.1s-2.4-2.2-2.4-3.8a24 24 0 0 1 .3-2.8zM854.12 468.87V466a1.45 1.45 0 0 1 2.9 0v2.9a3.4 3.4 0 0 1-.6 2.6 1.22 1.22 0 0 1-1.6 0c-.82-.73-.7-1.73-.7-2.63zM851.72 501.17c.3-2 .7-4.1 1-6.1.1-.9 1.6-.7 1.5.2-.2 2-.4 4.1-.7 6.1a13.43 13.43 0 0 1-1.1 4.8.66.66 0 0 1-1.1-.1 16.26 16.26 0 0 1 .4-4.9zM842.12 517.77a1.66 1.66 0 0 1 3 1.3c-.5 2.1-1.8 11-5.6 9.4s1.4-8.8 2.6-10.7zM831.82 546c1-1.3 3.1-.2 2.2 1.3a40 40 0 0 0-2.7 5.5 12.65 12.65 0 0 1-2.4 4.6 1.2 1.2 0 0 1-2-.5c-.6-3.83 2.7-8.03 4.9-10.9zM816 581.07c.3-1.7 1.4-3.2 2.3-4.7s2-3.3 2.9-4.9c.5-.9 1.8-.1 1.3.8-.9 1.7-1.7 3.4-2.6 5.1s-1.4 3.3-2.7 4.5c-.38.6-1.28 0-1.2-.8zM808.72 600.17a48.56 48.56 0 0 1 2.5-6.3 1.52 1.52 0 0 1 2.8.8 28.42 28.42 0 0 1-1.6 7c-.6 1.9-1.2 4.5-3.1 5.4a1.52 1.52 0 0 1-2.2-.9c-.6-2 .8-4.1 1.6-6zM793.62 624.47a22 22 0 0 1 2.3-2 34.46 34.46 0 0 0 2.6-2.8c.2-.3.7.1.5.4a17.79 17.79 0 0 0-1.7 3c-.5 1.1-.6 2.4-1 3.5-.7 1.8-1.5 3.6-3.1 4.7a1.25 1.25 0 0 1-1.9-1.1c-.32-2.17.9-4.1 2.3-5.7zM782.12 648.37c.3-1.3 1.6-2.2 2.3-3.2a18.33 18.33 0 0 0 2.3-3.8c.5-1.1 2.1-.1 1.6.9a21.35 21.35 0 0 1-2.3 4.2c-.8 1.1-1.6 2.5-2.9 2.8-.7.3-1.2-.2-1-.9zM773.72 666.47a21.72 21.72 0 0 1 3.2-4.9c.4-.6 1.4 0 1 .6a23.46 23.46 0 0 1-3.6 4.7.38.38 0 0 1-.6-.4z"/><path class="r" d="M885 261.77a3 3 0 0 1 3 3 3.08 3.08 0 0 1-3 3 3 3 0 0 1-3-3 3.08 3.08 0 0 1 3-3zM874 264.17c2.7 0 2.7 4.2 0 4.2s-2.68-4.2 0-4.2zM881 273.67a3.2 3.2 0 1 1-3.2 3.2 3.22 3.22 0 0 1 3.2-3.2zM983.52 261.77c3.3 0 3.3 5.1 0 5.1s-3.3-5.1 0-5.1zM972.52 262.77a1 1 0 0 1 0 2 1 1 0 0 1 0-2zM976.92 270.17c.1 0 .2.1.3.1a1.56 1.56 0 0 1 0 3c-.1 0-.2.1-.3.1a1.67 1.67 0 0 1-2.1-1.6 1.77 1.77 0 0 1 2.1-1.6z"/><path class="b" d="M942.52 764c6.1-2.1 13.6-1.5 20-2.7a190 190 0 0 0 19.8-4.7c6.6-1.9 13.1-4 19.6-6 5.3-1.7 10.6-3.8 16-5.1 0-3.2.6-6.4.8-9.4.3-4.8.6-9.6.9-14.5s.5-9.6.8-14.5a35.51 35.51 0 0 1 .6-5.7c-6.1.9-12.3 1.5-18.2 2.2-7.1.8-14.1 1.4-21.2 1.8-6.5.4-14.9 2-21.1-.1a3.1 3.1 0 0 1 0-5.9c6-2.1 13.8-1.1 20.2-1.4 7.1-.4 14.2-.9 21.2-1.7 13.1-1.4 26-4.3 39-5.8 2.4-31 .4-62.3-3.6-93.1q-3.15-24.3-7.8-48.3c-1.5-7.7-3.1-15.3-4.7-22.9-1.7-7.8-3.9-15.7-4.4-23.7-.1-2.2 3.3-3.2 4.2-1.1 6.4 14.1 8.7 30.8 11.6 45.9 3.1 16 5.7 32.1 7.9 48.2 4.4 33 6.1 66.1 3.7 99.3-.3 3.6-4.7 4.4-6.6 2.5a130.82 130.82 0 0 1-15.6 3.4c.5 2.7.2 5.7.2 8.4-.1 4.5-.3 9-.5 13.5l-.6 13.5c-.2 4.6.4 9.9-1.3 14.2-.8 2-3.5 2.5-4.6.8-4.2 2.4-8.9 3.8-13.4 5.4-7 2.5-14.1 4.9-21.2 6.9a195.33 195.33 0 0 1-21.7 5c-6.1 1-14 2.7-20 .7a2.69 2.69 0 0 1 0-5.1zM798.52 353.17a.15.15 0 0 1 0 .3c-.2.1-.2-.3 0-.3zM1149.12 280.07c.2-1.4 1.8-1.7 2.9-1.1a.22.22 0 0 1 .2.2l.2.2a1.39 1.39 0 0 1 .5 1.4c-1 10.6 11.8 11.7 19.3 12.3 8 .6 17.2 1.3 25-1a.41.41 0 0 1 .2.8c-2.9 1.1-5.1 2.3-8.2 2.9a73.44 73.44 0 0 1-8.2.9 91.89 91.89 0 0 1-16.6-.6c-8.3-1.4-16.6-6.5-15.3-16zM1205.52 267.07c5.3.1 10.8-1.5 16-2.6 5.8-1.3 11.5-2.6 17.3-3.8 10.8-2.2 21.7-3.6 32.6-4.8 22.8-2.6 45.6-5 68.3-7.6.1.1.1.3.2.4 4.7 5.8 12.1 7.2 19.2 7.3 10.2.2 20.5-.1 30.8-.3 20.6-.3 41.6-1.3 61.8-5.7 9.4-2 18.7-4.1 28.3-5.3a165.17 165.17 0 0 0 26.1-5.2c8.4-2.4 16.7-5.3 25.1-7.7 7.8-2.2 15.6-3.5 23.5-5.1 6.5-1.3 13.1-3 18.8-6.4a29 29 0 0 0 7.9-6.5c-3 9.2-4.3 18.5-11.4 25.8-6.1 6.3-14.4 9.6-22.7 12-17.4 4.9-35.4 8.4-53.2 11.7-18.8 3.5-37.7 6.6-56.7 8.7s-38 3.8-57 5.2c-15.5 1.1-35.7 1.3-43.9-14.7-1.1-2.1-4.1-1.1-4.5.8a4.87 4.87 0 0 0-1.2.1 38.84 38.84 0 0 0-4.8.4 1.27 1.27 0 0 0-.7.4h-.5c-18 3.2-36.1 5.7-54 9-8.8 1.6-17.6 3.3-26.4 4.7-9 1.5-18.6 2.3-27.4 5-1.9.6-1.6 3.7.5 3.6 8.7-.4 17.5-2.8 26-4.3 9.1-1.7 18.3-3.2 27.5-4.7 18.3-3 36.5-6.8 54.8-10a2.35 2.35 0 0 0 .8.2c1.6-.1 3.2-.5 4.8-.7a7.49 7.49 0 0 0 1.6-.4c7.8 17.8 29.2 19.7 46.6 18.6 42.2-2.6 84.4-8.8 125.9-17.4 10.8-2.2 21.5-4.7 32.2-7.3 7.9-2 15.8-4.2 23.1-7.8 13.9-7 21.9-19.8 24.5-34.7a6.74 6.74 0 0 0 .6-5.4 1.82 1.82 0 0 0-2.7-1.2 7.32 7.32 0 0 0 .7-4.8c-1.4-6.4-11.8-7.3-16.8-8.3a137.42 137.42 0 0 0-25.6-2.8c-18.5-.2-36.8 3.7-54.9 6.8q-28.35 4.95-56.6 10.6t-56.2 12.6c-8.7 2.2-17.8 3.9-26.2 7-5.4 2-10.5 5.6-10.4 11.9-22.6 2.3-45.2 4.8-67.9 7.1-10.8 1.1-21.4 2.2-32.1 4.2-5.8 1.1-11.6 2.3-17.3 3.7-5.1 1.3-10.7 2.4-15.3 5-1.2.63-.62 2.63.9 2.7zm137.5-20.5a3 3 0 0 0 1-2.4c-.1-4.2 5.7-5.6 8.9-6.5 4.7-1.3 9.4-2.5 14.2-3.7 8.8-2.3 17.7-4.4 26.5-6.5 18.1-4.2 36.2-8 54.4-11.6 16.3-3.2 32.6-6.1 49-8.9 16.6-2.8 33.2-5.9 50.1-5a126.88 126.88 0 0 1 23.7 3.6c1.2.3 5.4.8 6.1 1.8.9 1.5-.7 2.6-1.7 3.7a26 26 0 0 1-7.8 5.2c-11.9 5.5-26 6-38.6 9.6-15.1 4.4-29.7 10-45.3 12-16 2.1-31.5 6-47.4 9a320.8 320.8 0 0 1-50 4.9c-8 .2-16 .2-24.1.1-6.7-.1-14.1-.3-19.02-5.3z"/><path class="b" d="M1390.72 238.67c3.6-4.5 10.8-5.7 16.1-7.2 14.2-4.2 28.6-8 43.1-10.9 14.1-2.9 28.4-5.1 42.7-6.6 7.4-.7 14.9-1.4 22.4-1.5 6.3 0 13.9 0 19.8 2.4a1.34 1.34 0 0 1-.4 2.6c-5.9.1-11.7-1.1-17.6-1a171.56 171.56 0 0 0-17.6 1.4c-12.6 1.4-25.3 3.3-37.8 5.6-11.8 2.2-23.5 4.8-35.1 7.9-6.1 1.6-12.1 3.5-18.1 5.4-2.7.9-5.4 1.7-8 2.7-1.7.6-4.4 1.6-5.4 3.3-.8 1.4-.4 3.3-.5 4.8a2 2 0 0 1-2.9 1.7c-4.2-2.1-3.2-7.6-.7-10.6zM1364.72 153.77c3 7 10.3 11 17.5 12.1 9.7 1.4 19.8-1.8 29.4-3.4 10.8-1.9 21.5-3.9 32.3-5.5a2.59 2.59 0 0 0 2.2-3c34.4-14.6 68.2-37.9 79.2-75.2 4.9-16.7 1-33.6-12.1-45.4-12.6-11.4-29.9-17.4-46.7-18.1-14.5-.6-36.3 2.1-42.5 17.6a16.34 16.34 0 0 0 4.5 19.1c7.1 6.1 13.6 11.3 18.2 19.7 2.6 4.7 5.8 10.9 3.2 16.2-1.8 3.8-5.8 6.1-9.4 7.9-8.6 4.3-18.3 6.6-27.5 9.4-16.2 5-33.1 11.8-43.5 25.9-4.7 6.3-8.1 14.93-4.8 22.7zm10.9-20.2c5.4-6.8 12.9-11.7 20.7-15.5 14.7-7 31.1-9.8 45.8-16.9 5.3-2.6 10.7-6.3 13.1-12 2.7-6.4-.1-13.2-3.2-19a63.41 63.41 0 0 0-13.1-16.9c-2.9-2.6-6.9-4.8-9.1-8-2.4-3.5-1.7-8.1.3-11.6 4.2-7.5 14.2-9.7 22-11a70.51 70.51 0 0 1 25.5.6c14.6 3.1 28.6 10.9 36.4 24 8.7 14.5 2.9 31.2-4.9 44.7-16.5 28.7-44.8 45.8-74.2 59a3.29 3.29 0 0 0-1.6 1.7c-7.7 1.4-15.5 2.7-23.2 4-9.6 1.6-21.2 5-30.8 1.8-4.8-1.6-9.1-5.3-9.5-10.6s2.7-10.3 5.8-14.3z"/><path class="e" d="M1426.82 141.87c5.6-1.3 11.1-1 16.6-3.3 5.9-2.5 9.8-6.2 14.6-10.3a1.7 1.7 0 0 1 2.7 2c-5 10.7-23 19.4-34.2 14.4a1.5 1.5 0 0 1 .3-2.8zM1434.92 259.17c6-3.9 14.8-5 21.7-6.9 6.3-1.7 14.6-5.5 21.1-3.9a2.13 2.13 0 0 1 .9 3.6c-5.2 4.4-14 4.7-20.4 6.2-7 1.6-15.1 4.9-22.3 4.6a2 2 0 0 1-1-3.6zM1385.82 256.17c6.3-1.3 13.3.1 19.7.1 6.1 0 13.8-1.4 19.5.8 1.4.6 1.9 2.5.4 3.3-5.2 3.1-13.1 2.5-19 2.4-6.5 0-14.6.7-20.6-1.7-2.2-.7-2.82-4.3 0-4.9zM1533.12 205.77c9.8-2.2 21.8 1.7 31.3 4a2.1 2.1 0 0 1-.5 4.1c-9.9.1-22.2 1.3-31.4-3.1-2.1-1-1.6-4.5.6-5zM1230.52 277.07c7.8-.7 15-2.9 22.5-4.9s15.3-3.4 23-5a1.76 1.76 0 0 1 .9 3.4c-8.5 2.2-17 4.6-25.7 6.3-6.5 1.3-14.4 4.1-21.1 2.5-1.2-.37-.8-2.2.4-2.3zM1163.32 286.17c2.1-.8 4.2.2 6.3.4 2.3.2 4.6.6 6.9.7a1.39 1.39 0 0 1 .4 2.7 27.92 27.92 0 0 1-3.7 1.4 13 13 0 0 1-4.4-.1c-2.5-.3-4.8-.5-6.4-2.6-.8-.9 0-2.1.9-2.5zM1489.22 32.37c7.1.1 13.6 7 17.4 12.4 5 7.1 8 16.7 8.6 25.4 1.6 3.6-5.4 7.7-7 2.3-2.2-7.5-2.3-15.5-5.8-22.7a29.34 29.34 0 0 0-5.3-7.7c-2.7-2.6-5.9-3.6-9-5.5a2.26 2.26 0 0 1 1.1-4.2z"/><path class="t" d="M399.72 934.27a4.65 4.65 0 0 1 4.7 0c.1.1.3.1.4.2 2.8 1.5 2.8 6 0 7.6-.1.1-.3.1-.4.2a4.65 4.65 0 0 1-4.7 0 4.63 4.63 0 0 1 0-8zM375.82 938.17c4.3 0 4.4 6.8 0 6.8s-4.3-6.8 0-6.8zM365.52 918.87a2.37 2.37 0 0 1 1.8-1.8 21.3 21.3 0 0 1 2.5-.3 3.13 3.13 0 0 1 2.9 1.7 3.5 3.5 0 0 1 .2 3 3.37 3.37 0 0 1-2.2 2 3.63 3.63 0 0 1-3.3-.9 14.2 14.2 0 0 1-1.3-1.2 3.07 3.07 0 0 1-.6-2.5zM352.32 926.67a4.45 4.45 0 0 1 2.9-1.2 4.67 4.67 0 0 1 2.9 1.2 3.89 3.89 0 0 1 1 4c-.1.3-.3.7-.4 1a3.63 3.63 0 0 1-1.3 1.9 3.49 3.49 0 0 1-2.2.8 3.74 3.74 0 0 1-1.8-.5 4.14 4.14 0 0 1-1.7-2.2c-.1-.3-.3-.7-.4-1a3.94 3.94 0 0 1 1-4zM318.52 935.57a9 9 0 0 1 6-2.5 8.57 8.57 0 0 1 6 2.5 6.5 6.5 0 0 1 1.7 2.7 6.15 6.15 0 0 1 .7 3.3 8.57 8.57 0 0 1-2.5 6 9 9 0 0 1-6 2.5 8.57 8.57 0 0 1-6-2.5 6.5 6.5 0 0 1-1.7-2.7 6.15 6.15 0 0 1-.7-3.3 9.31 9.31 0 0 1 2.5-6zM425 1022.87a6.17 6.17 0 0 1 2.5-3c.1-.1.2-.1.3-.2a11.11 11.11 0 0 0 1.6-.7 5 5 0 0 1 2.7-.1 3.37 3.37 0 0 1 1.7.5 2.9 2.9 0 0 1 1.5.9 5.19 5.19 0 0 1 1.7 1.9 11.11 11.11 0 0 0 .7 1.6 11 11 0 0 1 .2 1.8 5.83 5.83 0 0 1-.6 2.6 2.9 2.9 0 0 1-.9 1.5 3.45 3.45 0 0 1-1.2 1.2 4.64 4.64 0 0 1-2.3 1.2 11 11 0 0 1-1.8.2 7.81 7.81 0 0 1-3.4-.9 5.19 5.19 0 0 1-1.9-1.7 4.64 4.64 0 0 1-1.2-2.3.6.6 0 0 0-.1-.4c-.1-.5-.1-1.1-.2-1.6a6.12 6.12 0 0 1 .7-2.5zM403.82 1016.57c3 0 3 4.6 0 4.6s-2.9-4.6 0-4.6zM456.52 1000.37a.5.5 0 0 1 0 1 .5.5 0 0 1 0-1zM670.62 1034.37a5.75 5.75 0 0 1 1.9-1.9l1.5-.6c.3-.1.7-.2 1-.3 3.5-1.1 7 1.9 7 5.4s-3.6 6.5-7 5.4c-.3-.1-.7-.2-1-.3a6.71 6.71 0 0 1-1.5-.6 6.87 6.87 0 0 1-1.9-1.9 5.34 5.34 0 0 1 0-5.2zM649.32 1033.27c.1-.1.2-.1.4-.2a2.88 2.88 0 1 1 0 5c-.1-.1-.2-.1-.4-.2a2.8 2.8 0 0 1 0-4.6zM673.82 1014.57c3 0 3 4.6 0 4.6s-2.9-4.6 0-4.6zM766.42 1069.47a6.1 6.1 0 0 1 4.1-1.7 5.83 5.83 0 0 1 4.1 1.7 6.1 6.1 0 0 1 1.7 4.1 6.3 6.3 0 0 1-1.7 4.1 6.1 6.1 0 0 1-4.1 1.7 5.83 5.83 0 0 1-4.1-1.7 5.79 5.79 0 0 1 0-8.2zM777.82 1058.37c3.2 0 3.2 5 0 5s-3.2-5 0-5zM790.52 1072.47a1.75 1.75 0 0 1 0 3.5 1.75 1.75 0 0 1 0-3.5zM807.82 1065.67c3.2 0 3.2 5 0 5s-3.2-5 0-5zM803.22 1057.77c3.1 0 3.1 4.9 0 4.9s-3.22-4.9 0-4.9zM910.22 938.57a5.07 5.07 0 0 1 7.2 0 4.91 4.91 0 0 1 1.5 3.6 5.09 5.09 0 0 1-8.7 3.6 4.91 4.91 0 0 1-1.5-3.6 5.33 5.33 0 0 1 1.5-3.6zM933.22 935.37a2.57 2.57 0 0 1 3 .4l.3.2a2.12 2.12 0 0 1 0 3.1l-.3.2a2.66 2.66 0 0 1-2.7.5 2.37 2.37 0 0 1-1.5-2.3 2.72 2.72 0 0 1 1.2-2.1zM937.22 927.67c2.4 0 2.4 3.8 0 3.8s-2.5-3.8 0-3.8zM903.22 926.77c5.2 0 5.2 8.1 0 8.1s-5.3-8.1 0-8.1zM1225.22 1299.37a9 9 0 0 1 6-2.5 7.25 7.25 0 0 1 3.3.7 5 5 0 0 1 2.7 1.8 8 8 0 0 1 1.8 2.7 6.15 6.15 0 0 1 .7 3.3 8.39 8.39 0 0 1-2.5 6 9 9 0 0 1-6 2.5 7.25 7.25 0 0 1-3.3-.7 5 5 0 0 1-2.7-1.8 8 8 0 0 1-1.8-2.7 6.15 6.15 0 0 1-.7-3.3 8.39 8.39 0 0 1 2.5-6zM1197.22 1294.87a5.43 5.43 0 0 1 6.5-.8c.1 0 .2.1.3.1a5 5 0 0 1 2 2.3 2.66 2.66 0 0 1 .3 1.2 4.08 4.08 0 0 1-.1 1.9l-.1.4a6.94 6.94 0 0 0-.5 1.3 4 4 0 0 1-1.4 1.5 6.19 6.19 0 0 1-2.5 1.1 5 5 0 0 1-3.4-.6 5.62 5.62 0 0 1-2.2-2.6 5.38 5.38 0 0 1 1.1-5.8zM1212.52 1278.87a4.78 4.78 0 0 1 4.8 4.8 5 5 0 0 1-4.9 4.9 4.78 4.78 0 0 1-4.8-4.8 5 5 0 0 1 4.9-4.9zM1213.22 1305.87c8.1 0 8.1 12.6 0 12.6s-8.22-12.6 0-12.6zM1174.12 1297.77a5.29 5.29 0 0 1 3.8-1.6 5.46 5.46 0 0 1 3.8 1.6 5.73 5.73 0 0 1 1.6 3.8 5.46 5.46 0 0 1-1.6 3.8 5.29 5.29 0 0 1-3.8 1.6 5.46 5.46 0 0 1-3.8-1.6 5.73 5.73 0 0 1-1.6-3.8 5.46 5.46 0 0 1 1.6-3.8zM1165.22 1306.37c4.1 0 4.1 6.4 0 6.4s-4.1-6.4 0-6.4zM1150.52 1309.47c.1 0 .1.1 0 0-.1.1-.1 0 0 0zM1154.32 1272.37a5.55 5.55 0 0 1 1.4-2.2 6.56 6.56 0 0 1 4.9-2h.5l2 .3c.6.2 1.2.5 1.8.7a5.54 5.54 0 0 1 2.1 1.9 3.91 3.91 0 0 1 1 1.6 4.14 4.14 0 0 1 .5 1.9 3.41 3.41 0 0 1 0 2 4.14 4.14 0 0 1-.5 1.9 6.08 6.08 0 0 1-1.5 2.4l-1.5 1.2c-.6.2-1.2.5-1.8.7l-2 .3-2-.3c-.6-.2-1.2-.5-1.8-.7a5.54 5.54 0 0 1-2.1-1.9 3.91 3.91 0 0 1-1-1.6 4.77 4.77 0 0 1-.6-2.9v-.5a4.32 4.32 0 0 1 .6-2.8zM1120.42 1311.47a5.48 5.48 0 0 1 2-2c.1-.1.2-.1.2-.2a5.79 5.79 0 0 1 2.1-.7 4.5 4.5 0 0 1 2.3.1c.5.2.9.4 1.4.6a5.48 5.48 0 0 1 2 2l.1.1a5.3 5.3 0 0 1 0 5.6l-.1.1a3.86 3.86 0 0 1-1.5 1.6 4.35 4.35 0 0 1-1.9 1 5.69 5.69 0 0 1-4.4-.6c-.1-.1-.2-.1-.2-.2a5.48 5.48 0 0 1-2-2 6.94 6.94 0 0 1-.8-2.8 6.07 6.07 0 0 1 .8-2.6zM1133.22 1290.57a3 3 0 0 1 3 3 3.08 3.08 0 0 1-3 3 3 3 0 0 1-3-3 3 3 0 0 1 3-3zM1121.22 1283.57c4.3 0 4.3 6.6 0 6.6s-4.3-6.6 0-6.6zM1395.52 875.77c10.5 0 10.5 16.3 0 16.3s-10.52-16.3 0-16.3zM1379.52 899.67c5.4 0 5.4 8.4 0 8.4s-5.4-8.4 0-8.4zM1347.42 897.17c.1-.1.2-.1.4-.2a3.45 3.45 0 0 1 1.8-.5 4.07 4.07 0 0 1 1.8.5 4.27 4.27 0 0 1 2.5 3.8 4.32 4.32 0 0 1-6.4 3.7 4.36 4.36 0 0 1-2.1-3.7 3.58 3.58 0 0 1 2-3.6z"/><path class="t" d="M1381.52 881.77c4.7 0 5.2 6.4 1.6 7.9a2.11 2.11 0 0 1-1.6.6 2.58 2.58 0 0 1-1.6-.6c-3.6-1.5-3.1-7.9 1.6-7.9zM1364.12 856.37a4.35 4.35 0 0 1 5.1-2.5 11.51 11.51 0 0 1 2.5 1.2 4.74 4.74 0 0 1 2 2.6 4.24 4.24 0 0 1-.4 3.3 4.36 4.36 0 0 1-5.9 1.6 10.93 10.93 0 0 1-1.5-.8 4.74 4.74 0 0 1-2-2.6 4.45 4.45 0 0 1 .2-2.8zM1357.52 851.77c2.7 0 2.7 4.3 0 4.3s-2.7-4.3 0-4.3zM1365.42 885.67a4.68 4.68 0 0 1 2.2-2.8 5 5 0 0 1 3.6-.5 4.65 4.65 0 0 1-1.9 9.1 4.61 4.61 0 0 1-3.9-5.8zM1328.52 882.67c4.2 0 4.2 6.5 0 6.5s-4.2-6.5 0-6.5zM1433.92 1246.27a10.63 10.63 0 0 1 .9-1.1 4.8 4.8 0 0 1 2.5-1.4 12 12 0 0 1 2-.3 6.05 6.05 0 0 1 5.1 2.9 5.87 5.87 0 0 1 0 6 6 6 0 0 1-5.1 2.9 6.11 6.11 0 0 1-3-.8 5.3 5.3 0 0 1-2.1-2.1 4.94 4.94 0 0 1-.8-1.8 5.86 5.86 0 0 1 .5-4.3zM1427.92 1251.77a3.68 3.68 0 0 1 2.5-.5 4.25 4.25 0 0 1 1.1.2 3.55 3.55 0 0 1 .9.4 2.84 2.84 0 0 1 1 .9 3.49 3.49 0 0 1 .8 2.2 4.07 4.07 0 0 1-.5 1.8 3.36 3.36 0 0 1-2.1 1.6c-.4.1-.7.1-1.1.2a3.72 3.72 0 0 1-2.6-6.8zM1418.52 1200.57c3 0 3 4.6 0 4.6s-3-4.6 0-4.6zM1382.52 1198.67c4.2 0 4.2 6.5 0 6.5s-4.2-6.5 0-6.5zM1374.52 1178.57a3.22 3.22 0 0 1 3.9-1.9 3.9 3.9 0 0 1 1.6.7 2.93 2.93 0 0 1 .7 1.6 3.26 3.26 0 0 1-5.2 3.4 3.07 3.07 0 0 1-1-3.8zM1344.52 1189.67c4.1 0 4.1 6.4 0 6.4s-4.1-6.4 0-6.4zM1324.52 1185c3.7 0 3.7 5.8 0 5.8s-3.7-5.8 0-5.8zM1306.52 1187.87c.1 0 .1.1 0 .1s-.1-.1 0-.1zM281.92 1197.27a5.46 5.46 0 0 1 3.8-1.6 5 5 0 0 1 2.7.7 5.75 5.75 0 0 1 1.9 1.9c.2.4.3.7.5 1.1l.5 1.2a4.08 4.08 0 0 1 .1 1.9 4.86 4.86 0 0 1-1.3 2.8 5.37 5.37 0 0 1-2.2 1.3 4.08 4.08 0 0 1-1.9.1 3 3 0 0 1-1.8-.6c-.4-.2-.7-.3-1.1-.5a5.75 5.75 0 0 1-1.9-1.9 5 5 0 0 1-.7-2.7 4.36 4.36 0 0 1 1.4-3.7zM268.52 1208.77a2.11 2.11 0 0 1 2 2.7 1.85 1.85 0 0 0-.2.7 1.87 1.87 0 0 1-3.6 0 1.85 1.85 0 0 1-.2-.7 2.08 2.08 0 0 1 2-2.7zM253.52 1191.77c2.7 0 2.7 4.3 0 4.3s-2.7-4.3 0-4.3zM235.52 1187.17a1.7 1.7 0 0 1 0 3.4 1.7 1.7 0 0 1 0-3.4zM229.52 1202.37a1.5 1.5 0 0 1 0 3 1.5 1.5 0 0 1 0-3zM201.52 1175.37c3.2 0 3.2 5 0 5s-3.2-5 0-5zM195.72 1187.47l.3-.6a6.34 6.34 0 0 1 2.3-2.3 6.2 6.2 0 0 1 3.2-.9 6 6 0 0 1 3.2.9 6.34 6.34 0 0 1 2.3 2.3l.3.6a6.92 6.92 0 0 1 .9 3.4 6.64 6.64 0 0 1-6.7 6.7 6.8 6.8 0 0 1-5.8-3.3 6.92 6.92 0 0 1-.9-3.4 6.65 6.65 0 0 1 .9-3.4zM269.52 1156.07c4.9 0 4.9 7.6 0 7.6s-4.9-7.6 0-7.6zM298.92 1166.27a5.33 5.33 0 0 1 3.6-1.5 4.84 4.84 0 0 1 2.6.7 5.16 5.16 0 0 1 1.8 1.8 5.55 5.55 0 0 0 .6.8c.2.4.3.8.5 1.2a4.52 4.52 0 0 1 .1 2 4.44 4.44 0 0 1-1.4 2.8 6.11 6.11 0 0 1-2.2 1.3 4.59 4.59 0 0 1-3.8-.5 5.55 5.55 0 0 1-.8-.6 5.16 5.16 0 0 1-1.8-1.8 4.84 4.84 0 0 1-.7-2.6 4.91 4.91 0 0 1 1.5-3.6zM303.52 1139.67c10.6 0 10.6 16.5 0 16.5s-10.6-16.5 0-16.5zM73.12 1138.27c.9-1.6 2.7-2.1 4.3-2.7a4.78 4.78 0 0 1 5.8 3.3 4.86 4.86 0 0 1-3.3 5.8c-1.5.5-2.9.9-4.5.2a5.3 5.3 0 0 1-2.8-2.9 4.76 4.76 0 0 1 .5-3.7zM48.22 1141.87a8.47 8.47 0 0 1 9.5-4 8.11 8.11 0 0 1 5.8 5.8 8.9 8.9 0 0 1-.8 6.4 8.4 8.4 0 0 1-7.2 4.1 8.52 8.52 0 0 1-7.2-4.1 8 8 0 0 1-.1-8.2zM45.52 1164.07c7.5 0 7.5 11.6 0 11.6s-7.52-11.6 0-11.6zM26.52 1110c7.6 0 7.7 11.9 0 11.9s-7.7-11.9 0-11.9zM18.52 1147.17c4.8 0 4.8 7.5 0 7.5s-4.8-7.5 0-7.5zM26.12 1176.27a8.65 8.65 0 0 0 .7-1 2.9 2.9 0 0 1 2.6-1.5 3.07 3.07 0 0 1 3.1 3.1 3 3 0 0 1-1.5 2.6 8.65 8.65 0 0 1-1 .7 2.34 2.34 0 0 1-1.8.3 3 3 0 0 1-1.7-.8 3.29 3.29 0 0 1-.7-1.3 2.69 2.69 0 0 1 .3-2.1zM36.52 1188.77a.15.15 0 1 1 0 .3c-.2-.07-.2-.3 0-.3zM366.52 1037.37c4.5 0 4.5 7 0 7s-4.52-7 0-7zM349.52 1045.67c2.8 0 2.8 4.4 0 4.4s-2.8-4.4 0-4.4zM339.52 1032.07c3.6 0 3.6 5.6 0 5.6s-3.6-5.6 0-5.6zM640.72 1311.07a8.21 8.21 0 0 1 11.6 0 5.63 5.63 0 0 1 1.7 2.6 6.83 6.83 0 0 1 .7 3.2 8.2 8.2 0 0 1-14 5.8 5.63 5.63 0 0 1-1.7-2.6 6.83 6.83 0 0 1-.7-3.2 8.43 8.43 0 0 1 2.4-5.8zM619 1340.37c.1-.1.3-.2.4-.4a7.22 7.22 0 0 1 2.4-1.4 4.71 4.71 0 0 1 3.5.3 5.25 5.25 0 0 1 2.2 1.7 5.55 5.55 0 0 1 1.2 3.3 5.68 5.68 0 0 1-2.7 4.7 5.37 5.37 0 0 1-3.5.6 2.3 2.3 0 0 1-1.4-.4 4.18 4.18 0 0 1-1.8-1.1c-.1-.1-.3-.2-.4-.4a4.6 4.6 0 0 1-1.4-3.5 5 5 0 0 1 1.5-3.4zM593.52 1326.27c6 0 6 9.3 0 9.3s-6-9.3 0-9.3zM617.22 1321.57a4.53 4.53 0 0 1 3.3-1.4l.8.1a3.29 3.29 0 0 1 1.7.4 4.62 4.62 0 0 1 1.5.9 4.38 4.38 0 0 1 1.3 3.2 4.63 4.63 0 0 1-1.3 3.2c-.3.2-.6.5-.9.7a4.65 4.65 0 0 1-2.3.6l-.8.1a4.71 4.71 0 0 1-3.3-1.4 5 5 0 0 1-1.4-3.3 5.14 5.14 0 0 1 1.4-3.1zM627.52 1299c3.8 0 3.8 5.9 0 5.9s-3.8-5.9 0-5.9zM622.52 1281.77c2.7 0 2.7 4.3 0 4.3s-2.7-4.3 0-4.3zM568.52 1310.27c6 0 6 9.3 0 9.3s-6-9.3 0-9.3zM535 1318.17a6.94 6.94 0 0 1 3.5-1.8 10.46 10.46 0 0 0 1.7-.4 5.15 5.15 0 0 1 6 2.9 5 5 0 0 1-2.1 6.3c-1.6.9-3.4 2.1-5.3 2a6.37 6.37 0 0 1-2.7-.7 5.62 5.62 0 0 1-2.2-2.6 5.28 5.28 0 0 1 1.1-5.7zM537.52 1297c2.5 0 2.5 3.9 0 3.9s-2.52-3.9 0-3.9zM608.52 1309.77a2.05 2.05 0 0 1 0 4.1c-2.7.13-2.7-4.1 0-4.1zM587.52 1300.47c4.3 0 4.4 6.8 0 6.8s-4.4-6.8 0-6.8zM1472.92 35.87a3.72 3.72 0 0 1 1.7-2.2 3.44 3.44 0 0 1 2.6-.5 4.64 4.64 0 0 1 2.2 1.4 3.3 3.3 0 0 1 .7 2.7 3.68 3.68 0 1 1-7.2-1.4zM1461.52 29.57c3 0 3 4.6 0 4.6s-3-4.6 0-4.6zM1464.52 40.47c3.1 0 3.1 4.9 0 4.9s-3.1-4.9 0-4.9zM1453.52 35c2.4 0 2.4 3.8 0 3.8s-2.4-3.8 0-3.8zM1447.52 28a1 1 0 0 1 0 1.9 1 1 0 0 1 0-1.9zM1441.52 31.67c2.8 0 2.8 4.4 0 4.4s-2.8-4.4 0-4.4z"/></svg>