<?xml version="1.0" encoding="utf-8"?>
<!-- Generator: Adobe Illustrator 22.1.0, SVG Export Plug-In . SVG Version: 6.00 Build 0)  -->
<svg version="1.1" id="Слой_1" xmlns="http://www.w3.org/2000/svg" xmlns:xlink="http://www.w3.org/1999/xlink" x="0px" y="0px"
	 viewBox="0 -200 1586.2 1581" style="enable-background:new 0 0 1586.2 1381;" xml:space="preserve">
<style type="text/css">
	.st0{fill:#E2C85C;}
	.st1{fill:#010202;}
	.st2{fill:#785B2D;}
	.st3{fill:#C0842B;}
	.st4{fill:#FFFFFF;}
	.st5{fill:#3E2713;}
	.st6{fill:#4A606B;}
	.st7{fill:#0E374F;}
	.st8{fill:#E2B4D4;}
	.st9{fill:#FDDAAC;}
	.st10{fill:#E5DFDF;}
	.st11{fill:#F4C69D;}
	.st12{fill:#B35D23;}
	.st13{fill:#F7C894;}
	.st14{fill:#44B2C2;}
	.st15{fill:#23B7C4;}
	.st16{fill:#B84C25;}
	.st17{fill:#020203;}
	.st18{fill:#754F12;}
	.st19{fill:#DEC06C;}
	g#blinchik{
		transform: rotate(3.5deg);
	}
	g#blinchik.animate{
		animation: move 1s linear infinite;
		animation-direction: alternate;
	}

	@keyframes move{
		0%{
			transform: rotate(3.5deg);
		}
		100%{
			transform: rotate(-8deg);
		}
	}

</style>
<title>Ресурс 1</title>
<path class="st0" d="M1424.5,870.9l2,24l-18.3,23.5l2.9,11.4l1.3,15.8l-16,12l-18.7,2.7l21.3,9.3l8,12.7l-1.3,8.7l-5.3,6l-6.7,2.7
	l13.3,6l21.3,18l20.7,31.3l7.3,28l-2,23.3l1.2,4.5l-10.5-0.5l7.2,31.2l-19.1,2.9l23.9,19.2l17.3,24c0,0,6.7,15.3,6.7,18s2,16,2,16
	l-0.7,12l-1.3,3.6l-24.7,1.7l-10,3.3l-10.7,7.3l-4,22l-28.7,16.7l-42.7,18l-26.7,10l-32.8,7l-65.9,5l-74,1.3l-79.3,1.3l-103.3,3.3
	l-78,12l-89.3,14.7l-98.7,18.7c0,0-100-10.7-102-10s-110.7-30-110.7-30l-88-16.7l-103.3,2.7l-103.3,10.7l-60.7-10l-42-34l-14-28
	l-6.7-24l-19.3-19.3l-11.3-27.3c0,0-9.8,6.6-12.7,9.3s-20-18-20-18l-14.7-36v-33.3l11.3-35.3l42.7-28l26.7-9.3l-2.7-15.3l6-10.7
	l-5.3-8.7c0,0,0.7-13.3,3.3-14s14.7-8,14.7-8l11.6-1.4l-17.3-14l-10-18.7l-7.3-15.3l-20.7-8l7.3-12.7l76-47.3
	c0,0,116.7-58.7,118.7-58s98.7-22,98.7-22l102.7,4c0,0,90.7,2.7,92.7,2s42-2.7,42-2.7h25.3l42.7-4l69.3-4l10-1.3l8,3.3l54.7-2
	l10,1.3l16-2.7l47.3,0.7l20,2h84l11.3-0.7l8.7,3.3l18,2l24.7,0.7l11.3,1.3l64,4l20.7,2.7l14.7,1.3l84.7,12l55.3,2l42.7,5.3l36,8.7
	l13.3,10l16.7,8L1424.5,870.9z"/>
<path class="st1" d="M114.5,1309.4c19.3,17.3,44.4,27.3,71.4,29.4c23.8,1.9,47.6-1.2,71.2-3.8c26.2-3,52.5-5.9,78.8-7.5
	c50.1-2.9,100.3,1.6,149.1,13.2c46.5,10.9,92.2,25.3,139.2,33.7c47.4,8.5,94.2,8.7,141.8,1.5c49.9-7.5,98.7-21,148.4-29.5
	c102-17.5,205.9-14.3,308.9-18.4c25.2-1,50.6-1.7,75.7-4.7c23.7-2.7,46.9-8.9,68.9-18.2c19.5-8.3,40.3-16.9,57.5-29.5
	c10.9-8,20.1-18.2,23.1-31.2c10.9-0.6,21.8-1.3,32.7-2c1.2-0.1,2.2-0.8,2.6-1.9c6.7-18.8,0-39-10.8-54.9
	c-10.3-15.2-24.4-27.4-36.1-41.5l12.1-0.6c0.9,0,1.6-0.8,1.5-1.7c0-0.1,0-0.2,0-0.3c-2.1-9.6-4.2-19.1-6.4-28.7
	c2.6-0.1,5.2-0.3,7.8-0.6c0.8,0,1.6-0.6,1.8-1.4c10-45.6-16.6-94.7-59.5-112c3-0.7,5.8-2.2,8.2-4.2c7.8-6.7,5-17.6-1.9-23.8
	c-4.7-4.2-10.9-6.2-16.8-8.5c14.8-2,29.1-9.5,30.6-26.2c0.6-7-2-13.9-8.1-17.7c6.7-2.6,12.4-7.1,16.5-13c13-19.2-0.3-43.8-14.9-57.6
	c-35.8-33.7-90.6-35.3-136.7-39.8c-62.3-6.1-124.6-11.8-187-16.4c-124.7-9.2-249.8-13.3-374.8-7.1c-62.2,3.1-124.5,7-186.8,6.9
	c-31.2-0.1-62.2-1.8-93.3-3.6c-29.7-1.7-59.3-2.4-88.8,1.6c-55.5,7.5-108.1,28-158.2,52.2c-25.2,12.2-49.9,25.3-74.5,38.6
	c-21.8,11.7-43.8,23.8-58.5,44.3c-1,1.7-0.4,3.9,1.3,4.9c7.1,3.5,14.4,6.3,22,8.6v0.8c0.5,8.6,3.2,16.9,7.9,24.1
	c6.4,9.8,15.1,17.5,25,23.6c-11.4,1.7-23.5,5.1-27.7,17.2c-2.6,7.4,0,13.9,5.1,18.2c-4.7,3.1-7.6,8.2-8.1,13.8
	c-0.2,1.7-0.2,3.3-0.1,5c-30.4,7.8-56.4,30-68.2,59.5c-14,34.9-4.4,78.2,22.1,104.6c1.4,1.4,3.6,1.7,5.4,0.7l12.9-7.8
	c1.8,6.4,4.3,12.5,7.5,18.3c7.2,12.8,17.8,23.5,30.1,31.9c-1.8,0.1-3.1,1.7-3,3.5c0,0.2,0,0.3,0.1,0.5c2,9.1,5.2,17.9,9.4,26.2
	c0.3,0.7,0.7,1.4,1.1,2c1.6,5.9,3.6,11.8,5.9,17.5 M1438.6,1153.2c-4.4-3.2-9-6.1-13.9-8.5l6.5-0.3
	C1433.6,1147.4,1436.1,1150.3,1438.6,1153.2L1438.6,1153.2z M1438.6,1156.2c-53,4.9-106,10.1-159,15.2
	c-95.4,9.2-190.8,17.3-286.2,26.6c-47.9,4.7-95.8,9.3-143.8,14c-31.3,3-62.6,5.7-93.9,8.9c2.1-0.9,4.3-1.8,6.4-2.6
	c40.5-16,84.1-21.2,127-26.2c93-10.9,186.1-20.9,279.5-28.8c83.8-7.1,167.6-13.8,251.5-18.5
	C1426.7,1147.9,1432.9,1151.7,1438.6,1156.2L1438.6,1156.2z M1446.9,1140.4c-4.2,0.2-8.3,0.5-12.5,0.8c-1.2-1.5-2.3-2.9-3.4-4.4
	c-1.7-2.3-5.5-0.1-3.8,2.2c0.6,0.8,1.2,1.7,1.8,2.5l-10,0.6l-4.5-1.8c-1.3-0.5-1.8,1.6-0.6,2c0.1,0,0.1,0,0.2,0.1h-0.1
	c-93,5.7-186,11.3-278.8,19.5c-92.1,8.1-184.3,15.9-276,27.6c-20.7,2.6-41.4,5.8-61.7,10.8s-39.7,12.4-58.8,21.1
	c-1.4,0.7-2.9,1.3-4.3,2c-9.5,1.1-19.1,2.2-28.6,3.5c-2.8,0.4-2.9,4.6,0,4.5l12.7-0.9c-12.6,5.4-25.5,9.9-39.1,11.4
	c-18.8,2.1-35.6-3.5-51.3-13.5c-4.1-2.6-8.2-5.5-12.3-8.4c0.3-0.2,0.4-0.7,0.2-1c-0.1-0.2-0.3-0.3-0.6-0.3c-0.4,0-0.8,0.1-1.2,0.1
	c-21.3-15.3-43.1-32.2-70.6-29.3c-10.4,1.1-20.4,4.3-30.4,7c-10.4,2.9-21,5.1-31.7,6.7c-22,3.1-44.2,3.8-66.4,2.3
	c-87.5-5.4-169.4-38.9-254.3-57.8c0.5-0.1,1-0.2,1.6-0.3c23.9-4.5,48.3-5.5,72.5-6.7c25.9-1.2,51.8-2.4,77.8-3.4
	c182.3-7.2,364.9-7.6,547.4-4.6c90.1,1.5,180,1,270-4.9c89.2-5.8,178.2-15.3,267.1-25c14.1,5.8,28.4,10.1,43.6,10.2
	C1442.9,1122,1444.9,1131.2,1446.9,1140.4L1446.9,1140.4z M606.4,1219.9c-6.6,1.1-13.2,2.5-19.9,3.6c-10.7,1.9-21.5,3.6-32.3,4.9
	c-20.2,2.5-40.5,4.2-60.8,3.3c-35.7-1.6-69.7-13.3-105.3-16.1c-36-2.8-71.7,5.5-107.6,4.5c-35.4-1-70.8-7.6-105.2-15.5
	c-27.4-6.3-55.6-15.3-75.3-36.2c15.9-7.7,32.5-13.8,49.6-18.3c0.1,1.3,1.1,2.3,2.4,2.5c10.9,2.2,21.8,4.7,32.6,7.4
	c85.5,21.2,170,54.4,259.5,52c21.1-0.5,42-3.3,62.5-8.3c20.3-5.1,40-13.5,61-6.8C582.1,1201.6,594.3,1210.7,606.4,1219.9
	L606.4,1219.9z M80.3,940.3c8.3,2.1,16.7,3.7,25.2,5c19.9,3.1,40,5.6,60,7.8c41.3,4.6,82.9,7.9,124.4,9.7
	c75.1,3.3,150.4,1.8,225.3-4.4c36.8-3,73.5-7.3,110-12.4c37.8-5.3,75.5-10.3,113.7-7.9c37,2.3,73.5,8.9,110.3,13.6
	c35.4,4.5,70.9,6.9,106.5,4.8c67.9-3.9,135-21.4,195.7-52.1c3.3-1.6,0.4-6.4-2.8-4.9c-70.1,33.7-147,52-224.9,51.9
	c-71.7-0.1-142-19-213.8-17.7c-36.7,0.6-72.9,6.3-109.2,10.7s-72.9,7.8-109.6,10.1c-73.7,4.5-147.7,4.7-221.4,0.5
	c-36.6-2.1-73.2-5.3-109.6-9.6c-18.4-2.2-36.9-4.5-55.2-7.4c-16.2-2.6-32.3-6.1-47.2-12.9c7.1-9,16-16.3,25.6-22.6
	c21.6-14.1,45.3-25.5,68.2-37.3c24.6-12.7,49.4-24.9,75-35.6c51.2-21.4,104.9-35.7,160.7-35.9c29.8-0.1,59.5,2.8,89.2,3.9
	s59.6,0.9,89.3,0c60.1-1.9,120-6.5,180.1-8.5c120.1-4,240.2,1.6,359.9,11.3c59.7,4.8,119.3,10.7,178.9,16.8
	c24.1,2.5,48.4,4.6,71.7,11.5c22.2,6.5,45.6,18.4,57.8,39c6.4,10.7,9.8,25.3,1.3,35.9c-6,7.5-15.7,10.6-25.2,12
	c-1.2,0.1-2.4,0.2-3.6,0.4l-3.6,0.3c-28.4,1.6-56-6.4-82.9-14.4c-43.8-12.9-95.9-26.2-136.6,2.5c-2.6,1.8-0.1,6.2,2.5,4.3
	c10.2-7.1,21.7-11.9,33.9-14.1c55-10.6,106.1,20.8,159.5,27.2c12.1,1.5,27.1,2.3,40.2-1.1c4.5,1.3,8.2,3.9,9.6,9.2
	c2.7,10.1-4.6,20.4-13.4,24.4c-6.6,3-13.9,3.8-21.1,3.8c-2.3-1.4-4.3-3.2-5.9-5.4c-1.2-1.7-4.1-0.1-2.8,1.7c0.9,1.3,2,2.5,3.2,3.6
	l-6.7-0.3c-24.8-1.2-49.6-1.3-74.5-0.4c-49.7,1.7-99.2,6.7-148.6,12.6c-99.7,11.9-198.9,25.5-299.3,29.7c-49.4,2.1-98.7,1.1-148.2,1
	c-23.1,0-46.4,1-69.2,5.7c-20.9,4.3-40.5,12.4-59.9,21.3c-19.7,9-39.4,18.7-60.4,24.3c-21.6,5.8-43.3,5.6-65,0.2
	c-3.7-0.9-7.4-2-11.1-3.1l4.4-0.9c3.4-0.7,1.9-5.7-1.4-5.1c-4.5,0.8-9.1,1.7-13.6,2.5c-13.4-4.7-26.5-10.3-39.7-15.6
	c-20.7-8.3-41.7-15.1-63.8-18.6c-45.4-7.3-91.7-4.7-137.2-11.3c-21.1-3-43.1-7.7-61.9-18C97.2,973,82.1,959.3,80.3,940.3z
	 M108.6,990c0.5-0.1,0.9-0.5,1.1-0.9c25.1,13.6,57.1,17.9,83.2,20.2c48.5,4.4,98.1,0.9,145.4,14.2c21.7,6.1,42.6,15.8,63.8,24.1
	c-20.3,3.3-40.9,5.6-61.4,4.1c-12.7-0.9-25.1-3.5-37.1-7.7c-12.1-4.2-23.9-9.6-36.3-13.1c-24.6-7-50.5-7.1-75.9-7.6l-82.9-1.5
	c-8.1-0.1-22.9,0.3-25.7-9.8C78.9,998,98.9,992.4,108.6,990L108.6,990z M87.8,1026.2c0.3-0.2,0.6-0.4,0.8-0.6c1,0.4,2.1,0.8,3.1,1.1
	c12,3.3,25.5,1.8,37.8,2c15.3,0.3,30.6,0.5,46,0.8c29.4,0.5,59.8-0.6,88.4,7c13.6,3.6,26.5,9.6,39.8,14.1c13.4,4.4,27.5,7,41.6,7.5
	c22.6,1,45-2.3,67.2-6.5c18.4,6.6,37.3,11.6,57.3,11.7c45,0.1,83.6-26.2,124.3-41.5c48.5-18.2,100.3-14.2,151-14
	c53.5,0.2,107.1-1.8,160.5-5.8c106.2-7.9,211-26.8,317-36.1c26.5-2.3,53-3.8,79.6-4.3c13.1-0.2,26.1-0.2,39.2,0.1
	c11.6,0.3,23.4,1.5,35.1,1.2c7.2,3.7,15.5,5.7,21.6,11.5c5.4,5.1,7.2,13.6,0.1,18.1c-3.8,2.4-8.7,3.1-13.3,3.1
	c-0.3-0.1-0.5-0.1-0.8,0c-1.1,0-2.1,0-3.1-0.1c-7.6-0.4-15.1-2.1-22.7-3.1c-9-1.2-18-2.1-27.1-2.9c-17.5-1.4-35-2-52.5-2
	c-64.6,0.1-128.8,8.4-192.9,16.1c-32,3.8-64.1,7.2-96,11.5c-15.9,2.1-31.1,5.9-46.5,10.3c-15,4.2-30.4,6.9-46,7.9
	c-31.8,2.1-63.5,1.2-95.2,5c-30.8,3.7-61.4,9.5-92.2,13.5c-31.1,4-62.6,6.1-93.8,2.2c-29.2-3.6-59.7-13.1-88.4-2.1
	c-3.9,1.5-2.2,7.9,1.8,6.4c7.2-2.8,14.8-4.4,22.5-4.8c15.8-0.9,31.4,2.2,46.9,4.9c15.3,2.8,30.8,4.5,46.3,4.9
	c31.8,0.7,63.4-3.8,94.8-8.9c32.2-5.2,64.4-11,97-12.9c32-1.8,64.5,0,95.9-7.5c15.7-3.7,30.9-9.3,46.9-12
	c16.7-2.9,33.6-4.6,50.3-6.6c33.1-4.1,66.2-8.3,99.4-12.3c65.5-7.9,131.7-14.3,197.7-9.5c16.3,1.2,32.3,3.6,48.5,5.7
	c4,0.6,8,0.7,12,0.5c43.4,15,71.7,63.5,62.5,108.7c-9.6,1.1-19.3,0.4-28.7-1.8c-6.2-1.5-12.3-3.4-18.2-5.7c0.5-1.2,0-2.8-1.6-2.7
	c-1.4,0.1-2.7,0.3-4.1,0.4c-29.1-12-56.2-29.8-88.6-30.7c-40.9-1.1-76,22.3-113.2,35.3c-20.8,7.2-42.1,12.1-64.2,10.2
	c-24.2-2.1-47.3-10.7-69.9-19.1c-22.8-8.5-45.6-16.5-69.6-21.4c-24-4.9-48.4-7.3-72.9-7c-50.3,0.5-99.4,12.6-148.7,21.5
	c-51.9,9.4-104.5,13.6-157.2,15.1c-52.2,1.4-104.5,0.5-156.7-0.5s-104.1-2.4-155.3-13.1c-24.5-5.1-48.9-11.2-73.9-13.7
	c-21.7-2.1-43.2,0.1-64.9,1.2c-20.2,1-42.1,1.3-60.5-8.4c-8.4-4.5-15.8-10.5-19.4-19.6c-0.4-1-0.7-2-1-3.1c2.3-0.4,4.7-0.7,7.1-1
	c3.9-0.4,3.9-6.5,0-6.1c-2.7,0.3-5.4,0.7-8,1.2C80.6,1034.1,82.4,1029,87.8,1026.2z M32.1,1196.1c-22.9-24.6-31.4-60-20.4-92.2
	c9.7-28.4,34.8-49.9,63.6-57.2c3.1,11.8,12.9,21.3,23.5,27.1c17.1,9.2,37.4,10.6,56.4,9.9c22.4-0.8,44.7-4,67.1-2.5
	c26.7,1.8,52.6,8.8,78.6,14.3c52.2,11.2,105.3,12.3,158.5,13.4c53.6,1.1,107.1,2,160.7-0.1c53.2-2.1,106.1-7.2,158.5-17
	s104.8-22.2,158.5-20c26.1,1.1,52,5.2,77.2,12.1c24,6.7,46.9,16.6,70.5,24.5c22.2,7.4,45.6,12.8,69.2,10.4
	c20.5-2.1,39.4-9.6,58.3-17.6c39.6-16.8,79.7-37.9,123.7-24.8c18.3,5.5,36,15.1,54,23.1c-98.4,9.9-196.7,19.8-295.5,24.8
	c-91.1,4.6-181.9,2.1-273.1,0.5c-91.7-1.5-183.4-1.7-275.2-0.7c-91.7,1.1-183.4,3.6-275.1,7c-43.6,1.6-88.8,0.9-131.1,12.7
	C101.1,1154.6,66.3,1175.3,32.1,1196.1L32.1,1196.1z M1434.4,1262.4c-13.4,14.4-32.3,22.7-49.7,30.9c-22.4,10.6-45.2,19.6-69.6,24.1
	s-49.6,5.4-74.5,6.5s-49.6,1.2-74.4,1.5c-49.6,0.5-99.2,0.6-148.7,3.5c-48.4,2.8-96.6,9.1-144.1,19.1c-47.7,10-95.2,22.1-143.9,26.2
	c-47.4,4-93.7-2.2-139.8-13c-44.9-10.5-89.1-24-134.5-32.7c-47.6-9.1-95.2-9.6-143.4-5.4c-24.6,2.1-49,5.3-73.5,7.9
	c-23,2.4-46.6,4-69.4-0.8c-25.6-5.3-48.4-19.8-64-40.9c-3.4-8.7-6-17.6-7.7-26.8c-0.4-2.3-0.8-4.6-1.1-7
	c12.5,6.6,25.8,11.4,39.7,14.1c45.5,9,91.8-0.7,137.6-2.4c47.7-1.8,95.6,0.2,143.4,0.9c48.4,0.7,96.8,1.3,145.3,2
	c48.5,0.7,96.9,1.3,145.3,1.9c46.9,0.6,94.5,3.2,141.1-3.3c47-6.5,92-21.6,139.5-24.7s95.6-1.3,143.2-1l144.6,0.7
	c24.7,0.1,49.5,0.3,74.2,0.2c5,0.5,9.9,0.9,14.9,1.2c26.6,1.6,53.3,1,80-0.4C1442.8,1251.3,1439.2,1257.3,1434.4,1262.4
	L1434.4,1262.4z M1479.2,1237.2c-10,0.6-19.9,1.2-29.9,1.7c0.1-0.9,0.1-1.8,0.2-2.7c0-0.9-0.7-1.5-1.6-1.5c-0.9,0-1.5,0.7-1.5,1.5
	c-0.1,1-0.2,1.9-0.3,2.9c-8.3,0.4-16.7,0.8-25,1.1c-0.2-0.1-0.4-0.2-0.6-0.2c-11.8-0.6-23.6-1.2-35.5-1.4l-44.7-0.6
	c-34-3.7-67.2-12.1-100.6-19.4c-35.8-7.8-71.5-13.6-108.3-12.9c-39,0.7-78.1,3.9-117.1,6.1c-39.2,2.2-78.4,4.6-117.6,6.9
	c-2.1,0.1-2.1,3.4,0,3.3c44.2-2.1,88.4-4.3,132.5-6.5c38.9-2,78-5.4,116.9-5.4c37.4,0,73.7,7.6,109.9,16
	c17.6,4.1,35.1,8.2,52.8,11.6c-69.2-0.7-138.5-1-207.7-1.4c-46.5-0.3-93.5-2.3-139.8,3.6c-45.5,5.8-89.3,20.8-135.2,24.4
	c-46.7,3.7-94,1.1-140.8,0.3c-47.5-0.7-95-1.4-142.6-2.2c-47.5-0.7-95.1-1.5-142.6-2.1c-46.7-0.6-93.6-2.2-140.3,0.5
	c-44.1,2.5-90.4,11.2-133.8-0.7c-10.9-3-21.3-7.4-31-13.1c0-0.3,0-0.7-0.1-1c-4.8-1.3-9.1-3.9-12.4-7.6
	c-14.2-11.2-25.3-25.9-30.3-43.9c13.9-8.3,28.1-16.4,42.6-23.5c22,24.4,54.7,33.7,85.9,40.1c35.3,7.2,71.3,14.1,107.5,14.1
	c37.3,0,74.4-11,111.7-5.7c18,2.6,35.5,7.7,53.2,11.4c17.4,3.7,35.1,5.6,52.8,5.5c18.3-0.2,36.5-1.9,54.5-5
	c16.1-2.6,32.8-5.1,48.6-9.4c12.8,9.7,25.6,19.4,41.3,23.9c30.4,8.9,59.7-4.2,87.7-17c43.2-3.5,86.4-8.5,129.5-12.7
	c95.3-9.3,190.6-18.8,285.9-28.5c48.1-4.9,96.1-10.2,144.2-15s96.1-9.5,144.2-14.4c0.4-0.1,0.8-0.3,1-0.6c7.8,8.6,15.9,17,22.9,26.3
	C1476.9,1199.1,1485,1218.6,1479.2,1237.2L1479.2,1237.2z"/>
<path class="st2" d="M1087.1,1260.6c16.8-3,34.3-2.9,51.4-2.7c17.9,0.2,35.7,1.3,53.5,2.3c34.8,2.1,69.8,4.2,104.7,0.9
	c9.3-0.9,18.5-2.6,27.8-3.6c6.5-0.7,13.1-0.4,17,5.5c0.4,0.8,0.1,1.8-0.6,2.2c-0.5,0.3-1.1,0.3-1.6,0c-6.3-3.7-13.3-2.4-20.1-1.2
	c-8.1,1.4-16.2,2.5-24.3,3.3c-16.4,1.4-32.8,2-49.3,1.7c-33.4-0.4-66.8-2.7-100.3-3.2c-19.1-0.2-38,1.2-57.1,1.8
	C1084.1,1267.7,1083.1,1261.3,1087.1,1260.6z"/>
<path class="st2" d="M733.5,1110.5c23.8-1.6,47.4-3.1,71-6.4c23-3.2,45.9-7,68.9-10.2c41.3-5.7,83.3-9.1,124.6-1.7
	c22.4,4,44.1,11.4,63.6,23.4c3.6,2.2,0.4,7.8-3.3,5.7c-35.8-19.9-76.6-26.2-117.2-25.4c-44,0.8-87.2,10.1-130.7,15.6
	c-25.3,3.2-51.4,6.2-76.9,3.2c-1.1-0.3-1.8-1.5-1.5-2.6C732.2,1111.3,732.8,1110.7,733.5,1110.5z"/>
<path class="st2" d="M593.1,1114.7c5-2.5,11.1-2.5,16.6-3.1c6.7-0.8,13.4-1.4,20.2-1.9c13.2-0.9,26.4-1.3,39.6-1.4
	c2.7,0,2.6,4,0,4.1c-12.9,0.7-25.8,1.7-38.6,3.1c-6.1,0.7-12.2,1.3-18.3,2.1s-12.8,2.7-18.9,1.5
	C591.7,1118.8,591.3,1115.6,593.1,1114.7z"/>
<path class="st2" d="M306.8,974.2c13.3-1.4,27.5,2.2,40.7,3.9c13,1.7,26,3.2,39.1,4.5c26.3,2.6,52.7,4.2,79.1,3.7s52.7-3,78.4-8.6
	c26.4-5.7,51.1-16.4,77-23.8c14.3-4.2,28.8-7.2,43.6-9.1c14.9-1.8,30.3-3,45.2-1.3c1.1,0,2,0.9,2,2.1c0,1.1-0.9,2-2,2
	c-14.1,1.6-28.3,2.2-42.4,4.4c-13.1,2-26,4.7-38.8,8.1c-26,7.1-50.7,18.3-77,24.6c-51.3,12.4-104.6,12-156.9,7.1
	c-14.9-1.4-29.8-3.1-44.7-5.1c-7.2-0.9-14.3-2-21.5-3c-7.8-1.1-15.3-1.9-22.6-4.9c-1.2-0.4-1.9-1.8-1.4-3
	C304.9,974.8,305.8,974.2,306.8,974.2z"/>
<path class="st2" d="M1142.1,981.8c11.5-5.6,24.5-8.7,37-11.1c12.7-2.5,25.6-3.9,38.6-4.4c13-0.4,25.9,0.2,38.8,1.8
	c7.1,0.9,14,2.3,21.1,3.2c3.2,0.4,6.4,0.7,9.7,0.8s5.9-0.7,8.7,1.1c0.9,0.6,1.2,1.8,0.6,2.7c-0.1,0.1-0.1,0.2-0.2,0.2
	c-3.6,3.8-11.1,2.5-15.8,2.2c-6.5-0.4-12.9-1.5-19.3-2.4c-13.1-1.9-26.4-2.8-39.7-2.5c-13,0.2-25.9,1.5-38.6,3.9
	c-13.1,2.4-25.6,6.6-38.5,9.7C1141.3,987.6,1139.1,983.2,1142.1,981.8z"/>
<path class="st2" d="M171.1,1279.3c53.6,12.1,109.6,12.2,163.8,3.7c26.9-4.2,53.5-7.5,80.8-7.2c28.3,0.3,56.6,2.7,84.9,4.3
	c31.4,1.8,62.7,4,94,7.2c0.7,0,1.3,0.6,1.3,1.3s-0.6,1.3-1.3,1.3c-56.4,0.2-112.7-3.8-169.1-5.2c-14.3-0.4-28.7-0.5-43,0.5
	c-13.7,0.9-27.2,3-40.7,5c-26.8,4-53.6,6.8-80.7,6.5c-30.6-0.4-61.5-5.4-91.2-12.4C166.6,1283.4,168,1278.6,171.1,1279.3z"/>
<path class="st2" d="M92.2,1180.5c0.6-2.6,3.7-3,5.5-1.5c3.7,3,6.5,7.1,9.8,10.6c3.3,3.5,6.9,6.8,10.7,9.8
	c7.9,6.3,16.5,11.5,25.7,15.6c8.9,4,18.3,6.8,27.9,8.5c4.8,0.8,9.6,1.4,14.5,1.7c4.6,0.4,9.6-0.1,13.9,1.9c2.4,1.1,1.9,4.5,0,5.7
	c-4.3,2.7-10.4,2.3-15.4,2.2c-5-0.2-10-0.7-14.9-1.7c-10.7-2-21-5.4-30.8-10.1c-9.5-4.5-18.4-10.3-26.5-17.1
	c-5.8-4.9-12.7-10.9-17.2-17.7c-0.3,1-1.4,1.5-2.3,1.2c-0.5-0.2-1-0.6-1.2-1.2C90.8,1185.5,91.5,1183.3,92.2,1180.5z"/>
<path class="st3" d="M788.4,959.1c5-1.4,10.4-0.3,15.5,0.3c5.5,0.6,11.1,1.1,16.6,1.6c11.1,1,22.1,1.8,33.2,2.5
	c10.8,0.6,21.5,1.2,32.3,1.6c10.4,0.4,23.2-1.1,32.9,2.9c1.2,0.4,1.9,1.6,1.5,2.8c-0.2,0.7-0.8,1.3-1.5,1.5
	c-9.5,3.9-21.9,2.1-32,1.9c-11.4-0.2-22.9-0.7-34.3-1.4c-11.1-0.7-22.2-1.6-33.2-2.7c-5.5-0.5-11.1-1.1-16.6-1.7
	c-5.2-0.6-10.7-0.7-15.3-3.3C785.1,963.8,785.7,959.9,788.4,959.1z"/>
<path class="st3" d="M33.4,1181.6c6.8-9,17.8-14.7,27.4-20.2c9.7-5.5,19.7-10.5,30-15c21.3-9.3,43.6-16.4,66.4-20.9
	c49.7-10.4,100.8-11.1,151.4-8.9c15.1,0.7,30.2,1.6,45.3,2.5c14.9,0.9,30.2,0.9,44.8,3.9c1.9,0.4,1.3,3-0.4,3.2
	c-13,1.5-26.3,0-39.4-0.5s-26.3-1.1-39.4-1.5c-26.2-0.8-52.5-1.1-78.8,0.1c-46.8,2.2-93,10-136.6,27.2c-11.6,4.6-22.8,9.9-33.6,16.1
	c-5.3,3.1-10.5,6.3-15.6,9.8c-5.5,3.7-10.4,7.7-16.6,10.2C34.9,1189.1,31.3,1184.4,33.4,1181.6z"/>
<path class="st3" d="M1060.7,1055.9c6.7,2,12.6,6.9,18.4,10.6c6.1,3.9,12,8,18.1,12c12,7.9,24.6,15,38.8,17.9
	c15.2,3.1,28.7-0.5,42.1-7.7c5.6-3,11-6.6,17-8.6c2.4-0.8,5.4-1.6,7.9-0.9c2.7,0.7,2.9,2.2,4.7,4c0.6,0.6,0.6,1.6,0,2.1
	c-0.4,0.4-0.9,0.5-1.5,0.4c-0.8-0.2-1.8,0.6-2.5,0.8c-1.4,0.4-2.8,0.4-4.2,0.9c-3.5,1.1-6.8,3.3-9.9,5.1c-6.1,3.4-12.1,7-18.5,9.7
	c-13.2,5.6-27.2,6-40.9,2.3c-13.5-3.6-25.8-10.7-37.3-18.5c-6-4.1-11.8-8.4-17.5-12.8s-12.5-8.4-16.8-14.3
	C1057.2,1057.5,1059,1055.4,1060.7,1055.9z"/>
<path class="st3" d="M1237.5,1059.9c3.7-4.7,12.3-6.7,17.8-8.4c7-2.3,14.2-4,21.5-5.2c14.1-2.4,28.5-2.8,42.8-1.4
	c14.3,1.4,28.3,4.8,41.7,10c13.5,5.3,25.6,12.7,37.6,20.6c6.6,4.4,13.2,8.7,20.2,12.5c3.5,1.9,7.2,3.7,10.9,5.2
	c3.9,1.6,8.3,2.5,11.8,4.8c2.4,1.6,1.3,4.8-1.4,5.1c-6.2,0.8-13.3-2.6-18.8-5.1c-6.2-2.9-12.1-6.1-17.9-9.7
	c-11.9-7.3-23.3-15.5-35.9-21.5c-25.5-12.3-54.6-16.7-82.7-13.5c-7.8,0.9-15.5,2.5-23.1,4.6c-3.9,1.1-7.9,2.4-11.7,3.8
	c-3.6,1.3-7.1,3.4-10.9,3.1C1236.9,1064.7,1236,1061.9,1237.5,1059.9z"/>
<path class="st3" d="M702.4,1029.9c40.9-1,81.8-2.5,122.7-4.9c20.4-1.2,40.8-2.7,61.2-4.4c9.9-0.8,19.7-1.7,29.6-2.6
	s20.1-2.7,30.1-1.1c2.2,0.4,1.6,3.2,0,3.9c-9.5,3.8-20,3.9-30.1,4.8c-9.9,0.9-19.7,1.8-29.6,2.6c-20.4,1.7-40.8,3.1-61.2,4.3
	c-40.9,2.4-81.7,3.9-122.7,4C698.2,1036.5,698.2,1030,702.4,1029.9z"/>
<path class="st3" d="M375.7,837.9c28.9-13.3,60.5-19.9,91.9-24c31.9-4.2,64.1-5.3,96.2-5.3c17.7,0,36.2-0.7,53.7,1.6h0.1
	c3.9,0.1,3.8,5.6,0,6c-15.5,1.7-31.7,0.6-47.4,0.7s-31.7,0.4-47.5,1.2c-31.2,1.6-62.4,5-92.9,12.3c-17.3,4.1-34.1,9.5-50.9,15.3
	C374.5,847.4,371.2,840,375.7,837.9z"/>
<path class="st3" d="M761,902.9c29.8,1.1,59.6,0.6,89.3-1.5c29.6-2,58.6-2.1,88.2,0.8c28.9,2.8,58.1,6.7,87.2,4.1
	c26.9-2.4,52-12.4,77.2-21.3c13.6-4.8,27.3-9.3,41.5-11.9c6.9-1.3,13.8-2,20.8-2.1c3.3-0.1,6.6,0,9.9,0.3c3.6,0.3,7,1.9,10.5,3.1
	c1,0.3,1.5,1.4,1.2,2.3c-0.2,0.7-0.9,1.2-1.7,1.3c-3.4,0-6.7,0.8-10,0.8c-2.8,0-5.5-0.1-8.3,0c-6.8,0.3-13.6,1.2-20.3,2.5
	c-12.8,2.4-25.2,6.4-37.4,10.7c-24.8,8.7-49.2,18.9-75.4,22.4c-28.9,4-57.9,0.7-86.7-2.6c-29.5-3.4-58.4-4.9-88.1-3.4
	c-32.5,1.6-66.5,6.2-98.6-0.9C758,906.7,758.5,902.7,761,902.9z"/>
<path class="st3" d="M557.6,908.7c7-2.8,16.4-2,23.9-2.4c8.3-0.5,16.7-0.9,25-1.4c3.7-0.2,3.5,5.2,0,5.6c-8.3,1-16.6,1.9-25,2.9
	c-7.5,0.8-16.5,3.1-23.9,1.5C554.2,914.1,554.9,909.8,557.6,908.7z"/>
<path class="st3" d="M1240.3,854.4c9.1-1.3,19.3,1.3,28.4,2.4c9.6,1.2,19.2,2.4,28.8,3.7l29.7,4c4.6,0.6,9.2,1.2,13.8,1.9
	c4.4,0.7,9.2,0.6,12.6,3.7c1,1.1,1,2.7-0.1,3.8c-0.1,0.1-0.3,0.2-0.4,0.3c-4.1,2-8.7,0.7-13.2,0.2c-4.3-0.5-8.7-1.1-13-1.7
	c-9.9-1.3-19.8-2.7-29.7-4s-19.8-2.7-29.6-4.2c-9.1-1.4-19.6-1.6-28-5.2C1237.6,858.5,1238,854.7,1240.3,854.4z"/>
<path class="st3" d="M120.1,907.2c6-3.9,12.3-8.4,19.1-10.9c1.9-0.7,3.3,2,1.9,3.3c-3.3,3.1-7.3,5.5-11.1,7.9
	c-2,1.3-9.1,4.5-11.1,7.7c9-0.7,17.6,3.8,25.9,6.7c12.1,4.2,25,3.9,37.7,4.2c13.1,0.3,26.2,0.1,39.2-0.8c6.8-0.4,13.7-0.9,20.5-1.6
	s13.7-2,20.4-1.2c2.4,0.3,4.2,3.9,1.4,5.1c-5.6,2.5-11.7,3.3-17.8,4.1c-6.5,0.9-13.1,1.7-19.7,2.2c-13.4,1-26.8,1.5-40.2,1.4
	c-12-0.1-25.1,0.2-36.7-3.3c-11.2-3.3-20.4-15-32.9-11.8c-1.3,0.3-2.6-0.4-3-1.7C112,913.3,115.9,909.9,120.1,907.2z"/>
<path class="st3" d="M573,1156.1c14.7-3.3,29.6-5.5,44.4-8.1c10.2-1.8,22-4.4,31.3,1.7c0.9,0.6,1.2,1.8,0.7,2.7
	c-0.1,0.1-0.2,0.2-0.3,0.4c-4.8,4.4-10.5,7.9-16.6,10.3c4.8,1.6,9.6,2.9,14.5,4c8.2,1.7,16.5,2.8,24.9,3.3c15.9,1.1,32,0.8,47.9,0.7
	c3.8,0,5.1,5.2,1.9,7.1c-8.7,5.2-17.4,10.6-25.9,16.2c-7.7,5-15,10.5-22.7,15.4c0.6,1.6,1.8,2.8,3.3,3.6c2.2,1.3,0.3,4.4-2,3.3
	c-3.2-1.5-6.8-3.7-8.8-6.6c-0.8-1.4-0.6-3.2,0.6-4.3c12.2-10,26-18.7,39.7-27c-12.3,0.1-24.5-0.4-36.7-1.7
	c-15.5-1.7-32.7-4.1-46.6-11.4c-2.6-1.4-1-4.8,1.4-5.1c7.6-0.9,14.4-4.8,20.5-9.2c-9.1-5.4-23.2-0.1-32.6,1.7
	c-12.5,2.4-25,5.2-37.6,7.1C571.4,1160.6,570.2,1156.7,573,1156.1z"/>
<path class="st3" d="M629.7,1351.8c6.3-1.8,13.7-1.2,20.3-1.5c7.5-0.4,15-0.8,22.4-1.5c14.5-1.3,29-4.8,43.5-5.6
	c4.1-0.2,4.4,5.5,0.9,6.8c-13.5,4.9-29.2,5.9-43.4,7.3c-7.1,0.7-14.3,1.2-21.4,1.3s-15.5,0.9-22.2-1.3
	C627.1,1356.4,626.9,1352.6,629.7,1351.8z"/>
<path class="st4" d="M642.9,1296.3c1.5-0.7,3-1.5,4.5-2.2c1-0.5,2.2-0.1,2.7,0.9c0.1,0.2,0.2,0.4,0.2,0.6c19.8-1,39.6-0.7,59.4-0.8
	l31.7-0.3c10.4-0.1,21.8-0.7,32.1,0.8c1.6,0.2,1.6,3,0,3.3c-10,1.8-21,1.5-31.1,1.7c-10.9,0.2-21.8,0.4-32.6,0.7
	c-21.7,0.4-43.6,1.5-65.3,0.7C641.6,1301.6,640.2,1297.7,642.9,1296.3z"/>
<path class="st4" d="M805.8,1307c10.3,0.3,20.6,0.7,30.9,0.5c7.7-0.2,15.9-2,22.5,3.2c1.6,1.3-0.2,3.4-1.8,3.1
	c-8.4-1.5-15.9-3.5-24.5-3.2c-9,0.3-18,0.8-27,1.4C802.6,1312.1,802.6,1306.9,805.8,1307z"/>
<path class="st4" d="M914.9,1153.7c9.8-1.7,20.2-1.2,30.1-1.7c10.5-0.5,21.1-1.1,31.6-1.7c21-1.2,42.1-2.5,63.2-3.1
	c3-0.1,2.9,4.3,0,4.6c-20.6,2.4-41.4,3.8-62.2,4.5c-10.2,0.4-20.4,0.7-30.6,0.9c-10.3,0.2-21.4,1.4-31.6,0.1
	C913.6,1157.2,912.6,1154.1,914.9,1153.7z"/>
<path class="st4" d="M841.5,1158.2c6.8-1.6,14.5-1.3,21.4-1.7c2.1-0.1,2.1,3.1,0,3.3c-6.8,0.6-14.2,2.1-21,1.6
	C840.3,1161.1,839.7,1158.6,841.5,1158.2z"/>
<path class="st4" d="M61.8,1085.8c6.9,7.5,11.1,16.2,21.8,18.6c9.8,2.3,21,1.4,31,1.3c10.3,0,20.6-0.6,30.8-1.9
	c10.1-1.4,19.8-4.1,29.7-6.7c1-0.3,2,0.3,2.2,1.3c0.2,0.8-0.1,1.6-0.8,2c-19.2,11-44,11.4-65.6,11.4c-9.9,0-22.5,1.6-31.8-2.4
	c-9-3.9-14.9-14-19.2-22.2C59.4,1086.1,60.9,1084.8,61.8,1085.8z"/>
<path class="st4" d="M1064.9,993.7c3.1-0.8,6.4,0.1,9.6,0.4l10.5,1.2c2.5,0.3,2.6,4.1,0,4c-3.7-0.2-7.5-0.3-11.2-0.5
	c-3.2-0.1-6.3,0.1-9.3-1.2C1062.6,996.8,1063.2,994.1,1064.9,993.7z"/>
<path class="st4" d="M1129,1016.9c30.7-2.5,61.4-4.3,92.1-5.4c15.2-0.5,30.4-0.7,45.6-0.8c7.6,0,15.2-0.1,22.8,0.2
	c7.4,0.3,14.9,0.2,22.1,2c0.6,0.2,0.9,0.8,0.8,1.4c-0.1,0.4-0.4,0.7-0.8,0.8c-7.2,1.7-14.8,1.5-22.1,1.7s-14.5,0.2-21.8,0.3
	c-15.5,0.2-31.1,0.6-46.6,0.9c-26.2,0.6-52.3,1.6-78.4,3c21,6.2,42.7,11,64.5,13c1.1,0,2,0.9,2,2.1c0,1.1-0.9,2-2,2
	c-8.6,0.6-17.2,1.3-25.9,2c-8.4,0.6-17.4,2.7-25.8,1.6c-0.9,0-1.6-0.7-1.5-1.6c0-0.7,0.5-1.3,1.1-1.5c7.6-3.1,17.1-3,25.2-3.7
	l4.9-0.3c-19.2-3.2-38.2-7.5-56.9-12.9C1125.6,1020.9,1126.3,1017.1,1129,1016.9z"/>
<path class="st4" d="M1037.9,853.1c26.3-4.7,53.7,3.1,80,3.8c24.7,0.7,48.4-5.1,72-11.7c-9.6-2.4-18.6-5.9-27.9-9.5
	c-12.4-4.8-24.1-10.5-37.6-6.4c-0.6,0.2-0.9-0.8-0.3-1c11.5-3.9,24.4-2,35.7,1.8c6.2,2,12.1,4.9,18.2,7.1c7.1,2.5,14.4,4.3,21.8,5.6
	c2.3,0.4,2,3.8,0,4.3c-25.8,7.4-52,14.7-79,14.4c-13.5-0.2-26.9-1.8-40.3-3c-14-1.2-28.1-1.5-42.1-1.1
	C1036,857.5,1035.4,853.6,1037.9,853.1z"/>
<path class="st4" d="M985.5,861.3c5.9-2.2,13.1-2.5,19.4-3.5c2.5-0.4,3.6,3.5,1.1,3.9c-6.4,1-13.5,3.1-20,2.9
	c-0.9,0-1.7-0.8-1.6-1.8C984.4,862.1,984.9,861.5,985.5,861.3z"/>
<path class="st4" d="M447.1,861.4c15.5-2.5,31.5-2.9,47.2-3.5l48.9-1.8l47.9-1.8l23.9-0.9c8.4-0.3,17.6-1.4,25.9-0.4
	c2.1,0.2,3,3.6,0.5,4.1c-7.6,1.5-15.8,1.2-23.5,1.6c-8,0.4-16,0.6-23.9,1c-16.3,0.6-32.6,1.3-48.9,1.9l-47.9,1.9
	c-16.5,0.7-33.4,1.7-49.9,0.3C446.2,863.6,445.7,861.6,447.1,861.4z"/>
<path class="st4" d="M471.8,1029c3.4-1.9,7-2.2,10.7-2.9c4.1-0.8,8-1.8,12-2.9c8.3-2.2,16.4-5.3,24.1-9.2c2.1-1.1,3.9,2,1.9,3.2
	c-7.4,4.6-15.3,8.6-23.4,11.8c-7.1,2.7-17.1,6.3-24.7,4.3c-1.3-0.3-2-1.6-1.7-2.9C470.9,1029.8,471.3,1029.3,471.8,1029z"/>
<path class="st5" d="M1313.8,990.9v6l-22,18.7l-7.3,22.7l2,42.7l-5.3,32l-17.3,5.3l-20.7-17.3l-14-7.3l-14,18v42.7
	c0,6-16.7,58-16.7,58s-20,13.3-20.7,11.3s-16.7-16-16.7-16l-8-37.3l6-56.7l-17.3-20.7l-17.7-6.2l-20.9,13.5h-25.3l-12-17.3l5.3-22
	l-11.3-24l-15.3,4.7l-6.7,12l-11.3,30.7l2,28.7l6,30l-5.3,24.7c0,0-30,19.3-32,19.3s-23.3-0.7-23.3-0.7l-15.3-11.3l-8-20.7
	l-0.7-27.3l2-26v-44l-16-9.3l-13.3,1.3l-16.7-2l-6-7.3l41.3-12l36.7-8.7l54.4-3.4c0,0,82.3-12.6,87.6-12.6s88.7-7.3,88.7-7.3l78-4
	L1313.8,990.9z"/>
<path class="st1" d="M897.7,1040.7c0.4,4.1,2.9,7.9,6.7,10.7c7.8,5.7,16.8,3.1,25.6,2.9c9.2-0.2,16.1,5.1,20.2,13.2
	c4.6,9.1,3.9,19.9,2.4,29.7c-1.5,10.2-3.9,20.3-5,30.6c-1.8,17.7,0.4,36.2,12.1,50.3c10.1,12.2,26.4,17.8,41.5,11.9
	c15.5-6,26.2-21.3,29.8-37.1c4.3-19.1,1.1-39,0.8-58.3c-0.2-10.1,0.2-20.2,3.1-29.9c2.6-8.5,7.8-18.7,17.3-21.1
	c19.3-4.8,15.9,25,16.4,35.6c0.6,13.5,7.2,28.8,23.3,27.3c14.9-1.3,24.8-16.8,40-16.2c9.3,0.4,16.6,7.8,20.6,15.6
	c4.6,9.2,4.5,19.8,3.7,29.8c-1.7,20-4.7,40.1-0.8,60c2.5,12.8,9.9,27.6,24.6,28.4c14.1,0.8,23.2-13,27.6-24.6
	c6.7-17.8,8.5-38.6,9.5-57.4c0.5-10.1-0.9-20.8,0.8-30.8c1.8-10.2,12.3-22.2,22.2-12.4c5,5,6.5,12.6,11.9,17.2
	c5,4.2,11.6,5.1,17.8,3.1c16-5.1,21.8-21.3,21-36.8c-1-19.7-7.3-38.7-0.7-58.1c5.4-16,22.4-29,39.7-22.9c3,1.1,5.1-3.8,2.2-5.1
	c-4.3-2-9.1-2.9-13.9-2.7c0.5-0.2,0.7-0.8,0.5-1.3c-0.2-0.3-0.5-0.6-0.9-0.6c-15.8-0.6-31.6,0.6-47.5-0.3
	c-15.7-0.9-31.7-0.1-47.5,0.4c-27.6,0.9-55.3,1.8-82.9,3.1c-13.8,0.7-27.6,2-41.1,5.2c-12.7,3-25.1,7-37.9,9.6
	c-26.9,5.6-54.3,3.2-81.5,4.8c-26.5,1.5-52.1,8.6-77.2,17.1c-0.8,0-1.6,0.2-2.2,0.7c-2.8,1.1-4.1,4.2-3,7
	C897.1,1039.8,897.4,1040.2,897.7,1040.7z M905.8,1040.8c13.3-4.7,26.6-9.7,40.4-13c15-3.6,30.2-5,45.5-5.5
	c26.8-0.9,54,0.1,80.3-6.3c12.7-3.1,25.1-7.1,37.9-9.4c13.6-2.5,27.5-2.9,41.4-3.4c27.7-1,55.4-1.6,83.1-3.2
	c13.9-0.8,27.7-1.5,41.5-3.2c12.7-1.6,25.6-1.4,38.4-2.6c-0.7,0.1-1.4,0.3-2.1,0.4c-15.5,3.9-26.2,17-30.2,32
	c-4.9,18.6,0.5,36.5,1.7,55.1c0.6,9.3-0.5,19.1-7.4,25.9c-5.2,5.1-13.5,8.4-20.2,4.2c-10.6-6.7-15.5-24.4-31.1-17.4
	c-15.8,7.1-11.9,30.2-12.7,44c-0.6,10.6-1.8,21.2-3.7,31.7c-1.6,9.1-3.3,18.5-7,27.1c-5.2,12-18.8,28.6-32.3,15.7
	c-5.7-5.4-8.3-13.5-9.9-21c-2.1-10.2-3-20.5-2.5-30.9c0.9-18.3,7.3-38-0.5-55.6c-5.6-12.7-17.9-22-32.2-18.6c-6.9,1.7-13.6,5-20,7.9
	c-5.8,2.7-13.2,6.2-19.5,2.9c-13.1-7-7.2-29.5-9.6-41.4c-2.6-13.4-14-24.1-28.1-17.6c-15.7,7.3-21.2,26.2-22.9,42
	c-2.1,19.5,1.9,39.2-0.2,58.7c-1.8,16.6-9.9,34.3-26.1,41.1c-15.9,6.6-30.9-4.5-37.4-18.8c-8.6-18.8-2.4-40.8,0.8-60.1
	c2.8-16.7,2.9-36-10.7-48.3c-5.8-5.3-13.5-8.1-21.4-7.5c-5.1,0.3-10.7,1.8-15.8,0.7C910.9,1045.9,906.8,1043.7,905.8,1040.8
	L905.8,1040.8z"/>
<path class="st4" d="M1263.5,1104.4c4.4-1,8.3-2.8,10.7-6.9c2.7-4.5,2.5-9.6,3-14.6c0-0.7,0.6-1.3,1.3-1.3c0.6,0,1.1,0.4,1.3,1
	c1.3,6.1,0.5,13.4-3.1,18.7c-2.9,4.1-8,7.2-13.1,5.6C1262.4,1106.4,1262.2,1104.7,1263.5,1104.4z"/>
<path class="st4" d="M1200,1116.7c0.1-3.8-0.2-7.8,0.5-11.6c0.9-4.5,4.2-9.9,9.4-7.8c0.5,0.2,0.8,0.7,0.6,1.3
	c-0.1,0.3-0.3,0.5-0.6,0.6c-6.4,2.6-5.7,9.9-6.2,15.7c-0.4,4.3-0.1,9.1-1.8,13.1c-0.3,0.7-1.3,0.4-1.5-0.2
	C1199.4,1124.3,1200,1120.4,1200,1116.7z"/>
<path class="st4" d="M1173.7,1201.2c2.1,0.5,3.6,2.1,5.8,2.4c2.5,0.3,5.1-0.6,6.8-2.5c3.9-3.6,5.6-8.9,7.6-13.7
	c0.5-1.3,2.2-0.7,2.6,0.3c3,7.8-1.7,17.4-8.9,21.3c-5.1,2.8-17.4,2.9-17.2-5.5c0.2-1.5,1.6-2.5,3.1-2.3
	C1173.6,1201.1,1173.6,1201.2,1173.7,1201.2z"/>
<path class="st4" d="M1165.7,1167c1-0.6,2.2-0.2,2.8,0.7c1.8,3.1,0.3,6.8,0.2,10.3c-0.1,4.4,0.6,8.8,2.2,12.9
	c0.9,2.6-3.4,4.5-4.6,1.9c-2.2-4.4-3.4-9.2-3.8-14.1C1162.1,1174.8,1161.9,1169.3,1165.7,1167z"/>
<path class="st4" d="M1090.6,1091c4.3-1.1,8.7-1.3,12.6-3.6c3.3-2,5.5-4.9,8.2-7.4c4.7-4.2,10.9-5.6,16.7-2.9
	c0.4,0.2,0.6,0.8,0.3,1.2c-0.1,0.2-0.3,0.3-0.5,0.4c-4.4,1-8.7,0.3-12.3,3.5c-2.7,2.4-4.7,5.4-7.6,7.7c-4.7,3.7-11.4,6.5-17.4,4.8
	C1088.9,1094.1,1088.8,1091.4,1090.6,1091z"/>
<path class="st4" d="M967.7,1159.3c0.5-0.9,1.6-1.1,2.5-0.6c0.1,0.1,0.2,0.1,0.3,0.2c4.1,4.9,5.9,10.4,13.1,11.6
	c7.8,1.3,16.1-2.8,21-8.8c4.3-5.3,6.6-12.1,7.5-18.7c1.1-7.6,0.1-15.5,1.2-23.1c0.2-0.7,1-1,1.6-0.8c0.3,0.1,0.5,0.3,0.7,0.5
	c4,8.7,4.6,20.5,2.9,29.9c-1.6,9.1-6.3,17.7-13.8,23.3s-18.1,8-27,3.9C971.6,1174,964.3,1166.6,967.7,1159.3z"/>
<path class="st4" d="M962,1121.1c0.6-1.5,3.1-1.5,3.1,0.4c-0.1,3.6-0.9,7.1-0.8,10.7s1.4,7,1.5,10.6c0,0.7-1.1,1.3-1.6,0.7
	C960,1138.1,959.5,1127.1,962,1121.1z"/>
<path class="st4" d="M926,1036.2c4.2-1,8.9,1.8,12.4,3.7c1.3,0.7,0.4,2.6-1,2.3c-2.1-0.5-4.2-0.9-6.4-1.1c-1.9,0-3.8-0.4-5.5-1.2
	c-1-0.5-1.3-1.7-0.8-2.7C925,1036.7,925.4,1036.3,926,1036.2z"/>
<path class="st4" d="M1363,263.1c5.5,0.2,10.9,2.4,16.4,3.2c2.8,0.4,5.6,0.7,8.4,0.8c-0.1-0.1-0.2-0.1-0.3-0.2c-2-1.3-2.5-4.7,0-5.9
	c4.4-2.1,9.5-1.3,14.2-1.4c0.9,0,1.9-0.1,2.8-0.1c0.3-0.7,0.8-1.2,1.5-1.5c7-3.5,16.7-2.7,24.4-4s15.2-3.4,22.8-4.4
	c3.7-1.9,9.3,5,4,7.5c-2,0.9-4,1.7-6.1,2.4c0.2,0.6,0.2,1.2-0.1,1.8c0.2,0,0.3-0.1,0.5-0.1c5.6-1.3,11.2-2.8,16.7-4.6
	c11.2-3.6,22.1-8.2,33.2-12.1c2.2-0.8,3.2,2.3,1.5,3.5c-9.9,7.1-21.1,12-32.7,15.7c-5.8,1.9-11.7,3.5-17.6,4.8
	c-5.5,1.3-11.2,2.6-16.9,1.6c-1.7-0.3-2.2-2.5-1.3-3.8c-2.2,0.5-4.3,0.9-6.5,1.3c-10.1,3.7-20.1,6.9-31.2,7.9s-27.5,0.7-35.8-7.9
	c-1-1.1-0.8-2.9,0.3-3.8C1361.7,263.3,1362.3,263.1,1363,263.1z"/>
<path class="st6" d="M1577.2,201.9c0.3,1-34.3-2.3-34.3-2.3l-105.7,16.3l-61.7,13.3l-34.3,10l2.3,9l13.5,4.7l20.2,2h27l117.7-20.7
	l28.7-12l26-5.3l5-9.3l-3.3-3.7"/>
<path class="st7" d="M1193,292.1l-1.2,2l-17.2,0.5l-12.7-2l-7.8-2.7l-4.2-5.5l-0.3-6l4.7-3l5-1.3l6.5,1c0,0,6.8,2.5,8.3,4l4.3,4.3
	l7.8,3.9l6.5,2L1193,292.1z"/>
<path class="st4" d="M925.2,467.6l6.7,114l28.6,121.3l82.7-10l-0.7-32.7l-1.3-42.7l-7.3-74l-16.7-52.6l-57.3-47.3L925.2,467.6z
	 M983,646.8c1.6-2.2,2.9-4.4,4.3-6.7c0.1-0.1,0.1-0.1,0.1-0.2c0.4-1.1,0.8-2.2,1.1-3.3c0.7-2.3,1.1-4.7,1.6-7.1v-0.1
	c0.1-1.5,0.3-3,0.4-4.4c0.7-11.8,9.9-23.2,22.6-22.6c11.6,0.5,23.4,10,22.6,22.6c-1,15.6-4.1,32-13.8,44.7
	c-3.7,4.9-7.4,8.7-13.5,10.4c-5.4,1.5-12.6,0.8-17.4-2.3C981.8,671.8,975.4,656.9,983,646.8z"/>
<path class="st8" d="M931.7,889.1c0.8,0,0,15,0,15l-11.8,9l-9.3-1.8l-7-11l-4.5-27.8l2.3-11.5l5.3,21.3l1.8,2l4.3,9l6.3,3.3l8-2.5
	L931.7,889.1z"/>
<polygon class="st9" points="783.5,746.7 770.5,753.7 748.8,777 697.5,811 678.2,827.7 664.8,832.7 660.2,830.7 661.5,811 
	668.2,791.3 676.8,788.3 691.2,757.7 712.2,726 "/>
<polygon class="st8" points="663.7,833.1 659,827.6 661.3,814 666.7,800.8 672.4,792.9 663.7,794.3 652.5,807.1 646.7,821.6 
	645.2,834.8 "/>
<polygon class="st4" points="838.2,101.3 834.1,94.1 829.7,70.7 844.8,66.7 862.8,57.3 862.2,32 848.2,19.3 822.8,19.3 795.5,5.3 
	771.5,0.7 738.2,11.3 714.8,22.7 694.2,40 675.5,50 664.2,76.7 668.8,109.3 694.2,121.3 740.2,105.3 745.5,113.3 752,120.3 
	777.5,132 "/>
<path class="st10" d="M808.8,107.3l-9.3-38c0,0,14.7,5.3,17.3-16s12.7-12,2.7-21.3s-25.3-13.3-44.7-13.3S708.1,28,708.1,28
	l43.3-22.7l40.9,3.8l24.5,8.9l25.3,1.3l12.7,2.7l8.7,14.7l2.7,18l-10,12h-11.3l-10,0.7l-5.2,3.3l1.2,11.3l4,17.3l-9.3,6L808.8,107.3
	z"/>
<polygon class="st9" points="994.4,411.1 1013.6,399.4 1052.1,373.3 1091.8,330.2 1137.8,289.7 1156.5,275 1178.5,283.3 
	1201.5,290.7 1216.5,289.3 1212.8,281.3 1204.5,273.7 1203.2,260 1218.5,263.3 1223.8,282 1242.5,290.9 1247.5,286.3 1239.3,261.4 
	1249.5,262 1261,258.3 1257.2,250.7 1230.5,243.7 1221.2,243.3 1212.5,240.7 1204.5,237.3 1185,237.4 1162.2,240 1120.8,259.3 
	1032.5,303.7 975.8,330.7 996.5,304.3 1011.5,255 1007.8,207 987.9,157.2 983.8,154.7 911.8,140.3 897.8,139.3 897.8,156.3 
	865.8,194.7 835.8,221.3 828.5,217 837.5,194.3 811.5,204.7 785.8,236.3 786.8,259.3 796.5,280 785.8,309.3 797.8,327.7 
	851.2,354.7 858.1,359.7 862.5,365.7 907.8,386.3 940.5,384 956.2,366.7 "/>
<path class="st11" d="M984.5,388c0,0,43-20,56-37.7s67-67,67-67s33-16,43.3-15.7s27.7,13.7,27.7,13.7l-29.7-4l-9.3,10l-25.7,24.3
	l-44.8,44l-35.5,30.5l-21.4,12.6l-20,9.6L984.5,388z"/>
<polyline class="st7" points="1581.5,210.9 1581.9,213.7 1583,221.4 1570.5,243.9 1542.5,257.9 1452,273.9 1367.5,281.9 1346,276.4 
	1334,263.4 1215.5,285.9 1204.5,273.7 1201.2,262.8 1252.5,255.9 1340,246.4 1357,252.9 1423.5,252.9 1488.5,239.4 1547.5,224.4 
	1579.5,212.9 "/>
<path class="st11" d="M814.8,202l-13.3,42.3l-5,5l3.3,25.7l1.5,14.2c0,0-1.5,10.2,6.8,20.5s22.3,23.3,22.3,23.3l15.7,11l3.3,10.3
	l-39-22.7l-14.7-8.7l-8-13.7L773,235.5L814.8,202z"/>
<polygon class="st4" points="901.7,194.3 911,201.8 913.7,211.6 915.5,226.3 911,244.8 900.7,250.3 889.2,245.6 880.5,237.6 
	877.7,229.1 876.7,214.3 881,202.6 883.7,196.6 892.2,194.1 "/>
<polygon class="st4" points="974.2,187.3 961.5,191.6 952.5,208.8 953.5,226.1 957.7,241.8 965.2,247.1 980.2,248.1 992.2,234.6 
	995.2,221.1 993.5,207.1 990,195.8 982,188.3 "/>
<path class="st12" d="M905.2,146.7l20.3,4h19.7l34,2.3l26.7,6.3l23,14.7l-7.3-13.3l-18.3-11.7l-5-10.3L981,121.4l8.3-14.7l-8-27.7
	L955,57.3l-29.7-9L886.6,55l-14.3,20l-8,15.3l7,13.7L849,98l-26.7,7.7l-29.7,10l-11,13.3l-4,3l-14.7-9.7l-24.3-2.7l-34.3,11
	l-13,11.7l-14.8,25.4l-10,25l5.3,15.7l6.3,16.3l17,18l22,8.3l22.3,1.7l12-1.7c0,0,8.3,24.3,8.3,25.3s7.7,26.7,7.7,26.7l11,9l18.3-14
	l2-14.7l-1.3-19l-12.3-9.3l3.3-8.7l2-19l10-13.3l11-9.3l13-7l15.3-6.7L827,218.7l-2.7,14.7l-2.7,9.7l19-27.7l10-5l2.7-5l13.7-10.7
	l11.3-9.7l6-6.7l7.7-6l8-19.3L905.2,146.7z"/>
<polygon class="st9" points="822.8,459.7 779.2,461.3 735.2,479 703.2,507.3 697.5,535.7 692.8,536.7 679.5,521.3 670.5,537.3 
	661.5,547.3 653.8,549.7 648.8,544 652.5,522.3 643.8,523.7 636.5,519.3 642.8,509.3 669.6,485 682.5,463.7 702.2,445.7 
	752.2,413.7 818.5,383.7 829.8,406.7 829.5,438 "/>
<path class="st13" d="M826.6,433c0,0-16.1-5.6-49.1,5.4s-54,28-60,35s-25,33-25,39c0,6-1.4,24.7-1.4,24.7l4.8-3.6l7.6-21.1l9-16
	l10-8l21-13l35.7-14l43.1-0.3L826.6,433z"/>
<polygon class="st11" points="743.5,734.3 680.1,791.8 668.5,802.3 715.5,718.3 "/>
<polygon class="st9" points="950.1,769.2 950,775.8 944,790.8 930.5,847.3 930,858.3 930.5,891.8 920.5,899.3 906,890.8 
	902.5,860.3 899,851.3 879,797.8 876.5,766.8 "/>
<path class="st14" d="M677.5,655.3l28.3-24.3l20-23c0,0,39.7-41.3,41.3-42.7s32.3-47.7,32.3-47.7l12-23.7l16-43l5-37l-9.3-27.3
	l-3.3-2.7l27.7-12.2l16.9,10.9l-7.7-25.5c0,0,13.3,11.4,28,18.3c11.2,5.3,23.7,6.6,28.7,6.2c11.5-1,46.8-36.5,46.8-36.5l38.5,80
	l27.4,91.8c-2.6,8.8-4.1,18-4.5,27.2c-0.3,8.1,0.8,16.3,3.3,24c-4.9,6.2-8.7,13.3-11.1,20.8c-2.4,4.6-4.3,9.4-5.6,14.4
	c-9.4,2.6-15.8,12.1-16.4,21.9c-0.1,1.5-0.2,3-0.4,4.4v0.1c-0.6,2.4-1,4.8-1.6,7.1c-0.3,1.1-0.7,2.2-1.1,3.3c0,0.1-0.1,0.1-0.1,0.2
	c-1.3,2.3-2.8,4.5-4.3,6.7c-6.3,8.3-3,19.9,3.6,27c-10.9,11.5-14.7,14-17.9,29.5c-4.3,10.9,54.3-14.1,53.8-2.5
	c-0.1,3.9-3.2,42.6-3.5,47l-47.5,13l-45.5,7.3l-104.5-11.4l-36.3-12l-33.7-11l-123.3-45.7L677.5,655.3z"/>
<polygon class="st8" points="831,527.3 805,513.3 800.6,518.7 794,513.8 791,504.3 798.5,495.8 810.5,502.8 836,512.8 "/>
<path class="st11" d="M876.5,766.8l5,38.5l19.2,59.4l10.8,29.6c0,0,17-13,12-21s-17-105-17-105L876.5,766.8z"/>
<path class="st4" d="M780.5,636.3l31-63l24.5-60.5l6.5-44.5l7-114l11,6.7l12.3,51l21.8,8.8l78.5-0.5l2.3-29.5l-20-44.2l6.3-6.8
	l31.9,75.5l31.2,101.6c-2.6,8.8,5.6,17,5.2,26c-0.3,8.4,6.5,23.4,9,31c-4.9,6.2-4.1,110.1,2.5,117.3c-7.6,8-68,0.2-71.7,10.5
	l-116.3-5.8l-94-26.5L780.5,636.3z"/>
<path class="st15" d="M990.7,203.1l-8.3-3.8l-8.5,0.8l-4.5,4l-4.8,7.8l-4.8,8.8l-2.8,10.2l3.5,8.3c0.6,1.9,1.4,3.7,2.3,5.5
	c1,1.5,1,3,2.3,2.5s13-2.3,13-2.3c3.9-5.5,7.1-11.4,9.5-17.7c3.2-9.2,3.3-9.3,3.3-9.3l1.8-4.3L990.7,203.1z"/>
<path d="M868.8,576.2c2.6,21.4,9.6,46.5,26,61.6c9,8.3,19.8,10.7,31.8,9.3c11.1-1.3,22.9-3.2,33-8.1c20.9-10.1,26.2-35,30.6-55.6
	c5.5-25.9,7.7-53.3,0.6-79.1c-0.4-1.6-2-2.5-3.6-2c-0.2,0.1-0.4,0.1-0.6,0.2c-2.3-0.8-4.8,0.2-7.5,0.6c-5.4,0.8-10.9,1.2-16.3,1.5
	c-10.1,0.5-20.3,0.2-30.4-1.1c-10-1.1-19.7-3.6-29.1-7.2c-4.6-1.8-9-4.2-13.6-6.1c-4-1.7-8-2.4-12.1-3.5c-1.1-0.3-2.2-0.1-3,0.7
	c-0.9,0.1-1.8,0.4-2.6,0.8c-4.4,1.9-2.2,7.9,1.7,8.7c-0.1,1.1-0.3,2.2-0.5,3.3c-0.2,1.4-0.5,2.8-0.7,4.2c-0.6,3.7-1.2,7.3-1.7,11
	c-0.9,6.6-1.7,13.3-2.2,19.9C867.2,548.9,867.3,562.6,868.8,576.2z M876.4,540.7c1-11.6,2.5-23.1,4.7-34.5c0.7-3.9,2-8.1,1.2-12
	c3.3,1.1,6.6,2.5,9.7,4.1c4.2,2,8.5,4,12.9,5.6c8.9,3.1,18.1,5.2,27.4,6.2c10.4,1.3,20.9,1.6,31.4,1.1c5.1-0.3,10.1-0.8,15.2-1.5
	c2.1-0.3,4.7-0.3,6.8-1.1c6.4,28.1,1,56.8-6,84.3c-2.5,9.7-5.4,19.5-11.3,27.7c-7,9.9-17.7,13.7-29.1,15.9s-24,5.1-34.4-1.9
	c-8.9-5.9-14.5-15.7-18.8-25.2C876.4,588,874.7,563.7,876.4,540.7z"/>
<path class="st15" d="M913.7,211.6l-12-3.5l-12.8,4.8l-7.3,7l-0.8,10l1.5,8.3l3,5l6.3-2.3c0,0,6.3-3.8,7.5-6s9.3-12.7,9.3-12.7
	l5.5-3.3l-1.5-6.5"/>
<path d="M951.8,235.8c1.2,3,4.5,7.8,8.2,10c6,4.7,15.4,7.9,22.6,4.6c6.7-3.1,11.7-12.8,13-19.7c0.9-5,0.3-10.3-0.6-15.2
	c-0.8-5-1.9-9.8-3.5-14.6c-1.7-4.7-6.2-10.7-11.4-13c-4.1-4.3-12.1-3.1-16.8-0.4c-7.4,4.4-9.6,12.2-11.4,20.1
	C949.8,216.5,948.2,227.1,951.8,235.8z M966.4,245.4v-0.2l0,0c0.2-0.7,0-1.5-0.6-2c-1.5-7.1,0.4-14.5,5.1-20.1
	c3.6-3.9,16.1-10.7,19.8-3.6c0.1,0.1,0.1,0.2,0.2,0.3v4.4c-0.1,7.2-1.5,15.1-7.4,20c-4.2,3.5-9.1,5-14.3,2.8
	C968.4,246.5,967.4,245.9,966.4,245.4L966.4,245.4z M963.5,215.3c4-7.5,16.4-19.8,24.1-10.1c0.3,0.4,0.8,0.7,1.4,0.7
	c0.9,2.4,1.5,4.9,1.7,7.5c-1.7-1-3.6-1.6-5.5-1.8c-5.1-0.7-9.9,1.2-13.8,4.4c-6.3,5.4-11.8,18.1-8.3,26.7c-0.4,0-0.9-0.1-1.3-0.2
	c-0.1-0.1-0.2-0.1-0.3-0.2c0.3-0.4,0.4-0.9,0.2-1.3C957.9,232.9,959.4,222.9,963.5,215.3L963.5,215.3z M954.5,210.4
	c0.5-6.7,3.6-12.9,8.5-17.4c5.4-4.8,10.4-3.6,16.5-1.8c0.9,0.7,1.8,1.5,2.6,2.4c1.4,1.7,2.6,3.5,3.7,5.4c-2.9-0.6-5.9-0.6-8.8,0
	c-7.6,1.1-12.1,5.3-15.3,12.1c-1.4,3.1-6.1,14.4-6.4,22.6C953.2,225.9,954.1,215.2,954.5,210.4L954.5,210.4z"/>
<path d="M875.6,222.4c0,6.5,1.3,13.1,5.5,18.2l0.3,0.3c1.3,3.6,3.7,6.3,7.9,8.6c2.4,1.3,6.6,3.2,10,2.9c3.8,1.9,9.5-2.1,12.1-4.7
	c4.6-4.7,6.6-11.1,7.1-17.5c0.6-7.5-0.2-15-2.5-22.2c-1.4-4.2-3.8-10.9-8.4-12.7c-9.4-7.2-23.2-5.4-28.7,6.4
	C875.9,208.2,875.6,215.3,875.6,222.4z M891.5,244.6c-0.1-0.1-0.3-0.2-0.4-0.3c0.5-2-0.2-4.3-0.1-6.4c0.1-3.5,1.2-6.8,3-9.8
	c4-6.4,11.4-9.7,18.2-6c0.5,0.3,1.1,0.3,1.6,0.2v2.8c0,5.7-0.7,12-4.2,16.7c-1.7,2.3-4.1,4.1-6.9,5c-1.1,0.2-2.2,0.6-3.2,1
	c-1.3,0-2.6-0.2-3.8-0.7C894.2,246.4,892.8,245.6,891.5,244.6L891.5,244.6z M883.5,223.1c1.1-4.2,4.6-7,8.3-8.9
	c7.2-3.7,14.5-4.8,21.3-0.3l0.3,2.4c-5.5-4.5-16.6,0.9-20.6,5.6c-3.1,3.7-5,8.2-5.5,12.9c-0.3,2-0.3,3.9-0.2,5.9
	c-1.2-1.3-2.3-2.6-3.2-4.1C883.7,232.2,882.4,227.4,883.5,223.1L883.5,223.1z M879.1,223.3c0.5-5,1.5-9.9,3.2-14.7
	c1.7-5.2,4.5-9.1,9.6-11.4c4.4-2,9.2-1.5,13.6,0.3c1.4,3.7,4.7,7,6.2,10.9c-5.3-3.5-15.1-1.7-20,1.1c-9,5-13.5,14.6-11.1,24.2
	c-0.1,0.1-0.1,0.2-0.2,0.4C879.2,230.6,878.8,226.9,879.1,223.3L879.1,223.3z"/>
<path d="M944.6,272.3c6.9-3.6,11-9.7,8.7-17.8c-1.6-5.6-6.2-9.7-7.7-15.1c-0.2-0.6,0.2-1.2,0.8-1.4c0.1,0,0.2,0,0.3,0
	c7.5,0.7,12,13.5,12.3,20c0.2,4.6-1.4,7.9-4.4,11.2c-2.6,2.9-4.8,6.6-9.1,6.5C943.8,275.5,943,273.1,944.6,272.3z"/>
<path d="M905.9,281.4c0.5-1.4,2-2.1,3.4-1.6c1.3,0.4,2,1.7,1.7,3c-1.1,5-0.6,9.1,2.3,13.3c1.2,1.7,2.6,3.3,4.8,3.7
	c1.8,0.3,3.4-0.5,5.2-0.4c1.2,0,2.2,1,2.2,2.3c0,0.4-0.1,0.8-0.3,1.1c-3.2,5.8-11.9,3.2-15.3-0.9
	C904.9,295.9,903.4,288.8,905.9,281.4z"/>
<path class="st16" d="M895.8,161.7l-12.7,14.7l-36,11.7l-26,7.3l-26.3,27l-6.3,24l2,9.3l7,17.3l-2.3,19.7l-10.7,11l1-25l3-53.7
	l-7,81.7l-5.3,3.3l-5.7-15c0,0-7.7-34.3-7.7-35.3s9-46.3,9-46.3l36-35l39.7-11.7l15.3,0.3l25-5.3l7-7l2.3,7.3"/>
<path class="st16" d="M953.5,104c0-1-18.3-35-18.3-35l-19.7-18.7l-31.3,6.3c0,0,0,8.3,1,8.3s25.3,8.3,25.3,8.3l16,14l3,11.3
	L953.5,104z"/>
<polygon class="st16" points="900.8,97.3 887.5,85.3 867.2,77 867.5,96.7 876.5,98.7 "/>
<polygon class="st16" points="914.5,140.7 907.8,140.7 902.5,133.3 913.2,124.7 959.5,119 996.2,135 1001.5,146.7 974.5,139.7 
	957.5,138.7 931.2,138.3 "/>
<polygon class="st16" points="896.5,121.7 893.2,141 867.5,125.7 825.5,129 789.2,150.7 764.8,182 755.8,219.3 756.2,260 749.2,205 
	772.2,137 794.5,116.3 840.8,100.3 869.8,104 "/>
<polyline class="st16" points="759.8,157 738.8,150.3 726.2,155.7 723.8,145.3 726.2,130.7 745.8,132.3 767.5,144 759.8,158.3 "/>
<polygon class="st16" points="750.5,176.7 745.8,207.3 738.8,204.7 726.2,189.7 725.2,179 735.8,173.3 "/>
<path class="st16" d="M749.8,250l-13,2l-26-3.7L691.5,238l-16.3-25.3c0,0-7.3-19-7-20s3.3-22.7,3.3-22.7l11.7-13.3l5.3,27.7l3.3,10
	l3.3,9l13,17l6.7,7.3l16.7,10.7l8.7,1.3l9-2.3L749.8,250z"/>
<path d="M1232.4,282.3c3.1,2,6.3,3.7,9.7,5.1c0.7,0.4,2.6-1.6,3.2-2.4c-0.3-1.1-0.6-2.2-1.1-3.3c1.3,0.1,2.6-0.1,3.7-0.7
	c0.6,1.9,1.1,3.9,1.5,5.8c0.1,0.8-2.8,4.5-4.4,5c-0.2,0.1-0.8,0.3-1.4,0.5c-1.7,0.1-3.5,0.3-5.2,0.5c-5.6-0.9-10.7-4.6-14.5-8.8
	C1226.7,283.9,1229.4,282.7,1232.4,282.3z"/>
<path d="M625.4,689.1c0.2,0.7,0.5,1.3,1.1,1.7c5.8,4.2,13.5,6.2,20.2,9s13.1,5.5,19.8,8.1c13.8,5.6,27.6,11.2,41.6,16.5
	c1.4,0.5,2.8,1,4.1,1.6c-4.3,3.4-7.5,8.9-10.5,13.3c-3.6,5.4-6.9,10.9-10.1,16.5c-3.5,6.2-7,12.4-10.2,18.8
	c-1.9,3.7-4.9,8.2-6.3,12.5c-10-3.3-16.6,10.2-21,17c-3.4,5.3-6.4,10.5-8.3,16.5c-0.8,2.8-2.7,9-1.8,12.7c-1.5,0.6-2.3,2.3-1.7,3.9
	c0.4,1.1,1.5,1.9,2.6,1.9c12.8,0.8,26.5-4.3,36.9-11.4c5.2-3.6,10.1-7.7,14.5-12.2c0.6-0.5,1.2-0.9,1.8-1.3
	c2.3,0,28.5-16.2,39.2-24.9c6.3-5.1,12.2-10.6,17.6-16.5c2.7-2.9,5.2-5.9,7.6-9c1.6-1.8,3-3.9,4.1-6.1h0.1c4.8-1.1,9.6-3.9,13.8-6.5
	c0.5-0.4,0.9-0.9,1.1-1.5c24.2,7.3,48.9,13,73.9,17c6.5,1,13.1,1.9,19.7,2.6c-0.2,15.2,1.8,30.3,5.7,44.9
	c4.1,14.9,9.8,30.5,18.5,43.3c-0.5,0.2-0.8,0.7-0.9,1.2c-0.9,14.2-1.1,30.3,4.2,43.8c2.2,5.7,10.5,16.4,16.6,12
	c0.5,0.5,1.3,0.8,2,0.6c10.5-3.1,14.9-14.9,14.8-24.9c-0.2-6.7-1.1-13.3-2.5-19.8c-0.9-4.4-1.4-10.4-3.5-14.9c0.6,0,1.1-0.4,1.3-1
	c3.4-11.4,5.8-23.1,8.3-34.7c1.3-5.9,2.6-11.8,3.7-17.8c0.7-4,2.9-9.4,0.9-13.1c-0.2-0.3-0.7-0.4-1-0.2c0,0-0.1,0.1-0.1,0.1
	c-3.3,3-3.3,9.8-4.2,14c-1.2,5.6-2.3,11.2-3.5,16.9c-2.4,11.2-4.6,22.4-6.7,33.6c-0.2-0.4-0.5-0.7-0.8-1c-0.3-0.4-0.9-0.4-1.2,0
	c-0.1,0.1-0.2,0.3-0.3,0.4c-0.2,1.3-0.2,2.6,0,3.9c-0.3,2.5,0.2,5,0.5,7.6c0.4,3.8,0.7,7.6,1.1,11.4c0.6,6.6,1.6,16.9-5.8,20.4
	c-4.8,2.2-9.6-1.6-11.8-5.5c-2-3.6-2.7-7.9-3.4-11.9c-1.4-8.2-2.1-16.4-2-24.7c0-2.1-2.3-2.7-3.7-1.9c-6.3-12.7-12.2-25.3-16.1-39.1
	c-4-14.1-6.3-28.6-7-43.3c23,2.4,46.3,2.4,69.3-0.2c-0.1,6.5,0.9,13.3-5.5,17.1c-0.6,0.3-0.7,1-0.4,1.6c0.3,0.5,0.8,0.7,1.3,0.5
	c8.3-2,7.4-12.3,7.1-19.5c3.5-0.4,6.9-1,10.4-1.6c-0.5-2.4-0.9-4.8-1.2-7.3c-13.9,2.2-28,3.6-42.1,3.9c-49.7,1.1-98.7-10-145.9-24.8
	c-23.8-7.5-47.3-15.9-70.6-24.5c-12.2-4.5-24.2-9.1-36.2-14c-6.4-2.6-12.7-5.3-19-8c-4.3-1.8-8.4-4.2-12.8-5.8
	c14.2-6.8,25.7-17.4,37.6-27.7c47.1-41,100.1-80.8,127-139.2c1.2-0.1,2.4-0.6,3.3-1.5c1-1,1-2.6,0-3.5c-0.3-0.3-0.7-0.5-1.1-0.7
	c-0.5-0.1-1-0.2-1.4-0.3c-0.5-0.4-1.1-0.6-1.8-0.6c-1-0.5-1.6-1.5-1.8-2.6c-0.5-2.2-0.4-4.6,0.4-6.7c1-3.2,4.2-6.9,7.4-5.6
	c0,0.5,0.1,1,0.4,1.4c0.3,0.5,0.8,0.9,1.3,1.1c-0.4,1-0.2,2.2,0.6,3c4.1,3.9,9.6,6.3,15,7.9c3.5,1,7.6,2.1,11.4,2.1l-2.7,8.4
	c-4.2-2-8.6-3.4-12.6-6c-1.4-0.9-13.5-9.1-11.6-10.6c0.6-0.5,1-1.4,0.3-2c-2.1-1.7-4.8-1.3-6,1.4c-1.4,3.4,1.5,6.2,3.9,8.1
	c6.4,5,15.7,12.6,24.5,13.3c-3.3,9.3-7.1,18.5-11,27.7c-16.4,38.6-32.9,77.4-57.8,111.5c-0.8,0.9-0.9,2.2-0.2,3.2
	c-1.4,2.1-1.1,5.6,2.1,6.6c35.8,12,73.4,20,110.8,25.1c18.5,2.5,37.1,4.1,55.8,4.8c9.5,0.4,18.9,0.5,28.4,0.4c4.3,0,8.9,0.1,13.4,0
	c0.7-2.4,1.6-4.8,2.5-7.1c-5.3-0.1-10.7,0.3-15.9,0.2c-9.5-0.1-19-0.4-28.4-0.9c-18.6-1-37.1-2.8-55.6-5.3
	c-36.3-4.9-71.4-13.5-106.2-24.4c13.9-19.3,25-40.3,34.9-61.9c8.9-19.4,17.2-39.1,25.1-58.9c8.4-20.9,15.2-42.2,18.8-64.4
	c6.6-40.7,6-82.2,9.4-123.2c0.3,0.1,0.6,0.2,0.9,0.4c0.9,0.4,1.8,0.4,2.7,0c0.1,9,2.5,18.6,4.8,26.5c1.7,5.7,3.8,11.3,6.2,16.8
	c1.6,3.9,3.5,7.7,5.6,11.3c-0.1,1.2,2.2,3.2,2.6,3.4c0.2,0.3,9.7,2.7,12.8,3.4c4.7,1,9.4,1.9,14.2,2.6c9.2,1.3,18.4,1.8,27.7,1.4
	c9.9-0.4,20-0.7,29.8-1.9c5.2-0.7,15.8-0.4,17.3-7c0.1-0.9-0.2-1.9-1-2.4c0.4-2.6,0-5.6,0-7.9c0-5.3-0.4-10.6-1.1-15.9
	c-1.7-12-11.6-32.3-16.2-43.5c0-0.1-0.1-0.2-0.1-0.3c0.9-0.5,1.8-1,2.6-1.5c0,0.1,0.1,0.2,0.1,0.4c5.8,15.7,15.6,37.9,21.9,53.4
	c3,7.3,5.9,14.7,8.6,22.1c0,0.4,0.2,0.9,0.5,1.2c2.8,7.4,5.4,14.7,8,22.2c8.8,25.5,16.3,51.4,22.6,77.6c1-4.4,2.4-8.7,4-12.9
	c-5.9-22.8-12.6-45.3-20.3-67.5c-2.2-6.4-10.2-24.9-12.5-31.2l29.6-13c46-35.6,82.8-88.3,132.5-119.5c0.2,0.1,0.5,0.2,0.7,0.2
	c2.5,0.4,5,0.2,7.4,1c2.9,1.1,5.6,2.5,8.1,4.3c3.9,2.7,8.1,5,12.5,6.9c8.6,3.5,19.6,5.3,28.6,2.6c1.4-0.3,2.4-1.5,2.5-2.9
	c2.1-1.9,1.9-6.2,0.4-8.9c-1.3-0.9-2.5-2.1-3.5-3.4c-2.1-1.3-4.4-2.2-6.3-3.8c-2.2-2-3.8-4.4-3.7-7.5c0.1-2.5,0.6-2.3,0.3-3.7
	c2.4-0.7,5.5,1.1,7.8,3c0.1-0.3,0.3-0.6,0.5-0.8c1.1-1.9,3.1-3.1,5.3-3.2c-0.8-0.8-1.6-1.5-2.5-2.2c-3.8-2.9-9.7-5.1-14-2.1
	c-2.7,1.9-4.3,6.1-1.1,8.2c0.2,0.2,0.5,0.2,0.8,0.1c-0.3,2.7,0.2,5.4,1.6,7.7c1.5,2.3,3.3,4.3,5.4,6c2.5,2.3,5.2,3.8,4.5,7
	c-10.9,1.8-21,1.9-30.7-4.6c-5.6-3.8-13.9-11-21.3-8.9c-0.7-1.2-2.2-1.6-3.4-0.9c0,0-0.1,0-0.1,0c-14.3,7.7-26.9,18.2-38.2,29.8
	c-20.3,20.9-42.8,41.4-61.9,63.4c-9.6,11-18.8,14.4-30.5,23.1c-5.6,4.2-28.4,11.8-33.5,13.7c-2.8-7.3,0.3,0.7-2.7-6.5
	c-6.2-15.1-16.5-37.9-24.9-52c2.5-1.6,4.9-3.3,7.2-5.2c0.4,0,0.9,0,1.3-0.2c20.1-8,38.4-19.9,57.6-29.8
	c34.5-17.7,68.7-36,103.3-53.4c15.8-7.9,33.1-16.7,51-17.8c7.5-0.5,16.2-0.3,23.3,1.9c3,0.9,5.9,2.2,8.6,3.7l0,0
	c0.4,0.3,0.8,0.6,1.3,0.8c4,2.5,7.6,5.4,10.9,8.7c0.3,0.3,2.6,3.6,4.9,7.3c1.2-0.2,2.4-0.3,3.6-0.5c-3.5-4.6-11.5-15-11.5-15.3
	c0-0.1,15.8,4.2,21.5,5.7c2.9,0.7,5.8,1.8,8.4,3.3c1.7,1.1,3.1,2.5,4.2,4.2c1.1-0.2,2.2-0.3,3.4-0.6c-1.2-4.2-6-7.1-9.8-8.7
	c-8.5-3.6-18.2-5.4-27.3-6.7c-0.4-0.1-13.5-2.5-16.2-3.2c-8.2-2.2-16.8-3.1-25.3-2.4c-17.8,1.1-34.1,6.3-50.2,13.8
	c-18.1,8.5-35.9,17.3-53.6,26.6c-18.4,9.6-36.9,18.9-55.2,28.4c-14.2,7.4-29.1,13.7-43.2,21.5c1.2-1.9,2.6-3.7,4-5.5
	c2.8-3.1,4.9-6.8,7.3-10.3c2.8-4.1,6-7.7,8.4-12c8.1-15,11.8-32.1,12.6-49.1s-1.3-34.6-4.9-51.3c-3.2-14.6-8.6-32.5-22.1-40.6
	c-0.8-0.5-1.8-0.2-2.3,0.6c-0.3,0.5-0.3,1.1,0,1.7c3.7,6.1,7.9,12,10.9,18.5c3.1,6.9,5.4,14.2,6.8,21.6c3.3,15.4,4.9,31.1,4.5,46.9
	c-0.4,16.1-3.1,32.3-10.4,46.8c-3.9,7.7-7.8,15.5-13.2,22.3c-2.6,3.3-12.3,15-12.8,15.5c-3.5,3.4-7.3,6.4-11.4,9
	c-4.2,2.6-8.5,4.9-12.9,7c-3.7,1.7-8.9,2.9-11.6,6c-0.3,0.3-0.3,0.7,0,1c0.1,0.1,0.2,0.1,0.3,0.2c4.5,1.1,9.8-1.5,13.9-3.1
	c2.2-0.9,4.3-1.8,6.4-2.8l0.3,0.6c5,9.8,11.5,30.5,13.2,41.4c0.9,5.7,1.4,11.4,1.5,17.1c0,2.5-0.7,5.8-0.1,8.5
	c-2.9,0.7-6.6,0.7-9,0.9c-3.8,0.4-7.7,0.7-11.5,0.9c-8.3,0.5-16.7,0.9-25,1c-8.6,0.1-17.2-0.6-25.7-2.2c-7-1.3-14.4-4.1-21.6-4.6
	c-1.8-3.4-3.9-6.8-5.5-10.3c-2.4-5.3-4.4-10.7-6-16.2c-1.6-5.5-2.9-11.1-3.7-16.8c-0.9-5.6-6.1-16-6.1-15.5c-0.3-0.2-0.7-0.4-1-0.5
	c-0.8-0.2-1.5-0.5-2.3-0.7c0-0.3-28.7-11.5-39-18.5c-9.5-6.5-16.8-15.2-24.7-23.4c2.2-2.7,4.2-5.5,5.9-8.6c2.3-3.9,4.8-8,5.6-12.5
	c0.4-3,0.3-6-0.4-9c1.9,1.4,4.1,2.3,6.5,2.5c2.1,0.1,2.8-2.5,1.6-3.9c-2.4-2.8-5.5-4.7-7.8-7.7c-2-2.7-3.7-5.5-5-8.6
	c-1.3-3.4-1.9-7.8,0.8-10.7c4.1-4.4,10.6,1,5.8,4.8c-1.4,1.1-0.7,3.3,0.5,4.2c2.6,1.8,5.8,0.7,7.7-1.6c2.3-2.9,1.9-7,0.1-10
	c-4-6.6-12.9-8.8-18.5-2.9c-1.2,1.2-2.2,2.7-2.8,4.3v-1.1c0.2-0.4,0.4-0.9,0.5-1.4c1.4-7.9,2.8-16,6.7-23.1
	c3.5-6.3,8.2-11.9,13.8-16.4c7.6-6.3,16.6-9.8,25.9-12.8c-5.5,7.3-9.1,16.9-11.4,25c-2,6.7-3.3,13.7-4.7,20.6
	c-0.5,2.6-1.2,5.1-1.5,7.8c-0.2,2.2-0.3,4.3-0.1,6.5c-2.1,11.4-2.9,23-2.3,34.6c0.8,15.9,4,33.4,13.1,46.6c1.2,1.8,4.7,0.7,3.8-1.6
	c-6.1-15.4-12.9-30-14.3-46.7c-1.4-17,2.1-35.2,9-50.7c3.1-7,7.2-13.9,12.6-19.3c5.7-5.6,13-9.4,19.2-14.3
	c9.3-7.3,19.9-16,27.1-26.2c2.4-1.4,4.6-3.1,6.5-5.2c6.2-7.2,10.5-20.8,4.2-29.2c-1-1.2-3.2-1.3-3.9,0c-3.1-0.3-6.2-1.8-9-2.9
	c-3.8-1.5-7.5-3.1-11.3-4.7c-6.2-2.6-12.6-4.4-18.8-6.9c-1.4-0.6-2.9-1.1-4.4-1.5c5,0.1,10,0.5,14.9,1c9.2,0.9,20,2.4,25.2,11.1
	c0.3,0.4,0.8,0.6,1.3,0.3c0.3-0.2,0.5-0.6,0.4-1c-4.1-17.1-28-16.6-41.8-16.9c-33.6-0.9-62.6,21.5-82.5,46.8
	c-9.4,12-13.5,28.6-14.4,43.6c-0.3,4.3-0.2,8.7-0.4,13c-0.1,1.6-0.3,3.2-0.5,4.8c-1-7.1-1.7-14.3-1.9-21.5
	c-0.3-16.2,3.6-32.2,11.3-46.5c3.6-6.6,7.7-12.9,11.9-19.1s8.2-12.6,13.4-17.8c10.6-10.6,26.2-15.7,40.6-18.7
	c15.4-3.3,33.6-5,47.5,3.9c0.7,0.4,1.5,0.3,2-0.4c0,0,0,0,0,0c3.2,1.8,6.3,3.9,9.2,6.3c3.9,3,8,7.5,13,8.2c0.6,0,1-0.4,1-1
	c0-0.1,0-0.2,0-0.3c-2.2-5.5-9.7-9.5-14.2-13.1c-4.2-3.4-8.5-7.2-14.1-7.5c0.3-0.1,0.6-0.3,0.8-0.5c4.2-3.5,11.3-1.9,16.3-1.8
	c5.2,0.2,10.3,0.3,15.5,0.7c10.9,0.9,21.7,1.9,32.4,4.5c9.3,2.2,18.3,5.6,26.7,10.1c2.3,1.2,4.4,2.6,6.6,4c-9.6-2.4-20-2.6-29.8-2.5
	c-11.8,0.1-25.7,0.5-35.6,7.9c-3.7,2.8-6.1,6.9-5,11.6c0.8,3.6,3.2,7,7.2,7c2.7,0,3.1-3.2,1.3-4.7c-8.5-6.4,14.4-13.1,18.3-13.8
	c9.4-1.8,19.2-1.5,28.7-0.7c9.3,0.7,18.3,3.2,26.6,7.4c3.8,2.2,7.4,4.8,10.8,7.6c2.8,2.2,5.7,3.9,8.6,5.9c-3.9-1.7-7.8-3.2-11.7-4.5
	c-12.1-4-24.8-7.7-37.5-8.8s-25.3,1.5-37.5,5.4c-4.4,1.4-2.4,8.5,1.9,6.9c21.6-7.9,46.3-5.6,67.9,1.5c10.4,3.4,20.8,7.1,30,13.3
	c4.2,2.8,8,6.2,11.3,10.1c0.8,1,1.5,2,2.2,3c-4.6-4.3-9.6-8.1-15-11.2c-14.9-8.8-30.8-10.6-47.6-12.2c-9.9-0.9-19.7-2-29.6-3.2
	c-3.9-0.5-7.8-0.8-11.7-1s-7.2-0.8-10.2,1.7c-0.7,0.7-0.7,1.9,0,2.6c2.7,2.2,6,2.1,9.3,2.6c3.9,0.6,7.7,1.6,11.6,2.1
	c8.2,1,16.7,0.6,24.9,0.4c15.6-0.4,33.2,1.2,47.1,9c6.9,3.9,13.1,9.4,18.6,15.1c5.8,5.9,8.9,12.8,11.2,20.7
	c4.7,16.3,4.6,32.7,5.5,49.5c0.1,2.2,3.6,2.9,4.1,0.6c3.3-16.9,1.6-35.4-3.3-51.8c-1.7-6.2-4.4-12.2-8.1-17.5
	c-1.1-9.1-8-17.8-14.6-23.4c-5.1-4.1-10.6-7.5-16.6-10.2c0.8-0.3,1.2-1.2,0.9-2c0,0,0-0.1,0-0.1c-1.4-2.9-1.9-5.1-4.1-7.5
	c-2-2.2-4.2-4.1-6.6-5.8c-2.6-1.8-5.2-3.5-8-5c-0.1-1-0.5-2-1.1-2.9c8.9-11.1,5.8-28.5,0.2-40.5C972.5,54.1,936.1,42.6,907,46
	c-14.6,1.7-29.2,7.9-38.1,20c-8,10.7-9.2,25-0.8,35.6c-3.8-1.5-7.8-2.5-11.9-3.1c-10-1.3-19.4,1-29.2,2.9
	c-15.6,3-31.4,7.4-42.9,19.1c-2,2.1-3.9,4.3-5.6,6.7c-6.4-6.1-15.3-8.4-23.9-9.5c-9.8-1.3-22-2.1-31.6,0.9c-4.5,1.5-8.8,3.5-12.9,6
	c-1.4-0.3-2.7,0.5-3.1,1.9c-3.4,2.2-6.7,4.5-9.9,6.6c-7.5,5.2-13.1,10.4-17.1,18.7c-5.5,8.8-10.6,18.1-13.2,27.3
	c-2.3,8.2-0.9,18.7,0.9,26.9c2,8.6,7.6,16.4,12.6,23.5c4.7,7,11.2,12.7,18.8,16.4c15.9,7.7,33.9,9.9,51.1,6.2
	c0.1,0.4,0.2,0.9,0.3,1.3c0.8,3.8,1.3,7.8,3.3,11.2c0.2,0.3,0.4,0.5,0.7,0.7c0.4,2.5,1.1,4.9,1.5,6.9c1.3,5.8,3,11.5,4.8,17.2
	c2.2,6.9,5.6,17.8,13.1,20.9v0.2c0.1,1.1,0.8,2.1,1.8,2.6c0.4,0.9,1.3,1.5,2.3,1.6c2,0.3,4,0.1,5.9-0.5c6,10.2,16.2,17.8,25.7,24.3
	c6.8,4.8,14,9,21.5,12.6c5.3,2.4,10.7,4.7,16.1,6.9c-0.5,4.5-0.8,8.9-1.1,13.4c-0.2,0-0.5,0-0.7,0.1c-8.7,3.3-60.2,23.5-74.5,30
	c-21,9.5-41.4,20.1-59.7,34.3c-9.3,7.2-18.8,15.1-26.5,24c-6.3,7.3-11.3,15.7-16,24.2c-0.6-0.4-1.3-0.4-1.9,0
	c-6.6,4.2-12.4,11.2-17.8,16.8c-3,3.1-5.9,6.3-8.7,9.5c-1.8,2.1-4.2,4.4-5.3,7.1c-1.6,4,0,8.4,4.5,9c2.7,0.4,8.5,0,12-1.8
	c-0.8,3.1-1.4,6.2-2.1,9.3c-0.7,3.4-2.2,7.5-1.5,11.1c1.5,7.9,10,6.2,14.6,2.2c7.1-6.3,12-15.5,16.3-23.9c2.6,5.7,6.3,10.7,12,13.7
	c5.2,2.9,8-0.4,9-5.6c1.6-8.4,3.8-15.7,8.4-23c4.6-7.1,10.4-13.3,17-18.6c27-21.9,62.8-28.5,96.7-28.8c-0.3,1.1-0.7,2.2-1.2,3.3
	c-4.1,10.1-8.8,20.1-13.5,29.9c-0.2,0.5-0.3,1-0.3,1.6c-2.3-2.7-6-3.8-9.4-2.9c-4.6,1-7.5,4.8-9.1,9.1c-1.7,4.7-2.3,11,1.3,15
	c0.7,0.7,1.5,1.3,2.3,1.9c-7.8,13.8-15.9,27.1-25.7,39.7c-19.2,24.7-42.8,44.9-66.4,65.1c-12.6,10.8-25.2,21.5-37.8,32.3
	c-11.6,9.9-23.1,20.7-37.3,26.8C622.3,683.9,623.2,687.9,625.4,689.1z M958.8,105.4c-2-5.8-5.3-11.1-8.4-16.4
	c-3.5-5.9-7.2-11.6-11.3-17.1c-4.7-6.3-10.8-13.6-18.1-17.6c4.2,0.2,8.5,0.7,12.6,1.6c15.3,3,32.1,9,41.7,21.9
	c7.9,10.6,13.9,29.4,5.6,41.3c-0.8-0.7-1.7-1.4-2.3-2c-4-3.3-8.3-6.2-13-8.5C963.4,107.4,961.2,106.3,958.8,105.4L958.8,105.4z
	 M932.2,97.7c-2.4-8.5-11.4-16.5-17.8-21.4c-8.6-6.5-18.4-11.8-28.9-14.3c0.3-0.2,0.7-0.4,1-0.6c6.9-3.7,14.4-6,22.2-6.8
	c0.2,0.6,0.6,1.1,1.1,1.4c5.5,2.6,10.6,4.7,15.3,8.6c9.2,7.8,16.8,17.3,22.2,28.1c1.5,3.2,2.7,6.5,3.9,9.8
	c-5.2-1.8-10.5-3.2-15.9-4.2C934.4,98.1,933.3,97.9,932.2,97.7z M883,63.6c0,0.7,0.4,1.3,1.1,1.4c10.4,2.3,20.2,6.5,28.2,13.6
	c3.9,3.5,7.4,7.4,10.4,11.7c1.5,2,2.8,4.4,4.2,6.6c-7.4-1.1-14.8-1.7-22.3-2.1c-0.7-0.9-1.5-1.7-2.2-2.6c-2.6-2.9-5.5-5.6-8.6-7.9
	c-5.3-3.9-14-9.2-20.8-7.7c-1.1,0.3-1.7,1.4-1.3,2.5c0.1,0.5,0.4,0.9,0.8,1.1c3,1.8,6.7,2.2,9.9,3.7c3.1,1.5,6.1,3.4,8.9,5.5
	c1.9,1.5,3.7,3.2,5.5,4.9c-8.3-0.5-19-2-25.8,3C865.2,84.8,872.2,71.1,883,63.6z M698.6,213.8c5.9,8.9,13.2,16.8,22.4,22.4
	c7.6,4.6,18.6,8.3,27.1,4.1c0.4,2.4,0.8,4.8,1.3,7.2c-17.5,5.2-38.6,2.6-53.2-8.8c-12.1-9.4-21.7-25-23.4-40.2
	c-0.5-4.1-1.1-8.4-0.6-12.5c0.5-4.3,2.3-8.2,4.1-12c2.1-4.4,4-9,6.1-13.5c0.1,7.4,1,14.8,2.6,22.1
	C687.4,194.2,692.1,203.8,698.6,213.8L698.6,213.8z M744.8,205c-10.8-2-15.9-13.2-18.3-24.1c4.7-0.9,9.2-4.1,14.1-3.6
	c2.8,0.3,5.5,1.4,8.1,1.8C746.2,187.5,744.9,196.2,744.8,205L744.8,205z M712.2,195c2.9,9.5,6.3,18.4,12.6,26.2
	c5.4,6.7,13.1,13.2,22.1,11.8c0.2,1.1,0.3,2.2,0.5,3.4c-10,0.5-18-1.4-26.5-7s-14.7-13.5-20-22.2s-9.9-17.6-11.5-27.8
	c-1.4-9.7-1.9-19.5-1.7-29.3c4.2-6.2,10.5-10.3,16.7-14.2c-0.4,8.9,1.1,17.9,2.1,26.8C707.7,173.6,709.1,184.4,712.2,195L712.2,195z
	 M722.7,125.7c-3.1,7.1-3.6,16.3-4.1,23.7c-0.6,8.9-0.3,18.5,2.2,27.1c2.3,8.3,4.9,18.2,10.2,25c3.1,4.1,8.5,7.7,13.8,7.2
	c0,1.3,0.1,2.5,0.1,3.8c0.2,5.1,0.7,10.1,1.4,15.1c-18.1,0.8-27.4-26.3-29.9-40.3c-1.8-9.7-2.5-19.7-3.5-29.5
	c-0.8-8.6-2.2-17.7-1.4-26.4C715,129.1,718.8,127.2,722.7,125.7L722.7,125.7z M747.7,131.5c-5.6-1.7-13-3.2-19.4-2.5
	c0.5-1.2,1.1-2.3,1.8-3.4c0.3-0.4,0.5-1,0.5-1.5c13.8-1.3,32.4-1.6,43,8.5c-1.8,2.7-3.6,5.4-5.3,8.1c-0.2,0.2-0.3,0.5-0.5,0.7
	C763.3,136.1,753.9,133.4,747.7,131.5L747.7,131.5z M760.1,153.6c-4.4-3.1-12.1-3.9-16.4-4.3c-5.9-0.6-13.8-2-19,1.5
	c0.1-1,0.2-2.1,0.3-3.1c0.3-4.5,0.9-8.9,1.7-13.3c2.6,0,5.1-0.3,7.7-0.2c4.1,0.1,8.3,0.6,12.3,1.5c4.1,0.8,8,2.2,11.8,4
	c2.7,1.2,5.2,3.1,7.9,4C764.2,146.8,762.1,150.2,760.1,153.6L760.1,153.6z M750.9,172.3c-4.2-1.6-8.7-2.1-13.2-1.5
	c-4.5,0.9-8.7,2.9-12.1,6c-0.4-2.7-0.8-5.3-1-7.7c-0.4-4.4-0.5-8.9-0.3-13.3c0.6,0.2,1.3,0.2,1.9-0.1c5.1-2.5,11.1-1.7,16.6-1.3
	c3.2,0.2,6.5,0.7,9.6,1.6c1.8,0.4,3.6,1,5.4,1.7c-1,1.8-1.9,3.6-2.8,5.4C753.5,166.1,752.1,169.1,750.9,172.3L750.9,172.3z
	 M894.2,150.9c-0.8,0.1-1.4,0.6-1.7,1.3c0,0.1,0,0.1-0.1,0.2c-0.2,0.7,0.1,1.5,0.7,1.9c-5.5,6.4-16.6,8.5-24.3,9.2
	c-8.7,0.7-17.3,1.5-25.9,2.9c-14.7,2.4-29.5,6-42.4,13.7s-21.8,18.8-29.8,31.3c-8.3,12.9-10.8,29-10.8,44.2c0,1.3,0.1,2.5,0.2,3.8
	l0,0c-1.6-9.5-1.4-19.7-1.4-29.3c0-8.9,1.7-18.1,3.1-26.9c3.1-19.4,12.6-34.2,26.6-47.6c6.5-6.2,13.8-11.6,21.6-16.1
	c3.4-2,6.9-3.9,10.5-5.6c0.3,0.1,0.7,0.1,1,0.1c3.2-0.2,6-1.5,9.1-2.1c3.8-0.6,7.6-0.6,11.4-0.2c7.4,0.4,14.7,2.2,21.5,5.1
	c6.2,2.8,12.6,5.3,18.9,7.9c3.9,1.6,8,3.6,12,3c0.1,1.1,0.2,2.3,0.3,3.4C894.3,150.9,894.3,150.9,894.2,150.9L894.2,150.9z
	 M843,193.8l11.1-3.3c7-2.3,14-4.7,21-7.3c-1.1,1.1-2.2,2.2-3.4,3.3c-6.6,6-13.7,11.5-21.1,16.5c-6.6,4.4-13,8.8-17.9,15.1
	c-2.7,3.7-5,7.8-6.6,12.1c0.6-2.4,1.3-4.7,2.1-7c1.9-6.1,4.4-11.9,7.3-17.6C837.6,201.5,840.5,197.8,843,193.8z M782.6,245.9
	c-0.2,1,0,2,0.5,2.8c-0.2,2.5-0.3,5-0.4,7.5c-0.2,5.5-0.4,11-0.7,16.6c-0.2,5.9-0.5,11.7-0.7,17.6c-0.2,5,0.9,11.8-1.9,16.1
	c-0.1,0.2-0.2,0.3-0.2,0.5c-2.7-2.4-5.2-4.3-7.1-7.4c0.6-8.5-3.1-17.1-5-25.3c-2.1-9.4-1.6-18.3,0-27.8c1.3-7.9,2.3-16.3,5.9-23.6
	c3.3-6.6,7.8-12.9,12.2-18.8c9-11.7,21-19.3,34.2-25.3c14.5-6.6,30.5-8.9,46.1-11.2c9.4-1.4,22.2-0.3,28.2-7.8
	c-0.2,0.7-0.4,1.4-0.7,2.1c-2.6,6.7-7.8,10.6-14.3,13c-14.5,5.4-29.5,9-44.3,13.4c-13.6,4-26.1,10-35.9,20.6
	S784.7,231.6,782.6,245.9L782.6,245.9z M785.7,302.5c0.4-2.4,0.6-4.8,0.6-7.2c0.3-6.5,0.3-13,0.5-19.6l0.2-6.9
	c0.6,3.8,1.4,8,4.6,9.9c0.7,0.4,1.5,0.4,2.2,0.1c0.1,3,0.8,6.2,0,9.1c-0.7,2.6-2.4,4.9-3.8,7.2S787.3,300.2,785.7,302.5L785.7,302.5
	z M664.9,491.4c-4.2,8.1-7.8,16.5-10.7,25.1c-0.5,1.4-0.9,2.8-1.3,4.1c-3-0.5-6.8,2.1-9.9,1.9c-1.6-0.1-4.3-0.8-4.7-2.8
	c-0.3-1.2,2.2-3.7,3-4.6c1.6-1.9,3.2-3.7,4.9-5.5c3.7-4.1,7.6-8.1,11.5-11.9C660,495.5,662.5,493.5,664.9,491.4L664.9,491.4z
	 M816.8,386.2c4.3,5.2,7.6,11.3,9.5,17.8c2.8,9.7,1.9,19.1,0.3,28.9c-1.4,8.4-1.5,16.6-3.4,24.7c-30.6-3-62.9,2.9-89,19.6
	c-12.5,7.9-24.2,18.4-31.2,31.6c-3.1,5.8-5.2,12-6.2,18.5c-0.2,1.5,0.1,5-0.9,6.2c-2.5,3-6.3-0.8-8-2.3c-3.3-3.1-6-6.8-7.8-10.9
	c-0.3-0.5-1-0.7-1.5-0.4c-0.1,0.1-0.3,0.2-0.4,0.4c-2.7,4.9-5.6,9.5-8.9,14c-2.8,3.9-6.8,10.7-11.5,12.8
	c-11.1,4.8-7.6-11.5-6.4-16.3c0.6-2.4,1.2-4.7,1.9-7c0.7-0.5,1.1-1.3,1.2-2.1c0-0.1,0-0.2-0.1-0.3c-0.1-0.1-0.2-0.1-0.3-0.2
	c0.6-2,1.3-3.9,1.9-5.9c3-9,6.8-17.7,11.2-26c0.7-0.7,1.4-1.4,2-2.1c0.5-0.6,0.6-1.4,0.3-2.1c4.6-8.2,10.1-15.8,16.4-22.7
	c6.7-7.2,14.9-12.6,22.5-18.8c8-6.5,16.4-12.5,25.2-17.9c17.2-10.4,35.7-18.9,54.1-27.2C797.4,394.1,807,390,816.8,386.2
	L816.8,386.2z M807.9,499.7c0.3-0.5,0.4-1,0.4-1.6c1.1,1.1,2.9,1.2,4,0.1c0.2-0.2,0.4-0.5,0.6-0.8c5.4-10.8,10.6-21.8,14.9-33.1
	c2-5.6,3.2-11.4,3.5-17.3c0.5-6.4,1.4-12.6,2.3-19c2.1-15-1.7-31.9-11.6-43.8c7.8-3,15.8-5.7,23.8-8.2c-1,16.2-1.3,32.5-2.1,48.7
	c-1.1,22.3-2.7,44.6-7,66.5c-1.3,6.5-2.8,12.8-4.6,19c-3.4-0.9-6.9-1.5-10.1-2.8c-5-2-9.3-5.2-14-7.7H807.9z M900.7,864.7
	c0.3,7.7,1.5,15.4,3.5,22.9c2.2,7.4,8.2,15,16.8,14c4.7-0.6,7.9-3.5,9.9-7.4c-0.8,6.6-3.4,12.6-9.5,16.3c-0.2,0-0.4,0-0.5,0.2
	l-0.3,0.3c-0.3,0.1-0.5,0.3-0.8,0.4c-0.3,0.2-0.6,0.4-0.8,0.7c-5.2,2.7-10.7-4.3-12.7-8.5c-2-4.2-3.4-8.6-4.1-13.2
	C900.8,881.9,900.3,873.3,900.7,864.7L900.7,864.7z M670.3,793.3c-4.7,5.8-7.2,13.6-9,20.6c-1.1,4.2-4.5,12.9-2.5,18
	c-3.9,0.7-7.8,1.1-11.7,1.2c0-2-0.4-4.1,0-6.1c1-4.9,3.7-9.1,6.4-13.3s5.6-8.1,8.5-12.1C664.4,798.4,666.7,794.6,670.3,793.3
	L670.3,793.3z M716.6,728.8c0.2-0.3,0.2-0.7,0.2-1c19.6,7.4,39.6,14.4,59.7,20.5c-3.8,1.9-7.7,3.3-11.6,5.1
	c-1.1,0.5-1.6,1.7-1.1,2.8c0.1,0.2,0.2,0.3,0.3,0.5c-1.6,1.6-3.1,3.3-4.5,5.1c-2.5,2.8-5,5.6-7.6,8.3c-5.2,5.4-10.8,10.5-16.7,15.2
	c-10.4,8.2-21.9,15.1-34.1,20.3c-0.8-0.7-12.4,11-13.9,12.3c-3.9,3.3-8.1,6.2-12.5,8.6c-3.2,1.7-6.5,3.1-10,4.1
	c-0.3-0.2-0.6-0.3-1-0.3c-5.8,0.2-0.5-17.1,0.5-20.3c1.8-6,4.5-11.8,8-17c0.7,0,1.5,0,2.2,0.2c1.7,0.3,3.3-0.8,3.6-2.5
	c0.1-0.3,0.1-0.6,0-0.9c3.2-3.5,5.5-8.6,7.8-12.3c3.4-5.6,6.6-11.3,9.9-16.9c3.1-5.4,6.2-10.7,9.6-15.8
	C708.9,739.3,714,734.4,716.6,728.8L716.6,728.8z"/>
<path d="M865.3,360.4c11.3,10.9,26.1,17.8,42.1,17.1c3.5-0.2,7-0.7,10.5-1.2c5.1-0.8,8.7-3.6,12.6-6.7c6.7-5.2,12.4-11.8,19.3-16.8
	c1.9-1.4,4.4,1.3,3.2,3.2c-5.2,7.7-13.8,14.1-21.4,19.2c-7.1,4.8-15.5,7.3-24.1,7.2c-16.6-0.3-33.4-6.9-44.5-19.4
	C861.4,361.2,863.7,358.9,865.3,360.4z"/>
<path class="st17" d="M829.7,70.7c0.5-2.6,4.5-1.5,4,1.1c-1.6,7.4-1.4,15,0.4,22.3c0.1,0.4,3.5,8.5,1.3,8.4h-0.7
	c-0.6,0-1.1-0.3-1.4-0.8C829.1,91.9,827.8,81.1,829.7,70.7z"/>
<path class="st17" d="M661.3,79.5c0.2-7.7,1.8-15.5,5.6-22.2c3.6-6.4,8.8-10.5,15.3-13.8c6.9-3.5,10-10.8,16.3-15.5
	c13.8-10.2,29.2-17.8,45.6-22.7C760,0.6,778-2.6,794.1,3c7.9,2.8,14.9,7.7,22.7,10.4s15.6,1.6,23.6,1.8s15.1,2.5,20.1,9
	c4.6,6.1,7.4,13.4,8.1,21c0.5,7.2-1.8,14.4-7.7,18.9c-6.4,4.9-14.4,5.6-22.2,5.3c-1.7-0.1-2.2-2.7-0.4-3.1
	c6.1-1.3,13.3-2.1,18.5-5.8c6.4-4.6,7.2-12.6,5.5-19.8c-1.6-6.4-5.1-14.1-11-17.5s-13.7-2.2-20.3-2c-6.6,0.3-13.1-0.8-19.2-3.3
	c-6.5-2.7-12.6-6.6-19.4-8.8c-14.7-4.8-31.2-1.7-45.7,2.5c-14.2,4.1-27.6,10.4-39.8,18.7c-3.3,2.2-6.8,4.4-9.4,7.4
	c-2.3,2.6-3.5,5.9-6.2,8.2c-4.7,4-10.7,5.4-14.9,10.2c-9.8,11.3-8.4,29.1-7.1,42.9c0.8,8.4,6.8,13.3,14,16.9
	c7.6,3.8,15.6,3.3,23.6,1.1c8.4-2.2,16.6-5.1,24.5-8.6c7.2-3.3,12.5-8.3,18.8-12.9c5.9-4.3,12.8-5.5,20-5.1c8.6,0.4,17.1,1.4,25.5,3
	c1.9,0.4,1.5,3.4-0.5,3.4c-9.2-0.2-18.3-2.4-27.5-2.3c-4.5-0.2-8.9,1-12.7,3.2c-3.9,2.4-6.9,6-10.5,8.8l-0.3,0.3
	c3.4,4,6,8.6,7.7,13.6c0.5,1.4-1.8,2-2.3,0.6c-1.7-4.6-4.2-9-7.3-12.8c-5.7,3.9-11.8,7-18.3,9.4c-7.8,3.1-16.1,6.3-24.5,7.4
	c-13.6,1.7-30.9-6.8-36-20.2C660.8,97.1,661,87.5,661.3,79.5z"/>
<path class="st17" d="M991.2,215.6h-11.5l-9.3,6.5l-6.3,9.2l0.5,15.5l7.5,2.3c1,0.3,13.5-2.8,13.5-2.8l6.8-9.3L991.2,215.6z"/>
<path class="st17" d="M915.5,220.1l-8-3l-11.8,5l-5.5,9.2l-0.5,9.8c0,0,1.5,5.3,2.3,6s9.8,1.8,9.8,1.8l10-6.3l4.3-15L915.5,220.1z"
	/>
<circle class="st4" cx="984" cy="214.6" r="8.8"/>
<circle class="st4" cx="966.1" cy="226.9" r="4.6"/>
<circle class="st4" cx="901.4" cy="219.7" r="8.4"/>
<circle class="st4" cx="887.6" cy="239.4" r="3.1"/>
<path class="st4" d="M898.5,567.1c4.6,4.2,10.5,4.8,16.5,4.9c-6,7.4-6.4,18.5,1.8,25.8c4.8,4.2,11.5,4.8,16.1,0s5.6-12.1,5.3-18.6
	c0.8,0,1.6-0.1,2.4-0.2c4.9,9.7,19.6,29,28.6,15.7c4.4-6.4,0.6-13.7-3.5-19.1c-1.7-2.3-3.6-4.5-5.6-6.5c1.6-0.2,3.1-0.6,4.6-1.2
	c6.1-2.6,10.1-8.7,9.9-15.4c-0.3-6.6-5.6-12.4-12.5-11.5c-4.6,0.6-8.9,3.2-12.8,6.5c0.9-3.4,0.9-7-0.1-10.4c-1.5-5-5.5-9.7-11-10.1
	c-5.7-0.5-10.4,3.6-12.6,8.6c-1.3,3.1-1.7,6.5-1.3,9.8c-2.5-2.1-5.4-3.7-8.6-4.4c-7-1.6-15.1,0.6-19.2,6.8
	C892.6,553.8,893,562.1,898.5,567.1z M942,554.4c-3.5-1.3-7.4-1-10.7,0.7c-0.6-1.4-1.3-2.7-2-4c-1.5-3.8-2.2-8.1-1.2-11.9
	c1.2-4.5,5.7-9.4,10.8-8.1C949.3,533.7,945.1,547.3,942,554.4L942,554.4z M950.5,560.6l-2.1-1.5c-0.5-0.7-1.1-1.3-1.7-1.9l-0.1-0.1
	c2.7-3.1,5.8-5.8,9.1-8.2c2.3-1.6,5-3.3,7.8-3.2c3.7,0.2,6.1,3.1,6.1,6.8C969.7,563.5,958,564.9,950.5,560.6z M946.1,576.7
	c0.5-0.4,1-0.8,1.5-1.3c1.7-1.8,2.7-4.1,3.1-6.5c5.7,4.7,11.4,10.6,13.5,16.9c1.4,4.3-1.4,8.2-5.9,5.6c-2-1.3-3.8-2.8-5.4-4.5
	C950.1,583.9,947.8,580.4,946.1,576.7z M937.2,574.4c-0.8-0.8-1.9-1-3-0.7c-0.7-0.3-1.4-0.6-2.1-1c-3.8-2.2-8.7-9.7-3.1-12.8
	c1.3,0.1,2.6-0.7,3-2c3.3-0.7,6.8-0.8,9.9,0.9c0.4,0.3,0.8,0.6,1.2,0.9c-0.7,1.2-0.5,2.7,0.5,3.7c0.8,0.7,1.6,1.3,2.5,1.9
	c0.2,1.5,0.1,3.1-0.5,4.5c-0.5,1.3-1.3,2.4-2.5,3.2c-1.3-0.3-2.6,0.2-3.4,1.3C938.9,574.5,938.1,574.5,937.2,574.4z M924.7,572.1
	c0.5,0.8,1.1,1.5,1.7,2.1c1.9,1.8,4.1,3.2,6.6,4c0.2,3.5-0.2,7-1.3,10.4c-1.9,5.7-7,9.2-11.8,3.9
	C913.7,585.9,916.5,575.4,924.7,572.1z M901.9,551.6c3.2-5.1,10.4-5.7,15.4-3.2c3.8,2,6.9,5.1,9,8.9c-3.4,1.5-4.4,4.8-4,8.3
	c-5.2-0.2-10.7,0.4-15.6-1.3C901.2,562.4,898.7,556.8,901.9,551.6z"/>
<path class="st4" d="M953.2,427.7c1.1-0.1,2.1,0.1,3.1,0.5c0.6,0.4,1.3,0.8,2,1.1c0.4,0.1,0.5,0.5,0.4,0.9c-0.1,0.2-0.2,0.3-0.4,0.4
	c-0.7,0.3-1.4,0.7-2,1.1c-1,0.5-2,0.6-3.1,0.5c-1.2,0-2.3-1-2.3-2.3S952,427.7,953.2,427.7z"/>
<path class="st4" d="M933.2,430.4c2-0.5,4.1-0.4,6,0.5c1,0.6,1.3,1.8,0.8,2.8c-0.2,0.3-0.5,0.6-0.8,0.8c-1.9,0.8-4,1-6,0.5
	c-1.3-0.4-1.9-1.8-1.5-3.1C931.9,431.2,932.5,430.6,933.2,430.4z"/>
<path class="st4" d="M910.1,429.3c1.1-0.8,2.8-0.3,4.1-0.2c0.8,0,1.5,0.7,1.5,1.5s-0.7,1.5-1.5,1.5c-1.3,0.1-3,0.6-4.1-0.2
	c-0.7-0.4-1-1.3-0.6-2C909.7,429.6,909.9,429.4,910.1,429.3z"/>
<path class="st4" d="M891.7,428.4c0.8-0.4,1.7-0.4,2.4,0l2.4,0.9c1.6,0.6,1,3.2-0.7,2.6c-0.9-0.3-1.7-0.5-2.6-0.8
	c-0.9-0.2-1.6-0.8-2-1.6C891.1,429,891.3,428.6,891.7,428.4z"/>
<path class="st4" d="M878.4,426.4c0.4,1.2,1.6,1.9,2.8,1.6c1.7-0.4,1-3.1-0.6-2.7l-0.1-0.1l0,0c-0.5-0.5-1.3-0.5-1.8,0
	C878.4,425.5,878.3,425.9,878.4,426.4z"/>
<path class="st4" d="M866.8,414.7c0.3-0.3,0.9-0.3,1.2,0.1c0,0,0,0,0,0c0.3,0.3,0.6,0.6,0.9,1c0.2,0.4,0.4,0.7,0.6,1.1
	c0.5,0.9-0.7,1.9-1.4,1.1c-0.3-0.3-0.6-0.6-0.8-1c-0.3-0.4-0.5-0.8-0.7-1.2C866.4,415.4,866.5,414.9,866.8,414.7z"/>
<path class="st4" d="M859,399.9c0.2,0.9,0.5,1.8,0.7,2.7c0.1,0.2-0.3,0.3-0.3,0.1l-0.6-2.7C858.7,399.9,858.9,399.8,859,399.9z"/>
<path class="st4" d="M856.2,383.7c0.5,0.2,0.8,0.7,0.6,1.3c-0.1,0.3-0.3,0.5-0.6,0.6c-0.5-0.2-0.8-0.7-0.6-1.3
	C855.7,384,855.9,383.8,856.2,383.7z"/>
<path class="st4" d="M974.1,421.7c0.3-0.2,0.6-0.4,1-0.5c0.1,0,0.3,0,0.4-0.1l0.9-0.3c1.2-0.3,2.5,0.5,2.8,1.7
	c0.1,0.4,0.1,0.7,0,1.1c-0.4,1.8-2.1,3-3.9,2.9c-1.2,0-2.2-0.8-2.5-1.9C972.6,423.4,973.1,422.3,974.1,421.7z"/>
<path class="st4" d="M980.4,413.5c0.2-0.8,0.5-2,1.3-2.3c0.5-0.2,1.2-0.1,1.3,0.5c0.1,0.8-0.3,1.3-0.4,2c-0.1,0.7-0.1,1.3,0.1,2
	c0.4,1.5-2,2.1-2.3,0.6C980.2,415.3,980.2,414.4,980.4,413.5z"/>
<path class="st4" d="M992.6,442.3c0.2-0.7,0.8-1.2,1.5-1.1c0.8,0,1.6,0.4,2.2,0.9c0.6,0.5,1.2,1.1,1.6,1.8c0.8,1.3,2.1,3.4,0.4,4.7
	s-3.2-0.4-4.1-1.6C993.1,445.5,992.1,444.1,992.6,442.3z"/>
<path class="st4" d="M1005.3,462.7c0,0.2-0.1,0.4-0.1,0.7c-0.1,0.5-0.7,0.5-0.7,0c0-0.2-0.1-0.4-0.1-0.7
	C1004.3,462.1,1005.3,462.1,1005.3,462.7z"/>
<path class="st4" d="M996.8,458.2c0.3-1.5,2.7-1.5,3.1,0c0.4,1.6,1.1,3.1,2.1,4.4c0.9,1.4,2,2.8,1.7,4.5c-0.1,0.6-0.5,1-1.1,1.1
	c-2.3,0.8-4.4-1.6-5.2-3.5C996.4,462.7,996.2,460.3,996.8,458.2z"/>
<path class="st4" d="M1009.6,482.2c0.4,1.3,2.2,5,0,5.6s-2.6-3.4-3-4.8c-0.1-0.9,0.4-1.7,1.3-1.8
	C1008.6,481.1,1009.4,481.5,1009.6,482.2z"/>
<path class="st4" d="M1012.8,497.8c0.2,1,0.4,1.9,0.5,2.9c0,0.5-0.7,0.7-0.9,0.3c-0.4-0.9-0.7-1.8-0.9-2.7
	C1011.3,497.4,1012.7,496.9,1012.8,497.8z"/>
<path class="st4" d="M1017.7,515.1c0.3,1,0.7,2,1,3c0.4,1.6-2.2,2.3-2.4,0.7c-0.2-1.1-0.2-2.3-0.3-3.4S1017.4,514.2,1017.7,515.1z"
	/>
<path class="st4" d="M1020.8,528.5c0.4,0,0.8,0.4,0.8,0.8c0,0.4-0.4,0.8-0.8,0.8c-0.4,0-0.8-0.4-0.8-0.8
	C1020,528.8,1020.4,528.5,1020.8,528.5z"/>
<path class="st4" d="M956.2,686.9c1-1.2,2.9-1.3,4.3-0.9c1.2,0.4,2.2,0.9,3.2,1.7c0.7,0.4,1.1,1.3,0.8,2.1c-0.2,0.8-1,1.3-1.8,1.3
	c-2.3-0.3-4.7,0.8-6.6-0.8C955.1,689.4,955.4,687.9,956.2,686.9z"/>
<path class="st4" d="M932,688.5c1.3-1.4,3.1-1.1,4.9-1.1c1.7,0.2,3.4,0.5,5.1,0.9c1.6,0.3,1.6,3,0,3.3c-1.7,0.4-3.4,0.7-5.1,0.9
	c-1.7,0.1-3.6,0.4-4.9-1.1C931.2,690.6,931.2,689.3,932,688.5C932,688.5,932,688.5,932,688.5z"/>
<path class="st4" d="M904.1,684.5c1.8-1.4,3.2-0.7,5.2-0.1c1.8,0.6,3.6,1.4,5.3,2.1c1.3,0.5,1.7,2.8,0,3.1c-2,0.4-4.1,0.4-6.1,0.1
	c-1.8-0.4-4.6-1.1-4.9-3.2C903.3,685.8,903.5,684.9,904.1,684.5z"/>
<path class="st4" d="M883.6,681.7c0.4-2.8,4.8-0.9,6.3-0.4c0.7,0.2,1.1,1,0.9,1.7c-0.2,0.6-0.7,0.9-1.3,0.9
	C887.9,683.9,883.2,684.5,883.6,681.7z"/>
<path class="st4" d="M870,677.5c0.3-1,1.3-1.5,2.3-1.3c1.1,0.2,2.1,0.3,3.2,0.5c0.7,0,1.3,0.6,1.3,1.4c0,0.7-0.6,1.3-1.3,1.3
	c-1.1,0.1-2.1,0.3-3.2,0.5c-1,0.2-2-0.3-2.3-1.3C869.9,678.2,869.9,677.8,870,677.5z"/>
<path class="st4" d="M851.2,674.1c2.3-0.1,4.7-0.2,7-0.2c3,0,3.6,3.7,1.4,5.2c-2.7,2-6.9,1.9-9.8,0.2
	C847.3,677.9,848.5,674.2,851.2,674.1z"/>
<path class="st4" d="M820,667.6c1.6,0.5,3.1,1.2,4.4,2.2c1.5,1,3.1,1.7,4.8,2.2c1.3,0.4,1.1,2.6-0.3,2.5c-3.9-0.3-8.6-0.7-11-4.2
	C816.9,668.9,818.5,667.2,820,667.6z"/>
<path class="st4" d="M798.3,662.8c1.5,0.1,3,0.5,4.5,0.5c2.2,0,2.8,3.5,0.5,3.9c-1.4,0.3-2.9,0.4-4.4,0.3c-1.5-0.2-3.7-0.9-3.7-2.8
	C795.2,663.1,797,662.7,798.3,662.8z"/>
<path class="st4" d="M784.8,662.1c0.3,0,0.5,0.2,0.5,0.5s-0.2,0.5-0.5,0.5C784.2,663.2,784.2,662.1,784.8,662.1z"/>
<path class="st4" d="M852.6,405.1c0.8-0.9,2.1-0.9,3-0.1c0,0,0.1,0.1,0.1,0.1c1,1.5,1.4,3.2,1.2,5c-0.1,1.7,0,3.6-1.3,4.8
	c-0.8,0.8-2.1,0.8-2.9,0c0,0,0,0,0,0c-1.4-1.3-1.3-3.1-1.3-4.8S851.4,406.5,852.6,405.1z"/>
<path class="st4" d="M853.3,437.2c0.3-1,0.8-1.8,1.1-2.8c0.2-0.6,0.8-0.9,1.4-0.7c0.3,0.1,0.6,0.4,0.7,0.7c0.3,0.9,0.7,1.7,1,2.5
	c0.2,0.9,0.3,1.9,0.3,2.8c0,1.7-0.2,4.1-2.4,4.1s-2.4-2.2-2.4-3.8C853.1,439,853.2,438.1,853.3,437.2z"/>
<path class="st4" d="M854.1,468.9V466c0-0.8,0.6-1.5,1.5-1.5s1.5,0.6,1.5,1.5v2.9c0.2,0.9-0.1,1.9-0.6,2.6c-0.5,0.4-1.1,0.4-1.6,0
	C854,470.8,854.1,469.8,854.1,468.9z"/>
<path class="st4" d="M851.7,501.2c0.3-2,0.7-4.1,1-6.1c0.1-0.9,1.6-0.7,1.5,0.2c-0.2,2-0.4,4.1-0.7,6.1c-0.1,1.7-0.4,3.3-1.1,4.8
	c-0.2,0.3-0.6,0.3-0.9,0.1c-0.1-0.1-0.1-0.1-0.2-0.2C851.2,504.4,851.3,502.8,851.7,501.2z"/>
<path class="st4" d="M842.1,517.8c0.5-0.8,1.5-1,2.3-0.5c0.6,0.4,0.9,1.1,0.7,1.8c-0.5,2.1-1.8,11-5.6,9.4S840.9,519.7,842.1,517.8z
	"/>
<path class="st4" d="M831.8,546c1-1.3,3.1-0.2,2.2,1.3c-1,1.8-1.9,3.6-2.7,5.5c-0.5,1.7-1.3,3.2-2.4,4.6c-0.5,0.5-1.2,0.5-1.7,0
	c-0.1-0.1-0.2-0.3-0.3-0.5C826.3,553.1,829.6,548.9,831.8,546z"/>
<path class="st4" d="M816,581.1c0.3-1.7,1.4-3.2,2.3-4.7s2-3.3,2.9-4.9c0.5-0.9,1.8-0.1,1.3,0.8c-0.9,1.7-1.7,3.4-2.6,5.1
	s-1.4,3.3-2.7,4.5C816.8,582.5,815.9,581.9,816,581.1z"/>
<path class="st4" d="M808.7,600.2c0.7-2.2,1.5-4.3,2.5-6.3c0.5-0.7,1.4-0.9,2.1-0.5c0.4,0.3,0.7,0.7,0.7,1.3c-0.2,2.4-0.8,4.7-1.6,7
	c-0.6,1.9-1.2,4.5-3.1,5.4c-0.7,0.4-1.7,0.1-2.1-0.6c-0.1-0.1-0.1-0.2-0.1-0.3C806.5,604.2,807.9,602.1,808.7,600.2z"/>
<path class="st4" d="M793.6,624.5c0.7-0.7,1.5-1.4,2.3-2c0.9-0.9,1.8-1.8,2.6-2.8c0.2-0.3,0.7,0.1,0.5,0.4c-0.7,0.9-1.2,1.9-1.7,3
	c-0.5,1.1-0.6,2.4-1,3.5c-0.7,1.8-1.5,3.6-3.1,4.7c-0.6,0.4-1.4,0.2-1.7-0.4c-0.1-0.2-0.2-0.4-0.2-0.7
	C791,628,792.2,626.1,793.6,624.5z"/>
<path class="st4" d="M782.1,648.4c0.3-1.3,1.6-2.2,2.3-3.2c0.9-1.2,1.7-2.4,2.3-3.8c0.5-1.1,2.1-0.1,1.6,0.9
	c-0.6,1.5-1.4,2.9-2.3,4.2c-0.8,1.1-1.6,2.5-2.9,2.8C782.4,649.6,781.9,649.1,782.1,648.4z"/>
<path class="st4" d="M773.7,666.5c0.8-1.8,1.9-3.4,3.2-4.9c0.4-0.6,1.4,0,1,0.6c-1,1.7-2.2,3.3-3.6,4.7c-0.2,0.1-0.4,0.1-0.5-0.1
	C773.7,666.7,773.7,666.6,773.7,666.5z"/>
<path class="st16" d="M885,261.8c1.7,0,3,1.3,3,3c0,1.6-1.4,3-3,3c-1.7,0-3-1.3-3-3C882,263.1,883.4,261.8,885,261.8z"/>
<path class="st16" d="M874,264.2c2.7,0,2.7,4.2,0,4.2S871.3,264.2,874,264.2z"/>
<path class="st16" d="M881,273.7c1.8,0,3.2,1.4,3.2,3.2c0,1.8-1.4,3.2-3.2,3.2c-1.8,0-3.2-1.4-3.2-3.2
	C877.8,275.1,879.2,273.7,881,273.7z"/>
<path class="st16" d="M983.5,261.8c3.3,0,3.3,5.1,0,5.1S980.2,261.8,983.5,261.8z"/>
<path class="st16" d="M972.5,262.8c0.6,0,1,0.4,1,1s-0.4,1-1,1s-1-0.4-1-1S972,262.8,972.5,262.8z"/>
<path class="st16" d="M976.9,270.2c0.1,0,0.2,0.1,0.3,0.1c0.8,0.2,1.3,1.1,1.1,1.9c-0.1,0.5-0.6,0.9-1.1,1.1c-0.1,0-0.2,0.1-0.3,0.1
	c-0.9,0.2-1.8-0.3-2-1.2c0-0.1-0.1-0.3-0.1-0.4c0.1-1,0.9-1.7,1.9-1.6C976.8,270.1,976.9,270.2,976.9,270.2z"/>
<path class="st1" d="M942.5,764c6.1-2.1,13.6-1.5,20-2.7c6.7-1.2,13.3-2.8,19.8-4.7c6.6-1.9,13.1-4,19.6-6c5.3-1.7,10.6-3.8,16-5.1
	c0-3.2,0.6-6.4,0.8-9.4c0.3-4.8,0.6-9.6,0.9-14.5s0.5-9.6,0.8-14.5c0-1.9,0.2-3.8,0.6-5.7c-6.1,0.9-12.3,1.5-18.2,2.2
	c-7.1,0.8-14.1,1.4-21.2,1.8c-6.5,0.4-14.9,2-21.1-0.1c-1.6-0.5-2.5-2.3-2-3.9c0.3-0.9,1-1.7,2-2c6-2.1,13.8-1.1,20.2-1.4
	c7.1-0.4,14.2-0.9,21.2-1.7c13.1-1.4,26-4.3,39-5.8c2.4-31,0.4-62.3-3.6-93.1c-2.1-16.2-4.7-32.3-7.8-48.3
	c-1.5-7.7-3.1-15.3-4.7-22.9c-1.7-7.8-3.9-15.7-4.4-23.7c-0.1-2.2,3.3-3.2,4.2-1.1c6.4,14.1,8.7,30.8,11.6,45.9
	c3.1,16,5.7,32.1,7.9,48.2c4.4,33,6.1,66.1,3.7,99.3c-0.3,3.6-4.7,4.4-6.6,2.5c-5.1,1.4-10.3,2.6-15.6,3.4c0.5,2.7,0.2,5.7,0.2,8.4
	c-0.1,4.5-0.3,9-0.5,13.5l-0.6,13.5c-0.2,4.6,0.4,9.9-1.3,14.2c-0.8,2-3.5,2.5-4.6,0.8c-4.2,2.4-8.9,3.8-13.4,5.4
	c-7,2.5-14.1,4.9-21.2,6.9c-7.1,2.1-14.4,3.7-21.7,5c-6.1,1-14,2.7-20,0.7c-1.4-0.4-2.2-1.9-1.8-3.3
	C941,764.9,941.6,764.2,942.5,764z"/>
<path class="st1" d="M798.5,353.2c0.1,0,0.1,0.1,0.1,0.2c0,0.1-0.1,0.1-0.1,0.1C798.3,353.6,798.3,353.2,798.5,353.2z"/>
<path class="st1" d="M1149.1,280.1c0.2-1.4,1.8-1.7,2.9-1.1l0,0c0.1,0,0.2,0.1,0.2,0.2l0,0l0.2,0.2c0.4,0.3,0.6,0.9,0.5,1.4
	c-1,10.6,11.8,11.7,19.3,12.3c8,0.6,17.2,1.3,25-1c0.2-0.1,0.4,0.1,0.5,0.3c0.1,0.2-0.1,0.4-0.3,0.5c-2.9,1.1-5.1,2.3-8.2,2.9
	c-2.7,0.5-5.5,0.8-8.2,0.9c-5.5,0.3-11.1,0.1-16.6-0.6C1156.1,294.7,1147.8,289.6,1149.1,280.1z"/>
<path class="st1" d="M1205.5,267.1c5.3,0.1,10.8-1.5,16-2.6c5.8-1.3,11.5-2.6,17.3-3.8c10.8-2.2,21.7-3.6,32.6-4.8
	c22.8-2.6,45.6-5,68.3-7.6c0.1,0.1,0.1,0.3,0.2,0.4c4.7,5.8,12.1,7.2,19.2,7.3c10.2,0.2,20.5-0.1,30.8-0.3
	c20.6-0.3,41.6-1.3,61.8-5.7c9.4-2,18.7-4.1,28.3-5.3c8.8-1,17.6-2.8,26.1-5.2c8.4-2.4,16.7-5.3,25.1-7.7c7.8-2.2,15.6-3.5,23.5-5.1
	c6.5-1.3,13.1-3,18.8-6.4c3-1.7,5.7-3.9,7.9-6.5c-3,9.2-4.3,18.5-11.4,25.8c-6.1,6.3-14.4,9.6-22.7,12c-17.4,4.9-35.4,8.4-53.2,11.7
	c-18.8,3.5-37.7,6.6-56.7,8.7s-38,3.8-57,5.2c-15.5,1.1-35.7,1.3-43.9-14.7c-1.1-2.1-4.1-1.1-4.5,0.8c-0.4,0-0.8,0-1.2,0.1
	c-1.6,0-3.2,0.2-4.8,0.4c-0.3,0.1-0.5,0.2-0.7,0.4h-0.5c-18,3.2-36.1,5.7-54,9c-8.8,1.6-17.6,3.3-26.4,4.7c-9,1.5-18.6,2.3-27.4,5
	c-1.9,0.6-1.6,3.7,0.5,3.6c8.7-0.4,17.5-2.8,26-4.3c9.1-1.7,18.3-3.2,27.5-4.7c18.3-3,36.5-6.8,54.8-10c0.3,0.1,0.5,0.2,0.8,0.2
	c1.6-0.1,3.2-0.5,4.8-0.7c0.5-0.1,1.1-0.2,1.6-0.4c7.8,17.8,29.2,19.7,46.6,18.6c42.2-2.6,84.4-8.8,125.9-17.4
	c10.8-2.2,21.5-4.7,32.2-7.3c7.9-2,15.8-4.2,23.1-7.8c13.9-7,21.9-19.8,24.5-34.7c0.9-1.6,1.2-3.6,0.6-5.4c-0.2-1-1.2-1.6-2.2-1.4
	c-0.2,0-0.4,0.1-0.5,0.2c0.8-1.5,1-3.2,0.7-4.8c-1.4-6.4-11.8-7.3-16.8-8.3c-8.4-1.7-17-2.7-25.6-2.8c-18.5-0.2-36.8,3.7-54.9,6.8
	c-18.9,3.3-37.8,6.8-56.6,10.6c-18.8,3.8-37.6,8-56.2,12.6c-8.7,2.2-17.8,3.9-26.2,7c-5.4,2-10.5,5.6-10.4,11.9
	c-22.6,2.3-45.2,4.8-67.9,7.1c-10.8,1.1-21.4,2.2-32.1,4.2c-5.8,1.1-11.6,2.3-17.3,3.7c-5.1,1.3-10.7,2.4-15.3,5
	C1203.4,265,1204,267,1205.5,267.1z M1343,246.6c0.7-0.6,1-1.5,1-2.4c-0.1-4.2,5.7-5.6,8.9-6.5c4.7-1.3,9.4-2.5,14.2-3.7
	c8.8-2.3,17.7-4.4,26.5-6.5c18.1-4.2,36.2-8,54.4-11.6c16.3-3.2,32.6-6.1,49-8.9c16.6-2.8,33.2-5.9,50.1-5c8,0.4,15.9,1.7,23.7,3.6
	c1.2,0.3,5.4,0.8,6.1,1.8c0.9,1.5-0.7,2.6-1.7,3.7c-2.3,2.2-4.9,4-7.8,5.2c-11.9,5.5-26,6-38.6,9.6c-15.1,4.4-29.7,10-45.3,12
	c-16,2.1-31.5,6-47.4,9c-16.5,2.9-33.2,4.6-50,4.9c-8,0.2-16,0.2-24.1,0.1C1355.3,251.8,1347.9,251.6,1343,246.6L1343,246.6z"/>
<path class="st1" d="M1390.7,238.7c3.6-4.5,10.8-5.7,16.1-7.2c14.2-4.2,28.6-8,43.1-10.9c14.1-2.9,28.4-5.1,42.7-6.6
	c7.4-0.7,14.9-1.4,22.4-1.5c6.3,0,13.9,0,19.8,2.4c0.7,0.3,1.1,1,0.8,1.7c-0.2,0.5-0.7,0.9-1.2,0.9c-5.9,0.1-11.7-1.1-17.6-1
	c-5.9,0.2-11.8,0.6-17.6,1.4c-12.6,1.4-25.3,3.3-37.8,5.6c-11.8,2.2-23.5,4.8-35.1,7.9c-6.1,1.6-12.1,3.5-18.1,5.4
	c-2.7,0.9-5.4,1.7-8,2.7c-1.7,0.6-4.4,1.6-5.4,3.3c-0.8,1.4-0.4,3.3-0.5,4.8c0,1.1-1,2-2.1,1.9c-0.3,0-0.6-0.1-0.8-0.2
	C1387.2,247.2,1388.2,241.7,1390.7,238.7z"/>
<path class="st4" d="M1434.9,259.2c6-3.9,14.8-5,21.7-6.9c6.3-1.7,14.6-5.5,21.1-3.9c1.1,0.3,1.8,1.5,1.5,2.6
	c-0.1,0.4-0.3,0.7-0.6,1c-5.2,4.4-14,4.7-20.4,6.2c-7,1.6-15.1,4.9-22.3,4.6c-1.1-0.1-1.9-1.1-1.8-2.2
	C1434.2,260,1434.5,259.5,1434.9,259.2z"/>
<path class="st4" d="M1385.8,256.2c6.3-1.3,13.3,0.1,19.7,0.1c6.1,0,13.8-1.4,19.5,0.8c1.4,0.6,1.9,2.5,0.4,3.3
	c-5.2,3.1-13.1,2.5-19,2.4c-6.5,0-14.6,0.7-20.6-1.7C1383.6,260.4,1383,256.8,1385.8,256.2z"/>
<path class="st4" d="M1533.1,205.8c9.8-2.2,21.8,1.7,31.3,4c1.1,0.3,1.7,1.5,1.4,2.6c-0.3,0.8-1,1.4-1.9,1.5
	c-9.9,0.1-22.2,1.3-31.4-3.1C1530.4,209.8,1530.9,206.3,1533.1,205.8z"/>
<path class="st4" d="M1230.5,277.1c7.8-0.7,15-2.9,22.5-4.9s15.3-3.4,23-5c0.9-0.2,1.9,0.4,2.1,1.3c0.2,0.9-0.3,1.8-1.2,2.1
	c-8.5,2.2-17,4.6-25.7,6.3c-6.5,1.3-14.4,4.1-21.1,2.5C1228.9,279,1229.3,277.2,1230.5,277.1z"/>
<path class="st4" d="M1163.3,286.2c2.1-0.8,4.2,0.2,6.3,0.4c2.3,0.2,4.6,0.6,6.9,0.7c0.8,0,1.4,0.7,1.3,1.4c0,0.6-0.4,1.1-0.9,1.3
	c-1.2,0.6-2.4,1-3.7,1.4c-1.5,0.2-2.9,0.2-4.4-0.1c-2.5-0.3-4.8-0.5-6.4-2.6C1161.6,287.8,1162.4,286.6,1163.3,286.2z"/>
<path class="st18" d="M399.7,934.3c1.5-0.9,3.2-0.9,4.7,0c0.1,0.1,0.3,0.1,0.4,0.2c2.8,1.5,2.8,6,0,7.6c-0.1,0.1-0.3,0.1-0.4,0.2
	c-1.5,0.9-3.2,0.9-4.7,0c-2.2-1.3-3-4.1-1.7-6.3C398.5,935.2,399,934.7,399.7,934.3z"/>
<path class="st18" d="M375.8,938.2c4.3,0,4.4,6.8,0,6.8S371.5,938.2,375.8,938.2z"/>
<path class="st18" d="M365.5,918.9c0.2-0.9,0.9-1.6,1.8-1.8c0.8-0.1,1.7-0.2,2.5-0.3c1.2,0,2.3,0.6,2.9,1.7c0.5,0.9,0.6,2,0.2,3
	c-0.4,1-1.2,1.7-2.2,2c-1.2,0.3-2.4-0.1-3.3-0.9c-0.5-0.4-0.9-0.8-1.3-1.2C365.6,920.7,365.3,919.8,365.5,918.9z"/>
<path class="st18" d="M352.3,926.7c0.8-0.7,1.8-1.2,2.9-1.2c1.1,0.1,2.1,0.5,2.9,1.2c1.1,1,1.5,2.6,1,4c-0.1,0.3-0.3,0.7-0.4,1
	c-0.2,0.8-0.7,1.4-1.3,1.9c-0.6,0.5-1.4,0.8-2.2,0.8c-0.6,0-1.3-0.2-1.8-0.5c-0.8-0.5-1.4-1.3-1.7-2.2c-0.1-0.3-0.3-0.7-0.4-1
	C350.9,929.3,351.3,927.7,352.3,926.7z"/>
<path class="st18" d="M318.5,935.6c1.6-1.6,3.8-2.4,6-2.5c2.3,0,4.4,0.9,6,2.5c0.8,0.7,1.4,1.7,1.7,2.7c0.5,1,0.8,2.2,0.7,3.3
	c0,2.3-0.9,4.4-2.5,6c-1.6,1.6-3.8,2.4-6,2.5c-2.3,0-4.4-0.9-6-2.5c-0.8-0.7-1.4-1.7-1.7-2.7c-0.5-1-0.8-2.2-0.7-3.3
	C316.1,939.3,317,937.2,318.5,935.6z"/>
<path class="st18" d="M425,1022.9c0.5-1.2,1.4-2.3,2.5-3c0.1-0.1,0.2-0.1,0.3-0.2c0.6-0.2,1.1-0.4,1.6-0.7c0.9-0.3,1.8-0.3,2.7-0.1
	c0.6,0,1.2,0.2,1.7,0.5c0.6,0.1,1.1,0.5,1.5,0.9c0.7,0.5,1.3,1.1,1.7,1.9c0.2,0.6,0.4,1.1,0.7,1.6c0.1,0.6,0.2,1.2,0.2,1.8
	c0,0.9-0.2,1.8-0.6,2.6c-0.1,0.6-0.5,1.1-0.9,1.5c-0.3,0.5-0.7,0.9-1.2,1.2c-0.6,0.6-1.4,1-2.3,1.2c-0.6,0.1-1.2,0.2-1.8,0.2
	c-1.2,0-2.3-0.3-3.4-0.9c-0.8-0.4-1.4-1-1.9-1.7c-0.6-0.6-1-1.4-1.2-2.3c0-0.1,0-0.3-0.1-0.4c-0.1-0.5-0.1-1.1-0.2-1.6
	C424.4,1024.5,424.6,1023.6,425,1022.9z"/>
<path class="st18" d="M403.8,1016.6c3,0,3,4.6,0,4.6S400.9,1016.6,403.8,1016.6z"/>
<path class="st18" d="M456.5,1000.4c0.3,0,0.5,0.2,0.5,0.5s-0.2,0.5-0.5,0.5s-0.5-0.2-0.5-0.5S456.2,1000.4,456.5,1000.4z"/>
<path class="st18" d="M670.6,1034.4c0.5-0.8,1.1-1.4,1.9-1.9l1.5-0.6c0.3-0.1,0.7-0.2,1-0.3c3.5-1.1,7,1.9,7,5.4s-3.6,6.5-7,5.4
	c-0.3-0.1-0.7-0.2-1-0.3c-0.5-0.1-1-0.3-1.5-0.6c-0.8-0.5-1.4-1.1-1.9-1.9C669.7,1038,669.7,1036,670.6,1034.4z"/>
<path class="st18" d="M649.3,1033.3c0.1-0.1,0.2-0.1,0.4-0.2c1.4-0.8,3.1-0.3,3.9,1.1s0.3,3.1-1.1,3.9c-0.9,0.5-2,0.5-2.9,0
	c-0.1-0.1-0.2-0.1-0.4-0.2c-1.3-0.9-1.6-2.6-0.7-3.9C648.8,1033.7,649,1033.5,649.3,1033.3z"/>
<path class="st18" d="M673.8,1014.6c3,0,3,4.6,0,4.6S670.9,1014.6,673.8,1014.6z"/>
<path class="st18" d="M766.4,1069.5c1.1-1.1,2.6-1.7,4.1-1.7c1.5,0,3,0.6,4.1,1.7c1.1,1.1,1.7,2.6,1.7,4.1c-0.1,1.5-0.7,3-1.7,4.1
	c-1.1,1.1-2.6,1.7-4.1,1.7c-1.5,0-3-0.6-4.1-1.7C764.2,1075.4,764.2,1071.7,766.4,1069.5C766.4,1069.5,766.4,1069.5,766.4,1069.5z"
	/>
<path class="st18" d="M777.8,1058.4c3.2,0,3.2,5,0,5S774.6,1058.4,777.8,1058.4z"/>
<path class="st18" d="M790.5,1072.5c1,0,1.8,0.8,1.8,1.8s-0.8,1.8-1.8,1.8l0,0c-1,0-1.8-0.8-1.8-1.8S789.6,1072.5,790.5,1072.5z"/>
<path class="st18" d="M807.8,1065.7c3.2,0,3.2,5,0,5S804.6,1065.7,807.8,1065.7z"/>
<path class="st18" d="M803.2,1057.8c3.1,0,3.1,4.9,0,4.9S800,1057.8,803.2,1057.8z"/>
<path class="st18" d="M910.2,938.6c2-2,5.2-2,7.2,0c0,0,0,0,0,0c1,0.9,1.5,2.2,1.5,3.6c0,2.8-2.3,5.1-5.1,5.1
	c-1.4,0-2.7-0.5-3.6-1.5c-1-0.9-1.5-2.2-1.5-3.6C908.7,940.8,909.3,939.5,910.2,938.6z"/>
<path class="st18" d="M933.2,935.4c1-0.5,2.2-0.4,3,0.4l0.3,0.2c0.9,0.8,0.9,2.1,0.1,3c0,0-0.1,0.1-0.1,0.1l-0.3,0.2
	c-0.7,0.7-1.8,0.8-2.7,0.5c-0.9-0.4-1.5-1.3-1.5-2.3C932.1,936.6,932.5,935.8,933.2,935.4z"/>
<path class="st18" d="M937.2,927.7c2.4,0,2.4,3.8,0,3.8S934.7,927.7,937.2,927.7z"/>
<path class="st18" d="M903.2,926.8c5.2,0,5.2,8.1,0,8.1S897.9,926.8,903.2,926.8z"/>
<path class="st18" d="M1225.2,1299.4c1.6-1.6,3.8-2.4,6-2.5c1.1,0,2.3,0.2,3.3,0.7c1.1,0.3,2,0.9,2.7,1.8c0.8,0.8,1.4,1.7,1.8,2.7
	c0.5,1,0.8,2.2,0.7,3.3c0,2.3-0.9,4.4-2.5,6c-1.6,1.6-3.8,2.4-6,2.5c-1.1,0-2.3-0.2-3.3-0.7c-1.1-0.3-2-0.9-2.7-1.8
	c-0.8-0.8-1.4-1.7-1.8-2.7c-0.5-1-0.8-2.2-0.7-3.3C1222.7,1303.1,1223.6,1301,1225.2,1299.4z"/>
<path class="st18" d="M1197.2,1294.9c1.7-1.7,4.4-2,6.5-0.8c0.1,0,0.2,0.1,0.3,0.1c0.9,0.5,1.6,1.3,2,2.3c0.2,0.4,0.3,0.8,0.3,1.2
	c0.1,0.6,0.1,1.3-0.1,1.9l-0.1,0.4c-0.2,0.4-0.4,0.9-0.5,1.3c-0.3,0.6-0.8,1.1-1.4,1.5c-0.7,0.5-1.6,0.9-2.5,1.1
	c-1.2,0.2-2.4,0-3.4-0.6c-1-0.6-1.8-1.5-2.2-2.6C1195.3,1298.7,1195.7,1296.4,1197.2,1294.9z"/>
<path class="st18" d="M1212.5,1278.9c2.6,0,4.8,2.1,4.8,4.8c0,0,0,0,0,0c-0.1,2.7-2.2,4.8-4.9,4.9c-2.6,0-4.8-2.1-4.8-4.8
	c0,0,0,0,0,0C1207.7,1281.1,1209.8,1278.9,1212.5,1278.9z"/>
<path class="st18" d="M1213.2,1305.9c8.1,0,8.1,12.6,0,12.6S1205,1305.9,1213.2,1305.9z"/>
<path class="st18" d="M1174.1,1297.8c1-1,2.4-1.6,3.8-1.6c1.4,0,2.8,0.6,3.8,1.6c1,1,1.6,2.4,1.6,3.8c0,1.4-0.6,2.8-1.6,3.8
	c-1,1-2.4,1.6-3.8,1.6c-1.4,0-2.8-0.6-3.8-1.6c-1-1-1.6-2.4-1.6-3.8C1172.5,1300.1,1173.1,1298.8,1174.1,1297.8z"/>
<path class="st18" d="M1165.2,1306.4c4.1,0,4.1,6.4,0,6.4S1161.1,1306.4,1165.2,1306.4z"/>
<path class="st18" d="M1150.5,1309.5C1150.6,1309.5,1150.6,1309.6,1150.5,1309.5C1150.4,1309.6,1150.4,1309.5,1150.5,1309.5z"/>
<path class="st18" d="M1154.3,1272.4c0.3-0.8,0.8-1.6,1.4-2.2c1.3-1.3,3.1-2.1,4.9-2h0.5l2,0.3c0.6,0.2,1.2,0.5,1.8,0.7
	c0.9,0.4,1.6,1.1,2.1,1.9c0.5,0.4,0.8,1,1,1.6c0.3,0.6,0.5,1.2,0.5,1.9c0.2,0.7,0.2,1.3,0,2c0,0.7-0.2,1.3-0.5,1.9
	c-0.3,0.9-0.8,1.7-1.5,2.4l-1.5,1.2c-0.6,0.2-1.2,0.5-1.8,0.7l-2,0.3l-2-0.3c-0.6-0.2-1.2-0.5-1.8-0.7c-0.9-0.4-1.6-1.1-2.1-1.9
	c-0.5-0.4-0.8-1-1-1.6c-0.5-0.9-0.7-1.9-0.6-2.9v-0.5C1153.6,1274.2,1153.8,1273.2,1154.3,1272.4z"/>
<path class="st18" d="M1120.4,1311.5c0.5-0.8,1.2-1.5,2-2c0.1-0.1,0.2-0.1,0.2-0.2c0.6-0.4,1.4-0.6,2.1-0.7c0.8-0.2,1.6-0.1,2.3,0.1
	c0.5,0.2,0.9,0.4,1.4,0.6c0.8,0.5,1.5,1.2,2,2l0.1,0.1c1.1,1.7,1.1,3.9,0,5.6l-0.1,0.1c-0.3,0.7-0.9,1.2-1.5,1.6
	c-0.5,0.5-1.2,0.8-1.9,1c-1.5,0.4-3.1,0.2-4.4-0.6c-0.1-0.1-0.2-0.1-0.2-0.2c-0.8-0.5-1.5-1.2-2-2c-0.5-0.9-0.7-1.8-0.8-2.8
	C1119.7,1313.2,1120,1312.3,1120.4,1311.5z"/>
<path class="st18" d="M1133.2,1290.6c1.7,0,3,1.3,3,3c0,1.6-1.4,3-3,3c-1.7,0-3-1.3-3-3S1131.6,1290.6,1133.2,1290.6z"/>
<path class="st18" d="M1121.2,1283.6c4.3,0,4.3,6.6,0,6.6S1116.9,1283.6,1121.2,1283.6z"/>
<path class="st18" d="M1395.5,875.8c10.5,0,10.5,16.3,0,16.3S1385,875.8,1395.5,875.8z"/>
<path class="st18" d="M1379.5,899.7c5.4,0,5.4,8.4,0,8.4S1374.1,899.7,1379.5,899.7z"/>
<path class="st18" d="M1347.4,897.2c0.1-0.1,0.2-0.1,0.4-0.2c0.5-0.3,1.2-0.5,1.8-0.5c0.6,0,1.2,0.2,1.8,0.5
	c1.5,0.7,2.5,2.2,2.5,3.8c0,2.4-2,4.3-4.4,4.2c-0.7,0-1.4-0.2-2-0.5c-1.3-0.8-2.1-2.2-2.1-3.7
	C1345.3,899.3,1346.1,897.8,1347.4,897.2z"/>
<path class="st18" d="M1381.5,881.8c4.7,0,5.2,6.4,1.6,7.9c-0.4,0.4-1,0.6-1.6,0.6c-0.6,0-1.2-0.2-1.6-0.6
	C1376.3,888.2,1376.8,881.8,1381.5,881.8z"/>
<path class="st18" d="M1364.1,856.4c0.8-2,3-3,5.1-2.5c0.9,0.3,1.7,0.7,2.5,1.2c1,0.6,1.7,1.5,2,2.6c0.3,1.1,0.2,2.3-0.4,3.3
	c-1.2,2.1-3.8,2.8-5.9,1.6c-0.5-0.2-1-0.5-1.5-0.8c-1-0.6-1.7-1.5-2-2.6C1363.7,858.2,1363.8,857.3,1364.1,856.4z"/>
<path class="st18" d="M1357.5,851.8c2.7,0,2.7,4.3,0,4.3S1354.8,851.8,1357.5,851.8z"/>
<path class="st18" d="M1365.4,885.7c0.3-1.2,1.1-2.2,2.2-2.8c1.1-0.6,2.4-0.8,3.6-0.5c2.5,0.6,4,3.1,3.4,5.6
	c-0.6,2.4-2.9,3.9-5.3,3.5c-2.5-0.3-4.3-2.6-4-5.1C1365.3,886.1,1365.4,885.9,1365.4,885.7z"/>
<path class="st18" d="M1328.5,882.7c4.2,0,4.2,6.5,0,6.5S1324.3,882.7,1328.5,882.7z"/>
<path class="st18" d="M1433.9,1246.3c0.3-0.4,0.6-0.8,0.9-1.1c0.7-0.7,1.5-1.2,2.5-1.4c0.7-0.2,1.3-0.3,2-0.3c2.1,0,4,1.1,5.1,2.9
	c1.1,1.8,1.1,4.2,0,6c-1.1,1.8-3,2.9-5.1,2.9c-1.1,0-2.1-0.3-3-0.8c-0.9-0.5-1.6-1.2-2.1-2.1c-0.4-0.5-0.7-1.2-0.8-1.8
	C1433,1249.1,1433.2,1247.6,1433.9,1246.3z"/>
<path class="st18" d="M1427.9,1251.8c0.7-0.5,1.6-0.6,2.5-0.5c0.4,0,0.7,0.1,1.1,0.2c0.3,0.1,0.6,0.2,0.9,0.4c0.4,0.2,0.7,0.5,1,0.9
	c0.5,0.6,0.8,1.4,0.8,2.2c0,0.6-0.2,1.2-0.5,1.8c-0.5,0.8-1.2,1.4-2.1,1.6c-0.4,0.1-0.7,0.1-1.1,0.2c-2,0.3-3.9-1.1-4.3-3.1
	C1426,1254,1426.7,1252.6,1427.9,1251.8L1427.9,1251.8z"/>
<path class="st18" d="M1418.5,1200.6c3,0,3,4.6,0,4.6S1415.5,1200.6,1418.5,1200.6z"/>
<path class="st18" d="M1382.5,1198.7c4.2,0,4.2,6.5,0,6.5S1378.3,1198.7,1382.5,1198.7z"/>
<path class="st18" d="M1374.5,1178.6c0.6-1.5,2.3-2.4,3.9-1.9c0.6,0.1,1.1,0.3,1.6,0.7c0.4,0.4,0.6,1,0.7,1.6c0.5,1.7-0.5,3.5-2.3,4
	c-1,0.3-2.1,0.1-2.9-0.6C1374.3,1181.5,1373.9,1179.9,1374.5,1178.6z"/>
<path class="st18" d="M1344.5,1189.7c4.1,0,4.1,6.4,0,6.4S1340.4,1189.7,1344.5,1189.7z"/>
<path class="st18" d="M1324.5,1185c3.7,0,3.7,5.8,0,5.8S1320.8,1185,1324.5,1185z"/>
<path class="st18" d="M1306.5,1187.9C1306.6,1187.9,1306.6,1188,1306.5,1187.9C1306.4,1188,1306.4,1187.9,1306.5,1187.9z"/>
<path class="st18" d="M281.9,1197.3c1-1,2.4-1.6,3.8-1.6c0.9,0,1.9,0.2,2.7,0.7c0.8,0.5,1.4,1.1,1.9,1.9c0.2,0.4,0.3,0.7,0.5,1.1
	l0.5,1.2c0.2,0.6,0.2,1.3,0.1,1.9c-0.1,1-0.6,2-1.3,2.8c-0.6,0.6-1.4,1.1-2.2,1.3c-0.6,0.2-1.3,0.2-1.9,0.1c-0.6,0-1.3-0.2-1.8-0.6
	c-0.4-0.2-0.7-0.3-1.1-0.5c-0.8-0.5-1.4-1.1-1.9-1.9c-0.5-0.8-0.7-1.8-0.7-2.7C280.4,1199.6,280.9,1198.2,281.9,1197.3z"/>
<path class="st18" d="M268.5,1208.8c1.2,0,2.1,1,2.1,2.1c0,0.2,0,0.4-0.1,0.6c-0.1,0.2-0.2,0.5-0.2,0.7c-0.3,1-1.3,1.6-2.3,1.3
	c-0.6-0.2-1.1-0.7-1.3-1.3c-0.1-0.2-0.2-0.5-0.2-0.7c-0.3-1.1,0.3-2.3,1.4-2.6C268.1,1208.8,268.3,1208.8,268.5,1208.8z"/>
<path class="st18" d="M253.5,1191.8c2.7,0,2.7,4.3,0,4.3S250.8,1191.8,253.5,1191.8z"/>
<path class="st18" d="M235.5,1187.2c0.9,0,1.7,0.8,1.7,1.7c0,0.9-0.8,1.7-1.7,1.7s-1.7-0.8-1.7-1.7
	C233.8,1187.9,234.6,1187.2,235.5,1187.2z"/>
<path class="st18" d="M229.5,1202.4c0.8,0,1.5,0.7,1.5,1.5s-0.7,1.5-1.5,1.5s-1.5-0.7-1.5-1.5S228.7,1202.4,229.5,1202.4
	L229.5,1202.4z"/>
<path class="st18" d="M201.5,1175.4c3.2,0,3.2,5,0,5S198.3,1175.4,201.5,1175.4z"/>
<path class="st18" d="M195.7,1187.5l0.3-0.6c0.6-1,1.3-1.7,2.3-2.3c1-0.6,2.1-0.9,3.2-0.9c1.1,0,2.2,0.3,3.2,0.9
	c1,0.6,1.7,1.3,2.3,2.3l0.3,0.6c0.6,1,0.9,2.2,0.9,3.4c0,3.7-2.9,6.7-6.6,6.7c0,0-0.1,0-0.1,0c-2.4,0-4.6-1.3-5.8-3.3
	c-0.6-1-0.9-2.2-0.9-3.4C194.8,1189.7,195.1,1188.5,195.7,1187.5z"/>
<path class="st18" d="M269.5,1156.1c4.9,0,4.9,7.6,0,7.6S264.6,1156.1,269.5,1156.1z"/>
<path class="st18" d="M298.9,1166.3c1-0.9,2.3-1.5,3.6-1.5c0.9,0,1.8,0.2,2.6,0.7c0.7,0.4,1.4,1.1,1.8,1.8c0.2,0.3,0.4,0.6,0.6,0.8
	c0.2,0.4,0.3,0.8,0.5,1.2c0.2,0.7,0.2,1.3,0.1,2c-0.1,1.1-0.6,2.1-1.4,2.8c-0.6,0.6-1.4,1-2.2,1.3c-1.3,0.4-2.7,0.2-3.8-0.5
	c-0.3-0.2-0.6-0.4-0.8-0.6c-0.7-0.4-1.4-1.1-1.8-1.8c-0.5-0.8-0.7-1.7-0.7-2.6C297.4,1168.5,297.9,1167.2,298.9,1166.3z"/>
<path class="st18" d="M303.5,1139.7c10.6,0,10.6,16.5,0,16.5S292.9,1139.7,303.5,1139.7z"/>
<path class="st18" d="M73.1,1138.3c0.9-1.6,2.7-2.1,4.3-2.7c2.5-0.7,5.1,0.8,5.8,3.3c0.6,2.5-0.8,5-3.3,5.8
	c-1.5,0.5-2.9,0.9-4.5,0.2c-1.3-0.6-2.3-1.6-2.8-2.9C72.3,1140.7,72.5,1139.4,73.1,1138.3z"/>
<path class="st18" d="M48.2,1141.9c1.9-3.3,5.8-5,9.5-4c2.8,0.7,5.1,3,5.8,5.8c0.5,2.2,0.3,4.4-0.8,6.4c-1.5,2.5-4.2,4.1-7.2,4.1
	c-2.9,0-5.7-1.6-7.2-4.1C46.8,1147.6,46.7,1144.4,48.2,1141.9z"/>
<path class="st18" d="M45.5,1164.1c7.5,0,7.5,11.6,0,11.6S38,1164.1,45.5,1164.1z"/>
<path class="st18" d="M26.5,1110c7.6,0,7.7,11.9,0,11.9S18.8,1110,26.5,1110z"/>
<path class="st18" d="M18.5,1147.2c4.8,0,4.8,7.5,0,7.5S13.7,1147.2,18.5,1147.2z"/>
<path class="st18" d="M26.1,1176.3c0.3-0.3,0.5-0.7,0.7-1c0.5-0.9,1.5-1.5,2.6-1.5c1.7,0,3.1,1.3,3.1,3c0,0,0,0,0,0.1
	c0,1.1-0.6,2.1-1.5,2.6c-0.3,0.3-0.7,0.5-1,0.7c-0.5,0.3-1.2,0.4-1.8,0.3c-0.6-0.1-1.2-0.4-1.7-0.8c-0.3-0.4-0.6-0.8-0.7-1.3
	C25.6,1177.7,25.7,1176.9,26.1,1176.3z"/>
<path class="st18" d="M36.5,1188.8c0.1,0,0.2,0.1,0.2,0.2s-0.1,0.2-0.2,0.2l0,0C36.3,1189,36.3,1188.8,36.5,1188.8z"/>
<path class="st18" d="M366.5,1037.4c4.5,0,4.5,7,0,7S362,1037.4,366.5,1037.4z"/>
<path class="st18" d="M349.5,1045.7c2.8,0,2.8,4.4,0,4.4S346.7,1045.7,349.5,1045.7z"/>
<path class="st18" d="M339.5,1032.1c3.6,0,3.6,5.6,0,5.6S335.9,1032.1,339.5,1032.1z"/>
<path class="st18" d="M640.7,1311.1c3.2-3.2,8.4-3.2,11.6,0c0.8,0.7,1.4,1.6,1.7,2.6c0.5,1,0.7,2.1,0.7,3.2c0,4.5-3.7,8.2-8.2,8.2
	c-2.2,0-4.3-0.9-5.8-2.4c-0.8-0.7-1.4-1.6-1.7-2.6c-0.5-1-0.7-2.1-0.7-3.2C638.3,1314.7,639.2,1312.6,640.7,1311.1z"/>
<path class="st18" d="M619,1340.4c0.1-0.1,0.3-0.2,0.4-0.4c0.7-0.6,1.5-1.1,2.4-1.4c1.2-0.4,2.4-0.2,3.5,0.3
	c0.9,0.4,1.6,0.9,2.2,1.7c0.7,0.9,1.2,2.1,1.2,3.3c0,1.9-1.1,3.7-2.7,4.7c-1.1,0.6-2.3,0.8-3.5,0.6c-0.5,0-1-0.1-1.4-0.4
	c-0.7-0.2-1.3-0.6-1.8-1.1c-0.1-0.1-0.3-0.2-0.4-0.4c-0.9-0.9-1.5-2.2-1.4-3.5C617.5,1342.5,618.1,1341.3,619,1340.4z"/>
<path class="st18" d="M593.5,1326.3c6,0,6,9.3,0,9.3S587.5,1326.3,593.5,1326.3z"/>
<path class="st18" d="M617.2,1321.6c0.9-0.9,2.1-1.4,3.3-1.4l0.8,0.1c0.6,0,1.2,0.1,1.7,0.4c0.6,0.2,1.1,0.5,1.5,0.9
	c0.9,0.8,1.3,2,1.3,3.2c0,1.2-0.5,2.3-1.3,3.2c-0.3,0.2-0.6,0.5-0.9,0.7c-0.7,0.4-1.5,0.6-2.3,0.6l-0.8,0.1c-1.2,0-2.4-0.5-3.3-1.4
	c-0.9-0.9-1.4-2.1-1.4-3.3C615.9,1323.5,616.4,1322.4,617.2,1321.6z"/>
<path class="st18" d="M627.5,1299c3.8,0,3.8,5.9,0,5.9S623.7,1299,627.5,1299z"/>
<path class="st18" d="M622.5,1281.8c2.7,0,2.7,4.3,0,4.3S619.8,1281.8,622.5,1281.8z"/>
<path class="st18" d="M568.5,1310.3c6,0,6,9.3,0,9.3S562.5,1310.3,568.5,1310.3z"/>
<path class="st18" d="M535,1318.2c1-0.9,2.2-1.6,3.5-1.8c0.6-0.1,1.1-0.2,1.7-0.4c2.4-0.6,5,0.6,6,2.9c1,2.3,0.1,5-2.1,6.3
	c-1.6,0.9-3.4,2.1-5.3,2c-0.9,0-1.9-0.3-2.7-0.7c-1-0.6-1.8-1.5-2.2-2.6C533.1,1321.9,533.5,1319.7,535,1318.2z"/>
<path class="st18" d="M537.5,1297c2.5,0,2.5,3.9,0,3.9S535,1297,537.5,1297z"/>
<path class="st18" d="M608.5,1309.8c1.1,0,2,0.9,2,2.1c0,1.1-0.9,2-2,2C605.8,1314,605.8,1309.8,608.5,1309.8z"/>
<path class="st18" d="M587.5,1300.5c4.3,0,4.4,6.8,0,6.8S583.1,1300.5,587.5,1300.5z"/>
<g id="blinchik" class="blinchik">
	<path class="st4" d="M1390.3,132.3c5.4-2.5,12-1.3,17.9-2c6.1-0.6,11.8-2.9,16.8-6.4c2.1-1.6,3.9,1.6,2.6,3.3
		c-4.2,5.3-9.4,8.3-15.8,10.1s-15.3,3.3-21.5,0.1C1388.5,136.4,1388.3,133.3,1390.3,132.3z"/>
	<path class="st4" d="M1380.5,140.7c6.7-0.8,13.3,0,20-0.2c13.9-0.6,27.7-3.8,40.4-9.5c0.1-0.2,0.3-0.4,0.5-0.5c0.7-0.5,1.4-1,2-1.5
		c0.3-0.2,0.6-0.3,0.9-0.4c0.6-0.4,1.4-0.6,2.1-0.3c4-2.1,7.9-4.5,11.6-7.3c2.9-2.2,6.5,2.6,3.9,5c-7.8,7.5-16.2,15.1-26.3,19.2
		c-0.5,0.2-1,0.4-1.4,0.6c-4.6,3-9.6,5.1-14.9,6.4c-4.3,1.1-12.8,2.6-19.9,1.8c-8.9,0.1-18.1-1.3-15.4-7.2c0-0.1,0.1-0.1,0.1-0.2
		c-1.6-0.5-3.3-1.1-4.8-1.9C1377.4,143.6,1378.7,140.9,1380.5,140.7z"/>
	<polyline class="st19" points="1443.2,153.2 1398.5,162.2 1375.2,158.9 1367.8,141.2 1381.5,123.6 1424.2,103.9 1449.5,92.2 
		1453.5,80.9 1447.8,68.2 1431.8,49.9 1425.8,35.6 1441.5,21.9 1469.8,19.6 1494.2,29.2 1511.8,39.9 1521.2,54.6 1520.5,72.2 
		1517.8,89.6 1509.5,103.6 1497.2,117.2 1483.5,129.6 1469.5,137.6 1444.5,153.6 	"/>
	<path class="st1" d="M1364.7,153.8c3,7,10.3,11,17.5,12.1c9.7,1.4,19.8-1.8,29.4-3.4c10.8-1.9,21.5-3.9,32.3-5.5
		c1.4-0.2,2.4-1.5,2.2-2.9c0,0,0-0.1,0-0.1c34.4-14.6,68.2-37.9,79.2-75.2c4.9-16.7,1-33.6-12.1-45.4
		c-12.6-11.4-29.9-17.4-46.7-18.1c-14.5-0.6-36.3,2.1-42.5,17.6c-2.9,6.7-1.1,14.4,4.5,19.1c7.1,6.1,13.6,11.3,18.2,19.7
		c2.6,4.7,5.8,10.9,3.2,16.2c-1.8,3.8-5.8,6.1-9.4,7.9c-8.6,4.3-18.3,6.6-27.5,9.4c-16.2,5-33.1,11.8-43.5,25.9
		C1364.8,137.4,1361.4,146,1364.7,153.8z M1375.6,133.6c5.4-6.8,12.9-11.7,20.7-15.5c14.7-7,31.1-9.8,45.8-16.9
		c5.3-2.6,10.7-6.3,13.1-12c2.7-6.4-0.1-13.2-3.2-19c-3.4-6.3-7.8-12-13.1-16.9c-2.9-2.6-6.9-4.8-9.1-8c-2.4-3.5-1.7-8.1,0.3-11.6
		c4.2-7.5,14.2-9.7,22-11c8.5-1.4,17.1-1.1,25.5,0.6c14.6,3.1,28.6,10.9,36.4,24c8.7,14.5,2.9,31.2-4.9,44.7
		c-16.5,28.7-44.8,45.8-74.2,59c-0.7,0.4-1.3,1-1.6,1.7c-7.7,1.4-15.5,2.7-23.2,4c-9.6,1.6-21.2,5-30.8,1.8
		c-4.8-1.6-9.1-5.3-9.5-10.6S1372.5,137.6,1375.6,133.6z"/>
	<path class="st4" d="M1426.8,141.9c5.6-1.3,11.1-1,16.6-3.3c5.9-2.5,9.8-6.2,14.6-10.3c0.7-0.7,1.7-0.7,2.4,0
		c0.5,0.5,0.6,1.3,0.3,2c-5,10.7-23,19.4-34.2,14.4c-0.7-0.4-1-1.3-0.7-2C1426,142.3,1426.4,142,1426.8,141.9z"/>
	<path class="st4" d="M1489.2,32.4c7.1,0.1,13.6,7,17.4,12.4c5,7.1,8,16.7,8.6,25.4c1.6,3.6-5.4,7.7-7,2.3
		c-2.2-7.5-2.3-15.5-5.8-22.7c-1.3-2.8-3.1-5.4-5.3-7.7c-2.7-2.6-5.9-3.6-9-5.5c-1.1-0.6-1.4-2-0.8-3.1
		C1487.7,32.8,1488.4,32.4,1489.2,32.4z"/>
	<path class="st18" d="M1472.9,35.9c0.3-0.9,0.9-1.7,1.7-2.2c0.8-0.5,1.7-0.7,2.6-0.5c0.9,0.2,1.6,0.7,2.2,1.4
		c0.6,0.8,0.9,1.7,0.7,2.7c-0.2,2-2,3.5-4.1,3.3c-2-0.2-3.5-2-3.3-4.1C1472.8,36.3,1472.9,36.1,1472.9,35.9L1472.9,35.9z"/>
	<path class="st18" d="M1461.5,29.6c3,0,3,4.6,0,4.6S1458.5,29.6,1461.5,29.6z"/>
	<path class="st18" d="M1464.5,40.5c3.1,0,3.1,4.9,0,4.9S1461.4,40.5,1464.5,40.5z"/>
	<path class="st18" d="M1453.5,35c2.4,0,2.4,3.8,0,3.8S1451.1,35,1453.5,35z"/>
	<path class="st18" d="M1447.5,28c0.5,0.2,0.8,0.7,0.6,1.3c-0.1,0.3-0.3,0.5-0.6,0.6c-0.5-0.2-0.8-0.7-0.6-1.3
		C1447,28.3,1447.2,28.1,1447.5,28z"/>
	<path class="st18" d="M1441.5,31.7c2.8,0,2.8,4.4,0,4.4S1438.7,31.7,1441.5,31.7z"/>
</g>
</svg>
