<svg xmlns="http://www.w3.org/2000/svg" viewBox="0 0 505.46 582.89"><defs><style>.a{fill:#dbaa32;}.b{fill:#78512b;}.c,.w,.x{fill:none;}.c{stroke:#78512b;}.c,.i,.m,.u,.w,.x,.y{stroke-miterlimit:10;}.d,.i{fill:#fef7c2;}.e{fill:#b78430;}.f{fill:#fbf295;}.g{fill:#963315;}.h{fill:#a12f16;}.i,.m,.u,.w,.x{stroke:#010202;}.j,.m{fill:#fff;}.k{fill:#70461c;}.l{fill:#010202;}.m,.w{stroke-width:2px;}.n{fill:#fdfdfd;}.o{fill:#e2e2e1;}.p{fill:#fbc683;}.q{fill:#d1a168;}.r{fill:#3c3c3c;}.s{fill:#c0471e;}.t{fill:#b77e43;}.u{fill:#4aa9af;}.v{fill:#d76315;}.y{stroke:#000;stroke-width:0.25px;}</style></defs><title>Ресурс 1</title><path class="a" d="M5.07,421.06l12.2,33,16,53.5,3.5,47-1.5,26,121-27,171.5-17,121-17.5,31.3,2.5,9.2-25,.5-37-3-66,4.5-40.5,9.5-19.5-.5-15-14.5-19.5-33-12-71.7-16-56,4.3-19.6,12.7s-.5,10.6,1,11.1,122.3,47.3,122.3,47.3L5.07,421.06h0"/><path class="b" d="M143.77,424.76s19,40.1,19.3,60.8,3.2,66.5,3.2,66.5l-94.5,16.3,1-84.5,3-41.8,10.7-16.2Z"/><path class="c" d="M5.07,421.06l13.2,41,13,34,5.5,58.5-3,23.5,48.5-10.5s10.5-49.5,5-82-10.5-55-10.5-55l-19-18.5-20,2-32.7,7"/><path class="d" d="M175.27,337.36l-76.7,22-73.3,37.4-21.9,20.6,40.7-4.9,6.4,6.9,4.3,19.3,5.7,11.8,7.8-.7,10.8-10.5,2.7-7.5,7.8-.2,8.5,6.3s5.2,12.5,5.2,13,10.5,13.3,10.5,13.3,10.7,1.7,11.2,1.5,12.5-9.2,12.5-9.2l1.5-15,4.5-15.3,5.5-10,31.8-15.1,31.5,3,38,1,37.5,1.8.8,7-.3,13.5,7.5,11.5,14.8,1.3,8.3,3,4.3,13,4,10.3,13.5.8,8.8-9.5,4.3-14.3,4.8-20,6.8-6.5,13.5-2.8,13.8-1,7.2-6.5,4.8-12.8,3.8-11.2,5.7-8.3,8.3-10.1,8.3-4,5.9-6.5-4.5-7.6-63.9-24.3-59.4-21.4-133.6,36.9h0"/><path class="e" d="M408,523.36c41.7-16,52.3-21.7,58.3-43.7s1.7-89.7,3-98.7,3.3-31,6-33.7,8.7-11.3,3-17.3-21.7-25.7-29.3-25-64.3-15.7-64.3-15.7l27-12.3,10,5,42.3,8,17.7,9,18.3,17.7,3.3,13.7-12,22.7-.3,135-10.7,28.7-72.3,6.6"/><polygon class="f" points="297.07 356.26 328.27 348.36 355.57 326.06 356.47 349.56 346.07 371.86 322.47 379.76 297.97 370.36 297.07 356.26"/><path class="g" d="M359.27,329.56l6.8,20.3-5.5,19.5s-10.7,9.3-11.8,11.3-28.5,5.8-28.5,5.8l-16.3-7.7-3.8-6,26.2,7.3,18.7-7.2,8.5-14.7,4.7-22.3Z"/><path class="f" d="M394.77,485.06l8.8-31.3,16.8-24,17-11.3-13.3-3.3-15.5,5.5-18,13.5s-.8,6.5-1.3,7.3-5.3,15-5.3,15l2.5,14Z"/><polygon class="f" points="430.57 495.86 445.27 489.36 453.57 480.86 452.07 470.36 449.27 462.06 444.07 459.86 439.07 457.36 440.77 470.36 434.57 476.06 431.27 483.06 429.27 494.86 430.57 495.86"/><polygon class="f" points="302.57 495.06 310.57 482.06 309.77 471.36 307.07 469.06 305.07 474.56 301.77 485.86 298.57 493.56 302.57 495.06"/><path class="f" d="M231.27,496.76c.5,0,21.7-15.5,21.7-15.5s14.7-4,15.2-4,5-.8,5-.8l-3.3-2.5-12.8-2.3-16.5,7.7-7.7,8.3-1.4,8.6"/><path class="f" d="M60.57,489.36l8.3,12,7.7.7,6.3-6,12.3,4.3,6.7,1.7s-4-13.7-4-15-10.6-10.3-10.6-10.3l-12.3.7-6,3.3-8.4,8.6"/><path class="f" d="M112.57,522.36s12.7,3,13.7,3,15.3-4,15.3-4l6.7-9.2,4.4-18.3-7.6-7.7-3.5-4.2.7,12.7L138,508l-10.7,9Z"/><path class="h" d="M150.57,493.76l3.3,1.3.7,8-4,14s-7.7,9-9.3,9-12.1,2.1-12.8,2,1.8-2.3,1.8-2.3l11.3-4.3,7-6.7,2-5.7,1-5.7,1-8"/><polyline class="h" points="228.97 494.76 229.77 493.66 240.47 479.26 255.57 471.76 269.77 473.86 274.37 474.66 271.57 469.36 264.97 465.06 246.57 464.06 234.97 471.06 227.27 482.36 225.57 492.36 226.27 497.36 228.47 499.76 228.97 494.76"/><path class="i" d="M348.77,293.66l5.3,9.6,17.5,5.3,18.3,9.8,11.8-1.3s7.3-8,7.5-9,10-17.3,10-17.3l5.5-7.3-10.4-5.4-25,8.3-21.5,3.3-18.3,3.8"/><path class="j" d="M350,429.86c-.4,1.2-.8,2.5-1.2,3.7a10.64,10.64,0,0,0-.9,3.5.81.81,0,0,0,1.5.4,13.52,13.52,0,0,0,1.1-3.4c.3-1.3.7-2.5,1-3.8A.78.78,0,1,0,350,429.86Z"/><path class="j" d="M345.57,449.36a28.71,28.71,0,0,1-5.1,9c-1.3,1.5-4.7,4.7-6.2,1.8s-6.2-.2-4.5,2.6c2.5,4,7.2,4,10.5,1.1,3.9-3.3,5.3-9.5,6.3-14.2C346.87,449,345.87,448.66,345.57,449.36Z"/><path class="j" d="M309.07,430.06a7.52,7.52,0,0,1-11.7-6,1.7,1.7,0,0,0-3.4,0,11.11,11.11,0,0,0,17.1,9.5C313.27,432.16,311.27,428.66,309.07,430.06Z"/><path class="j" d="M295.27,410.76a1.21,1.21,0,0,0-2,0,3.12,3.12,0,0,0-.3,2.1,2,2,0,0,0,.6,1.3c.1.2.1.3.2.5a.59.59,0,0,0,1.1,0c.1-.2.1-.3.2-.5a3.1,3.1,0,0,0,.6-1.3A4,4,0,0,0,295.27,410.76Z"/><path class="j" d="M413.27,358.66c-9.3,4.4-13.4,16.7-17.3,25.4-2.3,5.1-4.8,10.7-8.6,14.8-5.5,5.9-11.8,2.7-18.3,4.8-2,.7-3.1,4.1-.7,5.1,5.4,2.3,13,1,18-1.9s8.1-8.1,10.6-13.1c2.8-5.6,4.8-11.6,7.3-17.4,2.7-6.3,6.2-11,10.3-16.4C415.27,359.16,414,358.36,413.27,358.66Z"/><path class="j" d="M133.17,437.66a1.48,1.48,0,0,0-2.9.4,25,25,0,0,1-2.6,10.4,15.86,15.86,0,0,1-3,4.3c-1.4,1.2-2.2,1-3.9.9-2.2-.2-2.8,3-1.1,4,4,2.4,8.4-1.7,10.4-5C132.47,448.36,134.27,442.46,133.17,437.66Z"/><path class="j" d="M70.27,435.76a1.24,1.24,0,0,0-1.7,0c-1,1.1-1,2.7-1.8,3.9a5.77,5.77,0,0,1-3.5,2.6c-2.1.5-1.2,3.6.9,3.2a8.9,8.9,0,0,0,5.4-3.7C70.87,440.16,72,437.46,70.27,435.76Z"/><path class="j" d="M79.77,427.66c-.3-.3-.5-.5-1-.4a7.11,7.11,0,0,0-4.1,2.7c-.6.7.3,1.7,1,1a7.71,7.71,0,0,1,2.7-1.7C79,429.16,80.37,428.56,79.77,427.66Z"/><path class="j" d="M86.37,370.76c-3.6-2-8.6,2.1-11.7,3.7-5.3,2.7-10.6,5.5-15.7,8.6-4.7,2.9-9.3,6-13.7,9.3-3.9,2.9-8.6,5.7-10.5,10.3-.6,1.4,1,2.6,2.3,2.3,4.6-1.2,8.4-5.5,12.1-8.4a153,153,0,0,1,14.1-9.7c4.6-2.8,9.3-5.5,14-8.1,3.2-1.8,9-3.5,9.4-7.6A1.38,1.38,0,0,0,86.37,370.76Z"/><path class="j" d="M415.07,285.26a7.62,7.62,0,0,0-4,2c-1.2.9-2.5,2.1-2.1,3.7a1.41,1.41,0,0,0,1.4,1c1.4-.2,2-1.2,2.9-2.1s2-1.2,2.9-2.1A1.47,1.47,0,0,0,415.07,285.26Z"/><path class="j" d="M405,299c-2.3,2.1-4.2,4.5-6.9,6.2-.9.6-7.6,3.6-8.2,2.8a2.44,2.44,0,0,0-4.5,1.2c-.4,5.7,7.9,3.1,10.7,1.9,4.6-2,9.8-5.8,11-10.9A1.24,1.24,0,0,0,405,299Z"/><path class="j" d="M336.27,318.36a41.66,41.66,0,0,1-14.9-4.6c-2.7-1.3-5.7-2.3-8.4-.6a1.09,1.09,0,0,0,.3,2c2.1.7,4.2.8,6.2,1.8a48.29,48.29,0,0,0,5.2,2.3,45.29,45.29,0,0,0,11.6,2.5C338.57,322.06,338.47,318.56,336.27,318.36Z"/><path class="j" d="M223.67,390.16c-1.6-1.8-4.4-1.1-6.5-.7s-4.3.9-5.5,2.7c-.5.7.1,1.5.7,1.8,1.7.7,3.9.1,5.7.1,2,0,3.9.5,5.5-1A2,2,0,0,0,223.67,390.16Z"/><path class="k" d="M31.47,451.76c-1.6-4-3.2-8.1-5-12-2.1-4.4-5.9-15.1-12.3-13.8-.6.1-.6,1.1,0,1.3,3.8,1,6.2,6.8,7.8,10,1.6,3.4,3,6.8,4.4,10.3,2.2,5.6,3.8,12.6,7.3,17.5.6.9,2.4.7,2.3-.6C35.27,460.06,33.07,455.86,31.47,451.76Z"/><path class="k" d="M38.67,481a.52.52,0,1,0-1,.3c.8,4.9,1.1,10.3,2.7,15.1a.87.87,0,0,0,1.7-.2C42.17,491,40.37,485.66,38.67,481Z"/><path class="k" d="M361.57,465.16c-3.3-.6-5.6,3.1-6,6.1a3.18,3.18,0,0,0,2,3.6c1.1.4,2.7,0,2.9-1.3a.73.73,0,0,0-.9-.9c-1.9.7-1.2-2-.8-2.9a5.12,5.12,0,0,1,2.7-2.9C362.17,466.46,362.37,465.26,361.57,465.16Z"/><path class="k" d="M351,504.56a6.41,6.41,0,0,0-6.4-4c-2.1.2-5.2,3.3-2,4.4a.94.94,0,0,0,1.2-.9l.5-.5.6-.1a3.42,3.42,0,0,1,1.7.3,3.31,3.31,0,0,1,2,2.7,7.1,7.1,0,0,1-.7,3.5c-.6,1.2-2.6,3.3-3.6,1.3-.3-.6-1.3-.2-1.1.5.7,2.2,3.9,1.2,5.3.3A6.32,6.32,0,0,0,351,504.56Z"/><path class="k" d="M356.27,514.36c-1.5-.4-3.9.7-3.6,2.5,0,.2.3.3.5.2a2.59,2.59,0,0,1,2.4-.5,2,2,0,0,1,.8,1.9,1.07,1.07,0,0,0,2,.5C359.47,517.26,358.17,514.86,356.27,514.36Z"/><path class="k" d="M438.67,361.56c-5.5-2.6-13.9,5.9-17,9.8-4.7,5.9-9.8,15.2-9.9,22.9a1.67,1.67,0,0,0,3.1.8c1.7-3,2.3-6.5,3.5-9.8a54.45,54.45,0,0,1,5.3-10.5,31.25,31.25,0,0,1,8.5-8.5c2.2-1.5,5-1.9,6.5-4.2C439,362,438.87,361.66,438.67,361.56Z"/><path class="k" d="M483.47,328.86c-6.7-10-25.4,2.7-24,12.5.2,1.1,1.8.9,2.1,0,1.7-5.7,6.6-11.3,12.9-12.5,10.7-1.9,6.3,12,5,17.8-2.4,11-6,22.5-7,33.7-.2,2.1,2.9,2.3,3.5.5,3.2-9.3,4.4-19.7,6.4-29.3C483.77,345,487.67,335.16,483.47,328.86Z"/><path class="k" d="M479.17,444.66a1.32,1.32,0,0,0-2.6.4c0,7.8.8,15.4.3,23.2-.5,7.5-3.3,15.5-2.7,22.9a1.15,1.15,0,0,0,2.1.6c3.9-6.2,4-15.4,4.4-22.6C481.07,461.16,481.17,452.56,479.17,444.66Z"/><path class="k" d="M238.27,412.56c-2.1-.8-4.4-.7-6.6-.9a63.16,63.16,0,0,0-7.5-.6c-3.2.1-7.2.3-8.5,3.6a1,1,0,0,0,.7,1.2,8.21,8.21,0,0,0,3.8-.3,21.57,21.57,0,0,1,6.7-.3c3.6.3,8,1.8,11.5.4A1.62,1.62,0,0,0,238.27,412.56Z"/><path class="k" d="M338.57,299.76c-1.2-1.4-3.3-2.1-5-2.8a15,15,0,0,0-5.8-1.4.81.81,0,0,0-.4,1.5c1.5,1.1,3.5,1.6,5.2,2.4s3.1,1.9,4.9,2.3A1.19,1.19,0,0,0,338.57,299.76Z"/><path class="k" d="M436.77,331.26c-5.1-2.1-10.7-3.3-16.1-4.5-4.3-1-9.1-2.5-13.6-1.8a1.22,1.22,0,0,0-.3,2.2c4,2.2,9.3,2.6,13.7,3.7,5.1,1.2,10.1,3,15.2,4A1.88,1.88,0,0,0,436.77,331.26Z"/><path class="k" d="M432.27,429.46c-6.4,4.3-11.9,10.2-16.6,16.2-4.5,5.9-9.6,12.9-11.6,20.1a2,2,0,0,0,3.6,1.5c4-6.3,6.9-12.9,11.6-18.9,4.5-5.8,9.7-10.5,15.1-15.5C436.37,432.06,434.57,427.86,432.27,429.46Z"/><path class="k" d="M267.77,487.26c-.4,0-.7.1-.9.1-4.8.8-9.7,4-13.4,6.9-4,3-8.8,7.1-10,12.1a1.19,1.19,0,0,0,1.7,1.3c4.1-2.4,7.1-6.6,11-9.5s8.7-4.8,12.6-7.7C269.77,489.56,269.57,487.06,267.77,487.26Z"/><path class="k" d="M182.37,487.16a1.49,1.49,0,0,0-2.5,1c0,.3.2,1-.3,1-.2,0-.5-.4-.5-.6-.4-1.1,1.1-1.9,1.9-2.2a1.07,1.07,0,0,0-.3-2.1c-3.5-.3-6.1,3.9-3.6,6.7a3.36,3.36,0,0,0,4.4.6C182.77,490.86,183.87,488.46,182.37,487.16Z"/><path class="k" d="M171.27,471.06a3.2,3.2,0,0,0-4.2.2c-2.4,2.2-1.3,6.2,1.3,7.6a1.32,1.32,0,0,0,1.9-1.4,18.73,18.73,0,0,1-.8-3.2c0-.1,0-.2.1-.2l.5.5a1.39,1.39,0,0,0,1.9,0C172.87,473.46,172.47,472.06,171.27,471.06Z"/><path class="l" d="M494.77,307.46a58,58,0,0,0-22.1-16.1c-20-8.3-44.1-5.4-62-19a2.55,2.55,0,0,0-3.5.7,94.74,94.74,0,0,0-10.3-1.5c-5.2-.7-10.4-1.3-15.6-1.6a227.89,227.89,0,0,0-36,.8c-16.1,1.7-41,4.4-44,24.4-.6-.2-1.3-.3-1.9-.5-2.7-.7-4.3,2.1-3.6,4.1-74,28.5-155.4,35.4-227.3,70.2-24.2,11.7-45.4,27-65.7,44.5a2.22,2.22,0,0,0,.6,3.8c-.1,0-.1,0-.2.1-.9-1.5-3.1-.3-2.9,1.3-.6,1-.2,2.7,1.1,2.8,10.7,24.9,20.5,50,26.3,76.6a266,266,0,0,1,5.8,40.7c.9,14.1-.5,27.6-1.1,41.6-.1,2.3,2.8,3.2,4.3,2,28.3-6.3,56.4-13.9,84.9-19.2q43.5-8.25,87.4-13.8c28.9-3.7,57.7-7.2,86.7-8.9,28.6-1.8,57.2-2.1,85.6-6.5,15.4-2.4,30.6-6.2,45.8-9.8,16.4-3.9,32.9-6.1,49.4-1.1a2.91,2.91,0,0,0,3.6-1.5,3,3,0,0,0,1-.7c14.6-14.8,11.7-38.6,12-57.6.3-24.2-1-48.2-1.9-72.4-.4-10.7-.3-21.5,2.2-31.9a54.63,54.63,0,0,1,5.7-15c2.4-4.2,5.8-7.9,6.3-12.9C506.27,322.56,500,313.66,494.77,307.46Zm-1,33.5a62.58,62.58,0,0,0-5.3,12.5c-2.7,9.1-3.5,18.8-3.6,28.2-.1,21.9,2.1,43.8,2.4,65.7.2,12.8.1,25.6-.7,38.4-.7,10.7-2.1,22.1-9.2,30.6h-.2c-28-2.8-55.5,3.5-82.6,10-29.1,7-58.7,8-88.4,10-58.2,3.8-116.1,9.9-173.5,20.4-31.7,5.8-63.6,11.4-94.7,20,1.7-12.4,1.2-25.7.3-38.1a270.59,270.59,0,0,0-6.2-41A337.07,337.07,0,0,0,4.77,421c13-1.6,25.9-4.3,38.8-6.2a15.94,15.94,0,0,1,5.4,7.8c2.5,7.1,2,14.9,4.9,21.9,2.2,5.2,6.5,8.8,12.4,8s10.1-5.6,12.3-10.9c1.7-4.1,2.5-9.8,8.7-8,3.8,1.1,6.6,4.3,8.7,7.5,3.6,5.5,5.2,12,8.8,17.6,6.4,10.1,18.1,14.3,27.6,5.2,12.9-12.2,4.3-35.7,19.3-46,2.7-1.8.1-6.2-2.6-4.4-12.7,8.7-10.5,24.3-14.6,37.4-2.4,7.7-10.1,16.7-18.9,12-6.1-3.2-8.8-10.9-11.6-16.7-2.5-5.2-5.7-10.6-10.5-13.9-3.9-2.7-10.3-4.2-14.2-.8-1.8,1.5-2.3,3.5-3.1,5.6-1.7,4.3-4,9.3-8.8,10.8-10.8,3.3-11.3-13.3-12.5-19.8-1-5.1-2.6-10.1-5.9-13.9-1.7-.6-3.3-1.4-5-1.9-4.8-1.3-10.2-.6-15.1-.5h-.1c-7.2,1.2-14.3,2.6-21.3,4.3,18.7-15,37.5-29.1,58.8-40.1a372.89,372.89,0,0,1,63.1-24.9c21.5-6.5,43.3-11.9,65.1-17.2s44-10.1,65.6-16.5c14.9-4.4,29.7-9.4,44.2-15.2,22,6.1,43.5,14.3,65.1,21.7,11.6,4,23,8.2,34.5,12.5,5.6,2.1,11.2,4.2,16.5,6.8,3.2,1.6,7.4,3.5,10.3,6.2a2,2,0,0,1,.8.4,4.79,4.79,0,0,1,2.1,2.7,5.14,5.14,0,0,1-1.5,5,8.58,8.58,0,0,1-3.4,1.8,4,4,0,0,1-1.9.1,69.67,69.67,0,0,0-14.5,13.1c-.9,1.4-1.7,2.9-2.5,4.3-3.6,6.9-5.6,14.3-8.7,21.4-3.2,7.4-7.9,14.1-16.8,14.2-8,0-14.4-2.6-21.2,3.1-14.1,11.9-6.5,33.6-18.4,46.5-6.1,6.6-18.4,6.2-19.6-4.2-.7-5.8.9-12.7-4.2-17.1-6.7-5.8-16.3.3-23.3-5.2-8.7-6.9-7.3-18-6.6-28h.3a6.17,6.17,0,0,0-3.6-4.5,123.2,123.2,0,0,1-16.1.5c-14.8-.6-29.5-2.4-44.3-3.2-14.2-.8-28.4-1.2-42.6-1.3-14.5-.1-20.6,13.7-35.1,14.3a11,11,0,0,1,2.6,4.4c11-.4,13.8-13.3,24.8-13.3,29.1,0,57.9,2.3,87,3.8a173.18,173.18,0,0,0,22.8-.2c-2.5,14.4.6,34.3,18.2,35.2,4.5.2,11.2-1.9,14,2.8,2.1,3.5,1.2,8.3,1.7,12.2.8,6.5,4.8,11.3,11.4,12.2,19,2.8,22.5-20.5,25-33.8,2.1-10.9,7.4-22.1,20.2-21.5,7.8.3,14.4,1.2,20.2-4.9,5.5-5.7,7.9-13.8,10.6-21.1a85.46,85.46,0,0,1,12.7-22.9c2.4-.9,4.7-1.7,7.1-2.6a30,30,0,0,0,4.9-3.9,20.48,20.48,0,0,0,4.8-8.6,7,7,0,0,1-.6-1.9c-6.3-12-48.3-24.2-54.2-26.2-23.3-7.8-46.1-17.4-69.6-24.6.1,0,.2-.1.3-.1a22.27,22.27,0,0,1-6.2-3,9,9,0,0,1-1-.9c-.3.1-.5.2-.8.3,4.3-19.2,32.9-19.9,48.4-21a235.65,235.65,0,0,1,30.3,0c5.5.4,11,.9,16.5,1.7,2.2.3,4.4.8,6.5,1l.1.1a54.72,54.72,0,0,0,15,8.1c-5.7,4.6-8.4,11.4-11.4,18.1-4,8.7-10.8,17.7-21.6,14.1-7.6-2.6-13.5-8.5-21.3-10.7a36.26,36.26,0,0,0-5.6-.9c-4.2-.4-6-1.7-7.7-5.8-1.2-3-2.6-5.6-6.1-6-1.8-.3-2.6,2.5-.8,2.8,4.9.8,4.3,8.9,8.6,11.1,3.6,1.8,8.1.9,11.9,2.3,8.2,3,14.7,10.2,23.5,11.5,21.1,3.2,20.9-26,33.2-35.6,10.1,3.2,21,4.4,31.5,6.7,9.1,2,17.8,5.1,25.3,10.8,7.2,5.6,15.6,14.8,17.2,24.2C500.07,333,496.17,336.66,493.77,341Z"/><path class="l" d="M475.17,310.86c-5.6-9.9-22.1-5.1-28,1.8-5.6,6.7-8,23.5,2.6,27,.9.3,2.3-.5,2.1-1.6-1-7.4-5-14.1.7-20.9,5.9-6.9,13.2-3.8,20.7-3.1A2.15,2.15,0,0,0,475.17,310.86Z"/><path class="l" d="M155.17,499.56c-.4-3.9-1.9-7.5-3.4-11.1-.8-1.9-1.4-3.6-3.2-4.3-1.8-2.6-4.1-4.7-6.9-5.1a1,1,0,0,0-1.2,1,.37.37,0,0,0-.1.3c-.4,4,.8,8,.4,12.1a31.38,31.38,0,0,1-5.2,14.1,27.19,27.19,0,0,1-10.7,9.2c-4.1,2.1-10.5,4.5-15,2.7s-5.3,7.4,0,5.9c.6-.2,1.2-.3,1.8-.5a2.59,2.59,0,0,0,1,1.1,23.43,23.43,0,0,0,11.5,3.2,19.63,19.63,0,0,0,8.8,1,24.68,24.68,0,0,0,16.7-9.7A29.5,29.5,0,0,0,155.17,499.56Zm-28.7,20.5a34.19,34.19,0,0,0,12.1-10.9,30.64,30.64,0,0,0,5.1-15.2,29.81,29.81,0,0,0-.7-10.2c.7.8,1.5,1.6,2.1,2.4a30.7,30.7,0,0,1,4.2,7.5c2,5.9,2.1,12.9-1,18.4a24.9,24.9,0,0,1-13.2,10.9c-5.5,1.9-10.8,1.2-16-.7A23.18,23.18,0,0,0,126.47,520.06Zm27.7-14.8a27.41,27.41,0,0,1-8.4,16.6,23.46,23.46,0,0,1-17.3,6.2,1.27,1.27,0,0,1-.6-.1,30.92,30.92,0,0,0,6.7-1.5,25.46,25.46,0,0,0,14.8-12.9c3.2-5.9,4.9-12.6,3.5-19.3,0-.2-.1-.3-.1-.5v.1A24.78,24.78,0,0,1,154.17,505.26Z"/><path class="l" d="M275.57,475.66c-.4-.3-.8-.7-1.2-1a.37.37,0,0,0,.1-.3c.5-6.1-8.3-9.3-13.1-10.3-6.5-1.2-15.9-.7-21.7,2.8-10.3,6.3-18.8,22.7-11.9,33.9-.9,1.3-1.8,2.7-2.6,4-1.4,2.6,2.6,4.9,3.9,2.3,4.6-8.9,10.4-16.3,19.4-21.1,8.1-4.4,17.9-5.3,26.7-7.9A1.3,1.3,0,0,0,275.57,475.66Zm-38.3-5.5c4.7-4.5,11-5.1,17.2-5.3,5.5-.2,17.9,1.4,18.9,8.8a11.69,11.69,0,0,0-3.3-2.4,18.3,18.3,0,0,0-8.4-1.2c-5.9.3-11.8,1.2-16.9,4.2-7.7,4.5-18.4,15.4-16.1,25.4,0,.1-.1.1-.1.2C223.47,489,229.07,478,237.27,470.16Zm9.5,12.9a71.32,71.32,0,0,0-15.4,13.1c1.6-7.8,7.8-14.5,14.4-18.7,4.1-2.6,8.6-3.6,13.4-4.1,3.1-.3,10.3-1.2,13.2,1.6C263,473.76,254.57,478.06,246.77,483.06Z"/><path class="l" d="M446.47,416.06a15.26,15.26,0,0,0-7.1-2.2,56.36,56.36,0,0,0-25.6-1.9c-9.7,1.5-18.2,4.6-24.9,12.1-12.6,14-12.9,34.3-5.3,50.8a57.86,57.86,0,0,0,2.9,6.8c1.7,3.4,4.1,7.9,7.6,10l.3,2.1c.3,1.8,3.3,1.4,3.1-.4a2.77,2.77,0,0,0-.1-.9,1.7,1.7,0,0,0,.6-1.6,10.27,10.27,0,0,0-.7-2.5,76.41,76.41,0,0,1,11.4-40,78.54,78.54,0,0,1,15-17.5,59.22,59.22,0,0,1,10.1-7.1,26,26,0,0,1,6.9-2.9c2.3-.5,2.7-.2,4.6-1.2a.94.94,0,0,0,.2-1.5c.3-.1.7-.3,1-.4C447.27,417.56,447.07,416.56,446.47,416.06ZM381,461.46c-2.5-13.3-.2-27,9.9-37.4,10.9-11.2,27.2-12.9,42.1-10.3h-3.5a55.09,55.09,0,0,0-18.5,2.4,45.46,45.46,0,0,0-23.8,19.6A47.34,47.34,0,0,0,381,461.46Zm42.9-37.4a71.17,71.17,0,0,0-18.3,19.2,71.89,71.89,0,0,0-12,39,20,20,0,0,1-1.6-2.8,48.75,48.75,0,0,1-4.3-13.9,41.23,41.23,0,0,1,6-27.8,38.43,38.43,0,0,1,22.5-16.6,71,71,0,0,1,15.9-2.3A71.26,71.26,0,0,0,423.87,424.06Z"/><path class="l" d="M458,465.06c-3.2-6.8-10.4-9.8-17.6-9.7-.2-.1-.5-.1-.7-.2a1.82,1.82,0,0,0-2.1.9c-1.4,2.3-1.2,4.4-.3,6.9.6,1.6,1.7,3.1,2.1,4.8.8,3.6-.9,4.7-3.7,6.3-2.6,1.4-4,2.6-4.7,5.6-1.1,5.4-.2,14.3-7.2,16.2a.75.75,0,0,0-.5,1.1c-.4-.2-.7-.5-1.1-.7-.6-.4-1.1.5-.6.9,5.7,4.3,15.6,4.5,22.2,2.6a23.74,23.74,0,0,0,14.6-13.3A27,27,0,0,0,458,465.06Zm-26.9,25.5a31.56,31.56,0,0,0,1.6-7.4c.4-2.7.8-5.4,3.4-6.9a17,17,0,0,1,2.4-.9c2.4-1.1,4.1-2.7,4.3-5.5.3-3.4-2.8-7.2-2.3-10.6,9,2.7,13.8,13.6,9.6,22.3s-13.7,8.3-20.9,12.2A12.31,12.31,0,0,0,431.07,490.56Zm25.3-3.1a21.74,21.74,0,0,1-13.7,11.1c-5.3,1.3-13.1,1.6-18.4-1,.1,0,.1,0,.2-.1.5-.3.9-.5,1.4-.8a1.4,1.4,0,0,0,1.3,1.3c5.9.6,14.1-2.6,19.2-5.6a20.56,20.56,0,0,0,9.8-13.8c1.9-9.5-3-17.3-10.9-21.3,5.6,1.1,10.3,4.3,12.4,10.4A26.65,26.65,0,0,1,456.37,487.46Z"/><path class="l" d="M305,510.86c-6.4,1-17.8,5.9-18.8,13.3a1.39,1.39,0,0,0,.2,1.1c-2-.4-4.8-.4-4.6,2.2a.82.82,0,0,0,1.6.2c.9-2.3,6.9,1.7,8.2,2.2a7.58,7.58,0,0,0,4.7.7c3.2-.6,5.1-4,6.6-6.5.3-.4-.4-.8-.7-.4-2.2,3-4.6,4.9-8.6,4.1a22.58,22.58,0,0,1-4.9-1.9c2-1.2,3.2-3.2,5-4.7a23.28,23.28,0,0,1,7.6-4.1,25.44,25.44,0,0,1,7.8-1.2c.3,0,1.6.1,3.2.3a8.93,8.93,0,0,0-4.1,3.6.62.62,0,0,0,.7.9c3.6-.5,6.4-1.6,10.1-.8a2.65,2.65,0,0,0,3.2-1.8C323.67,510.26,309.87,510.06,305,510.86Z"/><path class="l" d="M89,475.36c-5.4-1.6-11.6-1-17,.5-4.5,1.3-12.6,4-13.5,9.2a1.68,1.68,0,0,0,1.6,2.1c3.5.1,6.5-2.8,9.7-4.2a29.56,29.56,0,0,1,15.2-2.6c10,1.2,14.2,10.6,15.1,19.6a93.27,93.27,0,0,0-12.6-5.6c-3.7-1.1-6.3.3-8.6,3.1-.6.7-1.3,2.2-2.1,2.6l-5.5-.3a14.37,14.37,0,0,1-1.8-2.5,28.89,28.89,0,0,0-4.2-5.7c-3.1-3-6.9-4.6-11.2-3.6a.73.73,0,0,0-.2,1.3,69.48,69.48,0,0,1,6.7,3.3c2.9,1.9,4.2,4.5,6,7.2,1.9,2.9,4.4,5.3,8.1,5.1,4-.3,4.6-3.4,7.4-5.4,4.5-3.2,15.2,4.8,19.5,7a2.7,2.7,0,0,0,4-2.3C105.67,492.46,101.27,479.06,89,475.36Z"/><path class="l" d="M189.07,522.36c-1.1-1.9-4.4-3.9-5.9-1.4a1,1,0,0,0,.4,1.4c.8.4,1.7.5,2.2,1.2a1.76,1.76,0,0,1-.2,2.5,4.7,4.7,0,0,1-2.8,1.4c-.6.1-3.3.2-2.6-1.1a1.1,1.1,0,0,0-1.5-1.5c-2.7,1.4-1.4,4.7.9,5.6a8.28,8.28,0,0,0,7.9-1.1A5.27,5.27,0,0,0,189.07,522.36Z"/><path class="l" d="M233.17,519.66a1.82,1.82,0,0,0-2.5.7c-1.1,1.6-.2,3.7-1.5,5.3a4,4,0,0,1-4.6,1.2c-2-.9-4.1.9-3,3,.9,1.7,3.2,2,4.9,2a8.85,8.85,0,0,0,5.4-2.1C234.27,527.86,237.07,521.56,233.17,519.66Z"/><path class="l" d="M250.67,443.86c-6.9-6.4-18.4,1-17.7,9.6.1,1.4,2.2,1.8,2.5.3.7-2.6,2.2-5.5,4.6-6.9,2.9-1.7,5.8-.8,8.8-.1C250.67,447.06,252.07,445.06,250.67,443.86Z"/><path class="l" d="M66.57,552c-2.1-2.1-5.5-2.3-7.3.3-1.4,2-1,4.6-.2,6.8a1.87,1.87,0,0,0,3.6-1,12.19,12.19,0,0,1,0-2.7,1.07,1.07,0,0,1,.2-.6.1.1,0,0,0,.1-.1c.1,0,.4.1.5.1,1.1.4,2.3,1.6,3.6.8S67.47,552.86,66.57,552Z"/><path class="l" d="M82.67,549.66a3.42,3.42,0,0,0-2.6-1.4,4.68,4.68,0,0,0-2.6.5,4.21,4.21,0,0,0-1.8,4.3,1.16,1.16,0,0,0,2.2,0c.2-.7.6-.6,1.2-.8.2,0,.3-.1.5-.1h.3c-.1,0,.2.1.1,0h0a2.61,2.61,0,0,1,.8.3C82.07,552.76,83.67,551,82.67,549.66Z"/><path class="l" d="M468.27,404.46a6.39,6.39,0,0,0-8.4.3c-.9.8.3,2.1,1.2,1.6a4.31,4.31,0,0,1,4.8,1c1.3,1.4.6,2.9.4,4.6s2.3,2.6,3.3,1.4C471.87,410.76,470.77,406.46,468.27,404.46Z"/><path class="l" d="M469.67,420.86c-2.1-3.1-7.5-2.6-9,.8a5,5,0,0,0,.9,5.2c1.1,1.3,3.2,2.5,4.8,1.6a1.45,1.45,0,0,0,0-2.5c-.6-.4-1.4-.3-1.9-1a1.57,1.57,0,0,1-.3-1.7c.7-1.2,2.1-.5,2.9.1C468.67,424.46,470.67,422.26,469.67,420.86Z"/><path class="l" d="M477.57,416.56a1.66,1.66,0,0,0-1.4,2.5c.7,1,1.7,1.8,2.1,2.9.5,1.3.1,2.4.1,3.6a2.43,2.43,0,0,0,1.1,2,1.69,1.69,0,0,0,.5.2,2.43,2.43,0,0,0,2.6-1C484.37,423.06,481.87,417,477.57,416.56Z"/><path class="l" d="M372.67,508.46c-.4-.3-.9.2-.8.6.2,1-1.3,1.8-2.2,1.4-1.4-.7-1.2-2.7-1.5-4-.2-.9-1.4-.7-1.7,0-.9,2.4.6,6.5,3.5,6.6C372.27,513.16,375,510.26,372.67,508.46Z"/><path class="l" d="M382.67,510.16a1.44,1.44,0,0,0-2.6-.3c-.5,1-.4,2-1.3,2.9-.4.4-2.1,1.2-1.5,2.1,1,1.3,2.6.3,3.6-.5C382.07,513.36,383.17,511.66,382.67,510.16Z"/><path class="l" d="M67.57,530.16c-1.2-2.7-5.7-4.7-7.6-1.6a.8.8,0,0,0,.5,1.2c1.1.3,2.9.5,3.5,1.7.8,1.6-.8,2.7-2.2,2.9-1.1.2-3,.2-3.6-.9s.6-1.7,1.3-2.3a1.8,1.8,0,0,0-.8-3c-3.4-1.2-5.2,3.8-4.5,6.4,1.1,3.7,5.8,4.7,9.1,3.8A6.13,6.13,0,0,0,67.57,530.16Z"/><path class="l" d="M84.07,531c-2.3-1.2-7.5-1-8,2.2a1.34,1.34,0,0,0,.6,1.4c1.1.8,2.1.5,3.3.2s3.2-.1,2.1,1.5c-1.5,2.2-5.4,1.6-6.8-.5a.72.72,0,0,0-1.3.6c.6,2.6,2.1,4.8,4.9,5.2a7.46,7.46,0,0,0,7.3-3.6A5,5,0,0,0,84.07,531Z"/><path class="l" d="M78.67,513.06A2.57,2.57,0,0,0,76,512a8.57,8.57,0,0,0-5.9,4.2c-1.2,2.1-1.9,5.3-.1,7.2a2,2,0,0,0,3.2-.8c.4-1.4,0-2.6.7-3.9a4.89,4.89,0,0,1,1.6-1.6,9.44,9.44,0,0,0,1.5,2.8,1.42,1.42,0,0,0,2,0C80.67,517.86,79.77,515.06,78.67,513.06Z"/><path class="l" d="M308.77,463.06a.51.51,0,0,0-.6.8c6,5.1,6.5,14.1,5,21.3-1.2,5.7-7.9,12.8-14.5,12.8,5.9-.9,10.6-5.2,12.9-10.8,2.7-6.7,1.9-17.8-3.4-23.1-.8-.8-2.6-.3-2.5,1,.1.7.2,1.4.3,2a5.25,5.25,0,0,0-4-2.5c-.8-.1-1,1.1-.4,1.4,4.7,2.7.8,11.8-.4,15.5a46.75,46.75,0,0,1-7.2,13.6,1.7,1.7,0,0,0,.3,2.3c-.1.3-.1.6.2.7,6.8,3.6,15.9-2.8,18.8-9C316.87,481.36,316.17,468.26,308.77,463.06Zm-1.8,13.6a23,23,0,0,0,.2-4.6c.8,3,1.6,5.9,1.3,9.2a14.76,14.76,0,0,1-7.9,11.8A36.42,36.42,0,0,0,307,476.66Z"/><path class="l" d="M357.67,325.26a1.37,1.37,0,0,0-1.7-.7,1.59,1.59,0,0,0-1.2,2.4,4.23,4.23,0,0,0,.5.7c3.2,13.9-1,32.2-11.1,42.3-6.2,6.2-13.9,7.5-22.3,6.6-6.8-.7-14.8-2.2-19.5-7.7a21.67,21.67,0,0,1-4.4-10.2c-.2-2.1-.6-.7,1.9-.6a24.09,24.09,0,0,0,3.7-.7,96.73,96.73,0,0,0,19-5c12.2-4.8,22.6-11.2,31.3-21.1,1.9-2.1-1.1-5.2-3.2-3.2-9.7,9.8-21.9,18.2-35.2,22.3-3,.9-6.1,1.6-9.2,2.2-3.4.6-7.1,0-10.5.8-4.6,1.1-3.3,5.4-2.3,9,.3.9.6,1.8.9,2.6,1.2,4.6,2.7,10.2,6,13.4,4,4,9.6,5.3,14.8,7.1,6.1,2.2,11.7,4.5,18.3,3.9,5-.4,10.3-1.9,14.2-5.2,9.1-7.8,17.1-16.3,19.7-28.4C369.47,345.56,367,331.56,357.67,325.26Zm5.3,31.1c-2,11-8.5,20.4-19,24.4-9.4,3.6-19,6.2-28.7,2-4-1.7-9.2-3.7-12.4-6.9,4.3,3,9.7,4.7,15.7,5.5,12.9,1.8,24.5-.5,31.9-12a55.79,55.79,0,0,0,8.8-35.4,30,30,0,0,1,2.8,6A36.34,36.34,0,0,1,363,356.36Z"/><path class="l" d="M353.27,327.26a.15.15,0,0,0,0,.3A.15.15,0,1,0,353.27,327.26Z"/><path class="l" d="M330.87,356.66c-4.3-3.2-11.2,2.5-11,7.2a1.74,1.74,0,0,0,1.2,1.6,1.92,1.92,0,0,0,2,.6c2.8-.7,5.7-1.7,7.8-3.8A3.46,3.46,0,0,0,330.87,356.66Zm-5,3.8a2.19,2.19,0,0,0-.5.3,4.68,4.68,0,0,1,2.8-1.4h.1c-.1,0-.1.1-.2.1A13.82,13.82,0,0,0,325.87,360.46Z"/><polygon class="m" points="156.07 285.86 155.57 286.56 127.57 326.76 123.97 333.06 134.77 338.06 142.37 343.56 170.77 310.06 178.57 354.36 200.27 351.56 244.57 335.36 247.57 309.76 270.07 300.06 281.57 305.36 284.97 313.56 287.67 317.66 298.07 316.56 308.77 308.06 305.97 289.26 300.07 284.56 260.97 268.36 243.07 250.06 233.57 252.06 226.27 253.36 213.97 246.86 210.27 243.56 197.97 259.56 185.27 270.06 167.77 279.76 156.07 285.86"/><polyline class="j" points="257.27 299.76 271.97 300.36 281.57 305.36 287.57 329.06 286.27 349.06 274.27 393.36 272.57 400.86 269.57 404.06 259.77 403.86 247.67 396.96 243.27 379.06 244.57 350.76 246.97 309.36 257.27 299.76 257.27 299.76"/><polygon class="j" points="242.07 364.86 216.77 368.36 206.27 374.36 197.07 387.36 209.27 456.56 204.27 458.86 196.07 460.56 164.07 431.56 150.07 410.56 142.27 398.06 147.07 382.06 169.57 360.06 190.77 353.86 209.07 349.36 223.77 341.06 239.57 335.86 244.27 337.06 245.77 360.06 242.07 364.86"/><path class="n" d="M140.17,57.06l-15.8,6.6-7.1,7.1-4.1,8.9.8,10.6,12,6.4,20.1-4.8L172,62l15.4-9.3s22.8-.6,23.4-.6H228l9.7-4.2,5-11.2-3.9-13.3-9.1-7.3-9.4-4-4.8-1.4-5.6-5.6S201,3,200.17,3s-16.2,2.1-16.8,2.3-18,7.7-18.5,8.3-12.9,16-12.9,16l-4.6,10.2-5.8,6.8-1.4,9.5Z"/><path class="o" d="M172.87,91.56,158,76.36s-15.7,13.2-22.5,11.8c-3.7-.8-8,1.3-9.2-11.2s9.7-15.2,9.7-15.2l-18,6s-4.5,6.6-4.5,6.9-2.1,7.8-2.1,7.8l2.3,9.4s6.5,5,7.2,5.2,11.6.8,12.2.5,16.7-7.4,16.7-7.4l12.4,9.8,7.6,3.9Z"/><path class="j" d="M221.17,76.86c.2-.8-4.6-26.1-4.6-26.1l-34.9,3.1-20.3,20.7-2.1,3.3,12.4,12.7,17.8-12.5,22.6,1.7,2.9,2.1Z"/><path class="p" d="M133.57,337.76l-16,9.8-9.8,4.1a32.74,32.74,0,0,0-2.1,4.2c0,.6,1.9,1.4,1.9,1.4s-4.2,3.7-4.2,4.2.2,3.9.2,3.9h11l.8,3.1-3.1,5,1.2,4.1,4.8-.2,12-9.8,4.8,1.2,3.9,3.5,2.1-1.5.6-9.8.8-12.5.3-2.6Z"/><path class="q" d="M137.17,340a.35.35,0,0,1-.2.1c-2.3,1.4-18.9,13.1-21.2,15.3-1.9,1.9-3.4,4.2-2.4,6.1a16.45,16.45,0,0,1,1.4,4.2l-10.9-1,1.4-5.9,7.4-4.7-5.8,2.4-.1-3.9,27-15"/><path class="o" d="M169.17,298.86l-33.7,39.4,6.7,6.2s7.2-9.8,8-10.6,18.5-20.8,18.5-20.8l4.1-3.3Z"/><path class="r" d="M125.27,335l-3.5,2.4a9.15,9.15,0,0,0-.1,1.7,26,26,0,0,1,.3,2.6l1,1.2,1.9-.6s6.1-3.2,6.4-3.4,1.8-1.4,1.9-1.5-.5-1.1-1-1.3-4.4-.7-4.4-.7Z"/><path class="s" d="M209.07,457.36c0,1.5-7.2,5.3-7.2,5.3l3,6.3s1.4,6.4,1.4,6.8,1.2,7.1,1.2,7.1v6.4s.9.9,1.5,0,8.1-13.3,8.1-13.3l1.9-9.3-.3-3.5-4.4-3.5Z"/><path class="j" d="M192.47,341.66l2.7-1.5a.35.35,0,0,1,.1-.2c.1-.2.2-.3.3-.5l-1.2-.1-2.6,2.9A4.35,4.35,0,0,1,192.47,341.66Z"/><path class="j" d="M200,405.46l-2.3-16.1,1,.2a16.45,16.45,0,0,1,1-4.9,41.83,41.83,0,0,1-1.6-10.2,56.75,56.75,0,0,1,5.1-24.9l-.2.2c-1.4,1-2.9,1.7-4.3,2.6a6.3,6.3,0,0,1-8.5-2.2,6.08,6.08,0,0,1,.3-6.6l-12.6,14.1-11.8,6.2-21,23.3-1,7.8,1.7,11.5,31,41.4,22.3,15.1,2.8-1,7.3-5.3Z"/><path class="j" d="M220.27,329.66a11.24,11.24,0,0,1-1-3.1c-.2.7-.3,1.5-.5,2.2a14.26,14.26,0,0,1-.9,2.7Z"/><path class="p" d="M223.27,216.06l-16,20.3,6.8,10.5,10.5,4.9,5.6,1.2,5.1-.6,8.9-5.9-1-9.1s-4.9-8-5.1-8.5-6.2-13.4-6.2-13.4Z"/><path class="t" d="M220,223.56c1,.2,10,1.2,10,1.2l3.3,7.3-7.4.9-7.6-3.3Z"/><path class="t" d="M225.07,218.66s-5,7.9-4.9,8.1,5,1.5,5,1.5l4.3-.4-.2-2.8Z"/><path class="l" d="M232.07,230.86c-1.2,1.6-4.6,1-6.4.9a12.55,12.55,0,0,1-7-2.9c-1.5-1.2-3.3,1.3-1.8,2.5,2.8,2.3,5,3.6,8.6,3.9,2.8.2,4.8.8,7-1.5C233.87,232.26,233.27,229.36,232.07,230.86Z"/><path class="l" d="M229.17,225a7.47,7.47,0,0,1-4.9.2c-1.4-.4-2.7-1.1-4.2-1a1.55,1.55,0,0,0-.2,3.1c1.9.3,3.6,1,5.3,1.2s3.4.3,4.8-.6C231.07,227.16,231,224.26,229.17,225Z"/><path class="u" d="M213.87,159.26c2.6,10.4-5.5,19.7-14.8,19.7s-19.1-9.3-15.9-19.6c1.7-5.7.3,12.9,15.6,12.9C213.67,172.36,212,151.56,213.87,159.26Z"/><path class="u" d="M264.57,159.26c2.6,10.4-5.5,19.7-14.8,19.7s-19.1-9.3-15.9-19.6c1.7-5.7.3,12.9,15.6,12.9C264.47,172.36,262.67,151.56,264.57,159.26Z"/><path class="p" d="M231.57,293.56l-9.5-3.3-5.1-2.6-4.3,1.3-.2,4.7.1,2.1-4.9,2.2-3.4,2.6-3.3,3.8-.9,3.5,1.3,1.4,5.5-.3,3.7.1.7,2.5.1,2.1-1.2,1.9-1.2,2.5,1.3,3.8,4.1-1.3,8.8-4.1,2.1,3,2.3,4.8,5.9-1.9s4.6-5.6,4.7-5.8l3.3-6.5-.6-6.5-4-5.8Z"/><path class="q" d="M241.07,309.86l-5.8,11.3s-4.4,3.3-4.7,3.3-4.3-1-4.3-1-2.5-6.8-1-6.9,3.8,1.3,6-.8,6.3-9,6.3-9a12.68,12.68,0,0,0,1.2-2.5,21.14,21.14,0,0,0,.9-2.7l1.6,4.5Z"/><path class="o" d="M302.57,286.26l5.2,5.8,1.8,11.5-3.3,6.8s-5.2,4.9-5.3,5.2-13.2,2.1-13.2,2.1l-4.2-9.3s9.6.3,12.6-4.3-1.2-19-2.7-19.4S302.57,286.26,302.57,286.26Z"/><path class="o" d="M277.77,302.36l5.3,7.8,4.3,14,.3,26.5-11,32.5-4,17.8-7.8,3.5-5-.5a209.13,209.13,0,0,0,12-48.3c3-26-.5-54-.5-54Z"/><path class="o" d="M213.57,367.56s-14.3,3.7-17.5,5.8-10.8,10.5-11.3,13.8-1.7,20,1.5,27.5,7.6,30.1,12,37.2,6,8.5,6,8.5l3.7-3.7-2.2-12.7-1-13.3-1.2-5-1.7-7.5-2.8-8.5-.3-5.7-.7-6.5-1-5.7-.1-4.6,1.6-7.3,7.6-5.7Z"/><path class="v" d="M238.77,142.16a12.17,12.17,0,0,0,1.8-3.2,13.91,13.91,0,0,0,1-8.5c-.8-.1-1.5-.3-2.3-.4a22.27,22.27,0,0,1,.3,8.5A32.14,32.14,0,0,1,238.77,142.16Z"/><path class="s" d="M290.77,138.06c1-6.3-1.1-13.3-8.6-13.3a36.78,36.78,0,0,0-5.8.7c-.4.3-.9.5-1.4.8a8,8,0,0,1,2.1.5,7.23,7.23,0,0,1,3.6,3.9c2,5-1.1,10-2.7,14.8a50.36,50.36,0,0,1,4.1,13.8,62.12,62.12,0,0,1,3.1-7C287.57,147.76,290.07,143.26,290.77,138.06Z"/><path class="v" d="M285.57,122.26c4.9,1,7.5,5,8.3,9.7,2,11.5-6.1,20.6-9.7,30.8a10.68,10.68,0,0,1,9.2-.6,3.55,3.55,0,0,1,.4-.9c5.6-9.3,11.7-19.8,9.8-31.1a19.41,19.41,0,0,0-8-13.1,14.49,14.49,0,0,0-10.9-2.5,19.22,19.22,0,0,1-4.3,7.6A18.2,18.2,0,0,1,285.57,122.26Z"/><path class="p" d="M284.37,168.86a2.51,2.51,0,0,1-1.4.6c.1,3,.1,6,0,9.2a4.35,4.35,0,0,0,5.6.5,2.13,2.13,0,0,0,.8-2.1.8.8,0,0,0-.6-1,.71.71,0,0,0-1-.3c-.6-.2-.9-.3-1-1a1.09,1.09,0,0,1,.7-1c2.4-.5,4.1,1,4.4,3.4a4.57,4.57,0,0,1-3.2,5.3,6.73,6.73,0,0,1-6-.7c-.1.9-.1,1.8-.2,2.7,5.6,1.1,11.3,1.5,13.3-5.3,1-3.3.7-7.1-1.8-9.7A6.89,6.89,0,0,0,284.37,168.86Z"/><path class="v" d="M252.57,110.26a14.29,14.29,0,0,0-3.4,7,10.65,10.65,0,0,0,1.9,7.5,8.74,8.74,0,0,0,.8,1c8.1,2.6,15.5,6.4,20,11a31,31,0,0,1,5.1,6.8c2-5.1,4.9-11.7-.4-14.7a10.81,10.81,0,0,0-4.5-1.2,14.73,14.73,0,0,1-12.4-1.7c-4.3-2.7-8.1-7.6-7.6-13A4.85,4.85,0,0,1,252.57,110.26Z"/><path class="p" d="M225.17,213.76c1.8-2.9,6.2-8,16.5-12.2-.3-6.2-6.8-11.2-14.7-11.2-8.1,0-14.7,5.2-14.7,11.7a4.1,4.1,0,0,0,.1,1.1C220.07,206.86,223.57,211.16,225.17,213.76Z"/><path class="v" d="M267.67,201.06h-1.1c-.4,0-.7.1-1.1.1-16.9,2-26.1,6.5-31,10.3,7.8-3.4,18.3-2.2,25.6,0,12.9,4,23.9,12.1,35.5,18.7,12.1,7,24.8,13.3,38.5,16.6,12.5,3,25.9,3,38.1-1.4a41.93,41.93,0,0,0,12.4-6.9,24.57,24.57,0,0,1-8.8,1.7h-.9c-33.5-1.5-55.6-14.9-73.3-25.6l-4.5-2.7C286.27,205.56,277.17,200.76,267.67,201.06Z"/><path class="v" d="M268,98.76a24.34,24.34,0,0,1-16.9,2.9,24.53,24.53,0,0,0-4.2,2.5c-6,4.6-9.5,11.1-12.9,17.7a81,81,0,0,1,11.6,2.1,11.27,11.27,0,0,1,0-9c2.4-5.6,10.2-12,16.6-10.3a2.19,2.19,0,0,1,.5.3c3.8,1.3,6.3,5.5,3.4,9.1a2.84,2.84,0,0,1-4,0c-.9-.9-1.9-2.7-1.9-.2.1,1.8,2.1,3.7,3.5,4.6,3.3,2.1,6.8,1,9.6-1.4,5.8-4.8,6.1-15-1.9-17.6A29,29,0,0,0,268,98.76Z"/><path class="s" d="M172.57,131.26a17.6,17.6,0,0,0-4.6-9.1c-3.1-3.3-7.3-5.5-11.7-2.9-1.9,1.1-3.8,3.1-4.1,5.4,5.3-6.2,15.9-.9,15.6,7.5a11.07,11.07,0,0,1-2.8,7.2c-.2,3.3-1.6,6.3-2.5,9.5a14.27,14.27,0,0,0,2.7,13.4c.3-8.5,1.8-16.2,5.9-22.3C172.37,137.06,173.17,134.56,172.57,131.26Z"/><path class="p" d="M159.17,180.86c-1.4-1.5-2.4-4.2-1.3-6.2,1-1.8,3.4-3.2,5.1-1.6a1.68,1.68,0,0,1-.7,2.8c-.9.2-1.7.2-1.9,1.2a2.89,2.89,0,0,0,1.5,3.1c1.6.5,2.7-1,3.4-2.1a10.91,10.91,0,0,0,.6-1.1c-.2-2.5-.4-5.1-.5-7.5a2,2,0,0,1-1.4-.6,7.05,7.05,0,0,0-9.8.7c-2.5,2.6-2.8,6.4-1.8,9.7,2.1,7.3,8.4,6.3,14.3,5.2-.2-1.4-.3-2.8-.5-4.2C164.17,182.16,161.27,183.26,159.17,180.86Z"/><path class="v" d="M161.27,161.66a16.71,16.71,0,0,1-1.7-7.7c.1-4.3,1.9-8.2,2.7-12.4a12.62,12.62,0,0,1-3.4,1.3c-2.2,2.5-4.5,4.3-3.4,8.6a54.83,54.83,0,0,0,4.3,10C160.27,161.56,160.77,161.56,161.27,161.66Z"/><path class="v" d="M225.47,117a67.56,67.56,0,0,1,5.3-30.1c2.1-5,4.4-10,9.2-13a29.5,29.5,0,0,1,14.8-3.9c8.7,0,14.3,10,8.8,17.2a12.24,12.24,0,0,1-11.2,4.4,10.39,10.39,0,0,1-5.3-2.2c0,.1.1.1.1.2a9.07,9.07,0,0,0,6.6,4.1,16.8,16.8,0,0,0,15.1-5.3,12.81,12.81,0,0,0,1.3-15.6c-3.5-5.3-9.9-7.6-16-7.6-12.1-.1-25.4,6.8-31.9,17.2a23,23,0,0,0-2.6,5.8,19.29,19.29,0,0,1-.9,7.1C218.87,102.66,222.07,110.16,225.47,117Z"/><path class="v" d="M115.17,246.06c13.7-3.2,26.4-9.6,38.5-16.6,11.5-6.7,22.6-14.8,35.5-18.7,7.2-2.2,17.5-3.4,25.3-.2-5.2-3.6-14.2-7.5-29.8-9.4-11.5-1.4-22.3,5.2-36,13.5-17.8,10.7-39.8,24.1-73.3,25.6a23.88,23.88,0,0,1-9.4-1.6,45.26,45.26,0,0,0,11.3,6C89.27,249.06,102.67,249.06,115.17,246.06Z"/><path class="s" d="M203.47,107.26c-4.8-.8-10.8-5.2-12-10.1-.8-3.4,2.5-6.9,5.7-4.8a1.19,1.19,0,0,1,.5.9l.2.2a7.44,7.44,0,0,0,1.4,2.2q5.55,1.35,4.8-2.1c.3-4.6-4.6-5.3-7.9-4.4-6.7,1.9-9.9,7.1-7.8,13.8a27.27,27.27,0,0,0,9.1,12.8c4.5,3.6,9.9,4.8,15.4,6.1a.52.52,0,0,1,.4.2c3.5-.3,6.9-.5,10.2-.5a42.92,42.92,0,0,1-9.8-17.7C210.77,106.36,207.27,107.86,203.47,107.26Z"/><path class="v" d="M157.87,137.66c2.8-.9,5.3-3.9,4.7-7-.7-3.5-5-4.6-6.9-1.4a2.46,2.46,0,0,1-2.8,1.2h-.1a2.64,2.64,0,0,1-2.1-1.5,3,3,0,0,1-.8-1.6,2.24,2.24,0,0,1-.3-1c0-.2-.1-.4-.1-.6a10.43,10.43,0,0,1,2.1-6.8c3.8-4.1,9.1-5.4,14.1-2.6a21.82,21.82,0,0,1,9.9,12.4,22.58,22.58,0,0,1,.9,5.5,38.88,38.88,0,0,1,8.7-5.5c-8.1-4.4-14.4-12-15.9-21.1-10.8-2.9-21.5,8.3-22,18.7C146.77,132,151,139.86,157.87,137.66Z"/><path class="v" d="M191.47,126.06a92.07,92.07,0,0,1,14-3.3c-7.3-2-13.9-5.5-17.9-12.6-4.4-7.6-4.7-17.1,3.4-22.1,3.1-1.9,7.4-3.5,11-2.3a8.46,8.46,0,0,1,5.4,8.2c-.4,6.3-7.5,6.4-10.9,3.5a2.65,2.65,0,0,0,.6.5c.3.3.6.5.9.8a27.14,27.14,0,0,0,3.5,2.4c2.8,1.5,5.7,1.6,8.1-.6a11.84,11.84,0,0,0,2.6-3.5,32.58,32.58,0,0,1,1.2-11.6c-4.7-9.5-21.5-4.6-28.5-.7-8.1,4.5-10.9,13.9-8.7,22.6C178.27,115.36,184.57,121.86,191.47,126.06Z"/><path class="v" d="M416.57,222.26c-.1,11.4-1.7,20.7-8.4,28.7a85.29,85.29,0,0,1-17.9,16.3,77.17,77.17,0,0,1-28.4,10.8,83.84,83.84,0,0,1-28.7-.4c-19.3-3.4-36.9-13.1-52.9-24.2-8.2-5.7-16-11.9-23.8-18s-16.4-13.9-26.8-13.6c1.2,8.5,6.6,26.4,29.3,41.1,8.7,5.6,32.7,18.4,51.7,22.1,64.2,12.6,96.6-6,110.1-18.2,13-11.7,19.7-27.1,18.4-42.5-2.9-34-26-49.2-47.7-49.2-15.3,0-23.7,7.6-27.8,14.4a29.81,29.81,0,0,1,17.4-4,2.41,2.41,0,0,1,1.5-.4C402.67,185.06,416.67,203.06,416.57,222.26Z"/><path class="s" d="M38.37,223.86c.8,10.2,4.2,18.9,10.8,25.7,3.4,3.4,7.4,7.5,11.6,10.4,3.3,2.3.5.6,8.5,5.3,16.1,9.5,37.6,8,55.1,3.1,17.9-5.1,33.8-14.3,49-24.8,8.2-5.7,16.1-11.7,24.2-17.5,5.6-4,12.3-8.1,19.3-8.2-9.6-7.3-24.1-3.4-34.3,1.4-12.6,5.9-24.1,14.1-36.5,20.6-22.6,11.8-50.1,19.7-74.8,9.3-13.2-5.6-25.5-20.4-25.6-35.6h0a22.49,22.49,0,0,1,6.7-19.2C42.87,200.16,37.47,212.06,38.37,223.86Z"/><path class="j" d="M251.67,161.66a2.3,2.3,0,1,0,2.3-2.3A2.33,2.33,0,0,0,251.67,161.66Z"/><circle class="j" cx="247.37" cy="154.86" r="5.8"/><path class="s" d="M250,85.36c-.1,0-.3.1-.4.1a6.11,6.11,0,0,0,7.9,1.8c3.6-1.7,5.4-5.7,3.4-9.4-3.3-6.2-14.6-3-19.2.3-6.2,4.4-8.9,14.3-10.5,21.3a82.07,82.07,0,0,0-1.7,21c3.1-8.2,8.1-16.1,15.3-21.1-4.3-2.7-7.4-7.3-7.3-12.5a8,8,0,0,1,5.4-7.8c3.1-1,5.2.2,7.7,1.8A2.46,2.46,0,0,1,250,85.36Z"/><path class="v" d="M228.87,146.36a11,11,0,0,0,1.8.2.55.55,0,0,1,.5-.3,23.27,23.27,0,0,0,3.1-.8,9.15,9.15,0,0,0,3.1-3.6,10.8,10.8,0,0,0,.1-9.6,18.84,18.84,0,0,0-1.4-2.4c-1.9-.2-3.8-.4-5.7-.5,3.1,3.8,4.1,10.2,1.8,14.2A5.46,5.46,0,0,1,228.87,146.36Z"/><path class="j" d="M214.67,166.86a16.46,16.46,0,0,1-31.8,0v1.2c0,10.7,7.2,19.4,16,19.4s16-8.7,16-19.4A2.54,2.54,0,0,1,214.67,166.86Z"/><circle class="j" cx="194.27" cy="157.66" r="5.8"/><path class="j" d="M249.27,187.46c8.8,0,16-8.7,16-19.4v-1.2a16.46,16.46,0,0,1-31.8,0v1.2C233.37,178.76,240.47,187.46,249.27,187.46Z"/><circle class="j" cx="205.17" cy="161.66" r="3.2"/><path class="s" d="M303.27,240.56c-12.4-6.5-23.8-14.7-36.5-20.6-10.2-4.8-24.7-8.7-34.3-1.4,7,.2,13.7,4.2,19.3,8.2,8.1,5.8,16,11.9,24.2,17.5,15.2,10.5,31.1,19.7,49,24.8,17.4,5,39,6.4,55.1-3.1,8-4.7,5.1-3,8.5-5.3a83.31,83.31,0,0,0,11.6-10.4c6.7-6.8,10.1-15.5,10.8-25.7s-3-20.2-10-26.6c4.3,6.5,5,14.3,1.8,22.3-1.2,13.9-12.2,24.2-24.7,29.4C353.37,260.26,325.87,252.36,303.27,240.56Z"/><path class="v" d="M141.17,285.06c19-3.7,43-16.5,51.7-22.1,23.1-15,27.4-32.9,29.4-41.5-.1-.1-.3-.2-.4-.4-10.7-.6-19.8,5.1-27.7,11.3s-15.8,13.3-23.9,18.9c-16,11.1-33.2,21-52.6,24.4-9.5,1.7-19,3-28.5,1.4a77.17,77.17,0,0,1-28.4-10.8A87.84,87.84,0,0,1,42.87,250c-6.7-7.9-8.4-17.3-8.4-28.7-.1-19.2,16-36.1,36.2-35.8a1.27,1.27,0,0,1,.6.1c6.6-.6,12.6,1.6,17,4-4.1-6.8-13.3-15.5-28.6-15.5-21.6,0-46.1,16.2-49,50.1-1.3,15.4,6.1,32.4,19.1,44.1C43.17,280.56,76.87,297.66,141.17,285.06Z"/><path d="M219.27,168.06c0-13.3-9.2-24.1-20.6-24.1s-20.6,10.8-20.6,24.1,9.2,24.1,20.6,24.1S219.27,181.36,219.27,168.06Zm-14.1-9.6a3.2,3.2,0,1,1,0,6.4,3.29,3.29,0,0,1-3.2-3.2A3.16,3.16,0,0,1,205.17,158.46Zm-10.9-6.6a5.8,5.8,0,1,1-5.8,5.8A5.8,5.8,0,0,1,194.27,151.86Zm4.4,35.6c-8.8,0-16-8.7-16-19.4v-1.2a16.46,16.46,0,0,0,31.8,0v1.2C214.67,178.76,207.47,187.46,198.67,187.46Z"/><path d="M249.27,192.16c11.4,0,20.6-10.8,20.6-24.1s-9.2-24.1-20.6-24.1-20.6,10.8-20.6,24.1S238,192.16,249.27,192.16Zm7-30.5a2.3,2.3,0,1,1-2.3-2.3A2.33,2.33,0,0,1,256.27,161.66Zm-8.9-12.6a5.8,5.8,0,1,1-5.8,5.8A5.8,5.8,0,0,1,247.37,149.06Zm-14,17.8a16.46,16.46,0,0,0,31.8,0v1.2c0,10.7-7.2,19.4-16,19.4s-16-8.7-16-19.4A2.54,2.54,0,0,0,233.37,166.86Z"/><path class="p" d="M226.87,187.66c9.4,0,17.2,5.4,18.4,12.4a90.77,90.77,0,0,1,19.6-4.2,32.34,32.34,0,0,1,11.6.7c2.6-19.6,3.6-41.3-6.3-53-5.3-6.2-15-10.3-25.3-12.5.1,2.4-1.3,5-2.5,7.2-2.1,3.9-5.2,8.9-9.9,9.9a10.71,10.71,0,0,1-8.6-.3c-2.8-1.5-4.6-5.2-2.9-8.2.7-1.2,3-1.2,3.3.4.3,1.8.5,3.3,1.4,4.4l.6.3c2.4.7,4.1-1.8,4.3-3.8a6.08,6.08,0,0,0-.1-1.9c-.3-4-2.2-6.6-4.7-9.5-.1-.2-.3-.3-.3-.5-16.1.1-36,3.1-47.1,13.7-10,9.6-9.5,25.6-7.1,42.1a1.15,1.15,0,0,1,.1,1c.5,3.6,1.2,7.2,1.8,10.8a32.89,32.89,0,0,1,12.1-.8,89.4,89.4,0,0,1,22.4,5.2V201a1.42,1.42,0,0,0,.6.2C208.87,193.66,217,187.66,226.87,187.66Zm22.4-43.7c11.4,0,20.6,10.8,20.6,24.1s-9.2,24.1-20.6,24.1-20.6-10.8-20.6-24.1S238,144,249.27,144Zm-50.6,48.2c-11.4,0-20.6-10.8-20.6-24.1s9.2-24.1,20.6-24.1,20.6,10.8,20.6,24.1S210.07,192.16,198.67,192.16Z"/><path d="M309.57,290.46c4.5.9,8.8,1.6,13,2.2,11.9,1.4,10.2,1.1,12.3,1.4,5.6.5,10.9.7,15.9.7,4.7,0,9.2-.2,13.4-.6a51.7,51.7,0,0,0,11.1-1.4c25.1-4.1,40.6-14.2,49.1-21.8,14.3-12.8,21.6-29.9,20.1-47-3.2-37.4-29-54.1-53.1-54.1-23.2,0-34.4,16-36.2,26.7l-1.4,8.2,6-5.8c.7-.7,17.1-16.3,33.2-2,7.7,6.9,6.9,15,5.3,20,0,.1-.1.2-.1.3s-.1.2-.1.3a10.37,10.37,0,0,1-.4,1c-3.9,9.6-13.8,16.8-22.5,16.4-32.1-1.5-53.6-14.4-70.8-24.9-8.2-5-15.7-9.5-23.2-12.1.4-2.8.7-5.5,1-8.3,3.8,2.4,7.7,3.4,12.6,1.5,5.4-2,8.3-8,8.7-13.4a16,16,0,0,0-5.6-12.9,3,3,0,0,0,.8-.8c8.3-11.7,14.7-27,8.4-41.1a22.63,22.63,0,0,0-12.4-12.1,18.46,18.46,0,0,0-9.2-1.1,16.73,16.73,0,0,0-2.7-9.3,15.47,15.47,0,0,0-9-6.3,20.42,20.42,0,0,0,5.3-10.3c2.7-14.6-9.9-25.1-23.5-25.7-12-.6-24.6,4.9-33.2,13.5a3,3,0,0,0-.6-1.1c-1.9-2.2-1.9-5.1-1.8-7.8a45.76,45.76,0,0,0-.2-7.4c4.9.1,10-.3,14.5-2.4,22.9-10.3,4.3-48.1-17.2-45a11,11,0,0,0-6.1-6.4c-5.7-2.4-13.1-1.5-19-.8a60,60,0,0,0-18.1,4.9c-11.1,5.1-19.2,14.4-25.7,24.4-3.4,5.2-6.5,10.7-9.7,16-1.5,2.5-4.6,8.9-8.1,11.9-1.3.5-2.6,1-3.8,1.6l-4.7,2.6a36.42,36.42,0,0,0-5.5,4.2c-7.3,7-10.6,18.5-4.4,27.3,6.2,9,19.7,8.5,29,5.1a29.43,29.43,0,0,0,7.8-4.2,57,57,0,0,1,11.3,7.8c-5.4,1.7-10.3,5.9-13.4,10.2-5.7,8-7.5,20.8.9,27.7a12.89,12.89,0,0,0,5.8,2.7,10.7,10.7,0,0,0-2.1,6.1c0,4.6,2.6,8.9,5.3,12.7-6.4,1.6-11.8,8.6-11.3,16,.3,5.4,3.3,11.5,8.7,13.4,4.9,1.8,9.6.5,13.7-2,.4,3,.8,6,1.2,8.9-7.3,2.6-14.7,7.1-22.6,11.9-17.2,10.4-38.7,23.4-70.8,24.9-8.7.4-18.6-6.8-22.5-16.4-1.9-4.7-3.9-13.9,4.7-21.6,16-14.3,32.5,1.3,33.2,2l6,5.8-1.4-8.2c-1.9-10.7-13.1-26.7-36.2-26.7-24.1,0-49.9,16.7-53.1,54.1-1.5,17.1,5.9,34.2,20.1,47,9.7,8.7,28.4,20.5,60,23.2,2.2.1.6,0,4.3.3,3,.2,6,.3,9.2.3,2,0,4.1-.1,6.3-.1,4-.1,13.8-.7,14-1,6.6-.7,13.5-1.7,20.9-3.2,2.5-.5,6.4-1.6,10.2-2.8-1.7,2-3.5,5.8-4.9,7.8a107.14,107.14,0,0,0-5.9,9c-1.4,2.4-17.4,24.1-17.1,30.7,0,.8,2.3-.1,15.6-20.9,1.7-2.6,3.6-5.5,5.1-8.1s3.3-5.3,5.1-7.9c2-2.8,4.1-5.6,6.3-8.3,1.3-1.6,3-2.7,2.9-4.6a3.11,3.11,0,0,1-1.8.6c.6-.2,1.3-.4,1.8-.6,14-5.2,28.6-12.3,36.3-17.8,15.6-11.2,20.3-24.6,24.4-34.2,1.4-3.4,6.1-10.7,6.7-13.4,1.3,5.7,6.5,15.8,12,25.8,4.6,8.3,9.2,15.7,18.8,21.9,8.6,5.6,24.6,13.8,39.7,19m106.6-66.2c3.2-8,2.5-15.8-1.8-22.3a33.14,33.14,0,0,1,10,26.6c-.8,10.2-4.2,18.9-10.8,25.7-3.4,3.4-7.4,7.5-11.6,10.4-3.3,2.3-.5.6-8.5,5.3-16.1,9.5-37.6,8-55.1,3.1-17.9-5.1-33.8-14.3-49-24.8-8.2-5.7-16.1-11.7-24.2-17.5-5.6-4-12.3-8.1-19.3-8.2,9.6-7.3,24.1-3.4,34.3,1.4,12.6,5.9,24.1,14.1,36.5,20.6,22.6,11.8,50.1,19.7,74.8,9.3C390.57,244.56,401.47,234.36,402.77,220.36Zm-105.7-8.3,4.5,2.7c17.8,10.7,39.8,24.1,73.3,25.6h.9a25,25,0,0,0,8.8-1.7,47,47,0,0,1-12.4,6.9c-12.2,4.4-25.6,4.4-38.1,1.4-13.7-3.2-26.4-9.6-38.5-16.6-11.5-6.7-22.6-14.8-35.5-18.7-7.3-2.3-17.9-3.4-25.6,0,4.9-3.8,14.1-8.3,31-10.3.4,0,.7-.1,1.1-.1h1.1C277.17,200.76,286.27,205.56,297.07,212.06Zm-89.3-11a90.51,90.51,0,0,0-22.4-5.2,35.19,35.19,0,0,0-12.1.8c-.6-3.6-1.3-7.2-1.8-10.8a1.73,1.73,0,0,0-.1-1c-2.4-16.5-2.9-32.5,7.1-42.1,11-10.6,31-13.6,47.1-13.7a2.19,2.19,0,0,0,.3.5c2.5,2.9,4.4,5.5,4.7,9.5,0,.6.1,1.3.1,1.9-.2,2-1.9,4.5-4.3,3.8l-.6-.3c-.9-1.1-1.1-2.6-1.4-4.4-.3-1.6-2.5-1.6-3.3-.4-1.7,2.9.1,6.6,2.9,8.2,2.6,1.4,5.8,1.2,8.6.3,4.7-1,7.8-6,9.9-9.9,1.2-2.3,2.5-4.9,2.5-7.2,10.3,2.2,20,6.3,25.3,12.5,9.9,11.7,8.9,33.4,6.3,53a32.2,32.2,0,0,0-11.6-.7,90.77,90.77,0,0,0-19.6,4.2c-1.2-7-9-12.4-18.4-12.4-9.9,0-18,6-18.6,13.5a1.27,1.27,0,0,0-.6-.1Zm-16.3-104c1.2,4.9,7.2,9.3,12,10.1,3.8.7,7.3-.8,10.1-3.5a43.55,43.55,0,0,0,9.8,17.7c-3.3.1-6.7.2-10.2.5-.1-.1-.2-.1-.4-.2-5.5-1.2-10.9-2.4-15.4-6.1a27.27,27.27,0,0,1-9.1-12.8c-2.1-6.8,1.1-12,7.8-13.8,3.3-.9,8.2-.3,7.9,4.4.5,2.4-1,3.1-4.8,2.1a6.36,6.36,0,0,1-1.4-2.2l-.2-.2a1,1,0,0,0-.5-.9C194,90.16,190.67,93.76,191.47,97.06Zm20.8,0a16.76,16.76,0,0,1-2.6,3.5c-2.4,2.2-5.3,2.2-8.1.6a27.14,27.14,0,0,1-3.5-2.4c-.3-.3-.6-.5-.9-.8s-.5-.3-.6-.5c3.4,2.9,10.5,2.9,10.9-3.5.2-3.5-2-7.2-5.4-8.2-3.6-1.2-8,.4-11,2.3-8.1,5.1-7.8,14.5-3.4,22.1,4.1,7.1,10.6,10.6,17.9,12.6a79.38,79.38,0,0,0-14,3.3c-6.9-4.3-13.3-10.7-15.2-18.7-2.1-8.7.6-18.1,8.7-22.6,7-3.9,23.7-8.8,28.5.7A30.52,30.52,0,0,0,212.27,97.06Zm38.3-16.3c-2.5-1.6-4.7-2.8-7.7-1.8a8.12,8.12,0,0,0-5.4,7.8c-.1,5.2,3.1,9.8,7.3,12.5-7.2,5-12.2,12.9-15.3,21.1-.2-7,0-14.1,1.7-21s4.4-16.9,10.5-21.3c4.6-3.3,15.9-6.5,19.2-.3a6.79,6.79,0,0,1-3.4,9.4c-3.3,1.5-6.1.6-7.9-1.8.2,0,.3-.1.4-.1A2.46,2.46,0,0,0,250.57,80.76Zm-20.1,48.5c1.9.1,3.7.3,5.7.5.4.8.9,1.6,1.4,2.4a11.13,11.13,0,0,1-.1,9.6,8.42,8.42,0,0,1-3.1,3.6,19.84,19.84,0,0,1-3.1.8.85.85,0,0,0-.5.3,5.54,5.54,0,0,1-1.8-.2,6.4,6.4,0,0,0,3.4-2.9C234.57,139.46,233.57,133.06,230.47,129.26Zm8.8.9a18.46,18.46,0,0,1,2.3.4c.8,2.8.1,5.8-1,8.5a12.17,12.17,0,0,1-1.8,3.2,13.59,13.59,0,0,0,.7-3.5C239.77,136.06,240.07,132.86,239.27,130.16Zm20.3-4.3a15.1,15.1,0,0,0,12.4,1.7,10.43,10.43,0,0,1,4.5,1.2c5.3,3.1,2.3,9.6.4,14.7a33.58,33.58,0,0,0-5.1-6.8c-4.6-4.6-11.9-8.3-20-11-.2-.3-.5-.6-.8-1a10.52,10.52,0,0,1-1.9-7.5,13.9,13.9,0,0,1,3.4-7,7.64,7.64,0,0,0-.6,2.7C251.47,118.16,255.17,123.16,259.57,125.86Zm22.5,33.5a49.34,49.34,0,0,0-4.1-13.8c1.6-4.7,4.6-9.8,2.7-14.8a6.91,6.91,0,0,0-3.6-3.9,5.37,5.37,0,0,0-2.1-.5,10,10,0,0,0,1.4-.8,27.88,27.88,0,0,1,5.8-.7c7.5-.1,9.6,6.9,8.6,13.3-.8,5.2-3.3,9.7-5.7,14.3A71.75,71.75,0,0,0,282.07,159.36Zm13.8,19.9c-2,6.9-7.7,6.4-13.3,5.3.1-.9.1-1.8.2-2.7a6.73,6.73,0,0,0,6,.7,4.72,4.72,0,0,0,3.2-5.3c-.4-2.3-2-3.9-4.4-3.4a1,1,0,0,0-.7,1c.1.7.4.8,1,1a1,1,0,0,1,1,.3.76.76,0,0,1,.6,1,2.13,2.13,0,0,1-.8,2.1,4.35,4.35,0,0,1-5.6-.5c.1-3.1.1-6.2,0-9.2a2.85,2.85,0,0,0,1.4-.6,7.05,7.05,0,0,1,9.8.7C296.57,172.16,296.87,175.86,295.87,179.26Zm-11.1-64.6a14.16,14.16,0,0,1,10.9,2.5,19.77,19.77,0,0,1,8,13.1c1.8,11.3-4.2,21.9-9.8,31.1a3.55,3.55,0,0,0-.4.9,10.68,10.68,0,0,0-9.2.6c3.5-10.2,11.7-19.3,9.7-30.8-.8-4.7-3.4-8.6-8.3-9.7a14.57,14.57,0,0,0-5.1-.1A23.71,23.71,0,0,0,284.77,114.66Zm-11.3,2.5c-2.8,2.3-6.4,3.4-9.6,1.4-1.4-.9-3.5-2.8-3.5-4.6-.1-2.4,1-.6,1.9.2a2.84,2.84,0,0,0,4,0c2.9-3.5.4-7.7-3.4-9.1a2.19,2.19,0,0,0-.5-.3c-6.4-1.8-14.2,4.6-16.6,10.3a10.87,10.87,0,0,0,0,9,81,81,0,0,0-11.6-2.1c3.4-6.6,6.9-13.1,12.9-17.7a24.53,24.53,0,0,1,4.2-2.5,24.44,24.44,0,0,0,16.9-2.9,19.82,19.82,0,0,1,3.5.8C279.57,102.06,279.27,112.36,273.47,117.16Zm-53.9-29.1a23,23,0,0,1,2.6-5.8c6.4-10.3,19.8-17.3,31.9-17.2,6.2.1,12.5,2.3,16,7.6a12.81,12.81,0,0,1-1.3,15.6,16.8,16.8,0,0,1-15.1,5.3c-2.6-.4-5.3-1.7-6.6-4.1,0-.1-.1-.1-.1-.2a10.39,10.39,0,0,0,5.3,2.2,12.48,12.48,0,0,0,11.2-4.4c5.5-7.1-.1-17.2-8.8-17.2a29.5,29.5,0,0,0-14.8,3.9c-4.7,3-7.1,8-9.2,13a67.81,67.81,0,0,0-5.3,30.1c-3.5-6.8-6.7-14.3-6.8-21.8A15.32,15.32,0,0,0,219.57,88.06Zm-77.3,3.3c-6.8,3.8-19.6,6.2-25.1-.6-6.2-7.6-.5-17.7,6.2-22.4,1.3-.9,2.7-1.7,4.1-2.5a29,29,0,0,1,5.8-2.5c6.5-2.4,13.5-3.7,20-5.4,3.8-1,2.2-6.9-1.6-5.9s-7.6,1.9-11.4,2.9c1.5-2.4,2.8-4.8,3.9-6.6,5.3-8.8,10.3-18.1,17.3-25.8a48.18,48.18,0,0,1,28.7-15.2c5.2-.8,11.7-1.6,17-.3a6,6,0,0,1,4.7,4.8,4,4,0,0,0,.3,1.5c0,.2.1.4.1.7.1,1.3.9,6.3-.8,6.7-3.8.9-2.2,6.8,1.6,5.9,5.2-1.3,5.7-7,5.4-11.5a2.2,2.2,0,0,0-.1-.8c10.5-.9,19.8,11.8,20.2,21.4.5,13.1-12.9,14-22.7,13.6-6.3-.3-12.6-.7-18.8-.9-5.5-.2-10.9.1-15.9,2.5l-23.9,19.8C152.27,75.16,146.47,88.06,142.27,91.36Zm10.6-1.3.2-.2,9.4-13.6a96.63,96.63,0,0,1,14.2-15.1c5.9-5.1,11.9-7,19.6-6.7,5.7.2,11.4.6,17.1.8a.9.9,0,0,0,.1.5c1.4,6.8-1.4,13.5,3.8,19.3a3.07,3.07,0,0,0,1.3.8c-.2.3-.4.5-.6.8a32.84,32.84,0,0,0-2,3.1c-6.8-7.5-20.2-5.4-28.9-2.2-10.8,3.9-17.8,13.1-18.2,24.6a15.55,15.55,0,0,1-2.9-2.5A71,71,0,0,0,152.87,90.06Zm-5.8,36.2c.5-10.4,11.3-21.7,22-18.7,1.5,9.1,7.9,16.7,15.9,21.1a38.88,38.88,0,0,0-8.7,5.5,23.42,23.42,0,0,0-.9-5.5,21.51,21.51,0,0,0-9.9-12.4c-4.9-2.8-10.2-1.5-14.1,2.6a9.58,9.58,0,0,0-2.1,6.8,1.27,1.27,0,0,0,.1.6c.1.3.2.6.3,1a4.54,4.54,0,0,0,2.9,3.1h.1a2.34,2.34,0,0,0,2.8-1.2c1.9-3.2,6.2-2.1,6.9,1.4.6,3.1-1.8,6.1-4.7,7C151,139.86,146.77,132,147.07,126.26Zm8.4,25.2c-1.1-4.3,1.1-6.1,3.4-8.6a14,14,0,0,0,3.4-1.3c-.8,4.1-2.6,8-2.7,12.4a15.54,15.54,0,0,0,1.7,7.7,7.72,7.72,0,0,0-1.5-.2A59.1,59.1,0,0,1,155.47,151.46Zm-3.1,27.8c-1-3.3-.7-7.1,1.8-9.7a7.05,7.05,0,0,1,9.8-.7,2.38,2.38,0,0,0,1.4.6c.1,2.5.3,5,.5,7.5-.2.4-.4.7-.6,1.1-.7,1.2-1.8,2.6-3.4,2.1a2.76,2.76,0,0,1-1.5-3.1c.2-1,1-1,1.9-1.2a1.65,1.65,0,0,0,.7-2.8c-1.8-1.6-4.1-.2-5.1,1.6s-.1,4.6,1.3,6.2c2.2,2.4,5.1,1.3,7.1-.8.1,1.4.3,2.8.5,4.2C160.77,185.56,154.47,186.56,152.37,179.26Zm13-17a14.27,14.27,0,0,1-2.7-13.4c1-3.2,2.4-6.3,2.5-9.5a11.17,11.17,0,0,0,2.8-7.2c.2-8.4-10.3-13.7-15.6-7.5.3-2.3,2.2-4.3,4.1-5.4,4.4-2.7,8.5-.4,11.7,2.9a17.6,17.6,0,0,1,4.6,9.1c.6,3.3-.2,5.8-1.4,8.6C167.17,146.06,165.67,153.76,165.37,162.26Zm-90.1,78c33.5-1.5,55.6-14.9,73.3-25.6,13.7-8.3,24.5-14.8,36-13.5,15.5,1.8,24.6,5.8,29.8,9.4-7.7-3.2-18.1-2-25.3.2-12.9,4-23.9,12.1-35.5,18.7-12.1,7-24.8,13.3-38.5,16.6-12.5,3-25.9,3-38.1-1.4a49,49,0,0,1-11.3-6A23.65,23.65,0,0,0,75.27,240.26Zm-29.6-26.9h0c.1,15.2,12.4,30,25.6,35.6,24.7,10.4,52.2,2.5,74.8-9.3,12.4-6.5,23.8-14.7,36.5-20.6,10.2-4.8,24.7-8.7,34.3-1.4-7,.2-13.7,4.2-19.3,8.2-8.1,5.8-16,11.9-24.2,17.5-15.2,10.5-31.1,19.7-49,24.8-17.4,5-39,6.4-55.1-3.1-8-4.7-5.1-3-8.5-5.3a83.31,83.31,0,0,1-11.6-10.4c-6.7-6.8-10.1-15.5-10.8-25.7-.9-11.8,4.5-23.7,14.1-29.7C47.17,199.46,44.77,206.16,45.67,213.36Zm168.4,18.7c-4.3,8.4-10.6,20.3-22.8,30.9-7.8,6.8-32.7,18.4-51.7,22.1-64.2,12.6-96.6-6-110.1-18.2-13-11.7-19.7-27.1-18.4-42.5,2.9-34,26-49.2,47.7-49.2,15.3,0,23.7,7.6,27.8,14.4-4.4-2.4-10.4-4.6-17-4-.2,0-.4-.1-.6-.1-20.1-.2-36.3,16.7-36.2,35.8.1,11.4,1.7,20.7,8.4,28.7a85.29,85.29,0,0,0,17.9,16.3,77.17,77.17,0,0,0,28.4,10.8,83.84,83.84,0,0,0,28.7-.4c19.3-3.4,36.9-13.1,52.9-24.2,8.2-5.7,16-11.9,23.8-18s16.7-14.1,27.3-13.5c.1.2.2,0,.3.1A90.7,90.7,0,0,0,214.07,232.06Zm11.1-18.3c-1.5-2.5-5.1-6.8-12.9-10.7,0-.4-.1-.7-.1-1.1,0-6.4,6.6-11.7,14.7-11.7,7.9,0,14.4,5,14.7,11.2C231.37,205.66,227,210.86,225.17,213.76ZM420.77,267c-13.6,12.2-45.9,30.7-110.1,18.2-19-3.7-43-16.5-51.7-22.1-10.8-7-15.8-15.8-20.2-22.9-4.8-7.8-8.5-13.8-9.1-18.2,10.4-.3,19,7.4,26.8,13.6s15.7,12.3,23.8,18c16,11.1,33.5,20.8,52.9,24.2a83.84,83.84,0,0,0,28.7.4,77.17,77.17,0,0,0,28.4-10.8,87.84,87.84,0,0,0,17.9-16.3c6.7-7.9,8.4-17.3,8.4-28.7.1-19.2-13.8-37.2-34-36.9a3.31,3.31,0,0,0-1.5.4,29.81,29.81,0,0,0-17.4,4c4.1-6.8,12.5-14.4,27.8-14.4,21.6,0,44.8,15.2,47.7,49.2C440.47,239.86,433.77,255.36,420.77,267Z"/><path d="M187.77,397.26c-7.6-2.9-17.8-5.3-25.7-3.3a8.42,8.42,0,0,0-2.7.4l-.6,2.1a10.15,10.15,0,0,1,9.1,1.4c1,.7,1.8-.9.9-1.6a18.21,18.21,0,0,0-2.7-1.5,28.61,28.61,0,0,1,5.2.2,60.94,60.94,0,0,1,20.5,6.2,1,1,0,0,0,1.2-1.6C186.87,393.46,184.07,393.66,187.77,397.26Z"/><path d="M193.77,458.66c-13.9-4.8-39.3-41.2-42.7-46.2-1.7-2.4-3.3-4.9-4.8-7.4l.1.1c-1.6-2.8-1.3-14.3-.8-15,4.6-7,9.1-14.1,14.9-20.2a61.59,61.59,0,0,1,8.7-7.5c1.6-1.1,7.9-5.7,8.5-6.5.3-.4-7.3,2.5-9.9,4.2a62.48,62.48,0,0,0-9,7.3c-1.1,1-2.1,2.1-3.1,3.2a12.34,12.34,0,0,1-2.4,2.8c-3.9,4.8-11.9,16.3-12,17-.5,3.4,1.1,9.1,1,9,.3.9,3.4,9,4.3,10.5,1.8,2.8,3.6,5.6,5.6,8.3,2.1,3,6.3,8.6,8.6,11.5,1.5,2,3,4,4.6,6,7.8,10.3,14.8,21,27.5,25.6A1.43,1.43,0,0,0,193.77,458.66Z"/><path class="w" d="M193.77,458.66c-13.9-4.8-39.3-41.2-42.7-46.2-1.7-2.4-3.3-4.9-4.8-7.4l.1.1c-1.6-2.8-1.3-14.3-.8-15,4.6-7,9.1-14.1,14.9-20.2a61.59,61.59,0,0,1,8.7-7.5c1.6-1.1,7.9-5.7,8.5-6.5.3-.4-7.3,2.5-9.9,4.2a62.48,62.48,0,0,0-9,7.3c-1.1,1-2.1,2.1-3.1,3.2a12.34,12.34,0,0,1-2.4,2.8c-3.9,4.8-11.9,16.3-12,17-.5,3.4,1.1,9.1,1,9,.3.9,3.4,9,4.3,10.5,1.8,2.8,3.6,5.6,5.6,8.3,2.1,3,6.3,8.6,8.6,11.5,1.5,2,3,4,4.6,6,7.8,10.3,14.8,21,27.5,25.6A1.43,1.43,0,0,0,193.77,458.66Z"/><path d="M210.77,456.36a5.64,5.64,0,0,0-.6-2c-.1,0-.2-.5-.3-.6a14.46,14.46,0,0,1-.4-2.9c-.2-1.1-.4-2.3-.7-3.4a15.52,15.52,0,0,1-.4-2.1c-.6-3.2-3.4-18-4-20.7-1.4-7-2.5-14.4-4.1-21.5-.2-2.4-.7-5.7-1.1-8.2a16.79,16.79,0,0,1-.4-7.4c-4.7-1.5-8.9-3.1-9.8-4.4a.5.5,0,0,0-.9.4c1.7,5.9,5.7,10.9,7.7,16.6a74.72,74.72,0,0,1,3,12.4.9.9,0,0,0,.1.5c.1,1.1.3,2.2.4,3.3.1.6.1,1.2.2,1.7.5,5.9.6,11.9.6,17.9,0,3.1,2.8-.2,2.8-3.7a4.76,4.76,0,0,0,.5,1.8c1.3,7.4,2.5,14.8,4,22.2a14.75,14.75,0,0,1-4.7,2.7c.1-.3-1.1,3-10.3-.8-1.3-.6-2.6,2.1-1.1,2.5,1.9.5,7.6,4.2,8.6,3.8,4.6,1.6,4.7,10.8,5,14.6.3,4,.5,8.3,2.3,11.9.1.2.3.3.4.4.4.3.9.4,1.2-.1,4-5.1,8-11.1,10-17.5.3-1.3.6-2.7,1-4,.1-.4.1-.7.2-1.1C220.87,462.06,216.07,458.56,210.77,456.36Zm5.9,16.7a53.66,53.66,0,0,1-7.9,15.2c-1.3-6.2-1-12.6-2.8-18.7-.4-1.2-1.8-4.8-3.6-6.3a25.74,25.74,0,0,0,6.8-5.4h.1c2.6,1.1,5.4,2.3,7.2,4.6C218.87,465.76,217.87,469.56,216.67,473.06Z"/><path class="x" d="M210.77,456.36a5.64,5.64,0,0,0-.6-2c-.1,0-.2-.5-.3-.6a14.46,14.46,0,0,1-.4-2.9c-.2-1.1-.4-2.3-.7-3.4a15.52,15.52,0,0,1-.4-2.1c-.6-3.2-3.4-18-4-20.7-1.4-7-2.5-14.4-4.1-21.5-.2-2.4-.7-5.7-1.1-8.2a16.79,16.79,0,0,1-.4-7.4c-4.7-1.5-8.9-3.1-9.8-4.4a.5.5,0,0,0-.9.4c1.7,5.9,5.7,10.9,7.7,16.6a74.72,74.72,0,0,1,3,12.4.9.9,0,0,0,.1.5c.1,1.1.3,2.2.4,3.3.1.6.1,1.2.2,1.7.5,5.9.6,11.9.6,17.9,0,3.1,2.8-.2,2.8-3.7a4.76,4.76,0,0,0,.5,1.8c1.3,7.4,2.5,14.8,4,22.2a14.75,14.75,0,0,1-4.7,2.7c.1-.3-1.1,3-10.3-.8-1.3-.6-2.6,2.1-1.1,2.5,1.9.5,7.6,4.2,8.6,3.8,4.6,1.6,4.7,10.8,5,14.6.3,4,.5,8.3,2.3,11.9.1.2.3.3.4.4.4.3.9.4,1.2-.1,4-5.1,8-11.1,10-17.5.3-1.3.6-2.7,1-4,.1-.4.1-.7.2-1.1C220.87,462.06,216.07,458.56,210.77,456.36Zm5.9,16.7a53.66,53.66,0,0,1-7.9,15.2c-1.3-6.2-1-12.6-2.8-18.7-.4-1.2-1.8-4.8-3.6-6.3a25.74,25.74,0,0,0,6.8-5.4h.1c2.6,1.1,5.4,2.3,7.2,4.6C218.87,465.76,217.87,469.56,216.67,473.06Z"/><path class="l" d="M142.67,366c.3-6.4,1.1-13,.7-19.4-.3-6.8-.9-1.5-.9-.1-.2,4.3-.7,8.6-1,12.8-.2,2.5-.3,5-.5,7.5-.1,1.6.2,5.6-3.7,3.7-.6-.3-1.1-1.3-1.6-1.7-5.5-4.7-10.5,1.9-14.4,5.1-1.4,1.1-3.8,3-5.6,2.9-4.2-.3-.5-6,.4-7.9.7-1.4,1.1-2.5-.3-3.7-1.9-1.6-5.9-.7-8-.8s-3,.7-2.8-2,1-2.7,3.2-4.3a45.38,45.38,0,0,1,6-3.6.92.92,0,0,0-.9-1.6c-1.5.8-3.5,1.8-5.5,3-.8-1.4-.7-2.3.4-2.7.6-.3,1.1-.6,1.7-.9,1.2-.6,2.4-1.2,3.6-1.9,2.2-1.2,4.4-2.3,6.6-3.5a80.86,80.86,0,0,0,7.3-4.6c-.2.3,4.6-3.1,6.3-4l.5-.3c.5-.3-.4-1-1-.7-.4.2-11,6.7-15.7,9.2-3.6,2-9.3,3.6-12,6.8a3,3,0,0,0-.1,4.2,11.13,11.13,0,0,0-3.4,3.9c-1.3,2.9.9,4.5,3.6,4.9,2.2.3,6.7-.9,8.2.9,1.1,1.4,0,1.8-.6,3.4a17.39,17.39,0,0,0-1.1,3.9c-.4,2.7.1,4.7,3.2,4.5,4.5-.3,7.7-3.7,10.8-6.6a11.31,11.31,0,0,1,4.2-2.9c3.5-.9,3.9.7,5.9,2.4,1.1.9,2.2,1.8,3.7,1.7C143.37,373.26,142.57,368.56,142.67,366Z"/><path d="M212,246.56l5.2,4.1a25.21,25.21,0,0,0,8.4,3.2h.1c.3.1.7.1,1,.2h.1c1.7.1,9.6.9,13.7-2.8,1.5-1.4,0-2.3-.8-2.1-4.6.9-12.9,7.6-26.5-4.3a.85.85,0,0,0-1.3,1.1Z"/><path d="M198.77,352.46a6,6,0,0,1-4.7.6c-6.7.9-12.8,1.8-13.1,1.9.7-3.2-.8-7.7-1.3-10.4l-3.9-22.2c-1.3-7.4-2.4-14.8-3.8-22.2-.4-2.1-5.8-6.4-7.3-5.5-1.2.7-.1,2.6,1,2.1,4-.9,3.8,4.9,4.1,7.1.3,2,.7,4.1,1,6.1-6.3,4.4-11.8,10.8-16.6,16.7a123.68,123.68,0,0,0-9.5,13.3s-1.7,2.6-2.2,3.5c-4.6-6-17.2-15.1-21.7-6.5-1.5,2.9-1.1,5.6,2,6.7l.2-.4a9.06,9.06,0,0,1,2.2-1.1c-1.4-.2-1.9-.1-2.7-1.9-.8-2.3-.3-2.9,1.5-3.8a6.41,6.41,0,0,1,4.9-.2,23.11,23.11,0,0,1,5.4,2.8,27.85,27.85,0,0,1,3.2,2.6l3.9,3.6h0c.8.5,1,1.4,1.5,2.2.2-.8,4.8-7.6,5.2-8.1-.1,0,5.3-7.9,8.3-11.5,4.6-5.6,10-10.3,14.9-15.5.8,5.1,1.7,10.1,2.5,15.2.7,4.3,3.8,23.6,4,28.2-1.5.5-3.1,1.2-4.5,1.8-1.2.5-6.8,4.1-6.8,5.6,0,.4,7.3-3.5,7.8-3.7,1.4-.6,2.9-1.1,4.4-1.6.2,0,7.9-2,11.5-2.5,2.7-.4,12.1-2.8,12.4-3.5-1.5.3-2.6.4-3.8.6Z"/><path class="w" d="M198.77,352.46a6,6,0,0,1-4.7.6c-6.7.9-12.8,1.8-13.1,1.9.7-3.2-.8-7.7-1.3-10.4l-3.9-22.2c-1.3-7.4-2.4-14.8-3.8-22.2-.4-2.1-5.8-6.4-7.3-5.5-1.2.7-.1,2.6,1,2.1,4-.9,3.8,4.9,4.1,7.1.3,2,.7,4.1,1,6.1-6.3,4.4-11.8,10.8-16.6,16.7a123.68,123.68,0,0,0-9.5,13.3s-1.7,2.6-2.2,3.5c-4.6-6-17.2-15.1-21.7-6.5-1.5,2.9-1.1,5.6,2,6.7l.2-.4a9.06,9.06,0,0,1,2.2-1.1c-1.4-.2-1.9-.1-2.7-1.9-.8-2.3-.3-2.9,1.5-3.8a6.41,6.41,0,0,1,4.9-.2,23.11,23.11,0,0,1,5.4,2.8,27.85,27.85,0,0,1,3.2,2.6l3.9,3.6h0c.8.5,1,1.4,1.5,2.2.2-.8,4.8-7.6,5.2-8.1-.1,0,5.3-7.9,8.3-11.5,4.6-5.6,10-10.3,14.9-15.5.8,5.1,1.7,10.1,2.5,15.2.7,4.3,3.8,23.6,4,28.2-1.5.5-3.1,1.2-4.5,1.8-1.2.5-6.8,4.1-6.8,5.6,0,.4,7.3-3.5,7.8-3.7,1.4-.6,2.9-1.1,4.4-1.6.2,0,7.9-2,11.5-2.5,2.7-.4,12.1-2.8,12.4-3.5-1.5.3-2.6.4-3.8.6Z"/><path class="s" d="M252.57,402.36l-2.3,5.6,1.5,8.3,7.4,11.6,4.1,5.4s2.6-6.3,2.6-6.6,2.4-11.6,2.4-11.6l-2.3-7.4-.6-2.4Z"/><path class="u" d="M213.67,162.46c2.6,10.5-5.5,19.9-15,19.9s-19.3-9.4-16.1-19.8c1.8-5.7.3,13,15.8,13C213.47,175.66,211.77,154.66,213.67,162.46Z"/><path class="u" d="M264.87,162.46c2.6,10.5-5.5,19.9-15,19.9s-19.3-9.4-16.1-19.8c1.8-5.7.3,13,15.8,13C264.67,175.66,263,154.66,264.87,162.46Z"/><path d="M276.67,398.86a15.6,15.6,0,0,0-4.1,2l-3,1.8c-.5.5-5.1.9-7,.8a20.14,20.14,0,0,1-5.9-1.3c-2.9-1-6.8-5.4-7.9-7.8-2.4-5.3-4.1,2-3.6,3.1.7,1.8,4.3,4.6,6.2,5.6-5.9,10.5,5.1,22,10.7,30.2.9,1.3,2.9.1,2.1-1.2-3.1-4.8-6.3-9.4-9.3-14.3-1.6-2.5-3-5.2-3-8.3a20.69,20.69,0,0,1,1.2-5.6c.5.2.9.4,1.3.6a19.92,19.92,0,0,0,9.3,1.9c.3,0,.6-.1.9-.1.2,3.5.9,7,1.1,10.5.1,3-.4,11.9-1.6,14.9-.3.8.1,1.4.2,1.1,1.4-4.2,5.4-13.8,5.1-18.2-.2-2.8,0-5.8-1.6-8.4,1.2-.4,8.4.9,9,0C277.47,404.76,278.07,399.36,276.67,398.86Z"/><path class="y" d="M203.07,349.86c-1.4,1-7.6,1.4-9,2.3a4.19,4.19,0,0,1-2.2.5c-.2.3,4,1.3,4,1.6-.3,1.4,24.5-7.8,27.7-9.2,6.5-2.9,12.6-5.2,19.5-6-.1,3.1-.2,6.2-.2,9.4-.1,4.9-.1,9.8-.1,14.6a49.2,49.2,0,0,0-17.1,1.9,1.64,1.64,0,0,0-1-1.5c-5.1-1.8-13.1,3.4-16.9,6.3-2.9,2.2-7.4,6.2-9.1,10.3a.76.76,0,0,0-.1-.4,23.46,23.46,0,0,0-1.9,4.3c-.7.8-1.4,1.7-2.1,2.6-.5.6.6,1.5,1.1.9a6.47,6.47,0,0,0,.8-.9,1.31,1.31,0,0,0,2.2-.1c.2-.4.5-.8.7-1.2.1-.2.1-.4.2-.6-.1-.2-.1-.5-.2-.7a4.23,4.23,0,0,0,.7-.5c.2-.4.4-.8.7-1.3a6.89,6.89,0,0,1,2.3-2.2,17.1,17.1,0,0,1,1.1-1.4,37.9,37.9,0,0,1,6.7-6,32.9,32.9,0,0,1,6.1-3.4l-1.2.9c-.7.6.1,1.8.9,1.6,8.9-2.6,16.8-5.2,25.9-5,0,2.5.1,4.9.1,7.4.1,4.3.3,8.5.5,12.8.2,3.6-.1,7.3,1.6,10.6.6,1.2,2.2.7,2.6-.3,1.3-3.5.5-7.5.3-11.2-.2-4.3-.3-8.5-.4-12.8-.1-2-.1-9.5-.2-9.5-.1-5-.1-10,0-15.1.1-8.2.4-16.4.8-24.6.1-3.5-.6-8.5.8-11.7.3-.6,3-4.8,3.8-5.3,5.4-3.6,19.7-3.9,20.8-3.8,6.1.2,9.6,12.8,9.6,13.1.7,2.6,1,5.4,1.5,8.2,1.4,9.2,1.9,18.3-.1,27.4-1.8,7.8-4.4,15.5-6.6,23.2-1.2,4-2.4,8.1-3.6,12.1-.5,1.9-1.1,3.7-1.6,5.6-.2.6-.1,4.2-.6,5.9a14.63,14.63,0,0,0-1,3.9c-.1,1.3,4.5,4.4,5.6,3.8,2.2-1.2.1-10.3.8-12.5,1.6-5.3,1.7-10.7,3.3-16,2.9-9.6,6.6-19.3,8.2-29.3,1.4-9,.6-18.1-.9-27-.4-2.6-2.2-13.4-2.2-13.6a4.08,4.08,0,0,1-.2-.7v-.1c-5.8-11.5-23.4-12-33.9-6a6.78,6.78,0,0,1-1.3,1.8c-2.4,2.4-4.7,5-5.4,8.4-.1.3-.1.7-.2,1l.2-.2c-.9,3.2-.7,7-.9,9.8-.3,4-.5,8.1-.7,12.1-6.3,0-12.3,2.4-17.9,5"/><path class="y" d="M208.77,347.16h0"/><path d="M310.37,301.56c-.2-4.6-.9-9.1-3.4-13.1a1.21,1.21,0,0,0-2.1,1.2c2.8,5.4,3.1,11.7,2.1,17.5a23.32,23.32,0,0,1-4.9,5.5c-4.8,3.7-10.3,4.2-16.1,3.3-1.4-.2-2.1,1.8-.6,2.2a20.17,20.17,0,0,0,15.2-1.6c3.5-1.8,5.3-4.3,7.2-7.1h.1C311.07,308.36,310.47,304.36,310.37,301.56Z"/><path d="M271.27,283.06c-6-2-13.7-.7-19.8.7-6.3,1.5-12.9,4.1-17.9,8.3a.65.65,0,0,0-.2.5.55.55,0,0,0-.6.4c-.8-.1-1.5-.1-2.3-.2l-2.7-1.2c-.3-12.9.9-26.4-.6-39.2,0-.2-.3-.3-.4,0-2,12.5-.7,26.1-.2,38.7a39.61,39.61,0,0,1-5.2-3.1c-1.8-1.3-3.6-2.6-6-2.1-4.2.9-5.3,5.8-4,9.3a.1.1,0,0,0,.1.1,24.8,24.8,0,0,0-9.6,6.9c-1.6,1.9-3.9,5.3-1.1,7.3.9.6,2.6.4,3.5.3,1.1-.1,3.6-1.3,4.6-.9,4.2,1.3,1.4,4.8.4,6.9-1.1,2.3-2.6,5.9.8,7,5.3,1.6,12.3-12.1,15-.9.6,2.5.4,4.7,2.5,4.7-.2,4.4.5,9.8,2.6,13.4a.44.44,0,0,0,.8-.3c-.4-2.3-1.3-4.5-1.7-6.9a44.77,44.77,0,0,1-.6-6.4l.9-.3c4.1-1.5,7.6-5.5,10-9.3a.61.61,0,0,0,.8.1c1.6-1,2.9-2.5,4.5-3.6a35.2,35.2,0,0,0,4.5-3c.6-.6,0-1.4-.8-1.3-1.9.3-3.8,1.7-5.3,2.9a7.63,7.63,0,0,1-1.1.8c2.1-5.8-3.1-17.2-8.1-19.7,6.2-2.7,12-5.6,18.6-7,6.1-1.4,12.2-.8,18.3-1.6A.69.69,0,0,0,271.27,283.06Zm-57.9,7.9c2.1-2.6,4.1-3.1,5.8-1.5,1.4.7,2.7,1.9,4.1,2.6.4.2.9.4,1.3.6a40.91,40.91,0,0,0-11.1,1.8A8.22,8.22,0,0,1,213.37,291Zm24.7,9.4c1.8,3.4,4,9.6.8,13.5l-1.2,2.2c-2.6,3.8-7.6,9.6-10.6,5.5-1.3-1.7-.2-4.7-2.5-5.8s-5.5,1-7.2,2.1l-4.5,3h-.3a2.52,2.52,0,0,1-2.6-2.6v-1.4c0-1.2,1.9-3.1,2.2-4.3s.8-3.7-.7-4.5a2.15,2.15,0,0,0-1.1-.2c-1-.1-2.1.8-3.1.8-1.8,1-6.2.2-6.3-1-.5-1.3,1-4.3,2.2-5.2,2.5-4,9.5-5.9,13.4-6.8a60.6,60.6,0,0,1,17-1C235,296.46,236.87,298.16,238.07,300.36Z"/><path d="M237,264.66a4,4,0,0,0-4.4,5.9,1.22,1.22,0,0,0,2.1,0,.63.63,0,0,0-.2-.8h-.1c-.4-.1-.4.1-.6-.4-.2-.3,0-1,.1-1.3a2.52,2.52,0,0,1,1.8-1.8,2.35,2.35,0,0,1,2.2,1,1.41,1.41,0,0,1,.1,1.4c-.3.5-1,.6-1.2-.1a.72.72,0,0,0-1.4.2c.1,2.2,3,2.4,4,.7A3.52,3.52,0,0,0,237,264.66Z"/><path d="M237.47,282.16a3.37,3.37,0,0,0-4.5.1,3.83,3.83,0,0,0-.6,4.9.38.38,0,0,0,.7-.2c-.1-1.7.4-4.4,2.7-4.1a1.62,1.62,0,0,1,1.3,2.1,1.46,1.46,0,0,1-2.1.4c-.4-.2-1,.3-.7.7a2.34,2.34,0,0,0,3.5,0A2.73,2.73,0,0,0,237.47,282.16Z"/><path d="M239.87,326.56c-.2-1.5-1.3-3-3-2.8a2.35,2.35,0,0,0-1.9,3.3c.3.7,1.5.2,1.2-.5-.5-1.2,1.2-1.7,1.9-.9a2.55,2.55,0,0,1,.4,2.4c-.8,2.5-3.4,2.3-5.1.9a.57.57,0,1,0-.8.8C234.87,332.66,240.37,330.26,239.87,326.56Z"/></svg>