<svg xmlns="http://www.w3.org/2000/svg" viewBox="0 0 163.95 151.02"><defs><style>.a{fill:#fff;}.b{fill:#dec06c;}.c{fill:#010202;}.d{fill:#754f12;}</style></defs><title>Ресурс 1</title><path class="a" d="M26.91,117.08c5.4-2.5,12-1.3,17.9-2a35.38,35.38,0,0,0,16.8-6.4c2.1-1.6,3.9,1.6,2.6,3.3-4.2,5.3-9.4,8.3-15.8,10.1s-15.3,3.3-21.5.1C25.11,121.18,24.91,118.08,26.91,117.08Z"/><path class="a" d="M17.11,125.48c6.7-.8,13.3,0,20-.2a110.52,110.52,0,0,0,40.4-9.5,1.2,1.2,0,0,1,.5-.5c.7-.5,1.4-1,2-1.5a3.44,3.44,0,0,1,.9-.4,2.23,2.23,0,0,1,2.1-.3,87.23,87.23,0,0,0,11.58-7.27c2.9-2.2,6.5,2.6,3.9,5-7.8,7.5-16.2,15.1-26.3,19.2-.5.2-1,.4-1.4.6a47.07,47.07,0,0,1-14.9,6.4c-4.3,1.1-12.8,2.6-19.9,1.8-8.9.1-18.1-1.3-15.4-7.2,0-.1.1-.1.1-.2a36,36,0,0,1-4.8-1.9C14,128.38,15.31,125.68,17.11,125.48Z"/><polyline class="b" points="79.81 137.98 35.12 146.98 11.81 143.68 4.42 125.98 18.11 108.38 60.81 88.68 86.11 76.98 90.11 65.68 84.42 52.98 68.42 34.68 62.41 20.38 78.11 6.68 106.42 4.38 130.81 13.98 148.41 24.68 157.81 39.38 157.12 56.98 154.41 74.38 146.12 88.38 133.81 101.98 120.11 114.38 106.11 122.38 81.11 138.38"/><path class="c" d="M1.31,138.58c3,7,10.3,11,17.5,12.1,9.7,1.4,19.8-1.8,29.4-3.4,10.8-1.9,21.5-3.9,32.3-5.5a2.6,2.6,0,0,0,2.22-2.92s0-.06,0-.08c34.4-14.6,68.2-37.9,79.2-75.2,4.9-16.7,1-33.6-12.1-45.4-12.6-11.4-29.9-17.4-46.7-18.1-14.5-.6-36.3,2.1-42.5,17.6a16.35,16.35,0,0,0,4.5,19.1c7.1,6.1,13.6,11.3,18.2,19.7,2.6,4.7,5.8,10.9,3.2,16.2-1.8,3.8-5.8,6.1-9.4,7.9-8.6,4.3-18.3,6.6-27.5,9.4-16.2,5-33.1,11.8-43.5,25.9C1.41,122.18-2,130.81,1.31,138.58Zm10.9-20.2c5.4-6.8,12.9-11.7,20.7-15.5,14.7-7,31.1-9.8,45.8-16.9,5.3-2.6,10.7-6.3,13.1-12,2.7-6.4-.1-13.2-3.2-19a63,63,0,0,0-13.1-16.9c-2.9-2.6-6.9-4.8-9.1-8-2.4-3.5-1.7-8.1.3-11.6,4.2-7.5,14.2-9.7,22-11a70.29,70.29,0,0,1,25.5.6c14.6,3.1,28.6,10.9,36.4,24,8.7,14.5,2.9,31.2-4.9,44.7-16.5,28.7-44.8,45.8-74.2,59a3.22,3.22,0,0,0-1.59,1.7c-7.7,1.4-15.5,2.7-23.2,4-9.6,1.6-21.2,5-30.8,1.8-4.81-1.6-9.1-5.3-9.5-10.6S9.11,122.38,12.21,118.38Z"/><path class="a" d="M63.41,126.68c5.6-1.3,11.1-1,16.6-3.3,5.9-2.5,9.8-6.2,14.6-10.3a1.7,1.7,0,0,1,2.7,2c-5,10.7-23,19.4-34.2,14.4a1.51,1.51,0,0,1-.68-2A1.49,1.49,0,0,1,63.41,126.68Z"/><path class="a" d="M125.81,17.18c7.1.1,13.6,7,17.4,12.4,5,7.1,8,16.7,8.6,25.4,1.6,3.6-5.4,7.7-7,2.3-2.2-7.5-2.3-15.5-5.8-22.7a29,29,0,0,0-5.3-7.7c-2.7-2.6-5.9-3.6-9-5.5a2.26,2.26,0,0,1,1.1-4.2Z"/><path class="d" d="M109.51,20.68a3.76,3.76,0,0,1,1.7-2.2,3.42,3.42,0,0,1,2.6-.5,4.51,4.51,0,0,1,2.2,1.4,3.26,3.26,0,0,1,.7,2.7,3.68,3.68,0,0,1-7.31-.81,3.84,3.84,0,0,1,.11-.59Z"/><path class="d" d="M98.11,14.38c3,0,3,4.6,0,4.6S95.11,14.38,98.11,14.38Z"/><path class="d" d="M101.11,25.28c3.1,0,3.1,4.9,0,4.9S98,25.28,101.11,25.28Z"/><path class="d" d="M90.11,19.81c2.4,0,2.4,3.8,0,3.8S87.71,19.81,90.11,19.81Z"/><path class="d" d="M84.11,12.81a1,1,0,0,1,.64,1.26.75.75,0,1,1-1.27-.63A1,1,0,0,1,84.11,12.81Z"/><path class="d" d="M78.11,16.48c2.8,0,2.8,4.4,0,4.4S75.31,16.48,78.11,16.48Z"/></svg>