<svg xmlns="http://www.w3.org/2000/svg" viewBox="0 0 585.06 525.54"><defs><style>.a{fill:#d76315;}.b{fill:#c0471e;}.c{fill:#fbc683;}.d{fill:#931914;}.e{fill:#fff;}.f{fill:#36a9e1;}.g{fill:#e764a1;}.h{fill:#e94e1b;}.i{fill:#1c989b;}.j{fill:#72c5c4;}.k{fill:#efab5f;}.l{fill:#faf8f9;}.m{fill:#4aa9af;stroke:#010202;stroke-miterlimit:10;}.n{fill:#b77e43;}.o{fill:#010202;}</style></defs><title>Ресурс 1</title><path class="a" d="M311.08,108.86a16.5,16.5,0,0,0,2.3-4.2,17.3,17.3,0,0,0,1.3-10.9c-1-.2-2-.3-3-.5,1,3.5.7,7.7.3,11A17.07,17.07,0,0,1,311.08,108.86Z"/><path class="b" d="M378.48,103.56c1.3-8.2-1.4-17.3-11.2-17.2a47.81,47.81,0,0,0-7.6.9,16.18,16.18,0,0,1-1.8,1,9,9,0,0,1,2.7.7,8.88,8.88,0,0,1,4.6,5.1c2.5,6.4-1.4,13-3.5,19.2a63.22,63.22,0,0,1,5.3,17.9c1.2-3.1,2.5-6.1,4-9.1C374.28,116.16,377.48,110.26,378.48,103.56Z"/><path class="a" d="M371.68,83.16c6.3,1.3,9.7,6.5,10.7,12.5,2.6,14.9-8,26.7-12.5,39.9a14.25,14.25,0,0,1,11.9-.8,3.08,3.08,0,0,1,.5-1.2c7.3-12,15.1-25.7,12.7-40.3a25.26,25.26,0,0,0-10.3-16.9,18.2,18.2,0,0,0-14.1-3.2A25.31,25.31,0,0,1,365,83,21.44,21.44,0,0,1,371.68,83.16Z"/><path class="c" d="M370.08,143.36a3.59,3.59,0,0,1-1.8.8c.1,3.9.1,7.8-.1,11.9a5.58,5.58,0,0,0,7.3.7,2.75,2.75,0,0,0,1.1-2.7,1,1,0,0,0-.8-1.3,1,1,0,0,0-1.3-.4c-.8-.3-1.2-.4-1.3-1.3a1.18,1.18,0,0,1,.9-1.2c3.1-.6,5.3,1.4,5.7,4.4a6,6,0,0,1-4.1,6.9,8.15,8.15,0,0,1-7.7-.9c-.1,1.2-.2,2.4-.2,3.6,7.3,1.4,14.7,2,17.3-6.9,1.2-4.3.9-9.1-2.3-12.5A9.22,9.22,0,0,0,370.08,143.36Z"/><path class="a" d="M328.88,67.46a18,18,0,0,0-4.4,9.1,13.92,13.92,0,0,0,2.4,9.7c.4.5.7.9,1,1.3,10.5,3.4,20.1,8.2,26,14.2a43.36,43.36,0,0,1,6.6,8.7c2.5-6.6,6.4-15.1-.5-19.1a15.75,15.75,0,0,0-5.9-1.6,19.53,19.53,0,0,1-16.1-2.1c-5.6-3.5-10.5-9.9-9.9-16.8A14,14,0,0,1,328.88,67.46Z"/><path class="c" d="M293.48,201.56c2.3-3.8,8-10.4,21.3-15.9-.4-8.1-8.8-14.5-19-14.5-10.5,0-19.1,6.8-19.1,15.1a6.15,6.15,0,0,0,.1,1.4C286.88,192.76,291.48,198.26,293.48,201.56Z"/><path class="a" d="M348.58,185.26h-1.4c-.5,0-.9.1-1.4.1-21.9,2.6-33.8,8.4-40.2,13.3,10-4.4,23.7-2.9,33.2.1,16.6,5.2,31,15.6,46,24.3,15.7,9.1,32.2,17.3,49.9,21.5,16.2,3.8,33.5,3.9,49.3-1.9a59,59,0,0,0,16.1-8.9,30.42,30.42,0,0,1-11.3,2.3h-1.2c-43.4-2-72-19.3-95-33.2-2-1.2-3.9-2.4-5.8-3.5C372.68,191.06,360.78,184.76,348.58,185.26Z"/><path class="a" d="M349,52.66a31.37,31.37,0,0,1-21.8,3.8,35.25,35.25,0,0,0-5.4,3.3c-7.8,5.9-12.3,14.4-16.7,22.9a115.47,115.47,0,0,1,15,2.7,14.21,14.21,0,0,1,0-11.6c3.2-7.3,13.2-15.6,21.5-13.3a.92.92,0,0,1,.6.4c5,1.7,8.1,7.1,4.4,11.7-1.3,1.6-3.9,1.2-5.2,0s-2.5-3.4-2.4-.3c.1,2.4,2.8,4.8,4.6,6,4.2,2.7,8.8,1.3,12.5-1.8,7.5-6.2,7.9-19.4-2.5-22.8A25.25,25.25,0,0,0,349,52.66Z"/><path class="b" d="M225.38,94.76a23.32,23.32,0,0,0-5.9-11.7c-4.1-4.3-9.5-7.2-15.1-3.7-2.4,1.5-4.9,4-5.3,7,6.9-8,20.6-1.2,20.3,9.7a14.4,14.4,0,0,1-3.6,9.3c-.2,4.2-2,8.1-3.3,12.3-1.9,6.6-.4,12.2,3.5,17.3.4-11,2.4-21,7.6-28.9C225.08,102.26,226.18,99.06,225.38,94.76Z"/><path class="c" d="M208,159.06c-1.8-2-3.1-5.5-1.6-8,1.3-2.3,4.4-4.1,6.7-2.1a2.15,2.15,0,0,1-1,3.6c-1.2.2-2.2.3-2.5,1.6a3.63,3.63,0,0,0,2,4c2,.7,3.5-1.2,4.4-2.8a6.38,6.38,0,0,0,.8-1.4c-.3-3.3-.5-6.5-.7-9.8a3.9,3.9,0,0,1-1.9-.8,9.21,9.21,0,0,0-12.7.9c-3.2,3.4-3.6,8.2-2.3,12.5,2.7,9.4,10.9,8.2,18.6,6.7-.2-1.8-.4-3.7-.6-5.5C214.48,160.66,210.78,162.06,208,159.06Z"/><path class="a" d="M210.68,134.16a22.52,22.52,0,0,1-2.2-10c.1-5.6,2.5-10.7,3.5-16a16.74,16.74,0,0,1-4.4,1.7c-2.9,3.2-5.9,5.6-4.4,11.1,1.2,4.4,3.5,8.8,5.5,12.9C209.48,134,210.08,134.06,210.68,134.16Z"/><path class="a" d="M293.88,76.26c-.9-13.3,1.8-26.8,6.8-39,2.7-6.5,5.8-13,11.9-16.8a36.63,36.63,0,0,1,19.1-5c11.2,0,18.5,13,11.4,22.3a16.35,16.35,0,0,1-14.5,5.8,14.46,14.46,0,0,1-6.9-2.8.35.35,0,0,0,.1.2,11.71,11.71,0,0,0,8.6,5.3,22.1,22.1,0,0,0,19.6-6.8c4.9-5.7,5.9-13.9,1.7-20.2-4.6-6.9-12.8-9.8-20.8-9.9-15.6-.1-32.9,8.9-41.3,22.2a35.55,35.55,0,0,0-3.4,7.5,24.33,24.33,0,0,1-1.2,9.2C285.28,57.76,289.38,67.46,293.88,76.26Z"/><path class="a" d="M151.08,243.46c17.7-4.2,34.2-12.4,49.9-21.5,14.9-8.6,29.3-19.1,46-24.3,9.3-2.9,22.7-4.4,32.7-.3-6.7-4.6-18.4-9.7-38.5-12.1-14.9-1.8-28.9,6.7-46.7,17.4-23,13.9-51.6,31.2-95,33.2a30.5,30.5,0,0,1-12.2-2.1,61.79,61.79,0,0,0,14.6,7.7C117.48,247.36,134.88,247.36,151.08,243.46Z"/><path class="b" d="M265.38,63.66c-6.2-1-14-6.8-15.5-13.1-1.1-4.4,3.2-9,7.4-6.2a1.43,1.43,0,0,1,.6,1.2c.1.1.1.2.2.2a6.66,6.66,0,0,0,1.9,2.8c4.8,1.2,6.9.3,6.2-2.8.3-6-6-6.9-10.3-5.6-8.7,2.4-12.8,9.2-10.1,17.9a34.93,34.93,0,0,0,11.7,16.6c5.8,4.7,12.8,6.3,19.9,7.9a.76.76,0,0,1,.5.2c4.5-.4,8.9-.6,13.2-.7a55.64,55.64,0,0,1-12.7-22.9C274.78,62.56,270.28,64.46,265.38,63.66Z"/><path class="a" d="M206.28,103.06c3.7-1.2,6.8-5.1,6-9.1-.9-4.6-6.4-6-8.9-1.9a3,3,0,0,1-3.6,1.5h-.1a3.31,3.31,0,0,1-2.7-1.9,4.9,4.9,0,0,1-1.1-2,3.82,3.82,0,0,1-.4-1.3c0-.2-.1-.5-.1-.8a13.09,13.09,0,0,1,2.8-8.8c5-5.4,11.8-7,18.2-3.4a27.78,27.78,0,0,1,12.8,16.1,30,30,0,0,1,1.2,7.1,51.86,51.86,0,0,1,11.3-7.2c-10.5-5.7-18.6-15.5-20.6-27.4-13.9-3.8-27.9,10.7-28.6,24.3C191.88,95.66,197.38,105.86,206.28,103.06Z"/><path class="a" d="M249.88,88.06a107.2,107.2,0,0,1,18.2-4.2c-9.5-2.6-18-7.1-23.2-16.4-5.6-9.9-6.1-22.1,4.5-28.7,4-2.5,9.6-4.6,14.3-3,4.3,1.4,7.2,6.2,6.9,10.7-.5,8.2-9.7,8.2-14.1,4.5a5.72,5.72,0,0,0,.8.7c.4.3.8.7,1.2,1a45,45,0,0,0,4.5,3.1c3.6,2,7.3,2.1,10.5-.8a18.28,18.28,0,0,0,3.4-4.5,42.4,42.4,0,0,1,1.5-15c-6.1-12.4-27.8-6-36.9-.9-10.5,5.8-14.1,18-11.3,29.3C232.68,74.16,240.88,82.56,249.88,88.06Z"/><path class="c" d="M279,286.36c-1.6,2.3,5,1.7,6.1,1.4C283.48,286.76,280,285,279,286.36Z"/><path class="c" d="M455.88,325.16c-3.8-2.6-7.3-5.8-11.2-8.3-7.9-4.9-16.5-9-25-13.1-5.4-.8-11-1.7-16.8-2.8-23.4-4.6-54.6-20.1-69.4-29.7-27.6-17.9-36.9-39.4-40.1-52.9-3.1,13.5-12.5,34.9-40,52.8-14.8,9.6-46,25.1-69.4,29.7-9.5,1.9-18.5,3.2-27.1,4.1a3.25,3.25,0,0,1-1.3,1c-16.1,6-32.2,11.6-48.3,17.5-7.1,2.6-23.2,9.5-23.9,9.7a104.36,104.36,0,0,0-14.5,8.3,1,1,0,0,1-.4.7,32.36,32.36,0,0,0-3.6,3.8c-.9,1.1-1.4,1.5-1.2,3s.8,1.9,2.2,2.2a10,10,0,0,0,6.8-1.1,1.76,1.76,0,0,1,.4-.5,11,11,0,0,1,2-2.3c-1.4,1.1.3-.5,1.6-1.2V346a.91.91,0,0,1,1-.3h0a.1.1,0,0,1,.1.1l.2.2a1.21,1.21,0,0,1,.3,1c-.4,1-.7,1-1.5,2-1.7,2.1-7.4,8.9-.5,10.4,3.9.8,9.3-5.5,12.6-7.2,4.8-2.5,13.8-5.7,18.8-2,2.9,2.2,3.8,6.2,6.3,8.7,2.8,2.8,4.1,2.3,5.9-1a27.11,27.11,0,0,0,2.2-6c1-4,1.4-9.4,3.7-13.3a1.49,1.49,0,0,1-.3-1.4c2.1-4.7,8-8.2,12.4-10.6a81.91,81.91,0,0,1,16.5-6.8c6.1-1.8,12.5-2.9,18.7-4.2a93.88,93.88,0,0,1,15.9-2.4c.1-.1.3-.1.5-.2a39.28,39.28,0,0,1,19.3,4.6c3.4,1.8,10.2,5.2,9,10a.7.7,0,0,1-1.3.2,24,24,0,0,0-7.5-6.7,19.86,19.86,0,0,1,3.4,7c1.7,6.4,1.4,13.2,2.6,19.7a115.19,115.19,0,0,0,6.3,21.5,2.53,2.53,0,0,1,.1,1.9c6.7,6.6,15.6,8.7,25.4,10.6a279.85,279.85,0,0,0,37.7,5A187.9,187.9,0,0,0,322,385c5.9-.8,11.9-.9,17.9-1.7,4.5-.6,10.7-2,12.9-6.5-2.5-12.4.8-27.8,4.7-39.6a97.52,97.52,0,0,1,5.4-12.9,43.49,43.49,0,0,1,2.5-6.3c.9-1.9,1.8-4.2,3.4-5.7a12.83,12.83,0,0,1,3.9-4.1,11.36,11.36,0,0,0-2.5.6c-6.4,1.9-10.9,6.8-14.4,12.3a1,1,0,0,1-1.8-1c7.1-13.8,25.2-17.4,39-13.3.3.1,2.1.6,3.5,1.1l.9.3c.4.2.9.4,1.4.6.3.1.5.1.8.2h.1c.1,0,.2,0,.2.1,6.7,2.3,12.7,8.9,19.6,15.3,8.3,7.7,18.2,13.6,24.7,23.1a44.22,44.22,0,0,1,6.1,13c1.1,3.6,3.1,13.3,7.9,13.9,5.3.7,3.5-10.5,4.9-13.3,1-2.1,4-3.1,6.2-3.2,9.8-.4,14.5,7.3,21.5,12.3,2.1,1.5,4.9,2.4,6.9-.2.9-1.2-.1-3.5-.6-4.6-1-2.3-2.9-3.9-4.3-6-1.2-1.9-2.5-4.4-.6-6.4s6.2-1.1,8.7-.6,8.3,2.9,5.9-2.3c-1.5-3.4-4.3-4.7-7.6-5.9-9.5-3.4-18.9-6.6-28.1-10.9A92.06,92.06,0,0,1,455.88,325.16Zm-205,3.3c-6.6,1.3-10.7-3.7-8.9-10a13.22,13.22,0,0,1,10.3-9.3.6.6,0,0,1,.1-.4c3-4.7,9.2,1.1,9.8,4.8C263.28,320.16,257.18,327.26,250.88,328.46Zm33-25.2a1.16,1.16,0,0,1-.9-2.1c3.7-2.7,6.7-7,4.3-11a8.44,8.44,0,0,1-8.7.5c-2.4-1.2-4.6-4.3-2-6.5,2.7-2.4,7.9-.6,10.3,1.2.2.2.5.4.7.6,2.9-3.5.5-9.5-3.6-11.7-4.4-2.3-8.7-.4-13.2.4a.77.77,0,0,1-.7-1.3c6.7-6.8,19.6-2.7,21.6,6.4a10,10,0,0,1-2.2,8.5C292.58,293.76,290.78,302,283.88,303.26Zm41.1,27.4c-5.6,1-13.7-4-14.4-9.9-.8-7.2,6.7-11.8,13-12.4,1-.1,1.3,1.1.8,1.8a11.62,11.62,0,0,1,8.4,8.2C334,323.56,330.38,329.66,325,330.66Z"/><path class="c" d="M494.88,336.76c-.8,0-1.5-.1-2.3-.1,4.2,1.6,9.1,3.2,12.9,5.8C508.38,338.46,496.18,336.86,494.88,336.76Z"/><path class="c" d="M70.78,333.86c-2.5.8-5.8,2.1-6.2,5.1a5.11,5.11,0,0,0,.3,2.1,6.12,6.12,0,0,0,.6-.5c.3-.3.7-.5,1-.8a.37.37,0,0,1,.3-.1c2.8-2,5.6-4,8.5-5.8h-.2a20.31,20.31,0,0,0,2.4-1.3A49.58,49.58,0,0,0,70.78,333.86Z"/><path class="d" d="M320.18,312.46c-3,1.6-6,3.5-6.1,7.1-.1,4.2,6.5,8.3,10.3,7.5s6.1-5.6,4.6-9.1C327.58,314.16,323.88,313.06,320.18,312.46Z"/><path class="d" d="M257.78,310.86a3.55,3.55,0,0,0-.9-.4.6.6,0,0,1-.6.3,12.73,12.73,0,0,0-9.8,5.8c-2.1,3.4-2.2,9,3.1,8.7,4.2-.2,8.3-3.8,9.6-7.7C259.88,315.36,259.88,312.36,257.78,310.86Z"/><path class="a" d="M541.38,212.66c-.1,14.8-2.2,26.9-10.9,37.1-6.2,7.4-14.2,15.3-23.1,21.1a97.85,97.85,0,0,1-36.8,13.9,108.11,108.11,0,0,1-37.2-.5c-25.1-4.5-47.8-17-68.5-31.4-10.6-7.4-20.7-15.4-30.9-23.3s-21.2-18-34.8-17.6c1.6,11.1,8.5,34.2,37.9,53.3,11.2,7.3,42.4,23.9,66.9,28.7,83.2,16.3,125.1-7.7,142.6-23.5,16.8-15.1,25.5-35.2,23.8-55-3.8-44-33.7-63.7-61.8-63.7-19.8,0-30.7,9.9-36,18.6,5.8-3.2,13.8-6,22.5-5.1a3.88,3.88,0,0,1,1.9-.6C523.48,164.46,541.48,187.76,541.38,212.66Z"/><path class="b" d="M51.48,214.66c1,13.3,5.4,24.5,14,33.3,4.4,4.4,9.6,9.7,15.1,13.5,4.3,3,.7.8,11,6.8,20.8,12.3,48.8,10.4,71.3,4,23.1-6.6,43.8-18.5,63.4-32.2,10.6-7.4,20.8-15.2,31.3-22.7,7.3-5.2,15.9-10.5,25-10.7-12.4-9.5-31.2-4.4-44.4,1.8-16.4,7.7-31.2,18.3-47.2,26.7-29.3,15.3-64.9,25.5-96.8,12-17.1-7.2-33.1-26.4-33.2-46.1h0a29.66,29.66,0,0,1,8.7-24.9C57.38,184,50.38,199.36,51.48,214.66Z"/><path class="e" d="M327.88,134.16a3,3,0,1,0,3-3A3.07,3.07,0,0,0,327.88,134.16Z"/><circle class="e" cx="322.28" cy="125.36" r="7.6"/><path class="c" d="M295.78,167.86c12.2,0,22.3,7,23.9,16.1a122.43,122.43,0,0,1,25.4-5.4,44.36,44.36,0,0,1,15,.9c3.3-25.4,4.6-53.5-8.2-68.7-6.8-8.1-19.4-13.3-32.8-16.2.1,3.1-1.6,6.5-3.2,9.4-2.7,5.1-6.7,11.5-12.8,12.8-3.6,1.3-7.8,1.5-11.1-.3-3.7-2-6-6.8-3.7-10.6.9-1.6,3.9-1.5,4.2.6.4,2.3.7,4.2,1.8,5.7a2.51,2.51,0,0,0,.7.4c3.1.9,5.3-2.3,5.6-4.9a10.48,10.48,0,0,0-.1-2.5c-.4-5.2-2.8-8.5-6.1-12.3a1.61,1.61,0,0,1-.4-.7c-20.9.1-46.7,4-60.9,17.7-12.9,12.4-12.3,33.1-9.1,54.5a1.72,1.72,0,0,1,.2,1.2c.7,4.7,1.5,9.4,2.3,14a43.05,43.05,0,0,1,15.6-1.1c12.3,1.5,21.8,3.9,29.1,6.8v-.1c.3.1.5.2.8.3C272.38,175.56,282.88,167.86,295.78,167.86Zm29-56.6c14.7,0,26.7,14,26.7,31.2s-12,31.2-26.7,31.2-26.7-14-26.7-31.2S310,111.26,324.78,111.26Zm-65.6,62.3c-14.7,0-26.7-14-26.7-31.2s12-31.2,26.7-31.2,26.7,14,26.7,31.2S273.88,173.56,259.18,173.56Z"/><path class="b" d="M325.68,35.26a3.54,3.54,0,0,1-.6.1c2.4,3.1,6,4.2,10.3,2.3,4.7-2.2,7-7.4,4.4-12.2-4.3-8.1-18.9-3.9-24.9.3-8,5.7-11.5,18.5-13.6,27.5s-2.4,18-2.2,27.2c4-10.6,10.5-20.9,19.8-27.3-5.5-3.5-9.6-9.4-9.5-16.2.1-4.5,2.6-8.7,7-10.1,4-1.3,6.7.2,10,2.4C328.68,30.76,328.48,34.56,325.68,35.26Z"/><path class="a" d="M298.28,114.36a9.34,9.34,0,0,0,2.3.2,1.61,1.61,0,0,1,.7-.4,21.07,21.07,0,0,0,4-1.1,12,12,0,0,0,4-4.6,14.42,14.42,0,0,0,.2-12.5c-.5-1.1-1.2-2.1-1.8-3.2-2.5-.3-4.9-.5-7.3-.6,4,5,5.3,13.2,2.4,18.4A8.33,8.33,0,0,1,298.28,114.36Z"/><path class="e" d="M279.88,140.86a21.33,21.33,0,0,1-41.2,0v1.6c0,13.9,9.3,25.2,20.7,25.2s20.7-11.3,20.7-25.2A4.68,4.68,0,0,1,279.88,140.86Z"/><circle class="e" cx="253.48" cy="128.96" r="7.6"/><path class="e" d="M324.78,167.56c11.4,0,20.7-11.3,20.7-25.2v-1.6a21.33,21.33,0,0,1-41.2,0v1.6C304.08,156.26,313.38,167.56,324.78,167.56Z"/><circle class="e" cx="267.58" cy="134.16" r="4.2"/><path class="b" d="M394.68,236.26c-16-8.4-30.9-19-47.2-26.7-13.2-6.2-32-11.3-44.4-1.8,9,.2,17.7,5.5,25,10.7,10.5,7.5,20.7,15.4,31.3,22.7,19.6,13.6,40.3,25.6,63.4,32.2,22.6,6.4,50.5,8.3,71.3-4,10.3-6.1,6.7-3.8,11-6.8,5.5-3.8,10.7-9,15.1-13.5,8.7-8.8,13-20.1,14-33.3,1-13-3.9-26.1-13-34.5,5.6,8.4,6.5,18.5,2.3,28.9-1.6,18.1-15.8,31.3-32,38.1C459.58,261.76,424,251.56,394.68,236.26Z"/><path class="f" d="M218.28,393.86a1.38,1.38,0,0,1-.3.4,11.78,11.78,0,0,0-2.5,1.9,2,2,0,0,0-.5,1.8c.2.8,1.1.9,1.9,1.1a11.07,11.07,0,0,0,4.8-.3c2.1-.7,3.3-3,1.9-5S219.78,392.66,218.28,393.86Z"/><path class="g" d="M435.08,426.16c-7.3.3-14.7,1.5-22.1,1.4a.78.78,0,0,1-.7-.3,10,10,0,0,0-2.6,2.1,13,13,0,0,0-2.9,5.1c-1.2,4.4,3.2,4.5,6.3,4.1,7.4-1,14.9-2.2,22.3-3.3,3.4-.5,11.2-.1,10.8-5.4C445.88,424.36,438.38,426,435.08,426.16Z"/><path class="h" d="M342.68,419.36c-2.9.6-5.9,1.3-8.7,2.1a104.72,104.72,0,0,0-18.7,7.6,1.76,1.76,0,0,1-2.4-.7c-2.9,1.3-2.8,2.7.2,4.3,2.9,2.9,3.1,2.3,6.4.9,3-1.2,6-2.5,9.1-3.5a135.54,135.54,0,0,1,20.8-5.5c.2-1.7.3-4-.5-4.9C347.78,418.36,344.08,419.16,342.68,419.36Z"/><path class="i" d="M400.08,352.46c.1,0,.2.1.3.1.6.3.2,1.2-.5,1.1-3.9-1.1-8.2,2.6-7.1,6.6,1,3.6,5.1,4.4,8.2,3.5,3.6-1,6.4-4.6,5-8.4C405,352.66,402.48,352.36,400.08,352.46Z"/><path class="h" d="M416.18,404.46a3.73,3.73,0,0,0-1-4.8l-.1-.1a22.06,22.06,0,0,0-5.1.5c-3.1,1-7.8,5-2.9,7C410.18,408.46,414.68,407.76,416.18,404.46Z"/><path class="g" d="M244.68,451.86h-.3a4.35,4.35,0,0,1,.6.7.38.38,0,0,1-.4.6c-1.8-.3-4.3.2-5.3,1.9-1.3,2.2.6,4.2,2.4,5.2,2.8,1.6,8.9,3.1,10.1-1S248,452.26,244.68,451.86Z"/><path class="g" d="M269.88,404.66a16,16,0,0,0-4.4-.4c-2.8.3-7,3.8-3.1,6a11.09,11.09,0,0,0,7.6.8C273.78,409.86,273.48,405.86,269.88,404.66Z"/><path class="a" d="M182.58,294c24.6-4.8,55.7-21.4,66.9-28.7,29.9-19.4,36.6-42.9,38-53.8a2.65,2.65,0,0,1-.6-.5c-13.8-.8-25.1,9.5-35.4,17.5s-20.3,15.9-30.9,23.3c-20.7,14.4-43.4,26.9-68.5,31.4a108.08,108.08,0,0,1-37.2.5c-12.8-2.2-26-6.9-36.8-13.9-8.9-5.8-16.9-13.7-23.1-21.1-8.7-10.3-10.8-22.4-10.9-37.1-.1-24.8,20.8-46.7,46.9-46.4a2,2,0,0,1,.8.1c8.5-.7,16.3,2.1,22,5.2-5.3-8.8-16.2-18.6-36-18.6-28,0-58,19.7-61.8,63.7-1.7,19.9,7,39.9,23.8,55C57.58,286.16,99.48,310.26,182.58,294Z"/><path class="i" d="M188.08,414c-5.3.4-10.6,1.2-15.9,1.8-9.4,1.1-19.2,1.3-28.3,4.2-.2.1-.3.3-.6.4-3.2,1.3-8.4,4.3-7.1,8.7a18.23,18.23,0,0,0,2.6,4.5c4.4,4.6,13,.6,18.1-.6,10.8-2.6,21.7-5,32.5-7.9,1.4-.4,2.8-.7,4.1-1.2,2.1-.7,4.6-3.1,4.6-5.5C198.08,414.16,190.78,413.76,188.08,414Z"/><path class="g" d="M89.48,373.66c-1.4-.6-4.9.5-6.4.6-4,.4-8,.7-12,1.1a220.33,220.33,0,0,0-23,3.7,1.2,1.2,0,0,1-.2.8c-2,3.3-2.8,7.4,1.8,9.1a11,11,0,0,0,5.1.3,50.47,50.47,0,0,0,10.2-2.4c4.1-1.2,8.3-2.4,12.3-3.9,3.7-1.3,8.2-2.6,11.5-4.9,2.2-.5,2.8-2.1,1.8-4.6C90.28,373.56,89.88,373.56,89.48,373.66Z"/><path class="j" d="M110.18,406.36a13.54,13.54,0,0,0-3.8,1.9c.1.1.2.4,0,.5a3.07,3.07,0,0,0-1.2,4.1c.8,1.4,2.7,1.8,4.2,1.9,2.8.1,6.1-1,7.3-3.7C118.58,406.66,113.48,405.36,110.18,406.36Z"/><path class="k" d="M568.88,401.46c-3.3,4.2-5.5,8.1-5.9,13.5-.3,4.2-.2,8.4-2.1,12.3-7.1,14.9-27.3,11.5-39.9,7.9-8.9-2.5-19.9-5.8-28,.4-6.6,5-7.7,14-10.3,21.4-2.5,7.1-6.2,13.8-13.3,17.1-7.3,3.4-15.7,2.4-23.2,0-17.5-5.5-40.1-25.6-55.4-5.3-5,6.6-7.9,14.5-12.8,21.2a42.86,42.86,0,0,1-17.1,13.9c-13.4,6.2-29.5,6.7-43,.7-7.2-3.2-12.6-8.2-17.8-14-3.3-3.8-6.7-8.6-11.9-9.6-4-.7-7.6.6-11,2.7-6.3,4-11,10-17.1,14.2a22,22,0,0,1-21.6,2.2c-18.8-7.8-22.6-31-40-40.1-21.1-11-43.3,3-60.1,15.3-12.3,9-32.6,20.9-45.6,6.2-11.6-13.1-5.9-31.9-5.9-47.5,0-10-2.8-20.1-12.4-24.7-8.8-4.2-18.9-3.3-28.2-2.1-8,1.1-19.9,2.6-29.7.5,2.6,8.6,2.6,18,6.8,26.2,5.1,9.8,13.2,17.9,21.8,24.8,19.2,15.3,41.9,26.3,65,34.2,41.1,14,85.1,20.1,128.2,24.1,43.7,4,87.8,4.7,131.4-.5,43.8-5.2,87.5-16.3,127.6-35,19.5-9.1,39.7-19.6,55.2-34.8,13.6-13.4,23.5-32.3,21.6-51.6C572.48,397.26,570.58,399.26,568.88,401.46Z"/><path class="j" d="M138.58,375.86a12.41,12.41,0,0,0-2.7-.3c-2.8,2.2-5,5.3-1.5,7.9,2,1.6,6.2,2.4,8.5.9C147.58,381.26,141.88,376.66,138.58,375.86Z"/><path class="i" d="M531.88,363.46a1.44,1.44,0,0,1,.7,1.1v.3a1.15,1.15,0,0,1-.6.9c-.1,0-.1.1-.2.1h-.1c.5.4.3,1-.5,1.8-.2.5-.5,1.1-.7,1.6-.8,1.6-1.7,3.1-2.6,4.6-1.5,2.5-3.1,5-4.8,7.4s-3.7,4.9-5.7,7.2c-.9,1-2.5,2.1-2.9,3.2-1.3,3,2.4,4,4.7,3.1,6.2-2.1,9.9-10.6,13.3-15.8,1.9-3,4.7-6.2,5.3-9.8S535,361.16,531.88,363.46Z"/><path class="h" d="M174.68,374.46c.7,2.4,2.6,8.1,5.3,9.1,1.2,1.5,2.3,1,3.4-1.5v-2c0-1.8-.1-3.6-.2-5.4a112.09,112.09,0,0,0-1.2-11.5c-.6-3.6-1.4-7.2-2.3-10.7-1.1-4.3-2.5-12.1-9.5-7.8.9,6.9,1.7,13.9,2.7,20.8A84.28,84.28,0,0,0,174.68,374.46Z"/><path d="M285.88,142.46c0-17.2-12-31.2-26.7-31.2s-26.7,14-26.7,31.2,12,31.2,26.7,31.2S285.88,159.56,285.88,142.46ZM267.58,130a4.2,4.2,0,1,1-4.2,4.2A4.23,4.23,0,0,1,267.58,130Zm-14.1-8.6a7.6,7.6,0,1,1-7.6,7.6A7.6,7.6,0,0,1,253.48,121.36Zm5.7,46.2c-11.4,0-20.7-11.3-20.7-25.2v-1.6a21.33,21.33,0,0,0,41.2,0v1.6C279.88,156.26,270.58,167.56,259.18,167.56Z"/><path d="M324.78,173.56c14.7,0,26.7-14,26.7-31.2s-12-31.2-26.7-31.2-26.7,14-26.7,31.2S310,173.56,324.78,173.56Zm9-39.4a3,3,0,1,1-3-3A3.07,3.07,0,0,1,333.78,134.16Zm-11.5-16.4a7.6,7.6,0,1,1-7.6,7.6A7.6,7.6,0,0,1,322.28,117.76Zm-18.2,23.1a21.33,21.33,0,0,0,41.2,0v1.6c0,13.9-9.3,25.2-20.7,25.2s-20.7-11.3-20.7-25.2A4.68,4.68,0,0,0,304.08,140.86Z"/><path d="M565.78,337.66c-8.3-6.3-17.9-10.4-27.4-14.4q-15.3-6.45-30.9-12.3-9.75-3.6-19.5-6.9c32.6-5.4,52.6-18.4,63.6-28.3,18.5-16.6,28-38.8,26.1-60.8-4.1-48.4-37.5-70.1-68.7-70.1-30,0-44.5,20.7-46.9,34.6l-1.9,10.7,7.7-7.6c.9-.9,22.2-21.2,43-2.6,10,8.9,9,19.4,6.9,25.9-.1.1-.1.2-.1.4s-.1.2-.1.3c-.2.5-.3.9-.5,1.3-5.1,12.4-17.9,21.7-29.1,21.2-41.6-1.9-69.4-18.7-91.7-32.2-10.6-6.4-20.4-12.3-30.1-15.7.5-3.6.9-7.2,1.2-10.7,4.9,3.1,10,4.3,16.3,2,6.9-2.6,10.8-10.4,11.2-17.4a20.8,20.8,0,0,0-7.2-16.7,3.18,3.18,0,0,0,1-1c10.8-15.1,19.1-34.9,10.9-53.2a30,30,0,0,0-16-15.7,24.36,24.36,0,0,0-11.9-1.4,21.08,21.08,0,0,0-3.6-12.1,19.85,19.85,0,0,0-11.7-8.2,27.37,27.37,0,0,0,6.9-13.4c3.6-18.9-12.9-32.5-30.5-33.3-18.4-.9-37.8,9.2-48.6,23.9a24.18,24.18,0,0,0-2.5,4c-8.8-9.7-26.1-7-37.5-2.9-13.9,5.1-23.1,17-23.6,31.9-10.8-3.3-22.8,4.8-29,13.5-7.4,10.4-9.7,26.9,1.1,35.9a16.88,16.88,0,0,0,7.5,3.6,13.93,13.93,0,0,0-2.7,7.9c0,6,3.4,11.5,6.8,16.4-8.3,2.1-15.2,11.2-14.6,20.7.4,7,4.3,14.8,11.2,17.4,6.3,2.3,12.4.7,17.8-2.6.5,3.9,1,7.7,1.5,11.5-9.5,3.4-19,9.2-29.3,15.4-22.3,13.5-50.1,30.3-91.7,32.2-11.3.5-24-8.8-29.1-21.2-2.5-6.2-5.1-18,6.1-27.9,20.7-18.5,42.1,1.7,43,2.6l7.7,7.6-1.9-10.7c-2.4-13.9-16.9-34.6-46.9-34.6-31.2,0-64.6,21.7-68.7,70.1-1.9,22.1,7.6,44.3,26.1,60.8,12.5,11.3,36.7,26.5,77.8,30-31.4,9-63.7,20.1-88.3,42.3a101.38,101.38,0,0,0-16.1,18.5c-4.9,7.2-9.9,16-8.7,25.1,1.1,8.2,6,12.7,12.5,15.1,1.9,8.6,2.2,18.9,6.1,27.7,4,9.1,10.6,16.8,17.9,23.5,16,14.4,35.5,25,55.2,33.4,41.5,17.4,86.8,24.6,131.3,29.6,90.5,10.3,185.9,5.7,270.3-31.1,39.7-17.3,95.3-48.6,85.6-100.1a30.92,30.92,0,0,0,4-7.1C589.58,365.46,579.08,347.66,565.78,337.66Zm-68.4-172.9a2.88,2.88,0,0,0-1.9.6c-8.8-.9-16.7,2-22.5,5.1,5.3-8.8,16.2-18.6,36-18.6,28,0,58,19.7,61.8,63.7,1.7,19.9-7,39.9-23.8,55-17.6,15.8-59.5,39.8-142.6,23.5-24.6-4.8-55.7-21.4-66.9-28.7-29.4-19.1-36.4-42.2-37.9-53.3,13.5-.4,24.6,9.6,34.8,17.6s20.3,15.9,30.9,23.3c20.7,14.4,43.4,26.9,68.5,31.4a108.08,108.08,0,0,0,37.2.5c12.8-2.2,26-6.9,36.8-13.9,8.9-5.8,16.9-13.7,23.1-21.1,8.7-10.3,10.8-22.4,10.9-37.1C541.48,187.76,523.48,164.46,497.38,164.76Zm1.6,179.4c3.3,1.2,6.1,2.6,7.6,5.9,2.4,5.2-3.4,2.8-5.9,2.3s-6.7-1.6-8.7.6c-1.9,2-.6,4.5.6,6.4,1.3,2.1,3.3,3.7,4.3,6,.5,1.1,1.5,3.4.6,4.6-2,2.6-4.8,1.7-6.9.2-7-5-11.7-12.7-21.5-12.3-2.2.1-5.2,1.1-6.2,3.2-1.4,2.8.5,14-4.9,13.3-4.8-.6-6.8-10.2-7.9-13.9a48.28,48.28,0,0,0-6.1-13c-6.5-9.4-16.4-15.4-24.7-23.1-7-6.4-12.9-13-19.6-15.3-.1,0-.1-.1-.2-.1h-.1c-.3-.1-.5-.1-.8-.2-.5-.2-1-.4-1.4-.6l-.9-.3c-1.4-.5-3.2-1-3.5-1.1-13.8-4.1-31.8-.5-39,13.3a1,1,0,0,0,1.8,1c3.5-5.5,8-10.3,14.4-12.3l2.5-.6a12.83,12.83,0,0,0-3.9,4.1,16.63,16.63,0,0,0-3.4,5.7,55,55,0,0,0-2.5,6.3,103.48,103.48,0,0,0-5.4,12.9c-4,11.8-7.3,27.2-4.7,39.6-2.2,4.4-8.4,5.9-12.9,6.5-5.9.7-11.9.9-17.9,1.7a204.94,204.94,0,0,1-37.5,1.8,282,282,0,0,1-37.7-5c-9.8-1.9-18.6-4-25.4-10.6a2.54,2.54,0,0,0-.1-1.9,123.28,123.28,0,0,1-6.3-21.5c-1.2-6.5-.9-13.3-2.6-19.7a19.06,19.06,0,0,0-3.4-7,25.16,25.16,0,0,1,7.5,6.7.7.7,0,0,0,1.3-.2c1.2-4.8-5.5-8.2-9-10a37.22,37.22,0,0,0-19.3-4.6c-.2,0-.3.1-.5.2a95.42,95.42,0,0,0-15.9,2.4c-6.3,1.3-12.6,2.3-18.7,4.2a81.91,81.91,0,0,0-16.5,6.8c-4.3,2.4-10.3,5.9-12.4,10.6a1.2,1.2,0,0,0,.3,1.4c-2.3,3.9-2.7,9.2-3.7,13.3a25.39,25.39,0,0,1-2.2,6c-1.8,3.3-3,3.8-5.9,1-2.5-2.5-3.4-6.5-6.3-8.7-5-3.8-14-.5-18.8,2-3.3,1.7-8.7,8-12.6,7.2-6.9-1.5-1.2-8.2.5-10.4.8-1,1.1-1,1.5-2a1,1,0,0,0-.3-1l-.2-.2-.1-.1h0a.71.71,0,0,0-1,.3v.1c-1.3.7-3,2.3-1.6,1.2a11,11,0,0,0-2,2.3,1.76,1.76,0,0,1-.4.5,9.49,9.49,0,0,1-6.8,1.1c-1.4-.3-2-.7-2.2-2.2s.3-1.9,1.2-3a32.36,32.36,0,0,1,3.6-3.8,1.27,1.27,0,0,0,.4-.7,110.49,110.49,0,0,1,14.5-8.3c.7-.2,16.8-7.1,23.9-9.7,16.1-5.9,32.3-11.5,48.3-17.5a2.68,2.68,0,0,0,1.3-1c8.5-.9,17.5-2.2,27.1-4.1,23.4-4.6,54.6-20.1,69.4-29.7,27.5-17.8,36.9-39.3,40-52.8,3.1,13.5,12.5,35,40.1,52.9,14.8,9.6,46,25.1,69.4,29.7,5.8,1.1,11.4,2.1,16.8,2.8,8.4,4.1,17,8.2,25,13.1,4,2.5,7.4,5.7,11.2,8.3a98.83,98.83,0,0,0,15,8.1C480.08,337.56,489.48,340.76,499,344.16Zm-6.4-7.5c.8,0,1.5.1,2.3.1,1.3.1,13.5,1.7,10.6,5.7C501.68,339.86,496.78,338.26,492.58,336.66ZM75.28,334a98,98,0,0,0-8.5,5.8c-.1,0-.2.1-.3.1a7,7,0,0,0-1,.8,1.41,1.41,0,0,0-.6.5,5.11,5.11,0,0,1-.3-2.1c.4-3,3.7-4.3,6.2-5.1a30.39,30.39,0,0,1,6.7-1.2,20.31,20.31,0,0,1-2.4,1.3C75.18,334,75.18,334,75.28,334ZM271,185.16c-7.3-2.9-16.8-5.3-29.1-6.8a43.05,43.05,0,0,0-15.6,1.1c-.8-4.6-1.6-9.3-2.3-14a1.64,1.64,0,0,0-.2-1.2c-3.1-21.3-3.7-42.1,9.1-54.5,14.3-13.8,40.1-17.7,60.9-17.7a2.51,2.51,0,0,0,.4.7c3.3,3.8,5.7,7.1,6.1,12.3a10.48,10.48,0,0,1,.1,2.5c-.2,2.6-2.5,5.8-5.6,4.9a2.51,2.51,0,0,1-.7-.4c-1.1-1.4-1.4-3.3-1.8-5.7-.3-2-3.3-2.1-4.2-.6-2.3,3.8.1,8.6,3.7,10.6,3.4,1.8,7.5,1.6,11.1.3,6-1.3,10.1-7.7,12.8-12.8,1.6-2.9,3.3-6.3,3.2-9.4,13.4,2.8,25.9,8.1,32.8,16.2,12.8,15.1,11.6,43.2,8.2,68.7a44.36,44.36,0,0,0-15-.9,131,131,0,0,0-25.4,5.4c-1.5-9.1-11.6-16.1-23.9-16.1-12.8,0-23.4,7.8-24,17.5-.3-.1-.5-.2-.8-.3Zm55.5-155.8c-3.3-2.1-6-3.6-10-2.4-4.4,1.4-6.9,5.6-7,10.1-.1,6.8,4,12.7,9.5,16.2-9.3,6.4-15.8,16.8-19.8,27.3a103.87,103.87,0,0,1,2.2-27.2c2.1-9,5.6-21.9,13.6-27.5,6-4.2,20.6-8.4,24.9-.3,2.5,4.7.3,10-4.4,12.2a7.94,7.94,0,0,1-10.3-2.3,1.27,1.27,0,0,1,.6-.1C328.48,34.56,328.68,30.76,326.48,29.36Zm-26.1,62.8c2.4.1,4.9.3,7.3.6.6,1,1.2,2.1,1.8,3.2a14.42,14.42,0,0,1-.2,12.5,10.06,10.06,0,0,1-4,4.6,32.56,32.56,0,0,1-4,1.1,1.61,1.61,0,0,0-.7.4,9.34,9.34,0,0,1-2.3-.2,8,8,0,0,0,4.4-3.7C305.68,105.36,304.38,97.16,300.38,92.16Zm11.3,1.1c1,.1,2,.3,3,.5,1,3.6.2,7.5-1.3,10.9a23.29,23.29,0,0,1-2.3,4.2,17.12,17.12,0,0,0,.9-4.5C312.38,101.06,312.68,96.86,311.68,93.26Zm26.3-5.5a19.53,19.53,0,0,0,16.1,2.1c1.9.3,4,.4,5.9,1.6,6.9,4,3,12.5.5,19.1a39.94,39.94,0,0,0-6.6-8.7c-5.9-5.9-15.4-10.8-26-14.2-.3-.4-.6-.8-1-1.3a13.92,13.92,0,0,1-2.4-9.7,18,18,0,0,1,4.4-9.1,14,14,0,0,0-.8,3.4C327.48,77.86,332.38,84.26,338,87.76Zm-42.2,83.4c10.3,0,18.6,6.5,19,14.5-13.3,5.4-19,12.1-21.3,15.9-2-3.3-6.6-8.8-16.7-13.9a6.6,6.6,0,0,1-.1-1.4C276.68,178,285.18,171.16,295.78,171.16Zm227.7,39c4.1-10.4,3.2-20.5-2.3-28.9,9.1,8.4,14,21.5,13,34.5-1,13.3-5.4,24.5-14,33.3-4.4,4.4-9.6,9.7-15.1,13.5-4.3,3-.7.8-11,6.8-20.8,12.3-48.8,10.4-71.3,4-23.1-6.6-43.8-18.5-63.4-32.2-10.6-7.4-20.8-15.2-31.3-22.7-7.3-5.2-15.9-10.5-25-10.7,12.4-9.5,31.2-4.4,44.4,1.8,16.4,7.7,31.2,18.3,47.2,26.7,29.3,15.3,64.9,25.5,96.8,12C507.68,241.46,521.88,228.26,523.48,210.16Zm-136.8-10.8c1.9,1.1,3.8,2.3,5.8,3.5,23,13.9,51.6,31.2,95,33.2h1.2a30,30,0,0,0,11.3-2.3,57.59,57.59,0,0,1-16.1,8.9c-15.8,5.7-33.1,5.7-49.3,1.9-17.7-4.2-34.2-12.4-49.9-21.5-14.9-8.6-29.3-19.1-46-24.3-9.5-2.9-23.2-4.5-33.2-.1,6.4-4.9,18.3-10.7,40.2-13.3a6.6,6.6,0,0,1,1.4-.1h1.4C360.78,184.76,372.68,191.06,386.68,199.36Zm-19.5-68.2a63.22,63.22,0,0,0-5.3-17.9c2-6.2,6-12.7,3.5-19.2a9.59,9.59,0,0,0-4.6-5.1,9,9,0,0,0-2.7-.7,16.18,16.18,0,0,0,1.8-1,38.5,38.5,0,0,1,7.6-.9c9.8-.1,12.4,9,11.2,17.2-1,6.7-4.3,12.6-7.3,18.5A57.17,57.17,0,0,0,367.18,131.16Zm17.9,25.7c-2.6,8.9-10,8.3-17.3,6.9.1-1.2.2-2.4.2-3.6a8.74,8.74,0,0,0,7.7.9,6,6,0,0,0,4.1-6.9c-.5-3-2.6-5-5.7-4.4a1.18,1.18,0,0,0-.9,1.2c.1.9.5,1,1.3,1.3a1,1,0,0,1,1.3.4,1,1,0,0,1,.8,1.3,2.57,2.57,0,0,1-1.1,2.7,5.58,5.58,0,0,1-7.3-.7c.2-4,.2-8,.1-11.9a3.59,3.59,0,0,0,1.8-.8,9.21,9.21,0,0,1,12.7.9C386,147.76,386.38,152.56,385.08,156.86Zm-14.5-83.7a18.29,18.29,0,0,1,14.1,3.2A25.26,25.26,0,0,1,395,93.26c2.4,14.7-5.4,28.3-12.7,40.3a6.12,6.12,0,0,0-.5,1.2,13.89,13.89,0,0,0-11.9.8c4.6-13.3,15.2-25,12.5-39.9-1.1-6-4.5-11.2-10.7-12.5a21,21,0,0,0-6.6-.2A23.89,23.89,0,0,0,370.58,73.16ZM356,76.46c-3.6,3-8.2,4.5-12.5,1.8-1.8-1.2-4.5-3.6-4.6-6-.1-3.1,1.2-.8,2.4.3s3.9,1.6,5.2,0c3.7-4.6.5-10-4.4-11.7a2.09,2.09,0,0,0-.6-.4c-8.3-2.3-18.4,6-21.5,13.3a13.83,13.83,0,0,0,0,11.6,135.27,135.27,0,0,0-15-2.7c4.4-8.5,8.9-17,16.7-22.9a40.86,40.86,0,0,1,5.4-3.3,31.37,31.37,0,0,0,21.8-3.8,23.55,23.55,0,0,1,4.6,1C364,57,363.48,70.26,356,76.46Zm-69.7-37.6a27.7,27.7,0,0,1,3.4-7.5C298,18,315.28,9.06,331,9.16c8,.1,16.2,3,20.8,9.9,4.2,6.4,3.2,14.5-1.7,20.2-4.6,5.4-12.6,8-19.6,6.8-3.4-.6-6.8-2.2-8.6-5.3,0-.1-.1-.1-.1-.2a12.72,12.72,0,0,0,6.9,2.8,16.11,16.11,0,0,0,14.5-5.8c7.1-9.2-.1-22.2-11.4-22.3-6.3,0-13.7,1.6-19.1,5-6.1,3.8-9.2,10.4-11.9,16.8-5.1,12.3-7.8,25.8-6.8,39-4.5-8.8-8.6-18.5-8.8-28.2A25,25,0,0,0,286.28,38.86Zm4.8,43.2c-4.3.1-8.7.3-13.2.7a.76.76,0,0,0-.5-.2c-7.1-1.6-14.1-3.2-19.9-7.9a34.93,34.93,0,0,1-11.7-16.6c-2.7-8.8,1.5-15.5,10.1-17.9,4.3-1.2,10.6-.3,10.3,5.6.7,3.1-1.3,4-6.2,2.8a10.65,10.65,0,0,1-1.9-2.8c-.1-.1-.1-.2-.2-.2a1.56,1.56,0,0,0-.6-1.2c-4.2-2.7-8.5,1.9-7.4,6.2,1.5,6.4,9.4,12.1,15.5,13.1,5,.8,9.5-1.1,13-4.5A55.14,55.14,0,0,0,291.08,82.06Zm-49.6-47.5c9.1-5,30.7-11.4,36.9.9a40,40,0,0,0-1.5,15,16.12,16.12,0,0,1-3.4,4.5c-3.2,2.9-6.9,2.8-10.5.8a27.68,27.68,0,0,1-4.5-3.1c-.4-.3-.8-.7-1.2-1a2.7,2.7,0,0,1-.8-.7c4.4,3.7,13.6,3.7,14.1-4.5.3-4.5-2.7-9.3-6.9-10.7-4.7-1.5-10.3.6-14.3,3-10.5,6.6-10.1,18.8-4.5,28.7,5.3,9.2,13.7,13.8,23.2,16.4a109.46,109.46,0,0,0-18.2,4.2c-9-5.5-17.2-13.9-19.7-24.2C227.38,52.56,231,40.36,241.48,34.56Zm-49.2,53.8c.7-13.5,14.6-28.1,28.6-24.3,2,11.9,10.2,21.6,20.6,27.4a50.55,50.55,0,0,0-11.3,7.2,26.35,26.35,0,0,0-1.2-7.1,28.09,28.09,0,0,0-12.8-16.1c-6.4-3.6-13.3-2-18.2,3.4-1.5,1.7-3.2,5.8-2.8,8.8,0,.3.1.6.1.8a9.29,9.29,0,0,0,.4,1.3,4.33,4.33,0,0,0,1.1,2,3.9,3.9,0,0,0,2.7,1.9h.1a3.12,3.12,0,0,0,3.6-1.5c2.5-4.2,8-2.7,8.9,1.9.8,4-2.4,7.9-6,9.1C197.38,105.86,191.88,95.66,192.28,88.36Zm11,32.6c-1.5-5.5,1.5-7.9,4.4-11.1a18.2,18.2,0,0,0,4.4-1.7c-1,5.3-3.4,10.4-3.5,16a19.86,19.86,0,0,0,2.2,10,12.5,12.5,0,0,0-1.9-.3C206.78,129.76,204.48,125.36,203.28,121Zm-4.1,35.9c-1.2-4.3-.9-9.1,2.3-12.5a9.2,9.2,0,0,1,12.7-.9,3.55,3.55,0,0,0,1.9.8c.1,3.2.4,6.5.7,9.8a10,10,0,0,0-.8,1.4c-.9,1.5-2.4,3.4-4.4,2.8a3.56,3.56,0,0,1-2-4c.3-1.3,1.3-1.3,2.5-1.6a2.19,2.19,0,0,0,1-3.6c-2.3-2-5.3-.2-6.7,2.1-1.4,2.5-.2,6,1.6,8,2.8,3.1,6.5,1.6,9.2-1,.2,1.8.4,3.7.6,5.5C210.08,165.06,202,166.36,199.18,156.86Zm16.8-22c-3.9-5.1-5.5-10.7-3.5-17.3,1.2-4.2,3.1-8.1,3.3-12.3a14.19,14.19,0,0,0,3.6-9.3c.3-10.8-13.4-17.7-20.3-9.7.4-3,2.9-5.5,5.3-7,5.6-3.4,11-.5,15.1,3.7a22.19,22.19,0,0,1,5.9,11.7c.8,4.3-.3,7.5-1.8,11.2C218.38,113.86,216.38,124,216,134.86ZM99.38,236c43.4-2,72-19.3,95-33.2,17.8-10.7,31.8-19.2,46.7-17.4,20.1,2.4,31.8,7.5,38.5,12.1-10-4.1-23.4-2.6-32.7.3-16.6,5.2-31,15.6-46,24.3-15.7,9.1-32.2,17.3-49.9,21.5-16.2,3.8-33.5,3.9-49.3-1.9a61.79,61.79,0,0,1-14.6-7.7A33.07,33.07,0,0,0,99.38,236ZM61,201.06h0c.1,19.7,16,38.9,33.2,46.1,32,13.5,67.6,3.3,96.8-12,16-8.4,30.9-19,47.2-26.7,13.2-6.2,32-11.3,44.4-1.8-9,.2-17.7,5.5-25,10.7-10.5,7.5-20.7,15.4-31.3,22.7-19.6,13.6-40.3,25.6-63.4,32.2-22.6,6.4-50.5,8.3-71.3-4-10.3-6.1-6.7-3.8-11-6.8-5.5-3.8-10.7-9-15.1-13.5-8.7-8.8-13-20.1-14-33.3-1.2-15.3,5.9-30.8,18.2-38.5A29.87,29.87,0,0,0,61,201.06Zm-21,69.4c-16.8-15.1-25.5-35.2-23.8-55,3.8-44,33.7-63.7,61.8-63.7,19.8,0,30.7,9.9,36,18.6-5.7-3.1-13.5-5.9-22-5.2-.2,0-.5-.1-.8-.1-26.1-.3-47,21.6-46.9,46.4.1,14.8,2.2,26.9,10.9,37.1,6.2,7.4,14.2,15.3,23.1,21.1a97.85,97.85,0,0,0,36.8,13.9,108.11,108.11,0,0,0,37.2-.5c25.1-4.5,47.8-17,68.5-31.4,10.6-7.4,20.7-15.4,30.9-23.3,10.3-8.1,21.6-18.3,35.4-17.5a2.65,2.65,0,0,0,.6.5c-1.5,10.8-8.1,34.4-38,53.8-11.2,7.3-42.4,23.9-66.9,28.7C99.48,310.26,57.58,286.16,40,270.46Zm512.8,176.3c-15.5,15.3-35.6,25.7-55.2,34.8-40.1,18.7-83.7,29.8-127.6,35-43.6,5.2-87.8,4.5-131.4.5-43.1-4-87.1-10-128.2-24.1-23.2-7.9-45.8-18.9-65-34.2-8.6-6.9-16.7-14.9-21.8-24.8-4.3-8.2-4.3-17.6-6.8-26.2,9.8,2.1,21.8.6,29.7-.5,9.3-1.3,19.4-2.2,28.2,2.1,9.6,4.6,12.4,14.8,12.4,24.7,0,15.6-5.7,34.3,5.9,47.5,13,14.7,33.3,2.8,45.6-6.2,16.8-12.3,39-26.3,60.1-15.3,17.5,9.1,21.2,32.3,40,40.1a22.51,22.51,0,0,0,21.6-2.2c6.2-4.2,10.8-10.3,17.1-14.2,3.3-2.1,7-3.5,11-2.7,5.3,1,8.6,5.8,11.9,9.6,5.2,5.9,10.5,10.8,17.8,14,13.5,6,29.6,5.5,43-.7a42.86,42.86,0,0,0,17.1-13.9c4.9-6.7,7.8-14.6,12.8-21.2,15.3-20.3,37.9-.2,55.4,5.3,7.5,2.3,15.9,3.4,23.2,0,7.1-3.3,10.8-10,13.3-17.1,2.6-7.3,3.7-16.3,10.3-21.4,8.1-6.2,19.1-2.9,28-.4,12.6,3.6,32.9,7,39.9-7.9,1.8-3.9,1.8-8.1,2.1-12.3.4-5.4,2.7-9.3,5.9-13.5,1.7-2.2,3.6-4.2,5.4-6.3C576.28,414.46,566.38,433.36,552.78,446.76Zm22.3-61.9h0c-.3.5-.7,1-1,1.5a7.1,7.1,0,0,1-1,1.4h0c-.6.7-1.2,1.5-1.8,2.2-5.1,5.6-11.1,9.8-13.7,17.2-2.8,7.7.7,18.1-8.3,22.3-6.9,3.2-15.5,2-22.6,0-14.4-4.1-33.3-9.4-42.6,6.4-7.5,12.7-6.3,35-26.1,34.6-18.7-.4-32.7-17.7-51.8-16.8-17.8.9-23.3,17.7-32,30.1s-23.9,18.5-38.7,17.8a44.58,44.58,0,0,1-20.7-6.2c-6.7-4.1-10.9-11-17.6-15.1-13.3-8.1-23.9,2.4-34.6,9.5-7,4.6-14.7,7.7-22.8,3.7-9-4.5-14.1-13.4-19.7-21.3-5-7.1-10.5-13.6-18.7-17.1-7.6-3.3-16.4-4-24.6-3-19.3,2.5-32.8,15.9-48.8,25.3-8.8,5.2-19.5,9.4-28.5,2.4-6.7-5.2-8.2-14.3-8.3-22.3-.3-16,5.9-34.1-5.2-47.9-10.8-13.5-30-10.7-45-8.6-10.1,1.4-21.6,2.7-30.6-3.2-11.3-7.4-4.5-20.2,1.2-28.9,19-29,52.6-44.1,84.2-55.3,7.6-2.7,15.3-5.2,23-7.7,3.8.2,7.8.3,11.9.3,2.6,0,5.3-.1,8.1-.2q-17.7,6.75-35.1,13.8a202.1,202.1,0,0,0-19.5,9,2.3,2.3,0,0,0-.9.3c-6.9-.6-29.3,4.3-21.5,14.6a2.34,2.34,0,0,0,.7.7,8,8,0,0,0-.8,1.6c-1.2,2.7-1.1,5.8.8,7.1a9.52,9.52,0,0,0,7.9.9c-.1.2-.2.5-.3.7-.9,2.9-.1,5.4,2.7,6.7,3.8,1.7,7.9-.4,10.9-2.6,5.1-3.7,10.5-7.8,17.3-6.7,6.2,1,8,8.2,12.3,12,2.5,2.2,5.6,2.8,8.4.7,3.7-2.7,4.2-6.8,4-10.9-.3-7.1.4-12.6,5.8-17.6a1.61,1.61,0,0,0,.4-.7,72.49,72.49,0,0,1,6.7-4.6,86.09,86.09,0,0,1,15.2-6.8,122.14,122.14,0,0,1,31.7-6.3c5.1-.3,10.8-.1,15.2,2.6,4.8,3,6.4,8.8,7.3,14.1,2,12,3.2,23.6,6.9,35.2,0,.1.1.2.1.4s.1.4.2.5.1.1.1.2c3.4,8.9,14.8,12.4,23.5,14.2,15,3.1,30.2,5.7,45.5,6.5,15.7.8,30.6-1.3,46.2-2.6,6.8-.6,14.8-.6,20.2-4.1a13.25,13.25,0,0,0,2.5-1.6,11.37,11.37,0,0,0,3.1-1.7,8,8,0,0,0,2.3-2.9,3.39,3.39,0,0,0,1.1-2.4c.3-5.4-.5-10.9-.1-16.4a87.87,87.87,0,0,1,2.9-16.9c2.1-7.9,5.1-18.2,11.1-24.6a19.23,19.23,0,0,1,1.3-1.7,26,26,0,0,1,6.2-5.2,17.1,17.1,0,0,1,2.3-1.3c.5-.2,1-.4,1.6-.6a.6.6,0,0,0,.4-.1,16,16,0,0,0,2.3-.3h.7a12.46,12.46,0,0,1,4.5.8,10.34,10.34,0,0,1,2.6,1.2c.4.2.7.4,1.1.6a7.85,7.85,0,0,1,2.3,1.6c8.4,4.9,15,12.4,22.2,19.2,4.2,3.9,9,7.1,13.1,11.2a50.13,50.13,0,0,1,10.5,16.3c2.8,6.8,5.7,19.6,15.4,19.7,3.2,0,4.6-2.5,4.9-5.5.2-2.4-.1-5.1-.1-7.5-.1-2.1-1.2-5.2,2.6-5.7a16.9,16.9,0,0,1,4.4,1.2c5.8,1.8,9.3,6,13.7,9.8,3,2.7,7.2,5.5,11.5,4.6a7.13,7.13,0,0,0,5.5-6.3c.5-4.8-3.1-7-5.4-10.5-.6-1-3.4-2.9-1.3-4.4.9-.6,5.7,1.4,6.4,1.7,1.7.7,3.4,1.6,5.3,1.3,3.3-.5,4.7-3.4,4.4-6.5a11.91,11.91,0,0,0-3.4-7.3c2.3-4-.4-8-4.4-9.8-5.2-2.4-12.5-2.5-18.1-1.2a187,187,0,0,1-30.6-17.1,129.59,129.59,0,0,0-19.6-11c7.2.6,14.1.9,20.6.9,6.1,0,11.9-.3,17.3-.7,20.8,6.7,41.4,14.2,61.5,22.6,17.5,7.3,38.4,16.5,43.2,36.9A25.52,25.52,0,0,1,575.08,384.86Z"/><path d="M252.38,308.76a.6.6,0,0,0-.1.4,13.36,13.36,0,0,0-10.3,9.3c-1.8,6.3,2.3,11.3,8.9,10,6.3-1.2,12.4-8.3,11.3-14.9C261.68,309.86,255.38,304.06,252.38,308.76Zm6.7,8.9c-1.4,3.9-5.4,7.5-9.6,7.7-5.3.3-5.1-5.3-3.1-8.7a12.73,12.73,0,0,1,9.8-5.8.6.6,0,0,0,.6-.3,3.55,3.55,0,0,1,.9.4C259.88,312.36,259.88,315.36,259.08,317.66Z"/><path d="M324.38,310.06c.5-.7.2-1.9-.8-1.8-6.2.6-13.7,5.2-13,12.4.6,6,8.8,10.9,14.4,9.9,5.4-1,9-7.1,7.8-12.4A12,12,0,0,0,324.38,310.06Zm.1,17c-3.8.8-10.4-3.3-10.3-7.5.1-3.6,3-5.5,6.1-7.1,3.7.6,7.3,1.7,8.9,5.5C330.58,321.46,328.38,326.26,324.48,327.06Z"/><path d="M291.68,279.86c-2.1-9.1-15-13.1-21.6-6.4a.77.77,0,0,0,.7,1.3c4.5-.8,8.7-2.8,13.2-.4,4.1,2.1,6.5,8.1,3.6,11.7a4.35,4.35,0,0,0-.7-.6c-2.4-1.8-7.6-3.6-10.3-1.2-2.5,2.2-.3,5.3,2,6.5a8.22,8.22,0,0,0,8.7-.5c2.4,4-.6,8.3-4.3,11a1.16,1.16,0,0,0,.9,2.1c6.9-1.3,8.6-9.5,5.6-14.9A10.26,10.26,0,0,0,291.68,279.86Zm-12.7,6.5c1-1.4,4.5.4,6.1,1.4C284,288.06,277.38,288.66,279,286.36Z"/><path d="M190.58,411.16c-9.1-.3-18.9,2-28,3.1-5.9.7-12.6,1-18.4,3a1.58,1.58,0,0,0-1.9-.5c-4.1,1.7-11.2,5.9-10.6,11.3.2,2.2,2.1,4.4,3.2,6.2,1.5,2.5,3.3,4.3,6.2,4.8,6.7,1.3,15-2.7,21.4-4.4,9.5-2.5,19-5.2,28.5-7.5,4.4-1.1,10.6-2.5,10-8.3C200.58,413.66,195.28,411.26,190.58,411.16Zm2.9,12.8c-1.4.5-2.8.8-4.1,1.2-10.7,2.9-21.7,5.3-32.5,7.9-5.1,1.2-13.7,5.2-18.1.6a20.25,20.25,0,0,1-2.6-4.5c-1.2-4.4,3.9-7.4,7.1-8.7a2.09,2.09,0,0,0,.6-.4c9-2.8,18.9-3.1,28.3-4.2,5.3-.6,10.6-1.5,15.9-1.8,2.8-.2,10.1.2,10.1,4.5C198.18,420.86,195.58,423.26,193.48,424Z"/><path d="M251.78,451.16a12.24,12.24,0,0,0-17.1,1.2c-.8.9.3,2.5,1.4,1.8.4-.3.9-.5,1.3-.8a5.94,5.94,0,0,0-1.4,4c.5,6.1,10,9,15,7.3C257.08,462.36,256,454.76,251.78,451.16Zm0,8c-1.2,4.1-7.3,2.6-10.1,1-1.8-1-3.7-3.1-2.4-5.2,1-1.7,3.5-2.1,5.3-1.9a.38.38,0,0,0,.4-.6,4.35,4.35,0,0,0-.6-.7h.3C248,452.26,253,455.16,251.78,459.16Z"/><path d="M262.28,402.26a.66.66,0,0,0-.4.5,7,7,0,0,0-3.6,5.3c-.6,5.4,7.5,6.8,11.5,6.1,4.2-.7,7.8-4.8,5.7-9.1C273.08,400.06,266.58,399.86,262.28,402.26Zm7.7,8.9a11.09,11.09,0,0,1-7.6-.8c-4-2.2.3-5.7,3.1-6a12.7,12.7,0,0,1,4.4.4C273.48,405.86,273.78,409.86,270,411.16Z"/><path d="M144.48,387.66c5.4-2.6,4.8-9.6.7-13.2a14.28,14.28,0,0,0-5.2-2.7,1.29,1.29,0,0,0-1.8-.7c-.2.1-.3.2-.5.2a13.41,13.41,0,0,0-10.4,2.4c-.9.7-.1,2.2.9,2.2s2.2-.1,3.2-.2a6.73,6.73,0,0,0-1.3,7.9C132.38,388.06,140.18,389.76,144.48,387.66Zm-10.1-4.2c-3.5-2.7-1.3-5.7,1.5-7.9a12.41,12.41,0,0,1,2.7.3c3.3.8,9,5.4,4.3,8.5C140.58,385.86,136.38,385.06,134.38,383.46Z"/><path d="M169.78,363.56c.7,4.9,1.3,9.9,3.1,14.6,1.5,3.6,8.9,15.4,13,7.6,1.9-3.6.4-9-.1-12.8a170.14,170.14,0,0,0-3.3-17.3c-.9-3.7-1.5-10.6-4.5-13.3-2.4-2.2-5.6-.8-7.9.8,0-.4-.1-.7-.1-1.1a1.57,1.57,0,1,0-3.1.4C167.78,349.46,168.78,356.46,169.78,363.56Zm10-11c.9,3.5,1.7,7.1,2.3,10.7a109.24,109.24,0,0,1,1.2,11.5c.1,1.8.2,3.6.2,5.4v2c-1.1,2.5-2.2,3-3.4,1.5-2.8-1.1-4.6-6.7-5.3-9.1a66.8,66.8,0,0,1-1.8-8.9c-1-6.9-1.8-13.8-2.7-20.8C177.28,340.46,178.58,348.26,179.78,352.56Z"/><path d="M352.28,425.86c.3-2.8.7-7.4-1.6-9.6s-6.4-.7-9-.2a99.93,99.93,0,0,0-25.7,8.7.9.9,0,0,0-.5-.1c-3.9.2-7.9,2.5-8.5,6.8-.5,3.6,2.2,6.4,5.6,6.9,5.5.8,11.9-3.7,16.8-5.4a136.76,136.76,0,0,1,21.8-5.6A1.74,1.74,0,0,0,352.28,425.86Zm-2.9-1.3a148.07,148.07,0,0,0-20.8,5.5c-3.1,1.1-6.1,2.3-9.1,3.5-3.4,1.4-3.5,2-6.4-.9-3-1.6-3.1-3-.2-4.3a1.85,1.85,0,0,0,2.4.7,104.72,104.72,0,0,1,18.7-7.6q4.35-1.2,8.7-2.1c1.4-.3,5.1-1,6.2.3C349.68,420.56,349.58,422.86,349.38,424.56Z"/><path d="M420.08,403.46c.4-4.1-4.4-9.9-8.5-7.2a15.53,15.53,0,0,0-8.7,4.2c-4.2,4.5-.2,9.9,5,10.8S419.48,409.36,420.08,403.46Zm-10.1-3.3a17.68,17.68,0,0,1,5.1-.5l.1.1a3.73,3.73,0,0,1,1,4.8c-1.5,3.3-6,4-9.1,2.7C402.18,405.16,406.88,401.06,410,400.16Z"/><path d="M535.58,358.66c-3.5-.7-6.4.9-7,4.5a1.72,1.72,0,0,0,.8,1.6c-.3.4-.5.9-.8,1.4-1.8,3-3.5,6.1-5.4,9a111.74,111.74,0,0,1-7.1,9.5c-1.7,2.1-4.2,4.1-5.6,6.4-1.8,3-.7,5.5,2.5,6.7,4,1.6,8.5,0,11.6-2.6,4.3-3.6,7.1-9.2,10.2-13.8,2.9-4.4,6.8-9.1,6.6-14.6C541.18,363.06,539.38,359.46,535.58,358.66Zm2.1,10.6c-.6,3.5-3.4,6.8-5.3,9.8-3.4,5.1-7.1,13.6-13.3,15.8-2.4.8-6-.1-4.7-3.1.5-1.1,2.1-2.3,2.9-3.2q3-3.45,5.7-7.2c1.7-2.4,3.3-4.8,4.8-7.4.9-1.5,1.8-3,2.6-4.6.2-.5.5-1.1.7-1.6.8-.8,1-1.4.5-1.8h.1c.1,0,.1-.1.2-.1a.8.8,0,0,0,.6-.9v-.3a1.23,1.23,0,0,0-.7-1.1C535,361.16,538.28,365.66,537.68,369.26Z"/><path d="M409.38,354.66c-1.4-4.8-8.7-8.6-12.1-3.7a.62.62,0,0,0-.1.7,6.32,6.32,0,0,0-4.1.8,7.39,7.39,0,0,0-3.8,5.8c-.6,6.5,5.4,10,11.2,9C406.48,366.26,411.18,360.76,409.38,354.66Zm-8.4,9.1c-3.2.9-7.3,0-8.2-3.5-1.1-4,3.2-7.7,7.1-6.6.6.2,1.1-.8.5-1.1-.1,0-.2-.1-.3-.1,2.5-.2,5,.1,6,2.9C407.48,359.16,404.68,362.76,401,363.76Z"/><path d="M85.88,371c-13.6,1.3-27.3,2.2-40.3,6.9a.84.84,0,0,0-.5,1.2c-1.8,2.8-2.5,6.5-.7,9.5,2,3.3,7,3.8,10.5,3.5,5.8-.4,11.6-2.5,17.2-4.2a111,111,0,0,0,18.4-7.1c2.6-1.3,6.9-3.8,5.5-7.5C94.38,369.46,88.88,370.66,85.88,371Zm3,7.2c-3.3,2.3-7.8,3.6-11.5,4.9-4.1,1.5-8.2,2.7-12.3,3.9a50.47,50.47,0,0,1-10.2,2.4,14.5,14.5,0,0,1-5.1-.3c-4.6-1.7-3.8-5.8-1.8-9.1a1.2,1.2,0,0,0,.2-.8,177.7,177.7,0,0,1,23-3.7c4-.4,8-.8,12-1.1,1.6-.1,5-1.2,6.4-.6a3.75,3.75,0,0,0,1.1-.1C91.58,376.06,91,377.66,88.88,378.16Z"/><path d="M352.08,446.76c-3.4-.8-8,2-8.1,5.6a8.26,8.26,0,0,0-.7,1.3,5.63,5.63,0,0,0-.7,1.8,9.44,9.44,0,0,0-.3.9,3.7,3.7,0,0,0,2.2,4c4.1,2.1,8.8-1.5,11.2-4.6C358.18,452.16,356.28,447.76,352.08,446.76Zm1.2,7.9c-1.4,1.7-3.5,3.6-5.6,4.1-1.5.3-3.3-.2-3.7-1.9a3,3,0,0,1,.7-2.7c.1-.1.2-.1.3-.2s.2-.4.3-.5c1.5-1.3,2.4-3.2,4.5-3.9A3.16,3.16,0,0,1,353.28,454.66Z"/><path class="l" d="M578.28,365.26c-4.8-20.4-25.7-29.6-43.2-36.9q-30.3-12.6-61.5-22.6c-5.5.5-11.3.7-17.3.7-6.5,0-13.4-.3-20.6-.9a129.59,129.59,0,0,1,19.6,11,187,187,0,0,0,30.6,17.1c5.5-1.3,12.9-1.2,18.1,1.2,4,1.9,6.7,5.8,4.4,9.8a12.18,12.18,0,0,1,3.4,7.3c.3,3.1-1.1,6-4.4,6.5-1.9.3-3.6-.6-5.3-1.3-.8-.3-5.6-2.3-6.4-1.7-2.2,1.5.6,3.4,1.3,4.4,2.3,3.5,5.9,5.7,5.4,10.5a6.91,6.91,0,0,1-5.5,6.3c-4.3.9-8.4-1.9-11.5-4.6-4.3-3.8-7.9-8.1-13.7-9.8-.8-.2-3.7-1.3-4.4-1.2-3.7.5-2.6,3.6-2.6,5.7a47.11,47.11,0,0,1,.1,7.5c-.3,3-1.7,5.6-4.9,5.5-9.7-.1-12.6-12.9-15.4-19.7a51.83,51.83,0,0,0-10.5-16.3c-4-4.1-8.9-7.3-13.1-11.2-7.2-6.8-13.8-14.3-22.2-19.2a11.87,11.87,0,0,0-2.3-1.6,10.91,10.91,0,0,0-1.1-.6,12.27,12.27,0,0,0-2.6-1.2,12.46,12.46,0,0,0-4.5-.8h-.7a18.1,18.1,0,0,1-2.3.3.6.6,0,0,0-.4.1,7.58,7.58,0,0,0-1.6.6,17.1,17.1,0,0,0-2.3,1.3,26,26,0,0,0-6.2,5.2,19.23,19.23,0,0,0-1.3,1.7c-5.9,6.4-8.9,16.7-11.1,24.6a87.87,87.87,0,0,0-2.9,16.9c-.3,5.5.4,10.9.1,16.4a3.85,3.85,0,0,1-1.1,2.4,8,8,0,0,1-2.3,2.9,11.37,11.37,0,0,1-3.1,1.7,13.25,13.25,0,0,1-2.5,1.6c-5.3,3.5-13.3,3.5-20.2,4.1-15.5,1.4-30.5,3.5-46.2,2.6-15.3-.8-30.5-3.4-45.5-6.5-8.6-1.8-20.1-5.3-23.5-14.2,0-.1-.1-.1-.1-.2s-.1-.4-.2-.5-.1-.2-.1-.4c-3.7-11.6-4.9-23.2-6.9-35.2-.9-5.3-2.4-11.1-7.3-14.1-4.5-2.8-10.1-2.9-15.2-2.6a122.14,122.14,0,0,0-31.7,6.3,76.72,76.72,0,0,0-15.2,6.8c-2.3,1.3-4.4,3.1-6.7,4.6a1.27,1.27,0,0,1-.4.7c-5.4,5-6.1,10.5-5.8,17.6.2,4.1-.3,8.2-4,10.9-2.8,2-5.9,1.5-8.4-.7-4.4-3.8-6.1-11-12.3-12-6.8-1.1-12.2,3.1-17.3,6.7-3,2.2-7.1,4.3-10.9,2.6-2.8-1.3-3.6-3.8-2.7-6.7.1-.2.2-.5.3-.7a8.84,8.84,0,0,1-7.9-.9c-1.9-1.3-2-4.4-.8-7.1a11.94,11.94,0,0,1,.8-1.6,2.34,2.34,0,0,1-.7-.7c-7.8-10.2,14.7-15.2,21.5-14.6a2.3,2.3,0,0,1,.9-.3,213.86,213.86,0,0,1,19.5-9c11.7-4.8,23.4-9.3,35.1-13.8-2.8.1-5.5.2-8.1.2-4.1,0-8.1-.1-11.9-.3-7.7,2.5-15.4,5-23,7.7-31.5,11.2-65.2,26.3-84.2,55.3-5.7,8.7-12.5,21.5-1.2,28.9,9,5.9,20.5,4.6,30.6,3.2,15-2.1,34.2-4.9,45,8.6,11.1,13.8,4.9,31.9,5.2,47.9.1,7.9,1.7,17.1,8.3,22.3,9.1,7,19.7,2.8,28.5-2.4,16-9.4,29.6-22.8,48.8-25.3,8.2-1.1,17-.4,24.6,3,8.1,3.6,13.6,10.1,18.7,17.1,5.6,7.9,10.7,16.8,19.7,21.3,8.1,4,15.8.9,22.8-3.7,10.7-7.1,21.3-17.6,34.6-9.5,6.7,4.1,10.8,11,17.6,15.1a44.58,44.58,0,0,0,20.7,6.2c14.8.8,30.1-5.4,38.7-17.8s14.2-29.3,32-30.1c19-.9,33.1,16.4,51.8,16.8,19.8.4,18.6-21.9,26.1-34.6,9.4-15.8,28.2-10.5,42.6-6.4,7.1,2,15.6,3.2,22.6,0,9-4.2,5.5-14.6,8.3-22.3,2.7-7.4,8.7-11.6,13.7-17.2a19.17,19.17,0,0,0,1.8-2.2h0a7.1,7.1,0,0,0,1-1.4,12.13,12.13,0,0,0,1-1.4h.1A24.57,24.57,0,0,0,578.28,365.26Zm-487.9,15.5a116.7,116.7,0,0,1-18.4,7.1c-5.5,1.7-11.4,3.8-17.2,4.2-3.5.3-8.5-.2-10.5-3.5-1.8-3-1.1-6.7.7-9.5a.91.91,0,0,1,.5-1.2c13-4.7,26.7-5.6,40.3-6.9,3-.3,8.5-1.5,10,2.3S93,379.36,90.38,380.76Zm26.3,33.3c-2.9,2.6-8.9,3.6-11.9.7a4.32,4.32,0,0,1-.9-5.1.59.59,0,0,1-.1-.7c1.9-4,7.9-6.2,12-4.4C119.68,406.36,119.58,411.46,116.68,414.06Zm53.2-72.1c0,.4.1.7.1,1.1,2.4-1.5,5.5-3,7.9-.8,2.9,2.7,3.6,9.6,4.5,13.3a170.14,170.14,0,0,1,3.3,17.3c.5,3.8,2,9.1.1,12.8-4.1,7.8-11.5-3.9-13-7.6-1.8-4.6-2.5-9.6-3.1-14.6-.9-7-1.9-14.1-2.9-21.1A1.57,1.57,0,1,1,169.88,342Zm-39.7,41.6c-1.5-3.1-.6-5.7,1.3-7.9-1.1.1-2.1.2-3.2.2a1.3,1.3,0,0,1-.9-2.2c2.7-2.3,6.7-3,10.4-2.4.2-.1.3-.2.5-.2a1.32,1.32,0,0,1,1.8.7,16.1,16.1,0,0,1,5.2,2.7c4.1,3.5,4.7,10.5-.7,13.2C140.18,389.76,132.38,388.06,130.18,383.56Zm60.8,43.6c-9.6,2.3-19,5-28.5,7.5-6.4,1.7-14.7,5.7-21.4,4.4a8.92,8.92,0,0,1-6.2-4.8c-1.1-1.8-3-4.1-3.2-6.2-.6-5.5,6.5-9.6,10.6-11.3a1.5,1.5,0,0,1,1.9.5c5.8-2.1,12.5-2.3,18.4-3,9.1-1.1,18.8-3.3,28-3.1,4.7.1,10,2.5,10.4,7.8C201.58,424.76,195.38,426.16,191,427.16Zm32.6-27.1a10.2,10.2,0,0,1-5.4,1.2c-1.6,0-3.7.1-4.8-1.2-2.7-3.1.9-6.7,3.8-7.7a.6.6,0,0,1,.4-.1,4.87,4.87,0,0,1,7.1-.2A5.18,5.18,0,0,1,223.58,400.06Zm27.3,64.5c-5,1.8-14.5-1.2-15-7.3a6.11,6.11,0,0,1,1.4-4,5.67,5.67,0,0,0-1.3.8c-1.1.8-2.2-.9-1.4-1.8a12.35,12.35,0,0,1,17.1-1.2C256,454.76,257.08,462.36,250.88,464.56Zm18.8-50.4c-4,.7-12.1-.7-11.5-6.1a7,7,0,0,1,3.6-5.3,1.76,1.76,0,0,1,.4-.5c4.3-2.4,10.8-2.2,13.2,2.8C277.48,409.36,273.88,413.46,269.68,414.16Zm59.7,18.7c-4.9,1.8-11.3,6.3-16.8,5.4-3.5-.5-6.1-3.3-5.6-6.9.6-4.3,4.6-6.5,8.5-6.8a.75.75,0,0,1,.5.1,102.57,102.57,0,0,1,25.7-8.7c2.6-.5,6.7-1.9,9,.2s1.9,6.8,1.6,9.6c-.1.6-.4,1.4-1.1,1.5A134.07,134.07,0,0,0,329.38,432.86Zm26.2,22.8c-2.3,3.2-7.1,6.8-11.2,4.6a3.83,3.83,0,0,1-2.2-4,2.39,2.39,0,0,1,.3-.9,13.36,13.36,0,0,1,.7-1.8,5.39,5.39,0,0,1,.7-1.3c.1-3.6,4.7-6.4,8.1-5.6C356.28,447.76,358.18,452.16,355.58,455.66Zm33.8-97.4a7.55,7.55,0,0,1,3.8-5.8,6.1,6.1,0,0,1,4.1-.8,1.48,1.48,0,0,1,.1-.7c3.4-4.9,10.7-1.1,12.1,3.7,1.7,6.1-2.9,11.7-8.8,12.6S388.78,364.76,389.38,358.26Zm13.5,42.2a15.22,15.22,0,0,1,8.7-4.2c4.1-2.7,8.9,3.1,8.5,7.2-.6,5.9-6.9,8.8-12.2,7.8C402.68,410.46,398.58,405,402.88,400.46Zm45.5,33.3c-.9,1.3-1.8,1.4-3.3,1.7-3.4.7-6.9,1-10.3,1.5-6.9,1-13.7,1.9-20.6,2.8-2.9.4-8.3,2.5-9.8-1.5-2.7-7.5,7.1-15.6,13.8-14.9a1,1,0,0,1,.8.5,117.31,117.31,0,0,1,14.2-1.8c3.8-.3,11.1-1.9,14.4.9C450,425.16,450.18,431.16,448.38,433.76Zm86.3-52.4c-3,4.6-5.9,10.2-10.2,13.8-3.2,2.6-7.6,4.2-11.6,2.6-3.2-1.3-4.3-3.8-2.5-6.7,1.4-2.3,3.9-4.3,5.6-6.4a111.74,111.74,0,0,0,7.1-9.5c1.9-2.9,3.7-6,5.4-9,.3-.5.5-1,.8-1.4a1.72,1.72,0,0,1-.8-1.6c.6-3.5,3.5-5.2,7-4.5,3.9.8,5.7,4.5,5.7,8.2C541.38,372.36,537.58,377.06,534.68,381.36Z"/><path class="h" d="M349.68,449.66c-2,.7-2.9,2.6-4.5,3.9-.1.1-.2.4-.3.5s-.2.2-.3.2a3,3,0,0,0-.7,2.7c.4,1.6,2.2,2.2,3.7,1.9,2.2-.4,4.3-2.4,5.6-4.1C355.58,451.86,353,448.46,349.68,449.66Z"/><path d="M433.18,422.16A114.84,114.84,0,0,0,419,424a.89.89,0,0,0-.8-.5c-6.7-.8-16.5,7.4-13.8,14.9,1.5,4,6.9,1.8,9.8,1.5,6.9-.9,13.8-1.8,20.6-2.8,3.4-.5,6.9-.8,10.3-1.5,1.4-.3,2.4-.4,3.3-1.7,1.8-2.6,1.6-8.6-.9-10.7C444.28,420.16,437,421.76,433.18,422.16Zm2.2,13-22.3,3.3c-3.1.4-7.5.3-6.3-4.1a12.35,12.35,0,0,1,2.9-5.1,10,10,0,0,1,2.6-2.1.91.91,0,0,0,.7.3c7.3.1,14.7-1.1,22.1-1.4,3.3-.1,10.8-1.7,11.2,3.7S438.78,434.76,435.38,435.16Z"/><path d="M115.78,404.66c-4.1-1.8-10.1.4-12,4.4a.88.88,0,0,0,.1.7,4.32,4.32,0,0,0,.9,5.1c3.1,2.9,9,1.9,11.9-.7S119.68,406.36,115.78,404.66Zm.9,6.4c-1.2,2.7-4.5,3.8-7.3,3.7-1.5,0-3.4-.5-4.2-1.9a3,3,0,0,1,1.2-4.1.28.28,0,0,0,0-.5,13.54,13.54,0,0,1,3.8-1.9C113.48,405.36,118.58,406.66,116.68,411.06Z"/><path d="M217.58,392.36a.6.6,0,0,0-.4.1c-2.9,1-6.5,4.7-3.8,7.7,1.2,1.3,3.2,1.2,4.8,1.2a10.2,10.2,0,0,0,5.4-1.2,5.21,5.21,0,0,0,1.1-7.9A4.78,4.78,0,0,0,217.58,392.36Zm4,6.3a9.73,9.73,0,0,1-4.8.3c-.8-.1-1.6-.3-1.9-1.1a2,2,0,0,1,.5-1.8,9.2,9.2,0,0,1,2.5-1.9c.1-.1.2-.3.3-.4,1.5-1.2,3.8-2.2,5.2-.1S223.68,398,221.58,398.66Z"/><path class="m" d="M281,138.56c0,12.9-9,21.6-20.9,21.6s-23.4-11.3-21.4-23.3c1.2-7,1.6,15.3,21,15.4C278.78,152.16,281,129.06,281,138.56Z"/><path class="m" d="M345.68,139.76c0,12.9-9,21.6-20.9,21.6s-23.4-11.3-21.4-23.3c1.2-7,1.6,15.3,21,15.4C343.38,153.46,345.68,130.26,345.68,139.76Z"/><path class="n" d="M293.48,218.76c1.3.3,2.1,5.3,2.1,5.3l2.5,7.3-3.8,1-4.7-2.6Z"/><path class="n" d="M293.68,218.46s-3.1,7.6-3,7.8a12.89,12.89,0,0,0,2.8-.1l5.5-.5-4.1-3.2Z"/><path class="o" d="M302.48,229.56c-1.5,2-5.7,1.3-7.8,1.1a14.68,14.68,0,0,1-8.6-3.8c-1.9-1.6-4,1.6-2.1,3.2,3.5,2.9,6.1,4.6,10.6,5,3.4.3,5.9,1,8.6-1.9C304.78,231.36,304,227.56,302.48,229.56Z"/><path class="o" d="M298.58,221.86a9.13,9.13,0,0,1-6.3.3c-1.9-.6-2.4-1.5-4.4-1.4-2.5.1-3.8,3.8-1.3,4.2s4.6,1.3,6.9,1.6c2.1.3,4.5.4,6.3-.7C301.08,224.76,301,221,298.58,221.86Z"/></svg>