<svg xmlns="http://www.w3.org/2000/svg" viewBox="0 0 759.82 1121.04"><defs><style>.a{fill:#f99bda;}.b{fill:#4abc96;}.c{fill:#61c19e;}.d{fill:#d1b646;}.e{fill:#fff;}.f{fill:#9af0f7;}.g{fill:#c5f264;}.h{fill:#daa931;}.i{fill:#f9d3c0;}.j{fill:#ffdaab;}.k{fill:#db93d4;}.l{fill:#e5dfdf;}.m{fill:#f4c69d;}.n{fill:#b25c22;}.o{fill:#b74b25;}.p{fill:#f9ea7d;}.q{fill:#ce7c21;}.r{fill:#ede16e;}.s{fill:#f2e68f;}.t{fill:#f2e861;}.u{fill:#77dd47;}.v{fill:#bcbbbc;}.w{fill:#7cbaf2;}.x{fill:#020202;}.y{fill:#443011;}.z{fill:#c61825;stroke:#000;stroke-miterlimit:10;}.aa{fill:#0b840e;}.ab{fill:#f4e41e;}.ac{fill:#1b5110;}.ad{fill:#449e2e;}.ae{fill:#298210;}.af{fill:#46c91b;}.ag{fill:#eaef84;}.ah{fill:#050505;}.ai{fill:#20561a;}</style></defs><title>Ресурс 1</title><path class="a" d="M344.81,1058v18.3l-5.3,17.7-12.3,20.3-14.7,4.7-5-16.3s11.7-28.7,10-29.7,5.3,7.3,5.3,7.3l3,2,4.3-1s8.3-16.7,9-18.7S344.81,1058,344.81,1058Z"/><polygon class="a" points="199.51 1046.44 206.21 1068.74 229.21 1103.04 248.51 1110.44 247.81 1078.04 242.51 1056.74 235.81 1073.74 232.51 1079.04 228.81 1080.44 223.21 1074.74 209.51 1050.74 199.51 1046.44"/><path class="b" d="M495.91,117l-7.4-25-20-21.5-60.3-12.6L389,67.54l-3.7,9.5-28.8,10L343,94s-8.5,3-9.5,6-9.5,9.5-10,11.5-5,8.5-5,8.5l11.5,3,10.5,2.5L355,130l5.5,1,7-4.5L378,118s5.6-8.3,7.5-7.9,8,1.4,8,1.4l19-1.5,14.5-2.5,12,2,20-1.5,8.5,1,21.5,7.5,9,.5"/><path class="c" d="M497,111.54l5.5-40,16.5-41,32.5-25,33-4,42,13,46,34.5s1.5,6.5-.5,6.5S652,43,650.51,43,637,45,637,45l-10.5.5-4.5,3,.7,7.1L612,46.54s-8-1-10-1-9.5,2-9.5,2l-11.5,1-9.9.2L576,57l8.5,3.5c1.5,2-4.5,10-4.5,10a46.38,46.38,0,0,1-10.5,7l-8,.5h-19l-13.6,5.8s-2.4,5.2-4.4,7.2a73.65,73.65,0,0,1-6,5l-6,8-6,9-3,12L492,118Z"/><polygon class="d" points="524.01 175.04 533.51 163.54 543.01 145.54 555.01 137.54 519.51 150.04 524.01 175.04"/><path class="d" d="M684,193.54l-2.5,41.5-11.7,39.7S705,238,706,236.54s7.5-38.5,7.5-40S684,193.54,684,193.54Z"/><polyline class="d" points="566.01 316.04 570.51 341.04 565.01 371.54 622.01 325.04 641.01 306.04 564.51 318.04"/><path class="e" d="M605.51,313h-33l-34-13.5s-14.6-44.6-17.8-47.1-15.2-30.9-15.2-32.4,12-37,12-37l22.9-27s20.1-19.5,21.6-19.5,39-.5,39-.5l48,13,32.5,31.5L682,210l-4,22s0,33-2,34-39,42.5-39,42.5Z"/><polygon class="f" points="357.51 200.04 345.51 165.54 360.51 131.04 403.51 107.54 465.01 108.04 517.51 141.54 523.51 180.04 509.51 195.54 513.01 252.04 480.01 246.54 456.51 255.54 426.51 271.04 422.01 276.54 391.31 286.04 363.01 237.54 332.51 205.54 357.51 200.04"/><path class="g" d="M432,278.84,469,251l40.5,2.3,16,8.1s13.5,29.5,14,31.2,31.5,26.6,31.5,26.6,5.5,31.6,3.5,29.3-3.5,30.2-3.5,30.2l-31.5,19.1L500,452.64l-35,30-27.5-13-26-34.5s-1.5-65.6-3.5-67.9-6-48.5-5-52.6,10-30,10-30l17-4.6"/><path class="h" d="M311.31,1042.54l-6-46,13.2-89.5-6-6L263,849.54l44.8-27.8,18.8-65.8,2.7-40,22-62.7-4.7-32-5.2-20.9,19.2-62.4-70.7-33.3,80-36.7v-47.3l1.3-15.3,47.7,18.6,32.4,52.7,65.5-57.5,70-63.5,39.7-34.3,44.7-48,19.3-32.7,8-28.7-.7-19.3-16-6.7-12-19.3-30.7-26.7-40-14.7,46.7,1.3,36.7,10.1,30.6,23.9,22.7,29.3,18,27.3,3.3,40.7s-24.7,69.3-23.3,72-14.5,27.9-14.5,27.9l18.5,51.5-1.3,38.7-4.7,40-34,50.2-18.1,6.6-2.6,15.2-6.7,14.7-5.3,12.8-.7,18.6s-.7,16.7-.7,19.3-2.7,17.3-2.7,17.3l16.7,17.3v16.7l-4,24.7L675,710l-.7,2.7L659,748l-51.3,34.6-4,7.4-8.7,29.3-10,28L579,862l9.3,18-2.7,21.3-6,18.7-8.7,23.3L557.61,960s-13.3,7.3-16.7,8.7-10,2-14,5.3-11.3,10.7-12.7,14-8,14.7-8,14.7l-4.7,10.7-10,10.7s-6.7,3.3-10.7,4.7-10.7,5.3-10.7,5.3l-10.7,6-9.3,4-42.7,5.3-18.7,2.7-18,2-18.7-1.3-14.7-2Z"/><polygon class="i" points="425.51 384.04 419.11 423.84 451.51 476.54 467.51 461.54 517.01 419.04 519.51 412.54 493.01 419.04 487.01 413.54 460.51 406.54 448.51 399.54 425.51 384.04"/><path class="e" d="M163,658.54l-14.5-10h-14.3l-2.8,16.3-21.3,4.3-59.5-2.8-33.8-10,4,15-1.3,14.3L13,697.14l9,4.3s55.8-11.3,39.8-1l-16,10.3-34.5,9-7,1.3,10.3,17,3.8,19.5,33-22.5,10-12.3,17.5-7-14.8,24.5,1.8,24.5,15.3,3.5,22.3-16.8s-12.3,17.3-6.3,28.3,12.3,11,12.3,11l13.3-8.8,13.5-20,18.3-38.8-.8-9.5-7.3,6.4-6.5,11.7-7.2,15.2-8.8,4-5.8-.5-5.5-4.5,28.8-46-7.3,2,8.3-12.8-7.3,10.8-12,11-9.5,9.3-11.5,8.3-7.3-1.8-5-2,7-25.3,52-33.3,6.8,8,10.3-4.5"/><polygon class="e" points="194.81 902.34 212.81 906.84 247.81 908.34 304.01 900.84 312.01 893.54 310.51 842.54 333.01 806.34 336.31 806.34 334.31 784.84 328.81 773.34 324.81 745.04 328.81 721.04 336.51 697.84 349.01 658.84 340.01 601.84 287.01 600.54 289.31 625.04 289.01 635.04 289.01 652.54 287.01 662.34 286.31 681.84 282.51 691.04 274.31 699.54 238.01 710.34 190.51 704.84 172.51 695.04 164.51 671.84 151.81 673.34 145.81 689.04 153.81 713.54 159.31 721.84 164.81 726.54 183.31 734.54 199.01 740.84 218.01 746.04 234.51 749.34 256.51 748.54 265.51 745.34 271.01 746.34 266.81 752.84 248.31 795.34 235.81 821.04 228.31 839.04 194.81 902.34"/><path class="a" d="M101.81,861.84l7.3,12,68.8,20.3,23.3-1.3,54.3-113,12-38.3h-16.8c-2.3,0-35,.8-35,.8l-57.3-16-4.8-4.8-16.5,38.3,2.8,13.5-1.8,7.3-13.3,34.8Z"/><polygon class="a" points="170.51 607.04 168.81 619.84 159.51 651.54 163.51 660.84 165.01 673.84 171.01 690.84 196.51 704.04 244.31 708.84 279.81 698.54 289.51 665.34 290.81 596.84 244.01 587.34 222.51 560.34 224.01 545.84 221.51 540.54 216.01 561.84 209.81 569.54 199.81 576.54 192.01 592.84 170.51 607.04"/><path class="j" d="M322.21,1053l-4,12.3,2.7,11.7,4.7,3.7,7.3-4.3s12-24,8.7-23.7"/><path class="k" d="M172.71,609.44l-12.8,40.8,3.5,25.3,19,24.3s29-132,51.8-119.7-4-8.5-4-8.5l-5.8-16.2-2.8-15Z"/><path class="e" d="M222.21,542s-18.8,32.5-18.8,33-21.3,26.2-21.8,26.2-40.2,15.3-40.2,15.3l-18.8-23.8,19.7,1.5,19.2-5.3,17-10,7.7-9-16,3-42.2-5.5-27-25.2,7.8-3.5,10.2-11.3,10.7,23.5,10.7,11.2,14,5.8,14.2-.2,6.9-2,.7-1.4-14.3-6.5,12.2-31.2,23.2-13.8.3-5.5-17,.7-20.8-13.7,7-18.7,14.2-2.8,33.8,6.2,35.3,17-6,4.8-21.2-9.5-8.3-3.2-12.8-3.8-9.7-.7-4.2,1.5-3,3.2-2.8,1.3,5.5,6.5,43.2,3.2-7,7-7.7,6.3-10.3,8.3-14.7,10,.5,4.7-.7,2.7,1.2,3.8,20.2-9,41.3-29"/><path class="j" d="M298.51,902.74s11.7,41,14,43.3l2.3,2.3,2.3-48.8Z"/><path class="j" d="M167.21,893.74l5.7,19.7,18.7,96s1.7,29,9.7,34l8,5,10,19,10,16,8-8.3,1.3-30.7-7.7-14.7,25-121.3-24,1-31.3-5.3-8,.8,5-10.2Z"/><polygon class="j" points="222.81 558.74 248.21 591.04 342.21 601.44 415.51 597.44 470.21 589.44 482.21 595.44 489.51 590.04 486.21 581.04 500.21 583.04 499.51 574.74 493.21 565.74 501.21 561.44 503.51 551.44 480.21 553.74 477.51 554.74 474.41 551.44 483.81 544.44 480.21 536.74 465.51 542.74 455.81 552.44 445.61 554.94 434.21 557.04 415.81 551.44 314.81 515.44 267.21 503.04 240.51 517.74 221.51 541.44 222.81 558.74"/><polygon class="e" points="281.51 238.74 279.01 230.74 279.61 206.94 295.31 206.24 314.81 200.84 319.51 175.94 308.51 160.64 283.71 155.34 259.91 135.84 237.41 126.24 202.61 129.74 177.41 135.94 153.61 148.54 133.21 154.34 116.51 178.04 114.21 211.04 136.51 228.04 184.81 222.04 188.41 230.94 193.21 239.24 215.71 255.94 281.51 238.74"/><path class="l" d="M251.51,238.44l-1.2-39.1s13.2,8.3,20.3-12,14.9-9.1,7.1-20.3-22-18.4-40.9-22.4-67.1-4.9-67.1-4.9l47.1-13.1,39.2,12.3,22.1,13.8,24.5,6.6,11.8,5.3,5.4,16.2-1.2,18.2-12.3,9.6-11.1-2.4-9.9-1.4-5.7,2.2-1.2,11.3.3,17.8-10.4,3.9Z"/><path class="j" d="M416.21,324.74l-3.5-3.3-67.4-29.1-13.5-3.9-3.6,16.6-39.3,30.8L254,355.64l-6.3-5.8,13.6-20.3-27.6,4.6L202,359.74l-3.8,22.7,5.1,22.2L186.71,431l7.9,20.4,46.5,37.6,5.7,6.3,1.4,3.2c1.1.9,2.3,1.7,3.4,2.5,1.9,1.4,3.7,2.8,5.5,4.2a260.73,260.73,0,0,0,31.3,6.8,24.37,24.37,0,0,0,2.7-.1c7.9-1.6,9.7-2.1,17.8-.8,7.7-.1,9.2-7,16.4-4.5,4.1-4.1,15.1-2.7,20.3-5.7,5-2.9,6.9-2.5,12.1-4.5,4.6-2.8,1.1-1.1,5.7-3.9l2.7-1.7,27.5-20.7,25-45.1,6.5-47.7Z"/><polygon class="m" points="165.51 887.54 173.01 920.04 183.51 982.54 201.21 1043.44 209.51 1050.74 199.51 895.54 165.51 887.54"/><path class="m" d="M232.51,529s156.7,61.6,211,51,57.5-2.5,57.5-2.5l-8.5,5-3,7.5-7.3,5.3-12-6L371.51,604l-79-6L258,593l-32-22-5.1-21.5Z"/><path class="m" d="M237.51,332.24l-21.9,38.6-5.9,3.8-2.1,25.8-1.5,14.2s-3.6,9.6,2.3,21.5,16.9,27.5,16.9,27.5l13,14,1.1,10.8L206,458.14l-12.5-11.6-5-15,1.1-75.1Z"/><path class="n" d="M337.51,297l19,8.2,19.2,4.1,32.8,9.4,24.7,11.8,19.4,19.2-4.4-14.6-15.5-15.3-2.7-11.2L416.71,288l11.2-12.6-2-28.7L404.71,220l-27.1-15-39.2-1.6-18.2,16.5-11,13.3,4,14.8-20.6-10.6-27.7,1.9-31.1,3.6-13.6,10.7-4.5,2.1-12.3-12.5-23.2-7.7-35.9,3.6-15.2,8.7-19.6,21.8-15,22.3,1.9,16.4,2.8,17.3,12.8,21.2,19.8,12.8,21.5,6.3,12.1.9s3,25.5,2.8,26.5,1.9,27.7,1.9,27.7l8.9,11.1,20.9-9.8,5-13.9,2.7-18.9-10.1-11.7,5.1-7.8,5.9-18.2,12.6-10.9,12.7-6.8L248,330l16.4-3.3-18.2,24.4-5.7,13.8-4.6,8.9,24.4-23.1,10.8-2.8,3.7-4.3,15.6-7.6,13.1-7.1,7.3-5.3,8.8-4.3,11.9-17.2Z"/><path d="M349.71,428.14c7.5-2.1,12.8-7.2,12.3-15.6-.4-5.8-4-10.8-4.4-16.4a1.21,1.21,0,0,1,1.4-1.2c7.2,2.3,8.9,15.8,7.8,22.1-.8,4.5-3.1,7.4-6.7,10-3.1,2.3-6.1,5.4-10.2,4.5A1.76,1.76,0,0,1,349.71,428.14Z"/><path d="M309.91,428.94a2.64,2.64,0,0,1,4.7,2.4c-2.1,4.6-2.5,8.7-.5,13.5.8,2,1.9,3.8,3.9,4.7,1.7.7,3.4.3,5.2.7a2.27,2.27,0,0,1,1.2,3.7c-4.3,5-12.3.6-14.8-4.1A20.58,20.58,0,0,1,309.91,428.94Z"/><path class="o" d="M325.21,309.74l-15.5,11.7-37.6,3.9-27,1.7-31.4,20.9L202.51,370v9.5l3.2,18.4-6.4,18.7-12.7,8.5,6.2-24.2,14.2-51.8-24,78.4-5.9,2.1-2.4-15.9s-.3-35.2-.1-36.2,18.5-43.4,18.5-43.4l42.5-26.7,41.2-3.1,14.9,3.5h25.6l8.3-5.4.7,7.7"/><path class="o" d="M393.71,265.54c.2-1-10.6-38.1-10.6-38.1L367.81,205l-32-.4s-1.7,8.1-.8,8.4,23,13.5,23,13.5l12.7,17,.6,11.7Z"/><polygon class="o" points="343.61 247.94 333.11 233.44 314.91 221.04 311.11 240.34 319.51 244.14 343.61 247.94"/><polygon class="o" points="347.91 293.14 341.31 291.74 337.71 283.44 349.91 277.24 396.41 281.44 428.91 304.74 431.71 317.34 406.71 304.74 390.31 300.24 364.61 294.34 347.91 293.14"/><polygon class="o" points="334.21 270.84 326.91 289.04 305.11 268.64 263.31 263.14 223.21 276.64 192.91 302.14 176.21 336.84 168.01 376.64 172.71 321.34 209.51 259.74 235.61 244.24 284.31 238.24 311.91 247.94 334.21 270.84"/><polyline class="o" points="193.21 276.74 174.11 265.74 160.61 268.34 160.51 257.74 165.81 243.84 184.71 249.64 203.41 265.54 192.91 278.04"/><polygon class="o" points="180.01 293.94 169.01 322.94 162.71 318.94 153.41 301.54 154.71 290.94 166.31 287.64 180.01 293.94"/><path class="o" d="M163.91,365.54l-13.1-.8-24.7-9-16.7-14.2-10.7-28.2s-3.2-20.1-2.6-21,8-21.5,8-21.5l14.2-10.6-.6,28.2,1.2,10.5,1.4,9.5,9.1,19.3,5,8.6,14.1,13.9,8.2,3.1,9.3-.4Z"/><path d="M324.81,505.74c9.3-2.4,9.2-2.1,13.2-3a103.51,103.51,0,0,0,13-4.2c4.6-1.7,8.6-4.7,12.8-7.2.6-.3,12.5-9.8,15.7-12.4,6.7-5.5,12.2-12.3,17.6-19.1,10.2-12.7,16.2-27.9,19.9-43.6a199.49,199.49,0,0,0,5.4-46.8,101.32,101.32,0,0,0-2.2-22.6c-1.6-7-4.4-13.7-6.8-20.4a1.69,1.69,0,0,1,2.7-1.8c11.5,10.7,13.1,29.4,13.1,44.3,0,17-1.6,34.7-5.9,51.2s-11.5,32.4-22.6,45.4c-3.2,3.8-7.1,6.6-10.7,10-3,2.9-5.9,6.1-9.3,8.5-1,.7-26.6,20.6-36.6,23-14.2,3.4-35.4,6.7-39.6,4.6C304.11,511.44,324.21,505.84,324.81,505.74Z"/><path d="M92.91,305.34c.1,8.8,4,17.6,7.4,25.6a49.92,49.92,0,0,0,14.9,20,79.42,79.42,0,0,0,48.7,16.8V369c0,3.9-.4,7.9.9,11.6a2.36,2.36,0,0,0,.6.9c-.2,2.5,0,5,0,7.1.1,6,.5,11.9,1.1,17.8.7,7.2,1.7,18.6,8.4,23.2,0,.1-.1.1-.1.2a3.15,3.15,0,0,0,1.2,2.9,2.89,2.89,0,0,0,1.9,2,12.42,12.42,0,0,0,5.9.8c3.7,11.2,12.1,20.8,20,29.2a139.48,139.48,0,0,0,18.4,16.8c.3.3.7.5,1,.8.8.4,1.5.8,2.3,1.2a169,169,0,0,1,19,12.6h.3v.2c1.5,1.1,3,2.2,4.4,3.3-.7-5.3-2.3-10.9-2.4-10.5-.3-.2-.6-.5-.9-.7l-2.1-1.2c.1-.3-25.7-17.2-34.2-26.2-7.9-8.3-13.2-18.4-19.2-28a42.48,42.48,0,0,0,7.5-7.2c3-3.3,6.4-6.8,8.1-11a26,26,0,0,0,1.5-8.9,12.77,12.77,0,0,0,5.8,3.8c2,.5,3.2-1.8,2.4-3.4-1.7-3.2-4.4-5.7-6-9.1a39.16,39.16,0,0,1-3.1-9.5c-.6-3.6-.2-8.1,3.1-10.3,4.9-3.4,10.2,3.2,4.6,5.9-1.6.8-1.4,3.1-.3,4.2,2.2,2.3,5.6,2,7.9,0,2.9-2.4,3.3-6.4,2.2-9.8-2.6-7.3-10.7-11.3-17.5-6.7a14.46,14.46,0,0,0-3.7,3.7c.1-.4.1-.7.2-1.1a3.6,3.6,0,0,0,.8-1.2c3-7.4,6.1-15.1,11.4-21.2a56.93,56.93,0,0,1,16.9-13.1c8.8-4.5,18.3-6.1,28-7.1-6.9,6-12.4,14.6-16.4,22-3.4,6.2-6.1,12.7-8.9,19.2-1.1,2.4-2.2,4.8-3.1,7.3a48,48,0,0,0-1.5,6.3,145.39,145.39,0,0,0-9.5,33.4c-2.5,15.7-3.1,33.4,3,48.3.8,2,4.5,1.7,4-.8-2.8-16.3-6.3-32-4.2-48.7,2.2-16.9,9.5-33.9,19.5-47.6,4.5-6.2,9.9-12.1,16.4-16.2,6.7-4.3,14.7-6.5,21.8-10,10.7-5.1,22.8-11.5,32-20a22.65,22.65,0,0,0,7.4-3.8c7.6-5.7,14.7-18.2,10.2-27.7-.7-1.4-2.9-2-3.8-.8-3-1-5.7-3.1-8.2-4.7-3.4-2.3-6.7-4.7-10-7-5.5-3.9-11.4-7-17-10.7-1.3-.8-2.6-1.6-4-2.4,4.8,1.1,9.6,2.6,14.3,4.1,8.8,2.8,19.1,6.5,22.3,16.1a.93.93,0,0,0,1.8-.3c-.4-17.6-23.9-22.1-37.3-25.3-32.7-7.9-65.7,7.9-90.5,28.5-11.7,9.8-19.2,25.1-23.3,39.6-1.2,4.2-2,8.4-3.2,12.6-.4,1.5-.9,3-1.4,4.6a189.57,189.57,0,0,1,2.7-21.4,92.86,92.86,0,0,1,20.8-43.1,218,218,0,0,1,15.7-16.2c5.3-5.1,10.6-10.6,16.8-14.6,12.6-8.2,28.9-9.8,43.6-9.8,15.8,0,33.9,2.2,45.6,13.8a1.54,1.54,0,0,0,2.1,0,59.88,59.88,0,0,1,7.7,8.1c3.2,3.7,6.3,9.1,11,10.7a1,1,0,0,0,1.2-1.1c-1-5.8-7.5-11.3-11.2-15.8-3.4-4.2-6.9-8.8-12.3-10.3a1.61,1.61,0,0,0,.9-.3c4.9-2.6,11.4.5,16.3,1.7s10,2.4,15,3.9c10.5,3.2,20.8,6.4,30.7,11.2a114.51,114.51,0,0,1,24,15.5c1.9,1.7,3.8,3.5,5.6,5.3-8.9-4.4-19-6.7-28.6-8.7-11.6-2.4-25.2-4.9-36.5.3-4.2,1.9-7.4,5.5-7.4,10.3,0,3.7,1.6,7.5,5.5,8.3,2.6.6,3.7-2.5,2.2-4.3-6.9-8.1,16.8-9.8,20.8-9.7,9.6.2,19.1,2.5,28.2,5.3a70.52,70.52,0,0,1,24.4,12.8,75,75,0,0,1,9,9.7c2.3,2.8,4.8,5,7.2,7.5a110.12,110.12,0,0,0-10.5-6.8c-10.9-6.5-22.7-12.7-34.9-16.4s-25.1-3.9-37.8-2.6c-4.6.5-4.1,7.8.4,7.2,22.8-3.2,46.5,4.2,66.1,15.7,9.5,5.6,18.8,11.3,26.5,19.3a53,53,0,0,1,8.9,12.2,32.26,32.26,0,0,1,1.5,3.4,79.3,79.3,0,0,0-12.3-14.1c-12.7-11.7-27.9-16.8-44-21.9q-14.25-4.5-28.2-9.3c-3.7-1.3-7.5-2.4-11.3-3.4-3.6-1-6.9-2.3-10.3-.5a1.78,1.78,0,0,0-.5,2.5c2.2,2.7,5.4,3.3,8.5,4.5,3.6,1.4,7.2,3.2,10.9,4.5,7.8,2.7,16.2,4.1,24.3,5.6,15.3,2.9,32.2,8.2,44.1,18.7a87.86,87.86,0,0,1,15.1,18.7c4.4,7,6,14.4,6.6,22.6,1.2,16.9-2.3,33-5,49.5-.4,2.2,2.9,3.6,3.9,1.4,6.7-15.8,9-34.2,7.6-51.3-.5-6.6-1.6-12.9-4.2-18.8.8-9.1-4-19.1-9.4-26a71.91,71.91,0,0,0-14.1-13.4,1.58,1.58,0,0,0,1.3-1.8c-.7-3.2-.8-5.4-2.4-8.2a40.48,40.48,0,0,0-5.2-7.1,85,85,0,0,0-6.8-6.6,7,7,0,0,0-.5-3.1c11-9,11.7-26.7,8.6-39.6-7.1-30.3-40.3-49.2-69.4-52-14.6-1.4-30.2,1.6-41.5,11.6-10,8.8-14.3,22.5-8.3,34.6a49.21,49.21,0,0,0-11-5.5c-9.6-3.3-19.2-3.1-29.2-3.3-15.9-.3-32.3.6-45.9,9.7a70.21,70.21,0,0,0-6.9,5.3c-4.9-7.3-13.2-11.4-21.3-14.3-9.3-3.3-21.1-6.7-31.1-5.8a63.16,63.16,0,0,0-13.9,3.1,2.76,2.76,0,0,0-3.5,1.2c-3.8,1.4-7.5,2.9-11.1,4.4-8.4,3.5-15,7.4-20.7,14.7-5.9,7.6-12.8,15.5-17.3,24C93.71,286.34,92.81,296.94,92.91,305.34Zm305.7-37.4c-.8-6.1-2.9-12-4.8-17.8a193.81,193.81,0,0,0-7.5-19.1c-3.2-7.1-7.7-15.5-14-21a85.32,85.32,0,0,1,12,4.2c14.3,6.1,29.5,15.5,36.2,30.1,5.5,12,7.4,31.7-3.2,41.6-.7-.9-1.3-1.7-1.9-2.5a67.33,67.33,0,0,0-11-11C402.51,270.84,400.61,269.34,398.61,267.94Zm-24.4-13c-.6-8.9-7.7-18.5-13-24.7-7-8.2-15.5-15.4-25.3-20a3.58,3.58,0,0,0,1.1-.4,61,61,0,0,1,23.2-2,2.09,2.09,0,0,0,.8,1.6c4.8,3.7,9.4,6.8,13.2,11.6a87.57,87.57,0,0,1,9.3,14.8,90.3,90.3,0,0,1,6.5,17.3c.8,3.4,1.3,6.9,1.8,10.4a117.65,117.65,0,0,0-14.6-7.4Zm-41-43.7a1.41,1.41,0,0,0,.8,1.6c9.7,4.4,18.4,10.6,24.7,19.2a73.13,73.13,0,0,1,7.7,13.6c1,2.3,1.8,4.9,2.7,7.3a221.37,221.37,0,0,0-21.4-6.7c-.5-1-1.1-2-1.7-3a53.05,53.05,0,0,0-6.8-9.5c-4.4-4.9-11.7-12-18.8-11.9-1.8,0-2.4,2.3-1.2,3.5,2.5,2.4,6.1,3.6,8.9,5.7a43.19,43.19,0,0,1,7.5,7.3,59,59,0,0,1,4.3,5.9c-8-2.3-18.1-5.9-25.8-2.5C311.31,228.24,321.11,216.34,333.21,211.24Zm-66.4,118.9,11.5-.9c7.4-.7,14.7-1.6,22-2.7-1.3.9-2.6,1.7-4,2.5a167.39,167.39,0,0,1-24.1,11.7c-7.4,2.9-14.6,5.9-20.7,11.1a52.59,52.59,0,0,0-9,10.4c1.1-2.2,2.3-4.3,3.5-6.4a105.62,105.62,0,0,1,10.8-15.6C259.91,336.54,263.51,333.54,266.81,330.14ZM188,424.44a51.69,51.69,0,0,0,2.1-7c1.7-6.3,3-12.7,4.6-19l1.6-6.7c-.2,3.9-.3,8.1,2.4,10.7a2.09,2.09,0,0,0,2.1.5c-.5,3-.6,6.2-1.9,8.9-1.2,2.4-3.4,4.2-5.2,6.2S190.11,422.44,188,424.44Zm-6.4-58.7c2.9-7.5,5.7-15.5,10.7-21.9a118.69,118.69,0,0,1,15.9-15.8c11.2-9.5,24.5-14.5,38.7-17.6,15.5-3.4,31.7-2.3,47.5-1.3,9.5.6,21.8,4.4,29.2-1.7a18.58,18.58,0,0,1-1.1,1.9c-4,6-9.8,8.7-16.7,9.7-15.3,2.3-30.7,2.7-46.2,3.8-14.1,1-27.7,4.3-39.4,12.6-12,8.4-18.4,19.4-23.4,32.9a3.9,3.9,0,0,0-.1,2.8c-.7,2.4-1.3,4.9-1.9,7.3-1.4,5.4-2.7,10.7-4.1,16.1l-4.4,17c-1.2,4.9-1.6,11.7-5.3,15.3a1.76,1.76,0,0,0-.4.5c-2.1-2.9-4.2-5.3-5.4-8.7,2.4-8.2.5-17.4.5-25.8C175.71,383.24,178.11,374.64,181.61,365.74Zm-5-17.9c1.8-8.7,5.4-17.4,8.6-25.7,7.1-18.4,19.4-30.8,36-41a115.46,115.46,0,0,1,24.5-11.2c3.8-1.2,7.6-2.4,11.4-3.3a1.61,1.61,0,0,0,.9.3c3.1.5,6.2-.2,9.3-.2a43.59,43.59,0,0,1,11.2,2.2,60.92,60.92,0,0,1,19.9,9.5c5.5,4,11.2,7.9,16.8,11.7,3.5,2.4,7.1,5.2,11.1,5.5-.1,1.1-.3,2.3-.4,3.3-.1,0-.1-.1-.2-.1a1.82,1.82,0,0,0-1.9.9l-.1.1a1.83,1.83,0,0,0,.3,2.1c-6.7,5.1-18.1,4.8-25.7,3.8-8.6-1.1-17.3-2.2-26-2.6-14.9-.7-30.1-.3-44.4,4.5s-25.2,13.8-35.7,24.3c-10.8,10.9-16.7,26.1-19.8,40.9a23.76,23.76,0,0,0-.6,3.7h0C172.31,367.14,174.71,357.24,176.61,347.84Zm-37.9-44c.8,9.9,2.3,19.3,6.8,28.3,3.9,7.7,10,15.6,19.2,16.2-.1,1.1-.1,2.3-.2,3.4-9.9-1.6-17.3-5.1-24.4-12.4s-11.6-16.3-14.9-25.9-6-19.3-5.4-29.6a189.83,189.83,0,0,1,4.4-29c5.3-5.2,12.3-7.8,19.2-10.4-2.3,8.6-2.7,17.7-3.6,26.6C138.81,281.94,137.81,292.84,138.71,303.84Zm29.7,16.7c-10.2-4.3-12.8-16.2-12.8-27.4,4.8.1,9.9-2.1,14.5-.6,2.7.9,5,2.5,7.6,3.4A94.68,94.68,0,0,0,168.41,320.54Zm-5-82.2c-4.5,6.3-6.9,15.2-8.9,22.3-2.5,8.6-4.1,18-3.6,26.9.6,8.6,1,18.8,4.7,26.6,2.2,4.7,6.7,9.3,11.9,10-.2,1.2-.5,2.5-.7,3.7q-1.2,7.5-1.8,15c-17.8-3-21.2-31.4-20.8-45.7.3-9.9,1.6-19.8,2.8-29.6,1-8.5,1.6-17.8,4.2-26.1A66.17,66.17,0,0,1,163.41,238.34Zm23.3,10.9c-5.1-2.8-12-5.8-18.5-6.5a13.74,13.74,0,0,1,2.4-2.9,2.85,2.85,0,0,0,.8-1.4c13.8,1.6,32.1,5.2,40.3,17.3-2.3,2.2-4.6,4.5-6.9,6.8l-.6.6C201,257,192.41,252.34,186.71,249.24Zm7.5,24.2c-3.6-4-11-6.3-15.2-7.7-5.6-1.8-13-4.8-18.9-2.5l.9-3a108.15,108.15,0,0,1,4.5-12.7c2.5.5,5.1.8,7.6,1.4a80.7,80.7,0,0,1,11.7,4,55.11,55.11,0,0,1,10.7,6.4c2.3,1.8,4.4,4.1,6.9,5.6C199.61,267.74,196.81,270.54,194.21,273.44Zm-25.5,12.1a26.29,26.29,0,0,0-13.1,3.3c.1-2.7.4-5.3.6-7.7a97.61,97.61,0,0,1,2.5-13.1,2.78,2.78,0,0,0,1.8.3c5.5-1.3,11.2.7,16.5,2.2a43.38,43.38,0,0,1,9,3.6,53.33,53.33,0,0,1,4.9,2.8c-1.3,1.5-2.6,3.1-3.9,4.6-2.1,2.7-4.1,5.4-5.9,8.1A26.4,26.4,0,0,0,168.71,285.54Zm-67.3,1.1c1.3-4.1,4-7.5,6.6-10.9,3-3.9,5.8-7.9,8.8-11.9a108.24,108.24,0,0,0-2.1,22.1c-.1,11.9,2.5,22.3,6.8,33.4,3.9,10,9.3,19.2,17.2,26.6,6.5,6.1,16.4,12,25.7,9.7-.1,2.4-.2,4.9-.3,7.3-18.2,1.4-38.3-5.6-50.2-19.7-9.9-11.7-16-29-14.5-44.2C99.81,294.84,100.11,290.54,101.41,286.64Z"/><path d="M257.11,505.44c-1.8-1.4-3.6-2.8-5.5-4.2-.3-.5-.6-1-1-1.6a1.78,1.78,0,0,1,3-1.9,62.69,62.69,0,0,0,6.8,8.6Q258.91,505.89,257.11,505.44Z"/><path d="M279.61,206.94c1-2.4,4.8-.5,3.7,1.9a48.48,48.48,0,0,0-4.3,21.9c0,.5,1.6,9.1-.5,8.5a6.37,6.37,0,0,0-.7-.2,1.5,1.5,0,0,1-1.2-1.1A54.84,54.84,0,0,1,279.61,206.94Z"/><path d="M113.11,180.24c1.8-7.5,5-14.8,10.2-20.6,4.9-5.5,10.8-8.4,17.9-10.3,7.5-1.9,12.1-8.5,19.2-11.7a145.78,145.78,0,0,1,49.3-12.6c16.5-1.3,34.8-.6,49.4,8.2,7.2,4.4,12.9,10.6,20,15s14.9,4.8,22.7,6.7,14.2,5.6,17.8,13a40.69,40.69,0,0,1,3.5,22.3c-1,7.2-4.8,13.7-11.5,16.9-7.3,3.4-15.3,2.4-22.8.6-1.6-.4-1.6-3.1.2-3.1,6.2,0,13.4.7,19.3-1.8,7.2-3.1,9.7-10.8,9.5-18.2-.2-6.6-2-14.9-7.1-19.5s-13-5-19.5-6.2a44.65,44.65,0,0,1-18.1-7.3c-5.8-4-11-9.1-17.1-12.7-13.4-7.8-30.1-8.2-45.2-7.1a141,141,0,0,0-42.9,9.9c-3.6,1.5-7.6,2.9-10.7,5.3-2.8,2.1-4.7,5-7.8,6.7-5.4,2.9-11.6,3-16.7,6.8-11.9,9-14.3,26.7-15.9,40.5-1,8.3,3.9,14.5,10.2,19.5,6.6,5.3,14.5,6.5,22.8,6a171.61,171.61,0,0,0,25.8-3.2c7.7-1.7,14-5.5,21.1-8.7,6.7-3,13.7-2.7,20.7-.8a188,188,0,0,1,24.3,8.3c1.8.8.7,3.7-1.2,3.2-8.9-2.2-17.4-6.2-26.4-8-4.4-.9-8.8-1.1-13.1.4s-8,4.4-12.1,6.4c-.1.1-.3.1-.4.2a43.25,43.25,0,0,1,4.7,14.9c.2,1.5-2.1,1.6-2.3.1a46.3,46.3,0,0,0-4.4-14.1,90.73,90.73,0,0,1-19.8,5.4c-8.3,1.4-17.1,2.8-25.5,2.1-13.7-1.2-28.8-13.2-31-27.3C109,197.44,111.21,188,113.11,180.24Z"/><path d="M341,385a21,21,0,0,1-10.1,2.5,2.12,2.12,0,0,0-1.4-.4,1.33,1.33,0,0,0-.8.3c-14.3-1.1-29.1-13.7-27.2-28.3.2-1.7-2.2-2.5-2.6-.7a21.67,21.67,0,0,0,1.3,15.1h-.1a9.77,9.77,0,0,0-3,1.1,1.8,1.8,0,0,0,.9,3.3,10.76,10.76,0,0,0,3.1-.7l1-.3a31,31,0,0,0,9.8,9.6c.2.1.3.2.5.3a7.56,7.56,0,0,0-2.1,1.9,2.07,2.07,0,0,0,2.3,3,7,7,0,0,0,2.6-1.9,6.47,6.47,0,0,0,.8-.9,36.26,36.26,0,0,0,12.4,3.7c.2,1.2.5,2.4.8,3.6a2.55,2.55,0,0,0,1.6,1.6,2.3,2.3,0,0,0,2.8-2.8c-.2-.8-.4-1.5-.6-2.3a19,19,0,0,0,10.8-4.1C345.71,386.94,343.11,383.84,341,385Z"/><path d="M411.51,396.24c-.4-1.4-1.7-1.6-3-2-.4-.1-.8-.3-1.2-.4a14.57,14.57,0,0,0,2-3.7c.7-1.9-2.1-2.9-3.1-1.3-3.8,5.8-12.5,7.2-18.9,5.9a28.73,28.73,0,0,1-8.9-3.6c-2.3-1.5-4.1-3.9-6.6-5-1-.4-2.5.6-1.7,1.7a36.94,36.94,0,0,0,8.2,8.1,30.3,30.3,0,0,1-1.6,4.2,2.41,2.41,0,0,0,.3,2.7,2.07,2.07,0,0,0,1,.6,2.23,2.23,0,0,0,2.5-1A19.09,19.09,0,0,0,382,398a25.38,25.38,0,0,0,8.1,2.1c1.3.1,2.7.1,4,.1.1.3.2.6.3,1,.2.9-.1,1.9.5,2.7a1.4,1.4,0,0,0,2.4,0c.7-1,.2-2.5-.3-3.5-.1-.1-.1-.3-.2-.4a16.88,16.88,0,0,0,8.4-3.7,12.44,12.44,0,0,0,2,1c1.2.6,2.3,1.4,3.6.6A1.59,1.59,0,0,0,411.51,396.24Z"/><path d="M435.71,870.74a2.33,2.33,0,0,0-4,2.4c7.9,17.4,12.3,35.6,10,54.9-2.2,18.5-9.8,37-22,51.2s-30.5,24.8-49.7,19.3c-19.7-5.6-26.2-28.7-27.8-46.9a98.66,98.66,0,0,1,.3-19.6,6.32,6.32,0,0,1-4.7,1.9,2.2,2.2,0,0,1-.8-.1,82.65,82.65,0,0,0-1.2,12.1c-.8,20.3,3.9,45.5,22.6,57s42.1,5.1,58-8.1c16.5-13.8,27.4-34.8,31.3-55.8C451.81,916.24,449.81,889.74,435.71,870.74Z"/><path d="M564.51,844c-8-9.6-25.3-7.6-35.5-3.8-12.1,4.5-22.1,12.9-29.7,23.3-8.6,11.7-14.1,25.5-18.2,39.3s-6.5,28.7-5.1,43c1.1,10.5,5.3,22.1,16.2,25.7,1.2.4,1.6-1.4.5-1.8-13.6-5.3-14.2-23.4-13.1-35.6,1.4-15.9,6.6-32,13.2-46.4,6.1-13.4,14.6-26.3,27-34.6a48,48,0,0,1,19.6-7.9c8.1-1.2,13.8.9,21,4.3A3.49,3.49,0,0,0,564.51,844Z"/><path d="M426.61,656.14c-7.3.7-14.4,3.3-21.7,4.2-7.7,1-15.6.9-23.3,1.5-1.1.1-1.4,1.7-.3,2,7.8,2.3,15.9,2.5,24,1.7,7.2-.7,16.1-1.7,22.5-5.4C429.41,659.14,428.81,655.94,426.61,656.14Z"/><path d="M483.81,617.94c-3.9.4-7.5,2.3-11.2,3.6-4,1.5-8.1,2.8-12.3,4a232.74,232.74,0,0,1-23.3,5.7c-16.8,3.2-33.7,3.3-50.6,5.1-1.6.2-2.3,2.7-.4,3.1,16.6,3.1,34.3,1,50.8-1.9a234.74,234.74,0,0,0,25.1-5.9c7.5-2.2,17.4-4.3,23.6-9.2C487.41,621.14,486,617.74,483.81,617.94Z"/><path class="p" d="M514.91,503a65.08,65.08,0,0,0-23.3-19.3,33.27,33.27,0,0,1-6.6,3.8c20.8,9.7,35.3,29.9,35.4,54a73.34,73.34,0,0,1-3.9,23.2,78.64,78.64,0,0,1-4.8,11.2c-.9,1.8-2,3.5-3,5.2a9.12,9.12,0,0,1,2.4,2.4,21.65,21.65,0,0,1,1.8,3c4.2-4.4,7-10.9,9.1-16.3a80.42,80.42,0,0,0,5.2-23.3C528.31,531.34,524.21,515.54,514.91,503Z"/><path class="k" d="M176,733.24a4.53,4.53,0,0,1-.1.8c-1.3,12-18,158.1-42.7,148.4-25.8-10.2-32.5-17.8-32.5-17.8l9.8-21,22-50.2,5.3-37,17.5-33.7Z"/><path d="M698.21,387.14c-4.3-.9-8.3,4.1-11.3,6.6a99.81,99.81,0,0,0-13.4,13.4c-7.5,9.5-12,20.7-15.5,32.2-7.3,23.6-17,52.3-8,76.7a2.9,2.9,0,0,0,5.6-1.5,106.8,106.8,0,0,1-.3-37.4c2.1-11.9,5.6-23.5,9.2-35,3.4-10.9,7-21.9,13.9-31.1a111,111,0,0,1,12.3-13.4c2.7-2.6,8.1-5.6,8-9.8A.75.75,0,0,0,698.21,387.14Z"/><path d="M759.41,228.84c-.7-7-4.5-14.2-7.4-20.1-4.3-8.6-9.8-20.7-19-25-1.9-.9-4.5,1.1-3.2,3.2,2.9,4.4,6.8,8,9.7,12.4a163.86,163.86,0,0,1,8.2,14.8c2.7,5.4,6.1,11.4,6.1,17.7,0,1.1-1,4.6-.4,6.6-1,7-1.1,14.3-1.9,21.1a297.29,297.29,0,0,1-6.2,33.9c-4.4,17.3-11.7,33.4-20.7,48.6a1.77,1.77,0,0,0-1.5.8c-3.1,4.8-5.4,10.7-5,16.5.5,7,2.8,14,4.4,20.8a161.22,161.22,0,0,0,6.8,20.3,36.86,36.86,0,0,1,2.8,11.2c0,.5.1,1,.1,1.5a3.59,3.59,0,0,0-.7,1.8c-.2,4,.9,8.1,1.3,12.1.3,3.5.5,6.9.6,10.4a140.82,140.82,0,0,1-1.5,23.4,142.32,142.32,0,0,1-13.5,43.1c-6,11.9-13.8,23-23.9,31.8a67.39,67.39,0,0,1-10.5,7.5,3.9,3.9,0,0,0-4.4,1.2c-.4.6-.8,1.1-1.2,1.7a88,88,0,0,1-19.4,6.2c-2.1.4-1.4,3.4.5,3.5a42.77,42.77,0,0,0,14.3-1.5c-1.8,3.8-3.3,7.7-4.8,11.5a78.46,78.46,0,0,0-5.1,22.8c-1.1,16.9-.7,34.1-.5,51-.9-1.2-1.9-2.4-2.8-3.6-2.7-3.5-5.2-7.7-9.6-9a2.22,2.22,0,0,0-2.8,2.1c.6,6.5,7.5,12.2,11.5,17,4.9,5.9,10.6,11.7,12.1,19.5,1.4,7.6,1.3,15.9,1.4,23.6.1,8.2-.2,16.5-2,24.6-5.4,24.2-22.3,44.7-43.6,56.7-12.4,7-25.4,9.2-39.2,11.9-1,.2-1,1.9,0,2a49.19,49.19,0,0,0,18.3-.8,38.45,38.45,0,0,1-2.6,3.4,29.75,29.75,0,0,0-4.9,8.2c-2.6,7.2-3.1,15.2-4.8,22.6a164.51,164.51,0,0,1-7.2,23.6c-1.6,4.2-3.4,8.2-5.3,12.3-.8,1.8-1.8,3.6-2.7,5.4a29.37,29.37,0,0,0-3.2-3.7,3.47,3.47,0,0,0-5.4,4.2c3.3,6,7.3,10.9,9.5,17.5a64.35,64.35,0,0,1,3.3,19.9c.2,14.5-3.7,29-9.7,42.1-5.5,11.9-14.1,20.3-25.8,26.1a122.36,122.36,0,0,1-16.5,6.4c-4,1.3-9.9,1.8-13.3,4.6a2.89,2.89,0,0,0-1.9,1.7c-5.1,14.3-10.6,29.6-22.2,40.1-12.2,11-30,15.6-45.5,20a347.79,347.79,0,0,1-52.4,10.7c-14.6,1.8-29.2,2.3-43.9,2.7a2.73,2.73,0,0,0-2.7-3.1c-2,0-4.2.1-6.4.2a2.72,2.72,0,0,0-3.5.2,58.67,58.67,0,0,1-13.9-.4,2,2,0,0,0-1.8-.4,19.65,19.65,0,0,1-10.4-6c-5.4-6.2-5.4-16-5.7-23.7a164.67,164.67,0,0,1,1-24.3c2.9-26.9,10.7-53,15-79.6a6.66,6.66,0,0,1-1.8-2.2,47.87,47.87,0,0,1-3.6-8.8c-1.5,12.2-4,24.3-6.7,36.3-.9-5.7-2.4-11.3-3.8-16.8q-1.35-5.4-3-10.8c-.9-2.9-1-5.9-4-7.2a.83.83,0,0,0-1.1.3c-1.5,2.3-.6,3.7.2,6.3,1.1,3.9,2.1,7.8,3.1,11.7,1.8,7.6,2.8,15.3,4.6,22.9a2.34,2.34,0,0,0,2.3,1.7c-4,17.6-7.9,35.2-9.2,53.3a144.53,144.53,0,0,0,.4,27.9c.9,7.7,3.2,15.3,9.4,20.4a28.17,28.17,0,0,0,9.5,5.1,141.35,141.35,0,0,0-5.4,16.3,209.93,209.93,0,0,0-5.1,22.2c-1.2,6.5-3.2,14.4-.4,20.7,2.1,4.8,6.6,8,11.9,7.3,5.8-.8,10.1-5.7,13.4-10.1a70.34,70.34,0,0,0,9.4-16.7,74.35,74.35,0,0,0,4.5-38.2c35.7,3,73.3-3.1,107.2-13.4,15.4-4.7,32.2-9.8,44.1-21.2,11.3-10.9,16.5-26.1,21.2-40.7,2-.1,4.1-1,6.1-1.5,3.3-.9,6.5-1.9,9.7-2.9a102.54,102.54,0,0,0,18.3-8c11.5-6.7,19.5-16.3,24.7-28.5,5.9-14,10.1-29.4,9.9-44.7a72.8,72.8,0,0,0-3.3-20.7,67.86,67.86,0,0,0-4.1-10.4c4.1-5.1,6.6-12.3,8.9-18a167.35,167.35,0,0,0,8.2-25.1c1.9-7.9,2.2-16.7,5.1-24.3,2-5.4,9-9.6,10-15.3A111.34,111.34,0,0,0,625,777a94.56,94.56,0,0,0,31.2-23.4,91,91,0,0,0,19-33.9c4.7-15.9,4.4-33.2,3.5-49.6-.5-9-3.5-15.8-9-22.9-.9-1.2-1.8-2.4-2.8-3.5a2.33,2.33,0,0,0,1.5-2.2c.6-16.8.3-33.6,1.2-50.3a66.8,66.8,0,0,1,5.9-24.9c2.5-5.7,6-10.9,8.7-16.4,16.9-8.8,30.4-26.2,38.6-41.8a149.82,149.82,0,0,0,15.1-46,165.34,165.34,0,0,0,1.9-23.4c0-7.7.5-17.8-2.4-25,0-.1-.1-.2-.1-.3-.1-9.9-6-19.6-8.8-28.8-2-6.5-3.1-13.1-4.5-19.7-.8-4.1-1.6-7.8-.8-12a63,63,0,0,1,2.5-7.7c12.7-13.8,20-32,24.8-50a253.77,253.77,0,0,0,6.4-33.5C758.31,251.44,760.81,239.54,759.41,228.84Zm-437.1,838.3c1-3.6,2-7.2,2.9-10.9a55.57,55.57,0,0,0,12.9.5,47.17,47.17,0,0,1-6.4,17.7c-.9,1.5-2.2,3.8-3.8,4.6-3.5,1.8-4.9-.8-5.6-3.3C321.51,1073,322.11,1070,322.31,1067.14Zm16.6,20.5c-2.8,8.6-8.2,20.4-16.1,25.5-7.2,4.6-8.1-5.5-7.6-10.3.6-6,1.6-11.9,2.7-17.8.4-1.9.8-3.8,1.3-5.7.1.3.3.6.4.9,1.9,3.6,5.8,5.3,9.6,3.6,5-2.1,8.1-8.4,10.1-13a54.13,54.13,0,0,0,2.7-7.7A67.74,67.74,0,0,1,338.91,1087.64Z"/><path d="M315,892.34a19.13,19.13,0,0,1-7.2,3.9c-4.7,1.5-9.6,2.5-14.5,3.6a241.27,241.27,0,0,1-32.6,4.6,246.69,246.69,0,0,1-31,.3c-5.3-.3-10.6-.7-15.9-1.3-3-.3-5.9-.6-8.9-1-.7-.1-3.9-.3-6-.5,5.8-8.6,10.5-18,15.4-27.1,4.7-8.8,9.3-17.7,13.8-26.6q13.8-27.6,26-56.1c7.3-17.1,14.5-34.5,20.7-52.2a1.61,1.61,0,0,0,.3-.9,377.08,377.08,0,0,0,17-64.4,247.06,247.06,0,0,0,3.2-33.2c.3-11,.1-23.3-3-34-.8-2.8-5.2-2.3-5.1.7,0,9.9,1.2,19.7,1.1,29.6a221.12,221.12,0,0,1-2.4,30.4c-1.2,8.4-2.8,16.6-4.8,24.9a61.61,61.61,0,0,1-27.9,11.9c-11.1,1.9-22.4,1.3-33.6.7-19.7-1.1-49.5-7.6-51.5-31.2a3.5,3.5,0,0,0-.1-3.8v-.7c.2-4.5-6-5.1-7.6-1.5a18.38,18.38,0,0,0-11.4,5.5,22.54,22.54,0,0,0-6.3,15.9c-7.8,8-15.5,16-23.3,23.8-3.8,3.8-7.8,7.6-12.7,10-4.5,2.2-12.5,4-12-3.4.4-5.3,4.6-9.8,8.2-13.4,4.3-4.2,8.9-8.2,13.3-12.2,7.2-6.5,14.3-13.1,21.5-19.6,3.7-1.8,7.4-3.5,11.2-5.2a2.2,2.2,0,0,0,1.3-1.7q1.35-.45,2.4-.9c1.4-.7.9-2.8-.4-3.2-2.6-.8-5.4-.6-8.1-.6a3.39,3.39,0,0,0-2.8-.1,12.29,12.29,0,0,1-3.7-.8c-6.3-2.3-4.5-9.8,1.1-11.7,6-2,12.8.7,18,5.2.1.2.2.5.3.7a7.71,7.71,0,0,0-2,.7,7.81,7.81,0,0,0-2.7,2.4,4.76,4.76,0,0,0-.7,3.3.78.78,0,0,0,1.5.2,6.25,6.25,0,0,1,3.3-3.1,5.37,5.37,0,0,1,2.2-.1,5.66,5.66,0,0,0,2.2.2,26.06,26.06,0,0,1,3.2,5.2c.7,1.6,3.2.4,2.8-1.2a31.43,31.43,0,0,0-3.9-9.8,164.51,164.51,0,0,1,4.2-20.9c2.1-7.3,5.7-14.1,7.9-21.3a2,2,0,0,0-.8-2.4,78,78,0,0,0,22.2-18.8c7.1-8.8,12.4-18.6,17.7-28.5,2.3-4.3,4.6-8.7,6.9-13-1.2,16.8,9.9,32.1,24.4,40.3,19.4,11,43.7,11.9,65.4,13.5,9.1.7,18.1,1.1,27.2,1.4a108.94,108.94,0,0,1,8.9,47.5c-.6,17.5-6.3,32.7-13,48.7-6.5,15.7-9.7,33.2-10.9,50.1a56.58,56.58,0,0,0,3.5,24.1c3.1,8.2,6.9,16,6.7,25a37.93,37.93,0,0,1-.6,6.7l.5-.5a7.35,7.35,0,0,1,6.1-3.3c.1-1.5.1-3.1.1-4.7-.3-7.7-3.1-14.6-5.9-21.6-3.4-8.2-5.4-15.9-4.9-24.8a159.16,159.16,0,0,1,11.8-52.3c6.8-15.9,11.7-31.8,12-49.2a113,113,0,0,0-8.8-45.6c14.5.3,29.1,0,43.6-1,14.2-1,28.3-2,42.4-3.8,13.6-1.7,26.8-4.6,40.2-7.3,4,3.9,11.1,7.1,16.5,5a5.78,5.78,0,0,0,3.9-4.5c.3-1.9-.4-4.1-.6-6.1-.1-.5-.1-1.1-.2-1.6,5.6,1.6,12.9,1.8,15.2-3.6,1.4-3.2,0-6.8-2.4-9.1a45.8,45.8,0,0,0-4.3-3.4c-.7-.5-1.3-1.1-2-1.7,2.9-1.8,5.7-4,7.3-7.1,1.5-2.8,3.8-6.8,1.7-9.8-2.3-3.2-7-3.3-10.5-2.9-3.9.5-8.3.8-12.4,1.6a14,14,0,0,0,2.9-6.6c.4-3.4-.9-8.1-4.6-9.2a5,5,0,0,0-4.3.8,70.8,70.8,0,0,0-7.9,5.6c-3,2.3-5.9,4.8-8.8,7.1-3.5,2.8-7.4,7-12.2,7.1a2.17,2.17,0,0,0-1.4.5c-32.3-2.7-63.9-15.1-93.7-27.1-15.4-6.2-30.6-12.5-46.2-18.1-14.9-5.3-30.4-10.7-46-6.2a1.86,1.86,0,0,0-1.9.1,9.13,9.13,0,0,0-1.3.8,4.71,4.71,0,0,0,.2-2c-1.3-6.6-8.7-11.3-13.9-14.7-14.4-9.4-31.3-17-48.4-19.8-14.5-2.4-32.2,1.3-37.1,17.2-4.3,14,8,25,20.9,26.7a49.15,49.15,0,0,0,11.5,0,107.88,107.88,0,0,0-10.2,7.5,84.32,84.32,0,0,0-14.9,16.1c-3.8,5.5-8.7,12.9-7.4,19.9,1.2,6.3,5.8,9.2,11.5,10.1-12.3.7-24.1-1.2-33.7-10.2a41.26,41.26,0,0,1-10.8-17.3,36.1,36.1,0,0,1-1.5-9.2c1.9-2.6,3.4-5.3,3.7-7.9.3-1.9-2.3-3-3.7-2.1a6.42,6.42,0,0,0-1.3,1c-.1-.3-.1-.5-.2-.8a.81.81,0,0,0-1.4-.2,14.18,14.18,0,0,0-2.1,5.4,68,68,0,0,1-5,7.1c-4,4.4-8.8,7.8-14.7,8.8-2.5.4-2,3.9.1,4.5.8,7.5,12.1,14.8,17.2,18.9,8,6.4,16.6,11.6,26.9,13.1a84.91,84.91,0,0,0,28-.4c6.4-1.2,16.6-5.2,17.7-12.7h0a16.93,16.93,0,0,0,2.7-1,97.44,97.44,0,0,1-14.7,15.4,60.48,60.48,0,0,1-27.8,13.3c-5.8,1.1-12.3,1.5-18.1.2-3.2-.7-4.7-2.1-7.1-3.9a4,4,0,0,0-2.4-1.2,4.71,4.71,0,0,0-1.9-1.5,1.55,1.55,0,0,0-2,.5c-3.4,5.8,4.5,15.4,8.1,19.5,2.7,3.1,7.4,8.1,12.3,10.2-.7,2,.3,4.7,3,4.6a75.5,75.5,0,0,0,29.4-7.4c-3.8,5.8-6.2,13.4-8.2,19.8a116.68,116.68,0,0,0-4,16.5,30.44,30.44,0,0,0-4-2.5c-7-3.4-16.5-4.2-22.4,1.8-4.6,4.7-5.6,12.6-.8,17.4-4-.8-8.3-.3-12.4-.3-4.6,0-9.3.3-13.9.6-10.2.8-20.3,1.3-30.5.3-19.4-1.8-38.5-7.8-57.3-12.7-3.8-1-5.3,4.7-1.6,5.8,6.1,1.8,3.8,16.9,2.8,21.1a46.15,46.15,0,0,1-9.7,19.7c-1.5,1.8-.6,5,2,4.9,14.2-.5,28.3-.4,42.4-1.6-2.4,1.1-4.7,2.3-6.9,3.3-13.3,6.1-26.9,9.7-41.6,9.9a3.43,3.43,0,0,0-2.4,5.8A51.46,51.46,0,0,1,13,751c.2,3,.2,6.2,3.5,7.5,3.8,1.5,9-2.2,12-4,8.9-5.2,16.8-12.1,24.7-18.6,4.6-3.7,9.2-7.5,13.7-11.2a22,22,0,0,1,1.8-1.4c-1.2,1.7-2.3,3.5-3.4,5.3-4.4,7.2-7.8,15.5-6.2,24.1,1.3,7.5,6.3,14.1,13.9,16.1,8,2.1,15.7-.8,22.6-5.6-3.1,8-4.1,16.5,1.1,24.3a16.54,16.54,0,0,0,11.7,7.5c6.7.6,9.9-4.4,13.5-9.1,4.1-5.4,8-10.9,11.8-16.5-1,4.4-1.9,8.9-3.1,13.3a274.69,274.69,0,0,1-8.7,28c-6.8,18.5-15.8,35.5-25.2,52.8-1.8,3.2,1.6,6,4.3,5,8.5,11.2,23.9,15.8,36.9,19,10.1,2.4,20.3,4.4,30.5,6,7.9,1.3,17,3.5,25.2,3.1l-1.2,2.4a3,3,0,0,0-.2,2.6l-.1.2a2.75,2.75,0,0,0,0,2.9c2.6,3.9,8.6,3.7,12.9,4.3,6.2,1,12.4,1.7,18.7,2.1a239.24,239.24,0,0,0,28.1.4c-5.1,20.5-9.6,41.1-14.1,61.8-2.2,10.2-4.6,20.4-6.4,30.7-1.6,9.4-2.7,32.5-2.8,34.2-.2,3.5,2,6.2,3.6,9.2a34.53,34.53,0,0,1,4.3,12.9c.3,4.8-1.2,9.2-3.2,13.5-.7,1.4-1.6,4.6-3.2,5-1.9.5-2.9-2.8-3.6-4.3a193.25,193.25,0,0,0-12.6-21.6c-2.8-4.1-5.7-9.2-10.7-10.3a986.38,986.38,0,0,1-23.2-96q-2.7-14.25-5.1-28.5c-.8-4.8-1.6-9.5-2.3-14.3-.5-3.3-.2-7.3-3.4-9.1h-.2c-2.2,2.2-1.4,4.9-1,7.8.6,4.7,1.2,9.4,1.9,14,1.3,9.3,2.8,18.5,4.5,27.7q5,28.05,11.2,56c3.9,17.1,8.1,34.3,13.3,51.1,4.4,14.4,10,28.7,19.1,40.9,7.7,10.3,24.5,28.5,38.8,19.4a2.81,2.81,0,0,0-2.2-5.1,20,20,0,0,1-2.4.4,145.39,145.39,0,0,0-2.1-38.4c-2.3-12.5-6.3-26.3-13.2-37.1a2.32,2.32,0,0,0-1.6-1.2c.4-4.2.3-8.5.8-12.8.6-5.5,1.5-11,2.5-16.4,1.8-9.7,4-19.3,6.1-28.9,4.4-20.2,8.7-40.4,12.5-60.7v-.1c1.8-.1,3.6-.2,5.4-.4a245.46,245.46,0,0,0,36.2-5.6c5.3-1.2,12.9-2.6,18.2-6C316.41,897.14,315.81,894.74,315,892.34Zm-173.2-324.2c-8.7-1.7-16-6.4-22.8-11.9-3-2.4-6-4.8-8.8-7.4-1.8-1.7-3.3-3.8-5-5.6a27.63,27.63,0,0,0,10.3-6.5c.9-.8,1.8-1.8,2.8-2.8.4,1.9.8,3.6,1.3,5.2a44.35,44.35,0,0,0,11.9,19.8,46.82,46.82,0,0,0,16.7,10A44.77,44.77,0,0,1,141.81,568.14Zm116.1-59c8.9-.6,16.7-2.6,25.7-.5,8.1,1.9,16.1,4.9,23.9,7.8,15.8,5.8,31.3,12.4,47,18.6,15.3,6.1,30.7,11.9,46.5,16.4a229.28,229.28,0,0,0,47.9,7.9,1.6,1.6,0,0,0,1.7-.9c7.1-1.7,13.1-8.8,18.3-13.2,1.9-1.6,3.6-3.4,5.4-5.2.5-.5,2-2.4,2.8-2.5,2.9-.4,4.3,2,3.7,4.4-.8,3.9-4,6.6-6.6,9.6-.1,0-.2.1-.3.1a1.54,1.54,0,0,0-1.1,1.6l-.1.1c-1.4,2,1.8,4.5,3.4,2.7.4-.4.7-.8,1.1-1.2,5.8,0,11.8-1.4,17.5-1.8,4.4-.4,9.3,1.5,6.7,6.8-1.6,3.3-6.4,5.4-9.7,6-2.1.4-1.5,3.3.1,3.7,1,2.7,4.4,4.5,6.2,6.5,1,1,2.5,3,1,4.3-.7.6-2.8.6-3.6.6a16.39,16.39,0,0,1-8.1-1.9c-3.3-1.7-6.2,3.3-2.9,4.9.5.2,1,.5,1.5.7.4,3.6.6,8.8-3.1,8.6-4.3-.2-7-3.8-10.4-5.8a3.43,3.43,0,0,0-1.6-.4,2.85,2.85,0,0,0-1.3,0c-44.9,9-91.2,11.8-136.9,10.7-21.8-.5-44.9-1.3-66.2-6.5-17.8-4.4-37.9-16.2-39.8-36.4C224.81,533.84,243.41,520.74,257.91,509.14Zm-29,15.4a2,2,0,0,0-1.7-.1,58.38,58.38,0,0,1,5.6-4.2l3.3-2.1C233.71,520.34,231.31,522.54,228.91,524.54Zm2.1,1.2-.9,1.2v-.6A7,7,0,0,1,231,525.74Zm12.1-18.9a2,2,0,0,0,1.8-1.8c.3,0,.6.1.8.1,2.3.3,2.9-2.7,1.7-4.1a18.88,18.88,0,0,0-2-2,5.5,5.5,0,0,1,.9.7,14.91,14.91,0,0,1,3.3,3.9c-.2.1-.3.1-.5.2-9.2,5.5-18.4,11-27,17.5-8.8,6.5-15.9,14.7-27,17.2-3.5.8-2.9,0-1.3-2.9a32.64,32.64,0,0,1,4.3-6,62.2,62.2,0,0,1,11.2-9.3c7.4-4.9,15.4-9,23.3-13.2A60.85,60.85,0,0,0,243.11,506.84ZM219.61,531c-2.3,2.5-4.4,5.2-6.6,7.4l-.4.4c.4-.9.8-1.8,1.1-2.7.9-.7,1.7-1.4,2.5-2.1C217.41,533,218.51,532,219.61,531Zm17.1-37.9c.7.4,1.3.8,2,1.2-2.7-1.5-5.4-2.9-7.9-4.3-1.9-1.1-3.7-2.1-5.6-3.1C229.11,488.84,232.91,490.94,236.71,493.14Zm-9.9,4.4c-7.4-1.1-15.2-1.2-22.5-1.9-4.8-.5-9.8-.5-14.5-1.6-1.7-.4-4.2-1-4.4-3.1-.2-3.1,4.6-4.3,6.7-4.5,9.8-1.2,19.5,3.2,28.1,7.6C222.31,495,224.51,496.34,226.81,497.54Zm-58.5,1.9c-5.6-5.3-4.8-12.8.3-18.2,8.7-9.3,22.8-7,34.8-3.1-8.6-1.8-18.2-1.6-23.7,5.2-3,3.7-3.8,8.9-1.4,13s7.2,5.6,11.6,6.1c3.1.4,6.1.6,9.2.8-2.8.5-5.6.9-8.5,1.2C183,505.34,174.31,505,168.31,499.44Zm8.1,67.6c-.2.1-.5.1-.7.2a2.54,2.54,0,0,0-.3-1.5c1.5-.1,3-.2,4.5-.4A18.74,18.74,0,0,1,176.41,567Zm1.8-7.9a21.56,21.56,0,0,1-9.4-1.1c-4.5-1.6-5.3-4.7-3.6-9,4.3-10.7,13.5-20.5,22.6-27.4a77.23,77.23,0,0,1,15.1-9c4.1-1.9,8.5-3.2,12.7-4.9l3.3-.3a102.16,102.16,0,0,0-18.7,10.8,42.83,42.83,0,0,0-11.6,12.4c-2.1,3.5-5.1,9.2-2.1,13,3.3,4.1,10.4,1.2,14.3-.2,1.4-.5,2.7-1.1,4-1.7-.4.7-.8,1.4-1.2,2-1.3,2.1-2.6,4.2-4,6.2l-1.8,1.2C192,555.24,185.31,558.54,178.21,559.14Zm-35.4,53.4a34.3,34.3,0,0,0-4.7-3.6,49.83,49.83,0,0,1-8.6-7.9,43.9,43.9,0,0,1-4.2-6.1c6.3,2.8,14.4,2.5,20.9,1.8a63.2,63.2,0,0,0,30.3-12.3,100.16,100.16,0,0,0,21.1-22c1.5-2.1,3-4.3,4.4-6.5a95.56,95.56,0,0,0,10.9-9.1c2.6-2.5,5.1-5.1,7.5-7.7a7.46,7.46,0,0,1-.7,1.2l-8.7,15c-5.4,9.3-10.7,18.7-17.1,27.4C181.61,599.74,163.71,610.84,142.81,612.54Zm7.6,72.4c1.3-4.8,5.2-8.7,9.8-9.5,1.3,10.2,7.3,19.2,15.5,25.5,11,8.6,25.1,11.3,38.7,12.5,20,1.8,47.1,2,64.3-11.2-2.2,8.4-4.7,16.7-7.4,24.9-1,3.2-2.1,6.4-3.2,9.5-1.3.1-2.6.3-3.8.4-3.6.3-7.3.6-10.9.8-7.3.4-14.7.5-22,.3a190.82,190.82,0,0,1-45.1-6.9c-6.8-1.9-14.2-3.7-20.3-7.4-4.1-2.4-6.7-6-8.7-10a27,27,0,0,0-1.2-6.8,1.43,1.43,0,0,0-2.1-.7C151.31,699.94,148.41,692.14,150.41,684.94Zm-6.3,16.5a74.54,74.54,0,0,0,5.1,13.9c-.9,1.5-1.8,3.1-2.7,4.6-2.1,3.9-4.2,7.9-6.5,11.7a44,44,0,0,1-8.6,10.6,24.9,24.9,0,0,1-5.8,3.7c-1.3.6-6.1,2.6-7.3,1.6s-.2-5,.5-6.9a145.76,145.76,0,0,0,11.4-16l1.2-1.5C136.41,716.74,142.31,709.34,144.11,701.44Zm-128.5-2.3a46.66,46.66,0,0,0,8.6-22.6c.4-4.2.6-10.1-.8-15,16.2,4.6,32.4,9.5,49.1,11.6,10.5,1.3,21,.8,31.4-.1,5-.4,9.8-1,14.7-1.8,4.6-.8,9.5-.8,13.7-3.1a1.56,1.56,0,0,0,.6-.8,12.23,12.23,0,0,0,2.4,1c-.4.3-.8.7-1.2,1a138.26,138.26,0,0,0-23.4,12.4.37.37,0,0,0-.3.1c-8.1,2.1-15.5,6.5-23.6,9a151.15,151.15,0,0,1-24.9,5.3A324.4,324.4,0,0,1,15.61,699.14Zm38.7,28.4c-8,6.5-15.9,13.4-24.6,19-1.9,1.3-3.9,2.4-5.9,3.5-1,.5-2,1-3.1,1.5-1.4.7-.5,1.6-1.1.5-.7-1.3-.3-4.2-.6-5.8a49.84,49.84,0,0,0-1.3-6.5,55.33,55.33,0,0,0-7.8-16.9,99.3,99.3,0,0,0,33.7-8.7c6.1-2.7,12-6,18.1-8.9,5.2-2.4,10.6-4,15.9-6q6.15-1.35,12.3-3.3l3.9-1.2a154.16,154.16,0,0,0-13.9,14.1,2.6,2.6,0,0,0-1.7.2C69.61,713.54,61.91,721.34,54.31,727.54Zm29.2,33.8c-8.4,2.5-15.8-2.1-16.7-10.9-.8-7.9,3.9-15.4,8.1-21.8a147.17,147.17,0,0,1,27.5-30.9c-8,7.2-19.6,18.4-13.5,30.1,5.6,10.8,20.9,2.8,27.4-2.7,5.4-4.6,9.9-10.2,14.6-15.5,2.5-2.8,4.9-5.6,7.4-8.4-2.2,4.2-4.6,8.2-7.2,12.2-.1.2-.3.4-.4.6-3.8,4.8-8.3,9-12.2,13.7a33.23,33.23,0,0,0-5.8,9.5c-3.1,3.4-6.3,6.8-9.6,10C97.41,752.64,91.21,759,83.51,761.34Zm42.4,9c-3.4,4.8-6.9,9.5-10.5,14.2-1.8,2.2-3.3,4.4-6.4,4.4-2.3-.1-4.6-1.7-6.1-3.4-6.9-7.3-4.3-18-1.2-26.9a114,114,0,0,0,9.8-9.9,6.82,6.82,0,0,0,3.2,4.5c3.6,1.9,9.1,0,12.4-1.5a34.65,34.65,0,0,0,12.5-10c5.4-6.8,8.3-14.7,11.3-22.5.3.5.5.9.8,1.4C147.81,738.94,136.91,755,125.91,770.34Zm59,120.2c-4.9-.6-9.8-1.2-14.7-2q-14-2.25-27.6-5.7c-14.3-3.6-27.1-8.3-37.6-18.6,9.9-15.7,17.5-33.4,23.6-50.8a273.77,273.77,0,0,0,8.2-28.1c1.2-4.9,2.3-9.8,3.1-14.8.5-3.2,1.7-7.1-.5-9.7,2.5-4.1,4.9-8.3,7.2-12.5,3.7-6.9,7.5-14.5,9.5-22.4a35.94,35.94,0,0,0,11.6,7.6c16.8,6.9,35.6,10.3,53.6,11.8a168.34,168.34,0,0,0,28.4.1c4.6-.4,9.2-.8,13.7-1.6.8-.1,1.6-.3,2.4-.4-11.6,32.5-25.7,64.3-40.9,95.3-5,10.1-10.1,20.1-15.4,30-4.2,7.8-8.8,15.5-13,23.3C192.81,890.94,188.71,890.94,184.91,890.54Zm55.7,183a31.55,31.55,0,0,0,2.1-6.8c.2.9.4,1.8.6,2.8a139.23,139.23,0,0,1,2.4,37c-10.7-2.7-19.8-14.3-25.2-22.8-6.9-10.8-11.6-22.7-15.4-34.8,2.9,2.8,5.1,8,6.6,10.6,2.7,4.6,5.2,9.4,7.6,14.2s7.2,16.6,14.6,11.1C237.31,1082.44,239.11,1077.14,240.61,1073.54Z"/><path d="M730.81,236.64c-14.7,23.9-29,48-43.9,71.8-11.7,18.6-25.4,34.9-42.4,48.4a5.81,5.81,0,0,1-2,6.8,261.56,261.56,0,0,1-24.3,17.4c4.9-2.8,9.7-5.6,14.4-8.7a182.77,182.77,0,0,0,51.7-50.1c18.2-26.7,33.9-55.4,50.3-83.2C736.11,236.44,732.31,234.24,730.81,236.64Z"/><path d="M381.61,71.84c-.7-.5-1.7.7-1,1.3.9.7,4.5,2.9,4.8,3.9.7,2.8-3.5,1.8-5.1,2a136.15,136.15,0,0,0-13.8,3c-7.2,1.6-14.6,3.2-21.3,6.6-13.2,6.7-21.5,20.3-30.8,31.3a2.36,2.36,0,0,0,2.3,3.9c7.5-1.9,14.4,4.3,21.1,6.8,6.1,2.3,15.1,2.2,20.8-1.3a1.83,1.83,0,0,0-.9-3.4c-4.1-.3-8.1,1.4-12.2,1.2-4.6-.2-8.6-2.2-12.6-4.1-3.8-1.8-7.4-3.5-11.3-3.9,4.3-5,8.2-10.5,12.7-15.4a52.09,52.09,0,0,1,24.5-15c4.5-1.3,9.1-2.4,13.7-3.4,4.4-1,9.8-1.7,13.6-4.2C391.41,77.34,384.51,73.94,381.61,71.84Z"/><path d="M511.51,89c-3.7,7.5-7.9,16-9.9,24.1a.54.54,0,0,0,1,.4c4.1-7.4,6.9-16.3,9.4-24.4C512,88.94,511.71,88.84,511.51,89Z"/><path d="M579.11,167.74c-13.8,4.7-22.9,15.7-30.4,27.6-1.7,2.7-7.5,9.8-2.9,12.7,1.9,1.2,4.9.1,6.7-.4a28.38,28.38,0,0,0,6.8-2.7c-3.6,6.9-6.8,14-8.5,21.6-.3,1.1,1.3,1.5,1.7.5,3.3-8.4,6.4-16.7,10.8-24.6.5-1-.6-2.3-1.6-1.6a35.65,35.65,0,0,1-8.3,4.1,8.89,8.89,0,0,1-3.1.8c-1.1-.6-2.3-1.1-3.4-1.7a11.48,11.48,0,0,1,1.4-2.7,143.21,143.21,0,0,1,8.4-12c6.1-8.2,13.5-16,22.9-20.2C580.61,168.84,580,167.44,579.11,167.74Z"/><path d="M550.31,246.54c-1.7-3.3-4.5-5.7-3.6-9.7.8-3.5,3.7-5.9,6.3-8.2.5-.4-.2-1-.7-.7-3.6,2.8-8.3,7.1-7.8,12.2.3,3.5,3.3,6.4,4.5,9.7,1.3,3.7,1.4,7.7,2.5,11.5a1.17,1.17,0,0,0,2.3-.3A32,32,0,0,0,550.31,246.54Z"/><path d="M441.61,200.44c-8.6-1.2-3.9-11.1-1.9-15.7.8-1.9,1.9-4,.9-6.1-2.3-5.1-7.9-1.6-11.5-1.8-7.7-.4-1.3-5.5-.8-8.9.2-1.7,0-3.4-1.3-4.5-1.8-1.5-4.2-.6-6.3-.2-3.6.9-7.1,1.9-10.7,2.9a41,41,0,0,1,8.4-11.3c2.3-2.4,4.3-5.6,2.1-8.7a2.28,2.28,0,0,0-3.1-.8c-6,2.6-12.1,6.1-18.3,8.5a35.29,35.29,0,0,0,4.5-9.4,1.51,1.51,0,0,0-2.5-1.5c-3.7,3.7-6.1,8.9-8.5,13.6a2.07,2.07,0,0,0,2.8,2.8c6.2-3.7,13.5-5.9,20.4-8.4-1.9,2.6-6,6.4-6.8,7.5a34.68,34.68,0,0,0-4.9,10.7,2.29,2.29,0,0,0,2.8,2.8c4.7-1.5,9.4-3,14-4.6,3.1-1,4.8-.9,3.6,2.8-.4,1.4-1.6,2.5-1.9,4-.7,4,2.1,5.7,5.7,5.4,1.9-.2,3.7-1.1,5.6-1.3,4.8-.6,5.2,3.4,3.5,7.1-1.1,2.5-2.5,5.1-2.7,7.9-.2,4.3,2.3,8.4,6.8,8.3C442,201.44,442.21,200.54,441.61,200.44Z"/><path d="M483.91,339.64c-1.4,1.9-2.8,2.2-4.1.6-1.4-.4-1.8-1.4-1.3-2.8a32.61,32.61,0,0,1,.3-5.4c.2-3.6.4-7.3.7-10.9a1,1,0,0,0-.7-.9,13.24,13.24,0,0,0-7.6.8c-4,1.6-8.3,5-12.7,3.9,4.3-8.7,8.3-17.4,11.9-26.4.5-1.3-1.2-2.4-2.3-1.8-3.4,2-6.5,3.8-9.2,6.8a.85.85,0,0,0,1.2,1.2,21.57,21.57,0,0,1,5.9-4.1c-3.7,8.2-7.6,16.3-11.6,24.4a1.84,1.84,0,0,0,.7,2.5c4,2,7.9,1.4,11.8-.6,2.5-1.3,5.8-4.3,8.7-4.4s2.1,2,2.1,4V331c0,2.5-1.5,8.8.7,10.7,1.8,1.5,4.6-.5,6-1.7C484.81,339.84,484.31,339.34,483.91,339.64Z"/><path d="M539.71,342.34c-4.6,5.6-12.2,8.9-19.2,5.7a1.51,1.51,0,0,0-1.8.2,8,8,0,0,0-2.5,7.4c.2,1.2,1.4,2.4,1.5,3.4.5,4-3.3,6.9-5.6,9.5a.64.64,0,0,0,.9.9c2.4-2,8.6-5.4,8.7-8.9.1-1.4-1.1-2.6-1.7-3.7-.7-1.5-1.7-4.7.6-5.6.4-.2,2.4.5,2.7.6,7,1,14.3-2.2,17.6-8.5C541.31,342.54,540.31,341.74,539.71,342.34Z"/><path d="M666.61,237.94c-7.1-.5-6.8,9.4-6,14,.6,3.4,1,7-2.6,8.8-1.9.9-4.1.9-6,1.9-2.8,1.6-4.8,4.3-3.8,7.6a2.05,2.05,0,0,0,4-.5c.3-4.2,7.9-4,10.6-6.1a8.85,8.85,0,0,0,3.1-6.1c.8-6-3.3-11.9,1.8-16.7A1.72,1.72,0,0,0,666.61,237.94Z"/><path d="M588.91,691.34c-.7-7.5-1.9-15-4.9-22-6.1-14.4-22.2-24-37.5-17.7a1.5,1.5,0,0,0,.8,2.9c8.2-1.5,17-.1,23.7,5.2,6.5,5.2,9.4,13.4,10.8,21.4,3,18,2.4,37-5.2,53.7-6.6,14.6-15.7,32.3-32.1,37.5-7.4,2.3-15.8,1.3-21.5-4.2a16.17,16.17,0,0,1-4.9-10.4c-.4-4.9,1.5-9.7,1-14.5a3.08,3.08,0,0,0-5.7-1.5c-4.7,6.4-4.9,17.1-1.9,24.3,2.6,6.4,8.1,11.1,14.4,13.7,14.5,5.9,30.2-1.3,40.1-12.2,5.9-6.5,10.2-14.3,13.9-22.3,4-8.3,7.6-17,9-26.1S589.81,700.64,588.91,691.34Z"/><path d="M538.51,666.84a.86.86,0,0,0-1.1-.6c-3.8.8-5.8,5.8-7.6,8.9-2.8,4.6-5.4,9.5-7.9,14.3-2.3,4.6-4.5,9.3-6.6,14-1.9,4.4-4.6,9.1-4.8,14-.1,2.2,2.7,2.5,3.8,1,3-4,4.3-9.5,6.2-14.1s4.2-9.4,6.6-14c2.2-4.3,4.6-8.6,7-12.8C535.81,674.34,539.41,670.64,538.51,666.84Z"/><path d="M641.11,641.34c-3.3-.3-6.8,2.8-8.6,5.2-1.6,2.1-4.1,6.6-2,8.9a1.21,1.21,0,0,0,1.4.2c1.1-.7,1.2-1.6,1.7-2.7a29.3,29.3,0,0,1,2.1-3.9,15.2,15.2,0,0,1,3-3.2c1.1-.9,2.4-1.4,3.4-2.5A1.3,1.3,0,0,0,641.11,641.34Z"/><path d="M621.11,685.14c-14.6,19.7-26.3,45.5-25.7,70.4.1,2.9,4.6,2.9,4.5,0-.3-12.6,2.6-24.8,7.2-36.5,4.4-11.4,10.8-22,15.4-33.3C622.81,684.84,621.51,684.44,621.11,685.14Z"/><path d="M626.91,477c-2.8-14.3-8.3-27.6-22.5-33.6-5.7-2.4-14.8-4.3-20.6-1.3-1.7.9-3.3,2.6-2.5,4.6a2.22,2.22,0,0,0,3.5,1.1c.2-.1.3-.4.4-.6a1.65,1.65,0,0,0,1.3-.2l2.8-.3a29.46,29.46,0,0,1,4.2.1,30.3,30.3,0,0,1,10.6,3.2c6.6,3.5,10.9,9.1,13.5,16.1,4.9,13.3,6.1,28.4,4.8,42.4a87.47,87.47,0,0,1-13.5,39.9c-7.7,11.7-21.3,24.5-36.4,19.3-4.2-1.4-5.8,5-1.8,6.6,13.9,5.4,28.6-3.5,37.5-13.8,9.6-11,15.8-24.6,18.8-38.9A113.5,113.5,0,0,0,626.91,477Z"/><path d="M557.61,485.54c2.1-8.2,5.7-15.9,7.5-24.2.2-.9-1-1.7-1.6-1-11.3,13.3-14.9,32.8-15.8,49.7-.5,9.2-.7,18.5-.3,27.7.4,8,1.4,16.9,5.7,23.8,1.8,3,7.3,1,5.9-2.5-6.2-15.4-5.6-31.7-4.9-48.1A115.94,115.94,0,0,1,557.61,485.54Z"/><path class="q" d="M298.51,400.74c-3.8,0-3.8,5.9,0,5.9S302.31,400.74,298.51,400.74Z"/><path class="q" d="M297.81,418.74a2.3,2.3,0,1,0,2.3,2.3A2.26,2.26,0,0,0,297.81,418.74Z"/><path class="q" d="M281.51,408.54c-5.4,0-5.4,8.4,0,8.4S286.91,408.54,281.51,408.54Z"/><path class="q" d="M384.31,421.84a2.25,2.25,0,0,0-2.1-1.6,2.09,2.09,0,0,0-2,1.3,2.24,2.24,0,0,0,.9,2.7h.1a2,2,0,0,0,2.1,0h.1A2.34,2.34,0,0,0,384.31,421.84Z"/><path class="q" d="M387.21,430.84c-.2.1-.4.1-.5.2a3.63,3.63,0,0,0-2.6,3.4,3.76,3.76,0,0,0,2.6,3.4c.2.1.4.1.5.2,2.3.8,4.7-1.3,4.7-3.6A3.7,3.7,0,0,0,387.21,430.84Z"/><path class="q" d="M373.81,431.54a4.25,4.25,0,0,0-2.9,1.2,4,4,0,0,0-1.2,2.9,4.19,4.19,0,0,0,4.1,4.1,4.25,4.25,0,0,0,2.9-1.2,4,4,0,0,0,1.2-2.9A4.05,4.05,0,0,0,373.81,431.54Z"/><path class="r" d="M463.21,495.14c-4.2-2-9.4-1.6-13.9-1.4a88.89,88.89,0,0,0-16.2,2.2c-10.2,2.4-20.1,6.7-28,13.7-.5.4.1,1.1.7.9,9.1-4.6,18.2-9,28.2-11.3a78.1,78.1,0,0,1,15.3-1.9c4.5-.1,9.2.9,13.7.1A1.29,1.29,0,0,0,463.21,495.14Z"/><path class="r" d="M612,527.14c-5.5,7.2-9.9,15.3-16.5,21.7a45.41,45.41,0,0,1-10.3,7.7c-3.7,2-8,2.3-11.6,4.3a1.61,1.61,0,0,0,.4,2.9c7.9,2.4,18.6-5.1,24.1-10.2a67.53,67.53,0,0,0,16.6-25.4C615.21,526.54,612.91,525.94,612,527.14Z"/><path class="r" d="M696.41,400c-12.5,7.3-20.8,23.4-26.3,36.2a173.7,173.7,0,0,0-7.4,22.1c-1,3.8-1.9,7.7-2.8,11.5-.7,3.2-1.9,6.7,0,9.7a2,2,0,0,0,2.8.7c4.6-3.4,4.7-12.6,6-17.8a184.39,184.39,0,0,1,7-21.8,113.65,113.65,0,0,1,10.1-20c4-6.3,9.3-11.5,13.6-17.6C700.71,401.14,698.21,399,696.41,400Z"/><path class="r" d="M652.11,730.44c-3.6,2.6-6.1,6.6-9.1,9.9a158.47,158.47,0,0,1-22.8,20.5c-4,2.9-8.4,4.4-12.7,6.7a1.87,1.87,0,0,0,0,3.2c9.1,3.8,19.7-6.7,26.1-12a114.31,114.31,0,0,0,12.3-11.8c3.7-4,8.2-8.3,10.1-13.5C656.91,731.44,654,729.14,652.11,730.44Z"/><path class="r" d="M407,980.64c-4.6.5-8.1,4.1-12.2,6.2-5.6,2.8-11.8,4.3-18,2.3-9.6-3.1-15.2-12.4-21.1-19.9-.8-1-2.2.3-1.7,1.3,4.7,9.3,12,19.5,22.4,22.9,5.6,1.8,11.6,1.1,17-.9,5-1.9,12.2-5,14.5-10.1C408.21,981.54,407.91,980.44,407,980.64Z"/><path class="r" d="M417.21,961.84c-1.9,2-3,4.8-4.3,7.3a1.72,1.72,0,0,0,3,1.7c1.4-2.4,3.2-4.8,3.9-7.5C420.21,961.84,418.21,960.64,417.21,961.84Z"/><path class="r" d="M441.41,680.44c-6.3-.3-13.9,4.9-18.9,8.2-4,2.6-12.8,7.2-12.5,12.6a1.72,1.72,0,0,0,1.6,1.6c2.7.3,3.8-1.2,5.8-2.9a80.22,80.22,0,0,1,8.9-6.4,76.33,76.33,0,0,1,8.9-4.8c2.8-1.3,5.6-2,8-4.1C444.91,683.14,443.41,680.54,441.41,680.44Z"/><path class="r" d="M561.21,743.74c-4.1,4.5-6.7,10.4-11.7,14.1-6.7,5-12.9,2.6-19.3-1.2-1.8-1-4.1,1.1-2.9,2.9,4.4,6.8,14.4,8.1,21.4,5.1,7.7-3.3,13.5-11.4,15.4-19.4C564.31,743.84,562.31,742.44,561.21,743.74Z"/><path class="r" d="M577.61,714.74a1.85,1.85,0,0,0-2.6-1.1c-2.3,1.7-3.1,4.6-4.2,7.2a41.63,41.63,0,0,0-2.9,9.7c-.1,1,1,1.9,1.8,1.1a27.16,27.16,0,0,0,5.6-8.2C576.61,720.74,578.31,717.64,577.61,714.74Z"/><path class="r" d="M695.91,269.14c-4,2.4-6.7,6.8-9.5,10.4-3.1,4-6.1,8.1-9,12.2-6.1,8.7-12,17.6-18.2,26.2-12.6,17.5-27.8,35.4-47.3,45.4-1.5.8-.4,2.8,1.1,2.6,9.7-1.5,19.1-10.4,26-17a171.25,171.25,0,0,0,20.3-24.6c6.2-9,12.3-18,18.5-26.9,3.1-4.5,6.2-8.9,9.5-13.3s7.9-8.6,10.1-13.6C697.71,269.64,696.91,268.54,695.91,269.14Z"/><path class="r" d="M719.81,230.14a1.88,1.88,0,0,0-3.4.4c-1.2,4.7-.4,9.7-1.2,14.5-.8,4.5-3.3,8.8-3.6,13.3-.1,2.4,2.8,3.2,4.4,1.8,3.9-3.4,4.9-9.9,5.5-14.7C722.31,240.64,722.61,234.54,719.81,230.14Z"/><path class="r" d="M351.11,777.54a65.39,65.39,0,0,0-1.2-11.7c-.8-3.6-2.7-6.8-3.4-10.4-1.4-8.3.7-17.9,2.1-26.1,1-6,4-14.4-1.6-18.9-1.2-.9-3-.1-2.6,1.5,1.1,4.3-.2,8-1.2,12.1s-1.9,8.3-2.6,12.4c-1.2,6.7-2.7,14.1-1.5,20.9.6,3.4,2.1,6.4,3,9.6,1,4,1,8.2,1.2,12.3.4,8.1-.4,17.7,2.7,25.3,1,2.3,4.3,2.7,5.1,0C353.61,796.44,351.61,786.14,351.11,777.54Z"/><path class="s" d="M337.81,1041.34c-2-2.8-4.9-3.8-8-5-3.4-1.4-5.7-2.6-6.5-6.6a32.21,32.21,0,0,1-.1-7.6c.3-5.3.7-10.7,1-16s1.2-11,.3-16.4c-.3-1.6-2.4-1.2-2.9,0-2.1,5.7-2,12.3-2.5,18.3-.5,6.3-1.1,12.8-.7,19.1.2,4.1,1.2,8.1,4.4,10.8,3.6,3,8.6,3.5,12.4,6.2C336.71,1045.14,338.91,1042.94,337.81,1041.34Z"/><path class="s" d="M497.41,975.34a12.69,12.69,0,0,1-15-4.4c-1.2-1.7-4-.2-2.8,1.7a14.84,14.84,0,0,0,16,6.8c-.9,4.1-2,8.1-3.2,12.1-1.4,4.4-3.6,8.9-4.1,13.5-.2,1.5,1.8,1.6,2.5.7,2.7-3.6,4-8.8,5.3-13.1,1.4-5,2.6-10.1,3.5-15.2C499.61,976.34,498.71,974.84,497.41,975.34Z"/><path class="s" d="M587.11,800.94c-5,4.7-7.2,13.3-8.6,19.8-1.3,6.2-3.2,14.4-.4,20.3.8,1.7,3.1.9,3.6-.5,1.1-2.7,1-5.6,1.3-8.5a71.86,71.86,0,0,1,1.7-10.5c1.5-6.2,5.1-12.1,6.2-18.3C591.31,801,588.81,799.34,587.11,800.94Z"/><path class="s" d="M655.81,592.44c-.7-1.7-3.5-2.2-3.9,0-1.7,8.6-.4,18.9.6,27.6.2,1.9,3.2,2.7,3.7.5C658.11,611.84,659.21,600.94,655.81,592.44Z"/><path class="s" d="M422.61,470.54c-7.3.3-15.3,5.4-21.2,9.3a79,79,0,0,0-17.9,16.2c-.8,1,.5,2.5,1.5,1.5a95.1,95.1,0,0,1,18.4-14.4,85,85,0,0,1,10.9-5.4c3.1-1.3,6.5-2.1,9.3-3.8C425,473,424.51,470.44,422.61,470.54Z"/><path class="s" d="M409.71,616.34c-6.9,1.6-13.3,2.8-20.4,2.1-4.6-.4-17.6-1.9-18.9-7.8a1.28,1.28,0,0,0-2.5.3c.1,8,8.9,10.3,15.4,11.6,9.1,2,19.4,1.5,28-2.3C413.81,619.34,412,615.84,409.71,616.34Z"/><path class="s" d="M567.51,547.64c-5.7-2.7-5-7.4-3.9-12.9a76.56,76.56,0,0,0,1.6-11.7,1.37,1.37,0,0,0-2.5-.7c-2.6,6.2-6.1,14.5-4.8,21.4.8,4.4,4.3,8.4,9.1,7.4A1.92,1.92,0,0,0,567.51,547.64Z"/><path class="s" d="M699.51,516c-4.9,5-9.2,10.5-14.4,15.1-5.8,5.2-12,7.9-19.1,10.7-1.7.7-1.7,3.5.5,3.5,14.9-.1,28.8-15.2,36.7-26.4C704.71,516.74,701.31,514.24,699.51,516Z"/><path class="s" d="M551.41,668.74c-3.3,3.1-5,7.9-7,11.9-2.1,4.2-4.5,8.3-6.1,12.7-.6,1.7,1.9,2.6,2.9,1.2,2.8-4.3,4.9-9.2,7.2-13.8,1.8-3.6,4.1-7.3,4.6-11.4A1,1,0,0,0,551.41,668.74Z"/><path class="s" d="M651.71,652.64a1.46,1.46,0,0,0-.8,2.8c12.5,4.9,10.1,19.1,9.7,29.6-.1,2.7,4.2,3.3,4.8.6C667.91,673.94,666.81,654.84,651.71,652.64Z"/><path class="t" d="M475.71,757.84c-.4-1.5-2.5-2.6-3.9-1.6-2.7,1.9-3.5,4.8-5,7.7a82.49,82.49,0,0,1-5.9,9.4,42.12,42.12,0,0,1-18.4,14.2c-7.7,3-15.5,3-23.4.8s-18.2-4.6-18.9-14.3a2.1,2.1,0,0,0-4.1-.6c-3.5,8.7,4.1,16.9,11.5,20.3,9.6,4.3,20.6,6.4,30.9,4.2a48.89,48.89,0,0,0,25.6-15.2,54.11,54.11,0,0,0,8.3-11.9C474.11,767,476.91,761.94,475.71,757.84Z"/><path class="t" d="M477.21,720.64h0a69.66,69.66,0,0,0-3.3,11,3.09,3.09,0,0,0,.8,2.9,2.92,2.92,0,0,0,2.9.8,2.81,2.81,0,0,0,2.1-2.1,49.38,49.38,0,0,0,2-12C481.71,718.74,477.61,718,477.21,720.64Z"/><path class="t" d="M578.41,905.34a.74.74,0,0,0-.9.1c-2.3,2-1.4,5.4-1.7,8.2a47.32,47.32,0,0,1-2.9,11.2c-3,7.8-8.8,12.7-13.6,19.2-1.2,1.7,1.1,3.1,2.5,2.5,7.5-3.2,12.7-12.5,15.6-19.7a44.61,44.61,0,0,0,2.9-12.5C580.51,911.44,581.31,907.24,578.41,905.34Z"/><path class="t" d="M532.61,959.54a3.4,3.4,0,0,0-3.2-.8,49.23,49.23,0,0,1-10.7,2c-2.8.2-5.3.1-7.5,1.9-1.2.9-.6,2.7.4,3.4,2.7,1.9,6.8,1.3,9.9,1.1a31.06,31.06,0,0,0,10.4-2.5,3.31,3.31,0,0,0,1.6-2.8A2.7,2.7,0,0,0,532.61,959.54Z"/><path class="t" d="M532.21,854.54c-6.4,1.7-12.3,5.4-17.5,9.6-4.8,3.9-10.4,9.4-11.7,15.6-.3,1.4,1.3,3.2,2.8,2.1,4.6-3.5,8-8.4,12.3-12.2,4.9-4.3,10.5-7,16.3-10.1C537.21,858.14,535.21,853.74,532.21,854.54Z"/><path class="t" d="M589.51,324.84c-2.7,2.9-4.5,5.7-7.9,7.8-2.2,1.4-7,4-3.9,7,2.9,2.7,7.5-1.1,9.7-3.1,2.6-2.3,5.5-5.8,6.3-9.3A2.49,2.49,0,0,0,589.51,324.84Z"/><path class="u" d="M489.51,262c-8.4-.1-17.3,2.7-24.9,5.9-7.3,3.1-16.3,7.5-21.3,13.9-1,1.3.2,3.4,1.9,2.5,3.3-1.9,6.2-4.5,9.5-6.6a68.15,68.15,0,0,1,12.1-6c7.7-3,15.3-3.9,23.4-5.2C492.81,266.14,492,262,489.51,262Z"/><path class="u" d="M508,269.34a119.59,119.59,0,0,0-19.5,5.3c-5.1,1.9-11.2,3.6-15.5,7.1a1,1,0,0,0,.7,1.6c5.7-.4,11.4-3.2,16.8-5,6.1-2,12.2-4.1,18.2-6.4A1.35,1.35,0,0,0,508,269.34Z"/><path class="u" d="M504.41,285.14a46.33,46.33,0,0,0-11.6,5.7c-1.3.9-.1,2.9,1.2,2.1a19.83,19.83,0,0,1,2-1.1,2.39,2.39,0,0,0,1.1,2.3c2.1,1.4,4.7,2.3,7,1a1.22,1.22,0,0,0,0-2.1c-.7-.4-1.5-.7-2.2-1.1l4.2-3.9C507.31,286.84,506,284.54,504.41,285.14Z"/><path class="v" d="M603.51,297.44c-6.6-.7-13.1.2-19.8-.8-2.7-.4-18.9-2.8-17.5-7,.3-.8-.8-1.3-1.4-.8-5.6,5.4,6.8,9,10.1,9.9,8.6,2.3,20.3,4.2,28.9,1.1A1.22,1.22,0,0,0,603.51,297.44Z"/><path class="v" d="M612,280.84c-3.8-2-7.6-3.9-11.5-5.5,3.3.4,6.6.6,9.9.7a.62.62,0,0,0,.2-1.2,213.52,213.52,0,0,0-22.8-4.4,1.55,1.55,0,0,0-.8,3,138.11,138.11,0,0,1,16.4,6.8c-6.8-.3-13.9-.7-20.2.5a1,1,0,0,0,0,1.9c8.7,2.1,19,1.1,27.9,1.4A1.71,1.71,0,0,0,612,280.84Z"/><path class="v" d="M649.71,173.34c-8.3-5.7-12.5-15.7-21.2-21.1-4.3-2.7-9.4-3.8-14.3-5-6.5-1.5-13.1-3.3-19.7-4.3-2.4-1.1-4.4,3.3-1.3,4.3,6.1,2,12.5,3.4,18.7,4.9,5.4,1.3,10.9,2.4,15.4,5.8,5.1,3.8,8.8,9.1,13.1,13.6a138.63,138.63,0,0,0-25.8-1.3,2,2,0,0,0-.5,4c5.2,1.5,8.6,4.4,12.5,7.9.5.5,1.5,0,1.2-.7a15.81,15.81,0,0,0-5.3-7.2,114,114,0,0,1,25.3,3.3C650.51,178.34,651.81,174.84,649.71,173.34Z"/><path class="v" d="M620.61,183.54c-2.1-.1-5.1.1-5.8,2.6-.5,1.8.8,4.1,2.9,3.5.9-.2.7-1.7-.2-1.6-.7,0-.9-1.2-.6-1.8.6-1.1,2.6-1.1,3.7-1.2C621.61,185.14,621.61,183.64,620.61,183.54Z"/><path class="w" d="M483.51,137.64c-2.3-4.9-8.7-8-13.3-10.5a77.55,77.55,0,0,0-16.1-6.5,79.16,79.16,0,0,0-34.9-1.6c-1.5.3-1.2,2.9.4,2.8a83,83,0,0,1,33.2,3.6,78.41,78.41,0,0,1,15.4,6.8c4.4,2.5,8.4,6.7,13.3,8.1A1.84,1.84,0,0,0,483.51,137.64Z"/><path class="w" d="M463.61,141.34c-8.3-4.9-17.7-6-27.1-4.3-.3.1-.2.6.1.5a38.24,38.24,0,0,1,21.3,4.5,97.74,97.74,0,0,0-10.6,2.9,1.37,1.37,0,0,0,0,2.6c1.7.4,3.3,1,5,1.4,1,.2,1.6-1.2.7-1.6a3,3,0,0,1-.8-.4c3.7-.6,7.3-1.4,11-2.3A1.84,1.84,0,0,0,463.61,141.34Z"/><path class="w" d="M467.91,159.44a17.8,17.8,0,0,0-4.4-2.1c-1.5-.6-3-1.3-4.5-1.9-1-.4-2,1.1-.9,1.6,1.6.7,3.2,1.5,4.8,2.2a18.54,18.54,0,0,0,4.4,1.8A.89.89,0,0,0,467.91,159.44Z"/><path class="w" d="M480.71,235h0c-5-.6-10.4.4-15.4,1.1-4.1.6-10.2.8-13,4.2a1.5,1.5,0,0,0,.6,2.4c3.8,1.6,8.9-.7,12.8-1.4,5.2-.9,10.5-.8,15.6-1.9C484,238.84,483.11,235.14,480.71,235Z"/><path class="w" d="M466.31,229.74c-.7,0-1.4.1-2.2.1-.1-.3-.3-.5-.6-.4a14.5,14.5,0,0,0-3,.6c-.1,0-.1.1-.2.1a57,57,0,0,0-13.2,2.3c-.6.2-.6,1.3.2,1.2,6.4-.2,12.6-1.2,19-1.3A1.3,1.3,0,0,0,466.31,229.74Z"/><path class="w" d="M375.11,138.54a1.27,1.27,0,0,0-1.9-1.6,29,29,0,0,0-7.6,7.3c-1.2,1.1-2.5,2.2-3.7,3.3-.6.5.3,1.4.9.9.1-.1.2-.1.2-.2-4.2,7.6-5.6,16.9.1,23.3,1.5,1.7,3.9-.5,3-2.3a18.81,18.81,0,0,1,.1-17.7C368.61,146.74,372.71,143.14,375.11,138.54Z"/><path class="w" d="M373.51,153.84a.89.89,0,0,0-1.3-.3h0c-1.5,1-1.8,2.7-2.2,4.4a42.46,42.46,0,0,0-1.2,6.2,1.8,1.8,0,0,0,.9,1.6,1.7,1.7,0,0,0,1.4.2,1.89,1.89,0,0,0,1.3-1.3,43.82,43.82,0,0,0,1.2-6.1C373.91,156.84,374.41,155.34,373.51,153.84Z"/><path class="x" d="M418.51,430.84a1.79,1.79,0,0,0-1.8,2.2c-.2-.1-.4-.1-.5.2s-.5.9-.7,1.3c-.3.6.6,1.1.9.5.2-.4.4-.9.6-1.3a1.68,1.68,0,0,0,1.6,1C421,434.64,421,430.84,418.51,430.84Z"/><path d="M493.81,713.34c-.5-.8-1.9-.3-1.5.7,4,11.3,4.4,23,2.6,34.8-1.6,10.3-2.8,22.8-8.6,31.7-1.2,1.9,1.5,3.9,3.1,2.4,3.8-3.7,5.3-8.5,6.5-13.6a196.14,196.14,0,0,0,3.6-19.8C501,737.14,500.41,724.14,493.81,713.34Z"/><path d="M523.61,407c-16.4,8.5-35.5,7-52.4.9a156.17,156.17,0,0,1-25-12.2c-7-4.1-16.5-8.3-20.4-15.8a1.48,1.48,0,0,0-2.7,1.1c2.4,8.1,10.7,12.8,17.4,17.2,9,5.8,18.3,11.1,28.3,14.9h.1a.69.69,0,0,0,.4,1.1c2,.5,2.5,11,2.9,12.8l.7,3.7c-1.7.8-2.7.5-3.1-1-1.5-1.3-2.5-5.2-3.4-7-.4-.9-1.8-.4-1.8.5a23.56,23.56,0,0,0,1.5,7.9c.4,1.4,2.2,2.9.7,4.5-.2.2-1.8.4-2.3.6-2.3,1.5-2,4-.2,5.7a.28.28,0,0,0,.4-.4c-.1-.1,2.2-5.4,2.2-5.4.1-.2,1-.1,1-.3s.6-.5.7-.9c.3-.8-.9-2.7-1.2-3.5a24.6,24.6,0,0,1-.7-2.9c1.8,3.9,4.5,8.2,7.6,6.1,1.8-1.2.8-3.9.5-5.7-.9-5-1.7-10-2.9-15,1.9.6,3.9,1.2,5.8,1.7.5,3.1,2.9,6,4.5,8.6a24.59,24.59,0,0,1,3.4,8.2c.6,3,.4,5.9,1,8.9a1.83,1.83,0,0,0,3.3.4c2.2-4.6,1-10.6-1.1-15.1a64,64,0,0,0-4.8-7.9,18.58,18.58,0,0,1-1.1-1.9c14.6,2.8,29.8,1.8,43.4-5C530,410.44,527,405.34,523.61,407Z"/><path d="M465.11,446c-.2,1.2-.3,2.3-.5,3.5a13.82,13.82,0,0,0-.3,3.5c.1.5.9.9,1.1.3.9-2.1,1-4.8,1.4-7.1C467.11,445,465.31,444.74,465.11,446Z"/><path d="M463.51,452.94a1.1,1.1,0,0,0,0,2.2A1.1,1.1,0,0,0,463.51,452.94Z"/><polygon class="d" points="490.11 442.04 524.01 412.54 500.01 415.04 476.01 413.04 484.01 422.54 491.01 431.04 490.11 442.04"/><path class="p" d="M385.11,911.84c-8,1.6-14.8,5.3-23.3,5.3a41.66,41.66,0,0,1-23.4-7.2c-2.9-1.9-6.5,2.6-3.8,4.9a43.47,43.47,0,0,0,27.2,9.9c8.8.1,20.3-2.3,25.5-10C388.31,913.14,386.61,911.54,385.11,911.84Z"/><path class="p" d="M397.71,825.44c-3.5-5.2-11.4-11.2-17.8-12a1.1,1.1,0,0,0-.8,1.8c2.3,2,5.3,3.4,7.8,5.2,3,2.1,5.3,4.8,8.1,7C396.41,828.64,398.81,827.24,397.71,825.44Z"/><path class="p" d="M404.71,836.94a1.64,1.64,0,0,0-3.2.4c-.4,8.2.9,16.5.5,24.8a59,59,0,0,1-1.9,12.6c-.9,3.6-2.3,7.1-2.5,10.8-.1,1,1.2,1.3,1.8.8,6-5.1,6.9-15.1,7.3-22.5C407.41,855.14,407.11,845.34,404.71,836.94Z"/><path class="p" d="M431.21,981.34c-3.7,4.7-6.1,10-10.2,14.5-3.6,4-9,6.8-11.6,11.5a.73.73,0,0,0,.6,1.1c5.8.1,10.8-5.1,14.5-9,4.2-4.4,8.8-10,10-16.1C434.91,981.54,432.61,979.64,431.21,981.34Z"/><path class="p" d="M447.81,1020.84c-7.5,3.3-14.7,7.2-22.5,10-6.8,2.5-14.3,3.8-20.9,6.7-1.4.6-.7,2.9.8,2.9,7.6-.1,15.8-3.4,22.9-6.1,7.3-2.8,15-5.8,21.6-10.1A2,2,0,0,0,447.81,1020.84Z"/><path class="p" d="M437.81,825.54a2.41,2.41,0,0,0-.7-1.7,2.57,2.57,0,0,0-3-.4c-3.3,1.6-7.2,5.2-8.1,8.9a2,2,0,0,0,3.4,2c1.2-1.1,2.1-2.6,3.3-3.7a28.19,28.19,0,0,1,3.9-2.9A2.63,2.63,0,0,0,437.81,825.54Z"/><path class="p" d="M510.91,681.64c-3.7,3.1-6.3,7.6-9.9,10.9-3.9,3.7-8.4,6.1-12.8,9.1-1.6,1.1-.7,4,1.4,3.3,5.2-1.7,10-5.1,14.1-8.6,3.9-3.3,8.7-7.9,10.1-13C514.31,681.64,512.21,680.64,510.91,681.64Z"/><path class="p" d="M342.71,818.94a29.76,29.76,0,0,0-5,4.4c-1.5,1.6-3.5,3.2-4,5.4-.3,1.6,1,3.4,2.8,2.8,2.2-.8,3.4-2.8,4.9-4.5a26.33,26.33,0,0,0,3.8-5.6C345.91,819.94,344.31,817.84,342.71,818.94Z"/><path class="p" d="M717.91,290.74c-5.4-3.8-10.1,4.7-12.6,8.3-4.4,6.2-8.4,12.7-12.5,19.1a182.16,182.16,0,0,1-13.3,19.2c-2.3,2.8-4.7,5.4-7.2,8s-6.2,4.9-7.9,8.2a2.36,2.36,0,0,0,2.6,3.4c5.8-.9,11.7-8.1,15.3-12.4a149.92,149.92,0,0,0,12-16.4c7.5-11.6,13.8-25.3,23.9-35A1.51,1.51,0,0,0,717.91,290.74Z"/><path d="M730.71,203.94c-.6-6.7-1.2-13.8-3.7-20.1-2.6-6.5-7.3-11.9-11.6-17.3-5.3-6.7-10.4-13.5-15.8-20-1-1.3-2.7-.9-3.7.1a34.39,34.39,0,0,0-6-7.9,3,3,0,0,0-.7-.5c-9.7-8.8-28.8-9.2-40.3-10.5s-22.9-2-34.4-3.2c-9.7-1-21.1-1.3-29.6,4a2.18,2.18,0,0,0-.5.4h-.3c-9.8.4-20,2-29,6.1-8.8.5-16.8,5.2-24.7,8.7-2.4,1.1-5.2,2.1-7.9,3.2a54.66,54.66,0,0,0-7.3-13,63.19,63.19,0,0,0-9.4-9.9c5.6-18.1,17.1-33.7,35.9-39.6,9.8-3.1,20.5-2.7,30.1-6.7,7.9-3.3,12.9-9.1,15.8-17.1a2.42,2.42,0,0,0-1.1-2.7,41.44,41.44,0,0,1-8.4-5c14.5-4.4,31.6-4.4,44.9,2.9,1.6.9,4.3.2,4.6-1.9a16.51,16.51,0,0,0-2-10.8,112.32,112.32,0,0,1,21.4,5.6c8.9,3.3,18.1,11.1,28,8.8a3.35,3.35,0,0,0,2-4.9c-9.9-14.8-24.3-25.3-39.7-33.7-16.4-9-34.2-17.6-53.1-18.8-30-1.9-61.6,15.3-74.1,43-4.4,9.9-6.1,20.5-8.2,31.1-2.3,11.7-4.7,23.5-7,35.2-.7-4.1-1.5-8.1-2.3-12.2-1.2-5.9-3.1-11.6-7-16.4-8-9.8-21.4-14.6-33.2-17.9a132.62,132.62,0,0,0-43.9-4.8c-6.9.4-24.3,1.8-22.5,12.5a2,2,0,0,0,3.3.9c1.3-1.5,2-3.3,3.5-4.6,1.9-1.7,4.6-2.5,7-3.1,5.7-1.3,11.9-1.3,17.8-1.2a125.1,125.1,0,0,1,36.9,6.1c10,3.3,21.9,7.5,28.6,16.2,4,5.1,5.3,11.5,6.7,17.7.9,4.1,1.8,8.2,2.8,12.3a95.22,95.22,0,0,0-14.7-6.2c-1.2-.9-2.4-1.9-3.7-2.8a55.09,55.09,0,0,0-13.9-6.5c-9.9-3.4-20.6-4.9-31-5.6-11.2-.8-23-1.6-34.2-.2a54.45,54.45,0,0,0-15.7,4.6c-6.3,2.8-12.5,6.3-19.7,5.9-1.3-.1-1.2,1.8,0,2,11.7,1.5,21.5-6.8,32.6-8.7,12-2.1,24.8-1.1,36.9-.3,11.5.7,23.5,2.3,33.9,7.6.3.1.5.3.8.4-2.8-.6-5.7-1.1-8.5-1.5-23.2-3.4-47.8-2.9-69.6,6.6-19.3,8.4-34.5,24.3-40.1,44.8-2.9,10.7-2.9,22.4,1.3,32.7s12.7,20.6,24.8,20.1a2.11,2.11,0,0,0,.6-4.1c-18.6-5.9-24.1-28.3-20-45.4,4.4-18.2,17.2-32.8,33.9-40.9,18.4-8.9,40.1-10,60.1-7.8,19.8,2.1,41,7.6,56.1,21.4a52.44,52.44,0,0,1,13.4,19.5c-1.4,1-2,1.7-1.7,3.5.2,1.5,2.3,1.5,3,.3.3,1.1.6,2.1.9,3.2a39,39,0,0,1-.8,20.7c-.2.3-.5.5-.7.8-14.9,17.9-14.7,38.9-8.7,59.3a23.76,23.76,0,0,1-8.9,8.9c-2.5-.3-5-.5-7.5-.7-11.1-.7-20.6.6-30.7,5.5-8,3.8-15.9,7.8-22.9,13.2-6.3,4.8-12.6,10.7-13.1,19-.1,2,2.5,2.8,3.8,1.6,5.4-5.1,9.5-11.2,15.7-15.6s13-7.7,19.8-10.9c16.6-7.9,34.1-5.4,51.3-1.4,2.9,6.5,6.1,12.9,9.3,18.8,8.5,16,20,29.9,37.4,36.4.6.2,1.3.4,1.9.6a2.67,2.67,0,0,0-.3,1.8c2,9.8,5.8,18.8,5,29a31.74,31.74,0,0,1-1.7,8,19.23,19.23,0,0,1,1.7-1.3,50.84,50.84,0,0,1-7,21.8c-2,3.3,3.1,6.3,5.2,3a44,44,0,0,0,6.7-25.9.37.37,0,0,1,.3.1c.2-1.1.4-2.1.6-3.1,1.4-10.5-1.4-22.2-5.5-31.9a83.75,83.75,0,0,0,20.6,2,104.15,104.15,0,0,0,13.7-1.3c4.3-.7,8.2-2.1,12.4-3.3a9.36,9.36,0,0,1,1.6-.4c1.4-.3,1.1-2.7-.3-2.5-1.2.2-2.3.3-3.5.4-.5,0-1,.1-1.4.1-5.8.4-11.8.3-17.6.3a91.21,91.21,0,0,1-22.1-2.3c-15.3-3.9-26.4-13-35-26a206.79,206.79,0,0,1-13.7-24.4,3.3,3.3,0,0,0-1.7-4.9c-.2-.1-.5-.2-.7-.3-1.8-4.1-3.6-8.3-5.1-12.5-5.7-15.6-8-32.9-.4-48.3a2.73,2.73,0,0,0,3.9-.7,33.6,33.6,0,0,0,6.5-13.1c1.4-1.5,2.8-2.9,4.2-4.4,4.9-5.2,7.2-11.4,10.6-17.5,6.7-11.9,19.5-17.4,32.5-19.5,27-4.3,58.8,3.5,80.7,19.8a70,70,0,0,1,26.3,38.7c4.1,15.8,1.2,30-5.6,44.5-1.3,2.7,2.3,6.2,4.5,3.5,9.4-11,11.6-27.2,9.8-41.2a75.05,75.05,0,0,0-18-40.1c-16.2-18.5-40.3-28.6-64.7-31.8,2.5-.1,5-.2,7.5-.2a185.74,185.74,0,0,1,28.8,2.6c9.1,1.4,18.3,2.6,27.3,4.5,8.5,1.8,17.3,5.1,19.1,14.6a2.9,2.9,0,0,0,3.3,2.3c2.8,7.6,3.5,16,3.7,24.2.2,13.9.2,28.1-2,41.9a93.63,93.63,0,0,1-15.4,39.3,279.11,279.11,0,0,1-25.7,31.6c-20.8,22.4-47.6,51.3-73.4,69a22.83,22.83,0,0,1-.2,6.3c3.3-2,6.2-10.8,9.4-12.9a343.56,343.56,0,0,0,65-54.7c19-20.7,38.9-43.9,44.6-72.1,3.2-15.8,3.7-32.4,3.8-48.5,0-7.8-.4-16-2.6-23.5l9.3,12c4.6,6,10.3,12,13.1,19.2,2.5,6.3,2.9,13.5,3.4,20.2.6,7.7.5,15.5.6,23.2.1,3.7,5.4,3.6,5.7,0A210.8,210.8,0,0,0,730.71,203.94Zm-229.2-83.3c-1.8-1.3-3.7-2.5-5.6-3.7-.2-1.5-.5-3.1-.8-4.6a1.32,1.32,0,0,0,1.9-.9c3.9-18.6,6.6-38,12.3-56.1a68.06,68.06,0,0,1,27.3-36.4A75.74,75.74,0,0,1,577,6.14c18-.3,34.7,6.8,50.4,14.9a19.83,19.83,0,0,1,2,1.1c-3.4-.8-6.9-1.2-10.1-1.7a98.31,98.31,0,0,0-16.2-1.3c-11.7.1-23.5,1.2-34.6,5.1-24.6,8.5-38.4,30.4-52,51.2,0,0,0,.1.1,0,7.6-9.7,14.3-21.2,23.4-29.5s18.1-15.3,30-19.3a82.88,82.88,0,0,1,32.4-4,173.94,173.94,0,0,1,17.5,2.1c5.2.9,10.5,2.9,15.9,3.2a1.55,1.55,0,0,0,1.6-1.4c11.2,6.5,21.8,14.2,29.9,24.2-3.6-1.1-7.1-3.5-10.4-5.1a103.32,103.32,0,0,0-13.3-5.5,106.85,106.85,0,0,0-29.1-5.4c-4.1-.2-4.6,5.8-.9,6.9a10.5,10.5,0,0,1,6.9,6.7c-16.4-5.5-32.7-6.4-49.4.4-2.1.8-3.1,3.3-1.3,5.1a29.46,29.46,0,0,0,12.7,7.8c-2.5,9.7-17.2,12.9-25.6,14.2-9.8,1.5-19.2,3.1-27.9,8.1C515.61,91.54,504.31,105.24,501.51,120.64Zm0,126.9a24.15,24.15,0,0,0,7-6.5c.9,2.8,1.9,5.7,3,8.4C508.21,248.74,504.91,248,501.51,247.54Zm43.2-106.2c-5.8,4.7-9.3,10.6-12.3,17.3a42.3,42.3,0,0,1-5.6,9.7,53.26,53.26,0,0,0-3.1-18c.5-.2.9-.3,1.1-.4l9.9-4.5c3.7-1.7,7.5-3.7,11.4-5.2Z"/><path d="M474,223.24c-.8-4-2.6-8-3.9-11.9-.5-1.7-1.1-5.7-2.7-6.8l-.1-.1c-.9-.6-1.8.2-1.9,1.1-.3,2.6,1.8,6.1,2.8,8.5,1.4,3.2,2.6,6.8,4.5,9.7A.7.7,0,0,0,474,223.24Z"/><path class="g" d="M625.21,316.64c-3-1.9-7.8-5-11.3-2.7a1.36,1.36,0,0,0-.3,2c1.3,1.4,3,1.7,4.7,2.1,1.9.5,3.9.7,5.8,1.2A1.43,1.43,0,0,0,625.21,316.64Z"/><path d="M449.91,503.34c-8.2.2-17.2,2.9-25,5.2-6.8,2.1-16.7,4.8-21.4,10.5-.7.8-.1,2.3,1.1,1.9,3.3-1,6.1-3.1,9.2-4.5a93.5,93.5,0,0,1,12.8-4.8c7.7-2.3,16.2-2.9,23.7-5.6A1.38,1.38,0,0,0,449.91,503.34Z"/><path d="M419.61,479.94c-7.2,2.2-14,6.6-20.2,10.7-1.7,1.1-19.5,14-19.3,14.3-.2-.4-1-.4-1,.1l-.1.5a1.08,1.08,0,0,0,.2.8c1.2,1,2.2.7,3.5-.1,4.3-2.4,8.1-6.7,12.2-9.6,8.1-5.8,17.2-9.7,25.5-15A1,1,0,0,0,419.61,479.94Z"/><path d="M419.71,621.64c-11,1.7-21.3,3.1-32.5,2.3-.5,0-.7.9-.1,1,10.6,1.8,22.8,1.8,33.1-1.7A.84.84,0,0,0,419.71,621.64Z"/><path d="M532.51,541c-.4-12.5-3.3-26.3-10.4-36.8-.7-1-2.5-.4-2,.9,4.6,11.5,8.2,22.5,8.5,35.1a79.63,79.63,0,0,1-1.7,18.2c-1.2,5.9-4.1,11.4-5.2,17.2-.3,1.4,1.6,3,2.7,1.6,3.7-4.6,5.2-11.3,6.4-16.9A84,84,0,0,0,532.51,541Z"/><path d="M519.41,411.44c-2.1-.5-4.5.3-6.5.9-2.3.6-5.2.7-7.2,1.9-.1,0-.1.1-.2.1-3.3,0-6.6,0-9.9-.2a67,67,0,0,1-12.6-1.7c-3.3-.8-6.5-2.3-9.9-2.7a1.34,1.34,0,0,0-.9,2.3,14.46,14.46,0,0,0,3.6,2.8,1.9,1.9,0,0,0,.7,1.1,38.19,38.19,0,0,1,8.3,10c2.3,4.2,1.8,8.2,3,12.6.7,2.4,3.6,2,4.4,0,2.7-6.8-1.1-14.9-6.4-20.6a70.18,70.18,0,0,0,10.7.8,138.49,138.49,0,0,0,14.4-.4c3.1-.2,6.4-.3,7.9-3.2a1.36,1.36,0,0,0-.3-1.7,4,4,0,0,0,1.2-1A.6.6,0,0,0,519.41,411.44Z"/><path class="x" d="M525,600.34c-6-13.8-13.2-27-20.6-40.2a6.55,6.55,0,0,1-1.8,1.5,7.55,7.55,0,0,1-1.1,1.4,29.72,29.72,0,0,1-3.5,2.7c3.8,6.9,7.5,13.8,11.2,20.8,8.8,16.9,17.4,35.1,18.3,54.4,1,20.7-6.5,39.5-17.2,56.8-2.7,1.3-4.6,4.6-6.7,6.6a70,70,0,0,1-9.9,8.1,2,2,0,0,0,2.1,3.5,16.18,16.18,0,0,0,1.8-1c1.8-1.4,3.5-2.8,5.2-4.4s3.5-3.4,5.4-5l1.4-1.4v.3a19.52,19.52,0,0,1,4.6-2.8,17.23,17.23,0,0,1,2.1-.7,8.36,8.36,0,0,1,2-.8l.1-.1c0-.1.1-.1.1-.3l.9-1.8a4.33,4.33,0,0,1,2.2-2.4c6.9-12.9,11.9-26.6,13.6-41.2C537.41,635.74,532.41,617.34,525,600.34Z"/><path class="x" d="M652.61,348.84c-12.2,9.6-23.8,20.2-35.7,30.2s-24,19.9-36.2,29.6c-24.8,19.9-49.9,39.4-75.6,58.1q-19,13.8-38.4,27.4c-3.2-5.4-6.5-10.9-9.8-16.3q40.65-36.45,81.1-73.2c27.7-25.1,54.7-51.2,83.2-75.4,2.5-2.1-1-5.4-3.5-3.5-14.5,11.2-28,23.7-41.7,35.9q-21.45,19-42.8,38.3-40.05,36-79.9,72.1-14.55-23.55-29.7-46.5c-2.1-3.1-7.1-.3-5.1,3,9.8,16.2,19.6,32.4,29.2,48.7-2.1,2.4.5,5.6,3.2,5.3,3.3,5.5,6.5,11,9.7,16.6-.9,2.1.6,4.8,2.7,4.7,5.7,9.9,11.4,19.8,17,29.8,3.3,5.9,6.5,11.7,9.8,17.6a46.08,46.08,0,0,1,7.1-2.5c.3-.1.5-.1.8-.2-.4-.7-.8-1.5-1.2-2.2q-13.05-23.4-26.7-46.5c50.9-33.7,99.4-71.6,145.6-111.5,13.6-11.8,27.6-23.4,40.2-36.3C657.81,349.84,654.81,347,652.61,348.84Z"/><path class="x" d="M373.11,667.94c-1.3.3-2.5-.1-3.8.3a18.59,18.59,0,0,0-4.1,2.3,76.37,76.37,0,0,0-8.3,5.7,68.91,68.91,0,0,0-13.6,13.9,100.84,100.84,0,0,0-16.7,37.2c-5.7,24.8-3.2,52.7,10.4,74.6-8,2.3-16.5,9.4-20.5,16-6,10-8.4,23.3-10.1,34.6a93.06,93.06,0,0,0,.9,34.5c2.3,10.1,6.9,22.9,15.5,29.5,2.6,2,6.4-.4,4.7-3.6-2.2-4.1-5-7.8-7.1-11.9a67.8,67.8,0,0,1-5.2-14.5,88.49,88.49,0,0,1-1.2-31.2c1.3-10.2,3.6-21.3,7.8-30.7a27.64,27.64,0,0,1,9.4-11.2c3.4-2.5,7.9-4.1,10.8-7.2a3.47,3.47,0,0,0-.1-4.4h0c-9.4-22.5-13.4-46.9-8.2-71a99.61,99.61,0,0,1,13.8-33.3,65.58,65.58,0,0,1,12.9-14.4,86.79,86.79,0,0,1,7.9-5.6,37,37,0,0,0,4.3-2.5c1.2-.9,1.6-2.2,2.7-3.2C377.31,670.24,375.31,667.44,373.11,667.94Z"/><path class="x" d="M490.31,772.74c-3.8,5.1-5.8,11.3-9.9,16.3a66.38,66.38,0,0,1-13.5,12.4,49.69,49.69,0,0,1-18,8.1c-6.4,1.3-15.3,2.3-21.6.1-2.6-.9-4,2-3.3,4a11,11,0,0,0-4.2,4.1c-.8-3.2-2.3-6.7-5-8.1a2.76,2.76,0,0,0-4,3.1c.6,3.1,3.3,5.5,4.3,8.6,1.1,3.4.9,6.6.8,10.1a1.64,1.64,0,0,0,1,1.5c.3,3.8.9,7.6,1,11.3.3,16-4.9,32.7-10.1,47.6a57.58,57.58,0,0,1-25.5,31.1,48.64,48.64,0,0,1-22,6.3,51.79,51.79,0,0,1-11.1-.7,40,40,0,0,1-5.7-1.5,2.21,2.21,0,0,0-2.3-.7.1.1,0,0,0-.1.1,11.58,11.58,0,0,0-3.2-.3,3.26,3.26,0,0,0-2.3,1,2.7,2.7,0,0,0-.5-1.1c-.1-.1-.7-.5-.7-.6-1.3-2.9-5.5-.7-4.9,2.1a12.17,12.17,0,0,0,3.6,6.3c-.2.2-.3.4-.5.6-2.5,3-4.9,6-7.3,9-5.3,7-11.5,14.4-14.9,22.4-.9,2.2,1.6,4.8,3.5,2.7,5.9-6.3,10.4-14,15.7-20.7,2.6-3.3,5.3-6.6,8-9.8.2-.3.5-.5.7-.8a6.14,6.14,0,0,0,4.4.3,3,3,0,0,0,1.6-1.5,61.23,61.23,0,0,0,12.5,1,65.89,65.89,0,0,0,21.6-3.8,59,59,0,0,0,30.7-24.7c8.2-13.4,11.3-30.6,13.7-45.9a85.48,85.48,0,0,0,.9-24.2c-.5-4.4-1.6-9.1-.8-13.5.7-3.9,3.2-5.9,5.5-8.8a1.8,1.8,0,0,0,.4-.9c3.4.2,6.8.8,10.3.7a61.53,61.53,0,0,0,11.3-1.6c7-1.7,14.3-4.1,20.4-8a53.67,53.67,0,0,0,14.5-13.6c3.9-5.2,8.6-12.3,8.8-19C494,771.64,491.41,771.34,490.31,772.74Z"/><path class="x" d="M417.61,711.64c-7.6,1.3-14.2,8.2-17.7,14.8a65.18,65.18,0,0,0-4.5,12.1c-1.1,3.9-3.3,8.6-2.3,12.6,0,.2.3.2.4.1,2.8-2.2,3.8-6.2,5.2-9.4,1.6-3.8,2.9-7.8,4.6-11.5,3.6-7.5,9.9-10.9,15.9-16.1C420.61,713.14,419.11,711.34,417.61,711.64Z"/><path class="x" d="M462.61,692.14c-1.5-5-6-8.7-8-13.7-1.8-4.4-1.5-10.2-4.3-13.9a1.37,1.37,0,0,0-2.2.3c-2.8,4.2,0,11.8,1.8,16,2,4.8,5.3,11.7,10.7,13.4A1.69,1.69,0,0,0,462.61,692.14Z"/><path class="x" d="M388.11,803.54c-2.8-2.2-7-2.5-10.4-2.3-3.2.2-6.8.5-8.1,3.8a1.62,1.62,0,0,0,.7,1.7c2.4,1.4,4.8.2,7.4,0,3-.2,5.9.8,8.8.7C388.21,807.34,389.71,804.94,388.11,803.54Z"/><path class="y" d="M601.71,269.24c-3.7-1.9-8.6-1.1-12.7-.7-4.7.5-9.7.7-14.2,2a.56.56,0,0,0,.2,1.1c4.7.3,9.4-.3,14-.1,4,.1,8.7,1,12.5-.5C602.21,270.64,602.51,269.64,601.71,269.24Z"/><polyline class="z" points="471.01 170.54 459.51 183.04 457.01 204.04 472.01 238.54 482.51 246.54 491.51 248.04 498.71 247.14 510.01 239.54 506.31 229.04 506.01 211.74 510.51 192.54 520.51 177.44 517.01 173.04 507.01 167.04 499.01 164.54 493.01 163.54 479.51 165.04 470.01 166.54 462.51 177.24"/><path class="aa" d="M473.31,146.84l5.5,5.3-9.3,9.8c12.5,3.5,4.8,1.9,4.8,1.9l3.6,8.8-.7,7.2,9.7-1.5a30.08,30.08,0,0,0,4.1-5.9l5.3,7.1,6.9-8.8,3.6,7.3,6,1.1,4-6.1-.7,5.9,3.2-4.9-1.7-7,4.1-11-11-2.3-8.4-.3-8.2-5.7-8.4.7-7-5h-5Z"/><path d="M512.91,179.84c-.6,1.4-.2.8,0,0Z"/><path d="M525.11,176.74a32,32,0,0,0-4.2-5.5,8.65,8.65,0,0,0,.7-1.7,6.83,6.83,0,0,0-.5-3.7c-.3-.7-1.1-1.2-1.4-1.9a3,3,0,0,0-.8-.8c-.4-.3-.6-.6-.4-.9a3.49,3.49,0,0,0,1.2,1.5c1.7,1.3,3,1.2,4.8.4a2.53,2.53,0,0,0,.9-3.3,20.41,20.41,0,0,0-2.3-2.7c-.3-.7-.7-1.4-1-2.2.2,0,.3-.1.5-.1a2,2,0,0,0,1.4-2.4c-1.6-3.9-7.2-2.9-10.6-2.5a50.73,50.73,0,0,0-9.7,2.2.1.1,0,0,0-.1.1,1.71,1.71,0,0,1-3.1-.3c0-.1-.1-.2-.1-.3,1.1-3.9,2.2-7.7,4.5-11.1.9-.3,1.4-.7,1-1.5-.5-1.1-2.8-1.3-3.8-1.3-1.5,0-4,.2-4.8,1.6v.2h-.4v.1c-.1.1-.1.1-.1.2a17.42,17.42,0,0,0-1.5,5.4c0,.2-.1.4-.1.6-.5-.3-1.1-.7-1.7-1-5.1-2.5-11.5-5-17.2-5.5-2.7-.2-3.6,3.1-2.2,4.9a1.24,1.24,0,0,0-1.5.4c-1.5,2.3-.5,3.9,1.2,5.8.9,1.1,1.5.6,1.9,2.3.5,1.9-.2,1.8-1.7,2.9-2.1,1.7-4.3,3.3-6.4,5-1.3,1-.2,3.1,1.3,3h2.5a31.83,31.83,0,0,0-12.5,12.7c-6.9,12.8-5.1,28.1,0,41.3a135.13,135.13,0,0,0,10.5,20.8c3.7,6.1,8.7,9.9,16,10,2.6,0,2.4-3.6,0-3.9-7.2-.9-10-7.8-12.7-13.6a184.11,184.11,0,0,1-7.5-17.7c-3.7-10.6-5.2-22.8.4-33.1a24.78,24.78,0,0,1,8.5-9.1h1.4c.4,0,2.7-.7,3.1.3.2.5-1.1,1.9-1.3,2.5-.6,1.7-1.1,3.6.6,4.8,2,1.3,7.7.7,9.8-.1s2.7-3.7,3.8-5.3c-.1,2.4.4,4.7,2.9,5.7a3.66,3.66,0,0,0,2.9.1c.8-.3,3.7-3.8,3.6-3.8a1.38,1.38,0,0,0,1.7-.3c2.6,3.7,6.5,6.5,10.9,3l.1-.1a2,2,0,0,1-.1.7c.1-.1.1-.2.2-.4a2.27,2.27,0,0,0,.4,2.7,6.11,6.11,0,0,0,2.2,1.3,3.85,3.85,0,0,0,4.2-1.5C522.81,183.64,527.21,180.34,525.11,176.74Zm-25.4-28a30.16,30.16,0,0,1,1-6.8,11.29,11.29,0,0,0,2.6,0A17.78,17.78,0,0,0,499.71,148.74Zm.5-8.5c.2,0,4.1-.2,4,.2-.1.7-3.6.5-5.7.3A10.93,10.93,0,0,1,500.21,140.24Zm13.1,24a.76.76,0,0,1,.4.2c2.5,1.5,2.7,5.1,1.9,7.7-.6,2-2.8,3.4-5,4.1h0a3.38,3.38,0,0,1-1.2.6l.1.1a4.05,4.05,0,0,1-3.4-.9c-1.2-1.2-2.1-3.7-2.8-5.3a1.79,1.79,0,0,0-.5-.7,11.8,11.8,0,0,1-2-.4c-.1,0-.2,0-.2-.1a2.09,2.09,0,0,0-.6.4c-.1.4-.2.7-.3,1.1v.1a10.68,10.68,0,0,1,.1,2.5,2.66,2.66,0,0,0-1.3.5c-.7.5-.8,1.2-1.3,1.6-.1.3-.2.5-.3.8-3-.4-4.3-1.8-4-4a.88.88,0,0,0-1.1-.8c-1.7.6-1.8,1.5-2.7,3-1.4,2.5-4.7,4.4-7.7,3.2-4.1-1.6-1.3-2.5-1.1-4.2a4.41,4.41,0,0,0-.5-3.3c-2.3-.5-4.4-2.4-4-4.9.3-2,1.8-2.9,3.4-3.6v-.5a5.64,5.64,0,0,0-1.2.4,1.4,1.4,0,0,0-.9-.3H475c2.6-1.5,5.1-3.3,5.9-5.4,2.1-5.2-5.2-6.2-6.5-9.9,0-.1-.1-.1-.1-.2l.2.2c3.9,2.4,8.5,3.3,12.7,4.7a27.23,27.23,0,0,1,7,3.6c0,.4.1.7.1,1.1a18.35,18.35,0,0,0-7.3-1.5,3.25,3.25,0,0,0-2.7.2h0a.35.35,0,0,0-.2.1,1,1,0,0,0,.5,1.8,18.68,18.68,0,0,1,10.2,1.9,1.45,1.45,0,0,0,1.7,1c.1.1.3.2.4.3,1.4.2,2.8.4,4.2.5,0-.7-.1-1.3-.1-2a41.71,41.71,0,0,1,11.2-1.9c1.1,0,2.2.1,3.4.2a1.61,1.61,0,0,0,.3.9,7.64,7.64,0,0,0-1.8,1.8A6.43,6.43,0,0,0,513.31,164.24Z"/><path d="M494.21,161.24c-1.9,0-3.7,2.4-4.7,3.7-.2.2-.3.4-.5.6h-.1c-.1,0-.2,0-.2.1h0a5.39,5.39,0,0,0-1.3.7c-.5.3-1.4.3-1.7.8-.2.3-.3.8.1,1a1.38,1.38,0,0,0,1.1.1,19.47,19.47,0,0,1-2.4,2.6c-.5.5.2,1.1.7.7a29.09,29.09,0,0,0,4.7-5.2,16.32,16.32,0,0,1,1.7-2,5,5,0,0,0,1.1,3.2.35.35,0,0,0,.6-.2,7.19,7.19,0,0,0-.4-1.9c-.2-.7-.2-1.4-.4-2a5.17,5.17,0,0,0,1.8-1.8C494.51,161.44,494.41,161.24,494.21,161.24Z"/><path d="M511.71,170.84c-1.7-4.4-5.6-8.2-10.2-9.2-.4-.1-.8.4-.4.7.2.2.4.5.6.7a.37.37,0,0,0,.3.1,5.58,5.58,0,0,0,.8.5v.2a8.1,8.1,0,0,1,0,2.2c-.2,1-1,2-.9,3,0,.2.3.3.5.3,1.2-.2,1.6-2.1,1.7-3.1a10.89,10.89,0,0,0,.1-1.9,8.17,8.17,0,0,1,2,1.2c1.8,1.6,2.6,4.2,4.5,5.8C511.11,171.74,511.91,171.44,511.71,170.84Z"/><path class="ab" d="M470.91,197.84c-.1-.8-.7-1.7-1.6-1.5a1.43,1.43,0,0,0-.9,2.1c.2.5.5.8.7,1.3s.4.9.9.7h0a1.21,1.21,0,0,0,.5-.5,1.13,1.13,0,0,0-.1-.8A1.38,1.38,0,0,0,470.91,197.84Z"/><path class="ab" d="M486.81,212.54a2.92,2.92,0,0,0-.2-.9,1.27,1.27,0,0,0-2-.1c-.6.7-.4,1.9-.4,2.7,0,.4,0,2.2.9,1.8a1.37,1.37,0,0,0,.5-.8,5.71,5.71,0,0,0,1.3-1.4A.86.86,0,0,0,486.81,212.54Z"/><path class="ab" d="M481.81,232.84c-1.6-.6-1.7,2.1-1.6,3,0,.1,0,.1.1.2h0c-.2.3.2.6.5.4C481.31,235.74,483.41,233.34,481.81,232.84Z"/><path class="ab" d="M497.61,232.34c-.6-.3-1.3.4-1.6.9a2.2,2.2,0,0,0-.2,1.4h0v.4a.6.6,0,0,0,.1.4c-.3.3.2.8.6.5a4.07,4.07,0,0,0,1.3-1.9C498,233.54,498.31,232.64,497.61,232.34Z"/><path class="ab" d="M491.81,190.84a1.83,1.83,0,0,0-1.9,1.2c-.4,1,0,2,.1,3.1a.65.65,0,0,0,1.3,0V195a6.54,6.54,0,0,0,1.3-2.3C492.71,192,492.61,191,491.81,190.84Z"/><path class="ab" d="M498.41,198.44c-.8.1-1.1,1-1.1,1.7,0,.5.1,1.1.1,1.6a1.17,1.17,0,0,0,.5,1.1c.1.1.3,0,.4,0s.2-.3.3-.4l.1-.1a3.7,3.7,0,0,0,1.2-2.4A1.42,1.42,0,0,0,498.41,198.44Z"/><path class="ab" d="M474.11,186.84a1.89,1.89,0,0,0-2.1,1.1,3.31,3.31,0,0,0,0,2.4v.1a.37.37,0,0,0,.2.5.38.38,0,0,0,.6-.1C473.71,189.94,475.51,187.24,474.11,186.84Z"/><path class="ab" d="M503.31,220.44c-.1,0-.1,0-.2.1a1,1,0,0,0-.9.1,1.59,1.59,0,0,0-.6,2c.2.4.3.9.5,1.3l.3.6a1.27,1.27,0,0,0,.1.6.25.25,0,0,0,.4.1.1.1,0,0,1,.1-.1h0c.3.3.8-.1.8-.5v-.4a2.51,2.51,0,0,0,.4-.7,5.58,5.58,0,0,0,.7-1.6C505.11,220.84,504.11,220.44,503.31,220.44Z"/><path class="ab" d="M475.11,215.64c-.8,0-1.7.5-1.5,1.4.1.4.5.6.7.9a1.27,1.27,0,0,1,.4.6c.1.2.1.3.2.5a.28.28,0,0,0,.5,0,.75.75,0,0,0,.1-.5,2.23,2.23,0,0,0,1-1.8C476.51,215.94,475.81,215.64,475.11,215.64Z"/><path class="ab" d="M506.31,186.64c0-.7-.4-1.4-1.2-1.3a1.16,1.16,0,0,0-1.1,1.3,4.51,4.51,0,0,0,.3,1.1c.1.5,0,1.1.1,1.7a.4.4,0,0,0,.7.2l.3-.9A4.79,4.79,0,0,0,506.31,186.64Z"/><path class="ab" d="M497.41,212.64c-1.6-.5-1.5,2.2-1.3,3.1a.62.62,0,0,0,1.2-.2v-.2c.1-.2.2-.3.3-.5a2.62,2.62,0,0,0,.5-.9A1,1,0,0,0,497.41,212.64Z"/><path class="ab" d="M481.61,200.74a1,1,0,0,0-1.3-.7c-1.4.5-.6,2.7.4,3.1.2.1.4-.2.4-.4h0a.1.1,0,0,0,.1-.1,1.69,1.69,0,0,0,.3-1A1.41,1.41,0,0,0,481.61,200.74Z"/><path class="ab" d="M492.21,242.44a1.05,1.05,0,0,0-1.3.4c-.4.6-.1,1.2-.1,1.9a.41.41,0,0,0,.8.1c.1-.1.2-.1.2-.3,0-.4.5-.7.7-1.1C492.81,243.24,492.71,242.64,492.21,242.44Z"/><path class="e" d="M476,226.24a9.23,9.23,0,0,0-1.8-3,1.71,1.71,0,0,0-2.9,1.2,6.27,6.27,0,0,0,1.4,3.7c.7,1.1,1.5,2.5,2.9,2.5a1.63,1.63,0,0,0,1.5-1.1C477.51,228.34,476.61,227.34,476,226.24Z"/><path class="e" d="M479.91,238.14a5.3,5.3,0,0,0-.6-1,6.47,6.47,0,0,1-.8-.9c-.4-.6-1.6-.5-1.5.4a6.15,6.15,0,0,0,.1,1.3,2.72,2.72,0,0,0,.8,1.6c.6.7,1.3,1.7,2.4,1.5.3-.1.6-.3.6-.6C481,239.44,480.31,238.84,479.91,238.14Z"/><path class="e" d="M467.51,191.14c-.1,0-.1.1,0,.1S467.61,191.14,467.51,191.14Z"/><path class="e" d="M467.41,182.54c-3.8,2.6-4.5,10-3.9,14.1.1.7,1.1.7,1.4.2,1.1-2.1,1.3-4.4,1.8-6.8s1.6-4.2,2.3-6.3A1.1,1.1,0,0,0,467.41,182.54Z"/><path class="e" d="M481.61,162.54h0a1.93,1.93,0,0,0-1.8-.1,6.58,6.58,0,0,0-2.3,1.7c-1,1-1.7,2.7-.4,3.8a2.13,2.13,0,0,0,2.4.3c-.3.2-.2.1.1,0a4.33,4.33,0,0,0,.5-.1,1.42,1.42,0,0,0,.9-.8h0a.92.92,0,0,0,.1-1.2c0-.1-.1-.2-.2-.3.1-.1.2-.2.2-.3.4-.4.8-.6,1-1.1C482.61,163.84,482.31,163,481.61,162.54Z"/><path class="ac" d="M510.71,160.94a1.55,1.55,0,0,0-2-1.3c-.5.1-1,.2-1.4.3a4.24,4.24,0,0,0-1.4.6.93.93,0,0,0,.2,1.7,10.47,10.47,0,0,0,3,.5A1.58,1.58,0,0,0,510.71,160.94Z"/><path class="ac" d="M499.41,164.74a1.72,1.72,0,0,0-3.3,0,25.12,25.12,0,0,0-.4,2.7,9,9,0,0,0-.4,2.8,2,2,0,0,0,3.6,1A9.1,9.1,0,0,0,499.41,164.74Z"/><path class="ac" d="M501.11,141.64a4.82,4.82,0,0,0-1.9,2.9,3.24,3.24,0,0,0,.3,3.3c.4.6,1.3.4,1.8,0a5.19,5.19,0,0,0,1.1-2.5,13,13,0,0,0,1-2.5C503.41,141.74,502,141.24,501.11,141.64Z"/><path class="ac" d="M503.51,139a3,3,0,0,0-2.2.6c-.4.2-.1.9.3.7l1-.3c.3-.1.7-.1,1-.2A.47.47,0,0,0,503.51,139Z"/><path class="ad" d="M596.51,342a.25.25,0,0,0,0,.5A.25.25,0,0,0,596.51,342Z"/><path class="ae" d="M645.51,284.84,627,271.34,607,265l-22.5,1-21.3,8-8.5,4.8-7,8-7.3,16.8-5,19.5-1.8,18.5,6.8,17.8,4.3,10,5.8,6.8s8.3,3,9,2l1,1.3,56.3-48.5,31.5-34.5Z"/><path d="M642.81,278.84a83.63,83.63,0,0,0-19.2-11.7c-15.3-6.4-32.7-5-48.4-.6-14.5,4.1-27.1,11.2-33.5,25.4-6.6,14.8-11.4,32.4-8.9,48.6,1.3,8.7,4.7,17.5,8.7,25.4,3.6,7,8.2,12.1,16.3,12.7,1,.1,1-1.3.2-1.6-9.6-3.3-13-13.9-16.3-22.4s-5.2-16.7-4.8-25.7,2.8-17.9,5.7-26.4,6.4-16.7,13.7-22.4c12.7-9.8,32.4-13.6,48.1-12.7a54.19,54.19,0,0,1,25.2,8c6.6,4,17.2,9.7,17.7,18.4.2,2.9,4.8,3,4.6,0C651.61,287.34,647.71,282.74,642.81,278.84Z"/><path class="af" d="M641.21,299.74c-12.2-26.8-55.9-32.3-77.8-15.1-12.1,9.5-15.6,26.1-17.2,40.6-1.8,16.2,1.1,32.8,14.3,43.4,1.4,1.1,3.4-.8,2-2-11.5-9.9-13.9-26.2-12.4-40.5,1.4-13.9,4.7-30.6,16.7-39.3,10.9-8,26.8-9.7,39.8-7.1,13.9,2.7,23.9,11.1,33.8,20.7C640.81,300.84,641.41,300.24,641.21,299.74Z"/><path class="g" d="M625.61,318.44c-.1-.1-.1-.2-.2-.3-9.9-8.8-25.5-.7-33.3,7-8.7,8.7-18.3,20.6-13,33.3,0,.1-.1.2-.1.4a1.13,1.13,0,0,0,1,1.6c-.2,1.1,1.3,2.1,2.1,1.1.5-.6,1-1.1,1.5-1.7a.8.8,0,0,0,.9-.2c1.3-1.3,2.6-2.7,3.9-4.1,1.6-1.6,3.2-3.1,4.8-4.6,2.8-2.1,5.6-4.3,8.3-6.5,4.4-1.6,8.4-6.6,11.4-9.6,2.1-2.1,4.4-4.4,6.5-6.8a14.36,14.36,0,0,0,3.1-2.2,18.42,18.42,0,0,0,4.1-5.1A1.78,1.78,0,0,0,625.61,318.44Z"/><path class="g" d="M540.11,323.74c-.1-.2-.5-.3-.5,0-.8,4.8.1,10.4,1.5,14.9a.41.41,0,0,0,.8-.1A92.05,92.05,0,0,0,540.11,323.74Z"/><path class="g" d="M611.71,295a.45.45,0,1,0-.9,0,60.37,60.37,0,0,0-.6,12c0,.5.8.7.9.1A54.3,54.3,0,0,0,611.71,295Z"/><path class="g" d="M617.21,295.14a46.4,46.4,0,0,0-1.6,5.3c-.4,1.6-1.1,3.2-.9,4.9a.86.86,0,0,0,1.6.4,13.39,13.39,0,0,0,1.4-4.7c.4-1.8.7-3.6,1-5.5C618.71,294.64,617.51,294.24,617.21,295.14Z"/><path class="g" d="M624,296.84c-1.2,1.8-2.6,4-2.6,6.2,0,.6.8.7,1.1.3,1.2-1.7,1.8-3.8,2.9-5.7C625.91,296.84,624.61,296,624,296.84Z"/><path class="g" d="M593.71,304.34a61.08,61.08,0,0,0-2.7-5.8.76.76,0,0,0-.3-1.3l-.9-.3a1.24,1.24,0,0,0-1.8,1.4c.4,2.5,1.7,4.9,2.7,7.2A20.63,20.63,0,0,0,594,311c.4.5,1.5.1,1.4-.6A19.19,19.19,0,0,0,593.71,304.34Z"/><path class="g" d="M583.71,314.54c-1.3-1.7-3.3-2.8-5-4.1-.7-.5-1.4-1.1-2.2-1.7a.71.71,0,0,0,.2-1.1,8.14,8.14,0,0,0-5-2.6c-1.2-.2-2.3,1.2-1.3,2.1a71.92,71.92,0,0,0,5.9,5.1c1.8,1.4,3.9,3.2,6.1,3.8C583.31,316.34,584.31,315.34,583.71,314.54Z"/><path class="g" d="M575.51,321.34c-2-1-4.3-1-6.5-1.2s-4.5-.5-6.8-.7h0a.1.1,0,0,1-.1-.1c-.3-.1-.7-.2-.9.1l-.1.1a.91.91,0,0,0,0,1.2c1.2,1.4,4.9,1.4,6.6,1.7,2.5.4,5.1,1.2,7.6.6A1,1,0,0,0,575.51,321.34Z"/><path class="g" d="M568.91,329.74a11.69,11.69,0,0,0-3.8-.8c-1.6-.2-3.2-.4-4.8-.7a1.39,1.39,0,0,0-1.4.5.71.71,0,0,0-.3.6,1.25,1.25,0,0,0,.9,1.7c2.6.6,6.4,1.9,9,1C569.51,331.64,569.81,330.24,568.91,329.74Z"/><path class="g" d="M570.31,346.24a29.36,29.36,0,0,0-5.8,1,26,26,0,0,0-5.6,1.7.71.71,0,0,0,.4,1.3,19.33,19.33,0,0,0,5.8-.8,25.8,25.8,0,0,0,5.6-1.6A.86.86,0,0,0,570.31,346.24Z"/><path class="g" d="M568.61,353.84c-2.4.5-4.6,2.3-6.9,3.3-.4.2-.1.9.3.7,2.4-.7,5.3-1.3,7.1-3.2C569.51,354.34,569.21,353.74,568.61,353.84Z"/><path class="g" d="M570.51,360.84a10.86,10.86,0,0,0-3.9,1.1c-1.3.6-2.6,1.2-3.9,1.9-.6.3-.1,1.2.5.9a29,29,0,0,1,4.1-1.6,35.74,35.74,0,0,0,3.5-1A.68.68,0,0,0,570.51,360.84Z"/><path class="y" d="M641,281.14a81.16,81.16,0,0,0-22.2-12.1,66.79,66.79,0,0,0-24.3-3.7c-8.1.2-15.9.4-23.3,4.1s-15.9,7.4-21.9,13.2c-4.8,4.7-7.8,10.8-10.2,17a96.44,96.44,0,0,0-6.2,24.3,61.18,61.18,0,0,0,.2,12.1c.5,4.4.4,9.5,2.1,13.7a1.36,1.36,0,0,0,1.1.7c.1,4.6,2.1,8.8,3.9,13.1,2.8,6.5,6.3,11.5,12.1,15.8,1,.7,2.4-.7,1.7-1.7a55.15,55.15,0,0,0-5.9-6.9c-2.3-2.6-3.6-5.7-5.2-8.8-1.7-3.4-3.7-6.7-4.4-10.5-.3-1.6-.2-2.6-1.3-3.7.3-6-1.7-12.3-1.9-18.3-.2-8.1,2.2-15.2,5-22.6,2.4-6.2,5.3-12.7,9.6-17.8,4.8-5.7,11.4-8.8,17.9-12.3,3.2-1.7,6.3-3.8,9.8-4.9s7.3-1.1,10.8-1.2c7.7-.3,16.5-1.4,24.1.4,7.3,1.8,14.1,6.1,20.5,9.9,6.2,3.7,13.1,9.2,14.6,16.7.2.8,1.4.6,1.5-.2C649.31,290.34,646.51,285.44,641,281.14Z"/><path d="M581,357.44l-.1-.1a1,1,0,0,0-1.5.8v.2a1.05,1.05,0,0,0,1.6.9A1,1,0,0,0,581,357.44Z"/><path d="M578.91,360.34a1.61,1.61,0,0,0-1.3.6,1.25,1.25,0,0,0-.4-1.3l-.1-.1a1.54,1.54,0,0,0-1.7-.3c.1-.1.2-.1.2-.2l.1-.1a1.09,1.09,0,0,0,0-1.5l-.1-.1c-.1-.1-.3-.2-.4-.3a1.14,1.14,0,0,0,.3-.8,1,1,0,0,0,.8,1c.1,0,.2.1.3.1a1.25,1.25,0,1,0,0-2.4c-.1,0-.2.1-.3.1a1.22,1.22,0,0,0-.8.9,1.69,1.69,0,0,0-.3-1,2.73,2.73,0,0,0,1.8-1.5,2,2,0,0,0,2.9-1v-.1a1.79,1.79,0,0,0-2.2-2.2h-.1a1.78,1.78,0,0,0-1.1.8,2.32,2.32,0,0,0-4.1.9c0,.1,0,.1-.1.2a2.38,2.38,0,0,0,.9,2.6,1.66,1.66,0,0,0,.4,3.1,1.42,1.42,0,0,0-.2.6,1.3,1.3,0,0,0,1.7,1.2,1.56,1.56,0,0,0-.8,1.3,1.54,1.54,0,0,0,2.6,1.1c0,.2-.1.3-.1.5a1.9,1.9,0,0,0,1.9,1.9,2,2,0,0,0,1.9-1.9A1.76,1.76,0,0,0,578.91,360.34Z"/><path d="M577.71,342.34c-.3.2-.5.4-.5.7l-.1-.1a2.26,2.26,0,0,0-2.8-.1,1.94,1.94,0,0,0,0,3.4,2.25,2.25,0,0,0,2.8-.1,2.09,2.09,0,0,0,.9-1.7,1,1,0,0,0,1.4-.8v-.3A1.16,1.16,0,0,0,577.71,342.34Z"/><path d="M580.91,343.74a4.07,4.07,0,0,0-1.7,1.2,1.83,1.83,0,0,0-.2,2.4c0,.1.1.2.1.3a1.22,1.22,0,0,0,1.8.4,1.37,1.37,0,0,0,.8-.5,4.07,4.07,0,0,0,1.2-1.7A1.64,1.64,0,0,0,580.91,343.74Z"/><path d="M584,333.54c0-.1,0-.1.1-.2a5.45,5.45,0,0,0-.9-4.2,1.61,1.61,0,0,0-1.5,2.2,1.51,1.51,0,0,0-.7,1.4,1.64,1.64,0,0,0-1.2.2h-.1a2,2,0,0,0-.9,2.3,2.1,2.1,0,0,0,.8,1.1,2.44,2.44,0,0,0,.1,2.2,2.93,2.93,0,0,0,1.6,1.3,2,2,0,0,0,1.7-.2,2.56,2.56,0,0,0,1-1.3,2.2,2.2,0,0,0,0-1.6,2.48,2.48,0,0,0-1.4-1.6,1.1,1.1,0,0,0,0-.8A1.68,1.68,0,0,0,584,333.54Z"/><path d="M578,337a1.23,1.23,0,0,0-1.2,1.3,1.7,1.7,0,0,0-1.6-.9,1.73,1.73,0,0,0-1.8,1.8,1.79,1.79,0,0,0,1.8,1.8,1.73,1.73,0,0,0,1.8-1.8V339a1.1,1.1,0,0,0,1,.5A1.25,1.25,0,0,0,578,337Z"/><path d="M587.91,333.14a1.46,1.46,0,0,0-2.8,0,1.7,1.7,0,0,0-.1.7,1.64,1.64,0,0,0,1.6,1.6,1.58,1.58,0,0,0,1.6-1.6C588,333.64,588,333.44,587.91,333.14Z"/><path d="M599.31,316.84a1.19,1.19,0,0,0-1.5.2c-.1.1-.2.2-.2.3a1.4,1.4,0,0,0-.3,1.5h-.4a2.18,2.18,0,0,0-.8.5v-.1a1.58,1.58,0,0,0-.5-.8c-.2-.2-.4-.4-.6-.4h-.2a1.38,1.38,0,0,0-1.9.5.1.1,0,0,1-.1.1,1.42,1.42,0,0,0-.2.6,3.38,3.38,0,0,0-2-.6,3.44,3.44,0,0,0-3.4,4.6,1.85,1.85,0,0,0-.5,1.2.6.6,0,0,0,.1.4h0a1.82,1.82,0,0,0-.8,1.9v.1a1.79,1.79,0,0,0,.5.7,1,1,0,0,0-.2.9v.2c0,.3.3.5.5.7a1.29,1.29,0,0,0,.4,1.2l.4.3a1.79,1.79,0,0,0,1.4.4c1.6-.2,1.7-2.7.2-3-.2-.2-.4-.2-.7-.3,0-.1-.1-.2-.1-.3a1.38,1.38,0,0,0,.4-.3,2.3,2.3,0,0,0,2,1.3h.1a2.43,2.43,0,0,0,2.1-1.4,2.19,2.19,0,0,0-.3-2.2,3.45,3.45,0,0,0,1.4-2.7,1.08,1.08,0,0,0,.2-1.4c.1,0,.2-.1.3-.1a1.67,1.67,0,0,0-.1,1.2v.1a1.78,1.78,0,0,0,2.5,1.1,4.33,4.33,0,0,0,.5.1,1.46,1.46,0,0,0,1.4-1.9,1.6,1.6,0,0,0-.1-1.5,1.39,1.39,0,0,0,1.1-1c0-.1.1-.2.1-.4A1.83,1.83,0,0,0,599.31,316.84Z"/><path d="M600.51,314.74a1.3,1.3,0,0,0,0,2.6A1.3,1.3,0,0,0,600.51,314.74Z"/><path d="M603,315.34a1,1,0,0,0,0,1.9A1,1,0,0,0,603,315.34Z"/><path d="M602.31,319.34a1.45,1.45,0,0,0-2.5,0c-.1.1-.1.2-.2.3-.6.9.2,1.8,1.1,1.9h.3A1.51,1.51,0,0,0,602.31,319.34Z"/><path d="M618,315a1.3,1.3,0,0,0-1.3-1.6c-.2,0-.3,0-.4.1a1,1,0,0,0-.6-.5,1.78,1.78,0,0,0-2.4.6c0,.1-.1.2-.1.3s-.3.2-.4.3a1.79,1.79,0,0,0-.5.7,1.69,1.69,0,0,0-.2.5.76.76,0,0,0-.2-.5l-.1-.1a1.6,1.6,0,0,0-2.6-.2,2.09,2.09,0,0,0-.4-.6.37.37,0,0,0,.1-.3c0-.1,0-.2.1-.2a1.21,1.21,0,0,0-.7-1.3c-.1,0-.2-.1-.3-.1a1.28,1.28,0,0,0-1.4.5,1.08,1.08,0,0,0-.3.7,2.66,2.66,0,0,0-1,.6,2.36,2.36,0,0,0,1,3.9h.1a2.23,2.23,0,0,0,2.5-1c.1.2.3.3.4.4a1.59,1.59,0,0,0,.7,3,1.57,1.57,0,0,0,.9-2.8,1.34,1.34,0,0,0,.7-.6l.1-.1a.76.76,0,0,0,.2-.5,1.86,1.86,0,0,0,2.8,1.3,3,3,0,0,0,.7-.5c.1-.1.2-.2.2-.3a1.44,1.44,0,0,0,1.3.8,1.38,1.38,0,0,0,1.1-1.2A2.82,2.82,0,0,0,618,315Z"/><path d="M616.81,317.74a.5.5,0,1,0,0,1C617.41,318.84,617.41,317.74,616.81,317.74Z"/><path d="M628.11,319.74a9.15,9.15,0,0,0-1.7-.1,2.24,2.24,0,0,0,.7-2.2h0v-.1c0-.1,0-.1-.1-.2v-.3a2,2,0,0,0-2-2,2.05,2.05,0,0,0-1.9,1.3,1.42,1.42,0,0,0-.6-.2,1.15,1.15,0,0,0-1.1.6c-.1,0-.2-.1-.3-.1h-.9a2.11,2.11,0,0,0,.2-2.4l-.1-.1c-.1-.1-.2-.3-.3-.4s-.1-.4-.2-.6a2,2,0,0,0-2.4-1.4,1.94,1.94,0,0,0-1.4,2.4c.1.4.3.7.4,1.1a2.25,2.25,0,0,0,1.6,2.1,1.39,1.39,0,0,0,.9,0,.1.1,0,0,0-.1.1,1.48,1.48,0,0,0-.5,2,1.46,1.46,0,0,0,2,.5,10.14,10.14,0,0,0,1.3-.9,1.8,1.8,0,0,0,1.2,3.1c.2,0,.5-.1.7-.1a1.77,1.77,0,0,0,1.8,1.3,1.7,1.7,0,0,0,.7-.1,5,5,0,0,0,1.7.2,1.93,1.93,0,0,0,1.9-1.7A2.1,2.1,0,0,0,628.11,319.74Z"/><path d="M623.41,318.94c0,.1.1.1.1.2A.31.31,0,0,1,623.41,318.94Z"/><path class="ag" d="M580.31,358.34a1.75,1.75,0,0,0-1.7,1.7,1.69,1.69,0,0,0,1.7,1.7A1.75,1.75,0,0,0,582,360,1.83,1.83,0,0,0,580.31,358.34Z"/><path class="ag" d="M581.81,352.34a1.2,1.2,0,0,0,0,2.4A1.2,1.2,0,0,0,581.81,352.34Z"/><path class="ag" d="M580.81,345.34a.5.5,0,0,0,0,1A.5.5,0,0,0,580.81,345.34Z"/><path class="ag" d="M576.51,345.34a.75.75,0,1,0,0,1.5A.75.75,0,1,0,576.51,345.34Z"/><path class="ag" d="M577,342a1,1,0,0,0,0,2A1,1,0,0,0,577,342Z"/><path class="ag" d="M582,339.94h0a1.36,1.36,0,0,0-2.1,1.1,1.29,1.29,0,0,0,2,1.1.1.1,0,0,0,.1-.1A1.22,1.22,0,0,0,582,339.94Z"/><path class="ag" d="M586.31,332.94a1.35,1.35,0,0,0,0,2.7A1.35,1.35,0,0,0,586.31,332.94Z"/><path class="ag" d="M588.31,330.24a.8.8,0,0,0,0,1.6A.8.8,0,0,0,588.31,330.24Z"/><path class="ag" d="M591.31,327.94a1.15,1.15,0,0,0,0,2.3A1.15,1.15,0,0,0,591.31,327.94Z"/><path class="ag" d="M597.21,324.64h0a.61.61,0,0,0-.8,0h-.1c-.6.5-.5,1.5.4,1.5A.83.83,0,0,0,597.21,324.64Z"/><path class="ag" d="M601.51,321.44c-.3-.5-.7-.5-1.2-.6-1.3-.1-1.3,2.1,0,2a1.22,1.22,0,0,0,1.2-.6A1.1,1.1,0,0,0,601.51,321.44Z"/><path class="ag" d="M616.51,317a1.86,1.86,0,0,0-1.8,1.8,1.79,1.79,0,0,0,1.8,1.8,1.8,1.8,0,1,0,0-3.6Z"/><path class="ag" d="M557,345.44a1.6,1.6,0,1,0,1.6,1.6A1.58,1.58,0,0,0,557,345.44Z"/><path class="ag" d="M557.51,340.64a.7.7,0,0,0,0,1.4A.7.7,0,0,0,557.51,340.64Z"/><path class="ag" d="M556,334.44a.85.85,0,0,0,0,1.7A.85.85,0,0,0,556,334.44Z"/><path class="ah" d="M625.41,322h0a2.33,2.33,0,0,0-.6-2.4,2.61,2.61,0,0,0-1.7-.7h-.3a1.48,1.48,0,0,0,.1-.7,2.35,2.35,0,0,0-.2-.8,1.44,1.44,0,0,0,.4-1.5,1.72,1.72,0,0,0-1.8-1.3.37.37,0,0,0-.3.1h-.1a1.75,1.75,0,0,0-1.7,1.7.9.9,0,0,0,.1.5H619a1.83,1.83,0,0,0-1.7,1.3,2.68,2.68,0,0,0-1.9,2.4,2.54,2.54,0,0,0,2.5,2.5,2.28,2.28,0,0,0,1.1-.3l.1.1a2.38,2.38,0,0,0,.6,1.1c-.1.1-.1.2-.2.2a1.86,1.86,0,0,0-.9,1.5,1.79,1.79,0,0,0,1.8,1.8,1.88,1.88,0,0,0,.8-.2h.1a2.11,2.11,0,0,0,2.1-2.1,2.53,2.53,0,0,0-.6-1.5h.8a1.42,1.42,0,0,0,.6.2,1.27,1.27,0,0,0,.6-.1,1.24,1.24,0,0,0,.9-1.4A1.73,1.73,0,0,0,625.41,322Zm-4.5-1.4h-.4v-.2a4.33,4.33,0,0,0-.1-.5l.1-.1a1.45,1.45,0,0,0,.7.2Z"/><path class="ah" d="M607.61,318.24a2.4,2.4,0,0,0-2.3-2.3,2.84,2.84,0,0,0-1.3.4,1.37,1.37,0,0,0-.5-.8.66.66,0,0,0,.4-.5,1.22,1.22,0,0,0,.9.3,1.55,1.55,0,0,0,0-3.1,1.46,1.46,0,0,0-1.4,2h-.1a.75.75,0,0,0-.6,1.2h-.1c-.6.1-1.1.3-1.2.9a1.16,1.16,0,0,0,.6,1.4l.1.1a2.65,2.65,0,0,0-.6.5.46.46,0,0,0-.5-.3.55.55,0,0,0,0,1.1h.1v.4a1.94,1.94,0,0,0,1.7,1.9,1.89,1.89,0,1,0,3.6.8c0-.2-.1-.4-.1-.6s.1-.2.2-.2v-.1a2,2,0,0,0,.2-1.1A2.48,2.48,0,0,0,607.61,318.24Z"/><path class="ah" d="M595.21,327.34a1.42,1.42,0,0,0,.2-.6v-.3a.6.6,0,0,0-.1-.4,1.36,1.36,0,0,0-1-2.2,1.28,1.28,0,0,0-1.3,1.4l-.3.3a1.69,1.69,0,0,0-.3,1,1.66,1.66,0,0,0-1.2-.5,1.85,1.85,0,0,0,0,3.7.9.9,0,0,0,.5-.1,1.61,1.61,0,0,0,1.3.6h.2a1.82,1.82,0,0,0,1.7,1,2.07,2.07,0,0,0,2-2A2.73,2.73,0,0,0,595.21,327.34Z"/><path class="ah" d="M587.81,333.44a1.1,1.1,0,0,0,0,2.2A1.1,1.1,0,0,0,587.81,333.44Z"/><path class="ah" d="M588.61,337.14a1.61,1.61,0,0,0-1.1-.5c-.2-.1-.3-.2-.5-.3h-.1a2.05,2.05,0,0,0-1.1,0,1.66,1.66,0,0,0-1.2-.5.6.6,0,0,0-.4.1,1.88,1.88,0,0,0-.8-.2,1.69,1.69,0,0,0-1.7,1.7,1.61,1.61,0,0,0,.3.9,2.92,2.92,0,0,0-.2.9c0,.2.1.4.1.7a1.38,1.38,0,0,0-.4.3h0a1.5,1.5,0,0,0-3,0v.3a4.33,4.33,0,0,0-.5-.1,1.75,1.75,0,0,0-1.7,1.7,1.69,1.69,0,0,0,1.7,1.7,1.75,1.75,0,0,0,1.7-1.7.9.9,0,0,0-.1-.5h.3a1.61,1.61,0,0,0,1.1-.5,1.46,1.46,0,0,0,1.5,1.7,1.44,1.44,0,0,0,1.5-1.6,2.09,2.09,0,0,0,1.3-.7c.1,0,.1.1.2.1h.1a2.53,2.53,0,0,0,1.7-.2,2.65,2.65,0,0,0,.6-.5,1.82,1.82,0,0,0,1-1.1A1.38,1.38,0,0,0,588.61,337.14Z"/><path class="ah" d="M584,343.74c-.1,0-.1.1,0,.1S584.11,343.74,584,343.74Z"/><path class="ah" d="M580.31,349.64a1.38,1.38,0,0,0-1.1.6,1.34,1.34,0,0,0-.7-.6,1.54,1.54,0,0,0,.5-1.3,1.9,1.9,0,0,0-1.9-1.9h-1.2a1.79,1.79,0,0,0,.3,3.5c.1,0,.3.1.4.1h.1a1.14,1.14,0,0,0-.3.8,12.32,12.32,0,0,1,3.8,1.4,1.37,1.37,0,0,0,1.4-1.4C581.71,350.34,581.11,349.64,580.31,349.64Z"/><path class="ah" d="M579.91,354.64a.85.85,0,0,0-.6.2,1.49,1.49,0,0,0-1.4-1.3h-.1a1.56,1.56,0,0,0-1.1,2.6,1.22,1.22,0,0,0,.9.4,1.68,1.68,0,0,0,1.6,2,1.74,1.74,0,0,0,1.7-1.6A1.42,1.42,0,0,0,579.91,354.64Z"/><path class="ah" d="M585,354.24a1.34,1.34,0,0,0-1.5.2h-.2a1.69,1.69,0,0,0-1.7,1.7,1.45,1.45,0,0,0,.2.7,1.19,1.19,0,0,0-.4,1.1,1.61,1.61,0,0,0,.3.9,1.67,1.67,0,0,0,.8,3.1,1.56,1.56,0,0,0,1.6-1.5h.1a.25.25,0,0,0,0-.5c-.1,0-.1,0-.1.1a1.42,1.42,0,0,0-.2-.6,1.69,1.69,0,0,0,.9-1.4c0-.2-.1-.4-.1-.6l.2-.2h.2a1.5,1.5,0,0,0,1.1-1.3A2.2,2.2,0,0,0,585,354.24Z"/><path class="ah" d="M584.81,358.34h0C584.91,358.44,584.91,358.34,584.81,358.34Z"/><path class="ah" d="M586.31,325.64a2.07,2.07,0,0,0-1.9,2.9,2.09,2.09,0,0,0-.4.6,1.62,1.62,0,0,0-1,1.6c0,.2.1.4.1.6a.9.9,0,0,0-.5-.1c-.2,0-.3,0-.4.1v-.1c-.1-.1-.3-.2-.4-.3a2,2,0,0,0-1.3-.4,1.46,1.46,0,0,0-1.4-.9,1.5,1.5,0,0,0-1.5,1.8,1.82,1.82,0,0,0,.1,3.1,1.35,1.35,0,0,0,1.2,1.9,1.38,1.38,0,0,0,.9-2.4,4.88,4.88,0,0,0,.3-.7,1.45,1.45,0,0,0,.7.2h.5a1.44,1.44,0,0,0,1.4,1,1.51,1.51,0,0,0,1.4-2,1.85,1.85,0,0,0,.7.2,1.61,1.61,0,0,0,1.3-.6,2,2,0,0,0,2-2.1c0-.2-.1-.5-.1-.7C588.91,327.94,588.41,325.64,586.31,325.64Z"/><path class="ah" d="M582,326.94a1.75,1.75,0,0,0-1.7,1.7,1.69,1.69,0,0,0,1.7,1.7,1.75,1.75,0,0,0,1.7-1.7A1.83,1.83,0,0,0,582,326.94Z"/><path class="ah" d="M575.51,335h-.2a1.77,1.77,0,0,0-1,3.4h.2a1.91,1.91,0,0,0,2.2-1.2A1.66,1.66,0,0,0,575.51,335Z"/><path class="ah" d="M596.11,317.94a2,2,0,0,0-.8-.4,1.92,1.92,0,0,0-2.4,1.8,1.88,1.88,0,0,0,2.4,1.8,2.17,2.17,0,0,0,1.5-1.3A1.36,1.36,0,0,0,596.11,317.94Z"/><path class="ah" d="M623.31,311.44c-.5-1-2.1-1.3-2.6-.2a.1.1,0,0,1-.1.1c-.4.7-.1,1.9.8,2h.1a1.49,1.49,0,0,0,1.4-.4A1,1,0,0,0,623.31,311.44Z"/><path class="ah" d="M625.41,314.84a1.4,1.4,0,0,0,0,2.8C627.21,317.74,627.21,314.84,625.41,314.84Z"/><path class="ai" d="M571,363.94c-1.2-.1-2.2.8-3.2,1.4-1.2.7-2.3,1.4-3.5,2-.9.5-.1,1.8.8,1.3l3.6-1.8c1-.5,2.3-.9,2.8-1.9A.62.62,0,0,0,571,363.94Z"/><path class="ai" d="M568.51,348.54c-1.4-.4-2.7.2-4,.7-1.5.6-3,1.2-4.6,1.7a1.19,1.19,0,0,0,.6,2.3c2.7-.4,7.1-.8,8.5-3.4A.84.84,0,0,0,568.51,348.54Z"/><path class="ai" d="M573.51,329.34a23,23,0,0,0-13.5-4,.82.82,0,0,0-.4,1.5,52.07,52.07,0,0,0,6.6,2.4A31,31,0,0,0,573,331C574.11,331.24,574.21,329.84,573.51,329.34Z"/><path class="ai" d="M590.51,312.54c-1.7-1.8-4.2-2.9-6.3-4.1a36.53,36.53,0,0,1-5.4-4.1.57.57,0,0,0-.1-.9,7.58,7.58,0,0,0-1.6-.6.88.88,0,0,0-1,1.3,19.36,19.36,0,0,0,5.7,5.7c2.3,1.6,4.9,3.7,7.6,4.4A1.07,1.07,0,0,0,590.51,312.54Z"/><path class="ai" d="M608.71,296.54c0-1-1.6-1.3-1.8-.2l-.9,6.3c-.2,1.7-.7,3.4-.4,5.2a.83.83,0,0,0,1.5.2,17.63,17.63,0,0,0,.9-5.1c.2-2.2.5-4.3.7-6.4Z"/><path class="ai" d="M632,300.74c-1.6.1-3,1.7-4.2,2.8s-3.1,2.2-4,3.7c-.7,1.2.5,3,1.9,2.5a14.8,14.8,0,0,0,4.4-3.5c1.2-1.1,3-2.4,3.1-4.2A1.24,1.24,0,0,0,632,300.74Z"/><path class="ai" d="M635.11,305.54c-1.2.7-2.4,1.4-3.6,2.2-1,.7-2.3,1.3-2.9,2.4a.83.83,0,0,0,.9,1.2,13,13,0,0,0,3.1-2.1,23.94,23.94,0,0,1,3.4-2.1A.92.92,0,0,0,635.11,305.54Z"/><path class="ai" d="M594.21,299.24c-.3-.9-.5-1.8-.8-2.6-.1-.4-.7-2.3-1-2.1a.81.81,0,0,0-.4-1.5h-.3a1.23,1.23,0,0,0-.8.4c-.8,1.4.2,3.5.7,4.9.7,2.1,1.3,4.5,2.6,6.3.3.5,1.3.4,1.2-.3A22.27,22.27,0,0,0,594.21,299.24Z"/></svg>