<svg xmlns="http://www.w3.org/2000/svg" viewBox="0 0 874.04 923.03"><defs><style>.a{fill:#f9b2f2;}.b{fill:#ffdaab;}.c{fill:#fff;}.d{fill:#e5dfdf;}.e{fill:#f4c69d;}.f{fill:#b25c22;}.g{fill:#f7c894;}.h{fill:#42b2c1;}.i{fill:#f9cff7;}.j{fill:#301905;}.k{fill:#472913;}.l{fill:#14bac6;}.m{fill:#b74b25;}</style></defs><title>Ресурс 1</title><path class="a" d="M566.21,889.07c-.8,0,0,15,0,15l11.8,9,9.3-1.8,7-11,4.5-27.8-2.3-11.5-5.3,21.3-1.8,2-4.3,9-6.3,3.3-8-2.5Z"/><polygon class="b" points="714.41 746.67 727.41 753.67 749.11 776.97 800.41 810.97 819.71 827.67 833.11 832.67 837.71 830.67 836.41 810.97 829.71 791.27 821.11 788.27 806.71 757.67 785.71 725.97 714.41 746.67"/><polygon class="a" points="834.21 833.07 838.91 827.57 836.61 813.97 831.21 800.77 825.51 792.87 834.21 794.27 845.41 807.07 851.21 821.57 852.71 834.77 834.21 833.07"/><polygon class="c" points="659.71 101.27 663.81 94.07 668.21 70.67 653.11 66.67 635.11 57.27 635.71 31.97 649.71 19.27 675.11 19.27 702.41 5.27 726.41 0.67 759.71 11.27 783.11 22.67 803.71 39.97 822.41 49.97 833.71 76.67 829.11 109.27 803.71 121.27 757.71 105.27 752.41 113.27 745.91 120.27 720.41 131.97 659.71 101.27"/><path class="d" d="M689.11,107.27l9.3-38s-14.7,5.3-17.3-16-12.7-12-2.7-21.3,25.3-13.3,44.7-13.3,66.7,9.3,66.7,9.3l-43.3-22.7-40.9,3.8L681.11,18l-25.3,1.3L643.11,22l-8.7,14.7-2.7,18,10,12H653l10,.7,5.2,3.3L667,82l-4,17.3,9.3,6Z"/><polygon class="b" points="503.51 411.07 484.31 399.37 445.81 373.27 406.11 330.17 360.11 289.67 341.41 274.97 319.41 283.27 296.41 290.67 281.41 289.27 285.11 281.27 293.41 273.67 294.71 259.97 279.41 263.27 274.11 281.97 255.41 290.87 250.41 286.27 258.61 261.37 248.41 261.97 236.91 258.27 240.71 250.67 267.41 243.67 276.71 243.27 285.41 240.67 293.41 237.27 312.91 237.37 335.71 239.97 377.11 259.27 465.41 303.67 522.11 330.67 501.41 304.27 486.41 254.97 490.11 206.97 510.01 157.17 514.11 154.67 586.11 140.27 600.11 139.27 600.11 156.27 632.11 194.67 662.11 221.27 669.41 216.97 660.41 194.27 686.41 204.67 712.11 236.27 711.11 259.27 701.41 279.97 712.11 309.27 700.11 327.67 646.71 354.67 639.81 359.67 635.41 365.67 590.11 386.27 557.41 383.97 541.71 366.67 503.51 411.07"/><path class="e" d="M513.41,388s-43-20-56-37.7-67-67-67-67-33-16-43.3-15.7-27.7,13.7-27.7,13.7l29.7-4,9.3,10,25.7,24.3,44.8,44,35.5,30.5,21.4,12.6,20,9.6Z"/><path class="e" d="M683.11,202l13.3,42.3,5,5-3.3,25.7-1.5,14.2s1.5,10.2-6.8,20.5-22.3,23.3-22.3,23.3l-15.7,11-3.3,10.3,39-22.7,14.7-8.7,8-13.7,14.7-73.7Z"/><polygon class="c" points="596.21 194.27 586.91 201.77 584.21 211.57 582.41 226.27 586.91 244.77 597.21 250.27 608.71 245.57 617.41 237.57 620.21 229.07 621.21 214.27 616.91 202.57 614.21 196.57 605.71 194.07 596.21 194.27"/><polygon class="c" points="523.71 187.27 536.41 191.57 545.41 208.77 544.41 226.07 540.21 241.77 532.71 247.07 517.71 248.07 505.71 234.57 502.71 221.07 504.41 207.07 507.91 195.77 515.91 188.27 523.71 187.27"/><path class="f" d="M592.71,146.67l-20.3,4h-19.7l-34,2.3-26.7,6.3L469,174l7.3-13.3,18.3-11.7,5-10.3,17.3-17.3-8.3-14.7,8-27.7,26.3-21.7,29.7-9,38.7,6.7,14.3,20,8,15.3-7,13.7,22.3-6,26.7,7.7,29.7,10,11,13.3,4,3,14.7-9.7,24.3-2.7,34.3,11,13,11.7,14.7,25.3,10,25-5.3,15.7-6.3,16.3-17,18-22,8.3-22.3,1.7-12-1.7s-8.3,24.3-8.3,25.3-7.7,26.7-7.7,26.7l-11,9-18.3-14-2-14.7,1.3-19,12.3-9.3-3.3-8.7-2-19-10-13.3-11-9.3-13-7-15.3-6.7,12.7,27.7,2.7,14.7,2.7,9.7-19-27.7-10-5-2.7-5-13.7-10.7-11.3-9.7-6-6.7-7.7-6-8-19.3Z"/><polygon class="b" points="675.11 459.67 718.71 461.27 762.71 478.97 794.71 507.27 800.41 535.67 805.11 536.67 818.41 521.27 827.41 537.27 836.41 547.27 844.11 549.67 849.11 543.97 845.41 522.27 854.11 523.67 861.41 519.27 855.11 509.27 828.31 484.97 815.41 463.67 795.71 445.67 745.71 413.67 679.41 383.67 668.11 406.67 668.41 437.97 675.11 459.67"/><path class="g" d="M671.31,433s16.1-5.6,49.1,5.4,54,28,60,35,25,33,25,39,1.4,24.7,1.4,24.7l-4.8-3.6-7.6-21.1-9-16-10-8-21-13-35.7-14-43.1-.3Z"/><polygon class="e" points="754.41 734.27 817.81 791.77 829.41 802.27 782.41 718.27 754.41 734.27"/><polygon class="b" points="547.81 769.17 547.91 775.77 553.91 790.77 567.41 847.27 567.91 858.27 567.41 891.77 577.41 899.27 591.91 890.77 595.41 860.27 598.91 851.27 618.91 797.77 621.41 766.77 547.81 769.17"/><path class="h" d="M497.41,754.27l83.7,14.3,95.3-12,36.3-12,33.7-11,123.3-45.7-48-33-28.3-24.3-20-23s-39.7-41.3-41.3-42.7-32.3-47.7-32.3-47.7l-12-23.7-16-43-5-37,9.3-27.3,3.3-2.7-27.7-12.2-16.9,10.9,7.7-25.5s-13.3,11.4-28,18.3c-11.2,5.3-23.7,6.6-28.7,6.2-11.5-1-46.8-36.5-46.8-36.5l-38.5,80-32.5,109,4.5,10.2-7.3,14-6.2,54.3,8.5,34L495,754.67"/><polygon class="a" points="666.91 527.27 692.91 513.27 697.31 518.67 703.91 513.77 706.91 504.27 699.41 495.77 687.41 502.77 661.91 512.77 666.91 527.27"/><path class="e" d="M621.41,766.77l-5,38.5-19.2,59.4-10.8,29.6s-17-13-12-21,17-105,17-105Z"/><polygon class="c" points="520.41 701.97 644.41 695.77 738.41 669.27 717.41 636.27 686.41 573.27 661.91 512.77 655.41 468.27 648.41 354.27 637.41 360.97 625.21 411.97 603.41 420.77 524.91 420.27 522.61 390.77 542.51 346.57 536.31 339.77 504.41 415.27 466.41 538.77 461.81 573.47 463.41 622.77 470.11 650.77 492.81 702.17 520.41 701.97"/><polygon class="h" points="9.01 752.77 67.71 817.27 122.41 899.27 151.71 909.27 216.41 918.67 293.71 919.27 366.41 909.27 407.71 892.67 415.71 892.67 520.41 701.97 518.41 693.97 501.91 696.47 483.61 706.97 476.41 707.27 453.71 715.27 433.71 717.27 413.11 711.27 381.71 710.67 365.11 722.67 357.11 731.27 339.71 732.67 331.11 727.97 311.11 731.27 277.21 732.07 253.71 728.67 241.71 724.67 225.11 741.27 209.41 743.07 185.11 740.67 167.11 741.97 162.11 748.97 144.81 748.87 135.91 742.97 120.41 739.67 95.11 746.67 86.41 753.97 68.41 756.67 62.21 752.17 50.91 757.27 49.91 744.57 2.41 739.07 9.01 752.77"/><path class="a" d="M70.31,671.17,59,632.57l-15.3-44,8-16,30-8,25.6,2.8-27-27.5-10.7-20.7,16-14,74-12.7-8-12.7.9-3.9,9.8-10.8,18-3.3-4.7-10-12.7-8-4.7-12.7,19.3-12,45.3-20.7,22-12.7,12.7-27.3v-18l-13.3-15.3-14.4-1.6-9.6,9.6v20.6l-2.7,11.3-1.3,5.3-9.3-15.3-.7-28.7,11.3-21.3,20.7-9.3,19.3,2.7,19.3,8.7,9.3,12,4,23.3-2.7,18,1.3,18.7,5.7,5.8,28.2,19.2,36.7,6.3,14,8.7-2,20-15.7,18.3,9.4,21.9,22.3.4,27-1.6,3.7,21.6-7.3,22.7-.1,24.3,32.1-5.6,29.3,2.7-17.3,38-18,45.3-10,15.3L390,673.07l-32.7-1.3-88.7,5.3-47.3,11.3s-52.7-1.3-54.7-1.3-38.7-11.3-38.7-11.3l-28.7-3.3-26-1.3Z"/><path class="i" d="M125.71,569.27s-22-18.7-22-35.3,46-24.7,46-24.7l74.7-14.7s49.3-12,55.3-16.7,8.6-5.3,8.6-5.3-81.9,10.6-83.2,12.6-86.7,12.7-86.7,12.7l-42.7,14L71,522.57l9.3,17.3,22,27.3,14,6.7Z"/><path class="i" d="M200.91,454.27s-15.5-7.5-12.5-15,43-20,52-27.5,30-28,31-38.5,10-25,1.5-38-19-23-25-22-22-.5-25,5.5-8.6,47-8.6,47l2.6,6.5,3.5-18.3,4.5-26.2,13.5-5.5,9.5,5,9.8,13.3-1.3,11.2-1.5,13-10,23.5-17.5,7.5-20,10.5s-25.8,6.3-27.7,9.7-21.3,15.3-21.3,15.3l8.5,19.5,14,6,5,6Z"/><path class="j" d="M45.71,717.27l-1.5,24.8,5.8,2.5.3,11.3,15.3-2.3,2,9,54.3-22.5,34.3,11,22.8-14.5,30.8,6.5,14.8-4.8,20.3-15.3,32.8,9,33.5-4.5,18,2.3,17.3,5.3,22.8-19.8,31.5-7,24.3,6.5,17.5,1.3,15.8-5.3h18.5l15.3-6.3-2-11-18-36.3-15-16.3-20.3-17.8-7.3,22.8-25.3,14.5-16.5,9-32.8,5-66-2.3s-64,12.5-69,13.3-60.5-1-67.3-3.8-60.8-12-60.8-12l-17.7,1.5-6.6.3-15.3,16.5L47,717.37"/><path class="k" d="M61.91,674.77l-18,48.3-.8,21.3,8.5,3.8-4,9.8,17.5-6.3,1.3,9.8,28.8-10.8,26-8.8s.5-26,8.3-38.5a95.28,95.28,0,0,1,17-20.3l-56.3-11.3Z"/><path d="M310.51,455.07c-4,2.1-7.7,4.9-11.8,6.9a84.71,84.71,0,0,1-15.3,5.5c-9.7,2.5-19.6,4.1-29.4,5.8q-34,6.15-68.2,11.8l-25.8,4.2a.76.76,0,0,0-.1-.4c-1.6-4.5-4.9-8.5-7.4-12.8a88.78,88.78,0,0,1,19.2-8.4c7.3-2.2,15.2-1.2,22.4-3.8,6.5-2.4,11.8-6.7,17.6-10.2a95.16,95.16,0,0,1,20.5-9.4c13.7-4.6,28-6.8,42.2-9.2,12.5-2.1,28.7-3.4,35-16.3,2.7-5.6,2.7-12.3-1.5-17.2-3.8-4.3-10.4-6.8-15.4-3.1-2,1.5-1.7,5.8,1.5,5.4,9.4-1.2,12.1,8.2,6.3,14.5-5.5,5.9-14.6,7-22.1,8.4-15.3,2.8-30.7,5.2-45.6,9.9a121.93,121.93,0,0,0-20.1,8.4c-6.8,3.7-13,9.2-20.4,11.8a31.31,31.31,0,0,1-7.5,1.6,3.36,3.36,0,0,0-2.1-4c-8.1-3.1-20.3-7.3-20.6-17.8-.2-5.9,3.7-8.6,8.6-10.4s9.9-4,14.8-6.1c18.2-7.7,37.5-15.4,53.1-27.7,13.3-10.4,23.8-26.3,22-43.9-1.5-14.8-14.1-31.2-30.7-25-8.4,3.2-11.3,11.6-12.6,19.8a124.08,124.08,0,0,0-1.5,25.1c-.6-.9-1.1-1.8-1.6-2.7a54.32,54.32,0,0,1-7-22.5,47.89,47.89,0,0,1,15.7-38.1c6.7-5.9,13.9-7.7,22.7-6.8a52.7,52.7,0,0,1,22.1,7.4c13.6,8.4,22.7,24,20.3,40.2-1.9,13.1-8.8,31.5,6.7,39.1a1.16,1.16,0,0,0,1.4-1.8c-5.8-6.2-5.6-16.6-4.3-24.4,1.4-8.4,3.2-16.4,1.9-25-2.4-16.4-13.6-29.9-28.6-36.5-14.5-6.4-31.4-7.9-44.3,2.5-11.4,9.2-18.3,23.6-19.2,38.1-1.1,17.7,8.5,37.6,21.9,49.1,1.8,1.5,4.8-.4,3.4-2.7-1.6-2.5-3.3-4.8-5-7.1a120.43,120.43,0,0,1,0-27.5c1-9,2.8-21.4,14.3-21.6,9.3-.2,16.2,8.5,18.2,16.9,2.3,9.3,0,19.1-4.7,27.4-9.3,16.3-26.1,25.1-42.8,32.3-9.1,3.9-18.5,7.2-27.5,11.2-7.1,3.1-15.7,6-20.9,12.1-4.8,5.6-3.4,14.1.5,19.9,4.1,6,10.7,9.2,17.3,11.5a36.06,36.06,0,0,0-8.4,1.8c-7.2,2.6-14.3,7.4-20.7,11.5a2.76,2.76,0,0,0-1,3.7c2.4,4.5,5.4,10.3,9.6,13.5l-37.7,6c-9.8,1.6-19.6,3.5-28.9,7.1-7,2.8-15.6,6.9-19.6,13.8-5.6,9.6,2.5,19,8.6,25.9,6.9,7.9,14,15.5,21.5,22.8a79.27,79.27,0,0,0-8.5-1.4c-9.9-1.1-20.2-.7-29.8,2.2-7.1,2.1-14.3,5.9-18.5,12.1-4.8,7.1-3.2,14.7.3,21.9,10.5,21.3,18,43.7,21.4,67.2a2.85,2.85,0,0,0-1.4.8c-3.3,3.5-6,7.8-8.8,11.7a86.49,86.49,0,0,0-8.7,13.8c-4.3,8.9-7.3,19.7-6.2,29.6a3.75,3.75,0,0,0,7.5,0c.7-10.2,2-19.5,7.1-28.7,4.1-7.3,10.8-13.5,14.2-21.1a2,2,0,0,0,1.8-2.3,181.71,181.71,0,0,0-14-58.1q-2.85-6.6-6-12.9c-2.2-4.4-5.3-9.3-4-14.4,2-8.4,11.9-12.6,19.4-14.5a69.17,69.17,0,0,1,32.3-.8c9,2,17.6,6.9,27.1,5.1,9-1.7,16.5-7.7,24.8-11.2,9.1-3.8,18.8-5.2,28.5-6.2,10.5-1.1,21.1-1.3,31.6-2.4,9.8-1,20-2.2,28.8-7.1,2.4-1.4.8-5.7-2-4.6-9.6,3.8-19,6.8-29.3,7.8-10,1-19.9,1-29.9,1.6-9.4.6-19,2.1-27.8,5.4s-16.7,10-26,11.6c-5.7,1-10.9-1.2-16.2-2.9-.1-.1-.1-.2-.2-.3-6.6-8-13.3-15.9-20-23.8-5.7-6.7-18.3-17.9-8.7-26.3,13.9-12.1,35.2-13.8,52.6-16.5q63.45-9.75,126.7-21.4c10.2-1.9,20.6-3.5,30.6-6.4,8.7-2.6,19.5-6.3,25.3-13.7C315.21,456.77,313.21,453.57,310.51,455.07Z"/><path d="M374.51,414.77c-4.5-5.6-11.9-7.2-18.7-8-10.8-1.3-21.6-2.4-32.3-3.9a.73.73,0,0,0-.4,1.4,122.87,122.87,0,0,0,24,6.3c6.4,1,13.8,1.1,19.5,4.6,15.9,10-5,32.3-10.5,42.4-1,1.8,1.5,3.8,2.9,2.2,3.5-4,6.4-8.4,9.6-12.6,2.7-3.6,5.5-6.9,7.3-11.1C378.91,429.27,379.41,421,374.51,414.77Z"/><path d="M401.41,496.27c0-.6-.9-1-1.2-.3-3.2,7.2-4.4,15.1-7.1,22.5-3,8.3-7.3,16-14.1,21.7-7.1,6-15.8,9.4-24.6,12.4-9.6,3.3-19.3,6.2-29,9.2-20.2,6.3-40.3,12.7-60.5,18.8-10.3,3.1-20,3.9-30.6,3.5a183.92,183.92,0,0,0-30.6,1.2c-11,1.4-22,3.7-32.9,5.7-11.9,2.2-24.4,3.4-35.8,7.4-2.3.8-2,4.4.6,4.4,10.8-.1,21.6-2.7,32.1-4.5,11-1.9,22.1-3.7,33.1-5.7s21.6-3.2,32.6-2.4c10.6.7,20.3.4,30.5-2.4,21.3-5.8,42.2-13.2,63.2-19.8,17.8-5.6,38.8-9.4,53.9-21.1,7.2-5.6,12.1-13.4,15.3-21.8C399.61,516.17,402.11,505.67,401.41,496.27Z"/><path d="M118.61,738.27c-8.3,4.7-17.6,7.6-26.3,11.4-8.1,3.4-16,7-24,10.8-.2-2.3-.4-4.7-.4-7a1.71,1.71,0,0,0-1.2-1.6c-5.3-.8-10.3-.3-14.6,2,1.1-1.8,2.3-3.5,2.6-4.7.8-3.6-1.4-6.1-4.8-6.9-6.7-1.7-14.8-1.1-21.7-1.6-8.6-.6-17.2-1-25.8-1.5a2.26,2.26,0,0,0-1.9,1.1s-.6.8-.5,1.1a1.42,1.42,0,0,1,.2.6,2.35,2.35,0,0,0,2.1,1.6c13.9,1.3,27.7,2.4,41.6,3.4,1.3.1,3.8-.3,4.7.7s.4.8-.1,2.1-1.7,2.7-2.4,4c-1.3,2.5-1.9,5.3-.1,7.7,1,1.3,2.9,1.9,4.2.5a20.59,20.59,0,0,1,14.4-6.9c.2,2.6.3,5.3.4,8a1.76,1.76,0,0,0,2.5,1.5c9-3.8,18-7.5,27.2-11,8.6-3.3,17.3-7.1,26.4-8.8C126,743.67,123.31,735.67,118.61,738.27Z"/><path d="M182.81,889.47c-12.2-25-31-47.9-49.6-68.4a403,403,0,0,0-30-29.9c-5.4-4.8-10.9-9.4-16.7-13.8-5.2-4-10.7-9.1-16.7-11.9-1.8-.8-3.8,1.3-2.2,2.9,4.9,5.1,11.5,8.8,17,13.3,5.2,4.2,10.3,8.5,15.3,12.8a339.92,339.92,0,0,1,29.7,29.1,340.67,340.67,0,0,1,26.5,33.4c7.9,11.4,14.8,23.5,22.2,35.1C180.11,895,184.31,892.47,182.81,889.47Z"/><path d="M219.41,751.27c-.1,0-.1.1,0,.1S219.51,751.27,219.41,751.27Z"/><path d="M205.71,883.37a348.59,348.59,0,0,0-19.5-68.6c-4.3-10.6-9-21-14.3-31.1-2.7-5.2-5.5-10.4-8.5-15.4-2.8-4.8-5.7-10.3-9.6-14.4-1.4-1.4-4.2,0-3.5,2,1.9,5,5.2,9.7,7.9,14.4,2.9,5.1,5.7,10.3,8.4,15.5,5.3,10.5,10.1,21.3,14.4,32.3a361.85,361.85,0,0,1,18.6,67C200.31,889.07,206.41,887.37,205.71,883.37Z"/><path class="l" d="M507.21,203.07l8.3-3.8,8.5.8,4.5,4,4.8,7.8,4.8,8.8,2.8,10.3-3.5,8.3a32.81,32.81,0,0,1-2.3,5.5c-1,1.5-1,3-2.3,2.5s-13-2.3-13-2.3a76.23,76.23,0,0,1-9.5-17.8c-3.2-9.3-3.3-9.3-3.3-9.3l-1.8-4.3Z"/><path d="M134,867.77c-9.9-21-18.5-43.4-34.6-60.6a214.74,214.74,0,0,0-24.7-21.9c-9.1-7.1-18.1-15.1-27.8-21.4-2.2-1.4-4.6.9-4.1,3.2a3.55,3.55,0,0,0,2.7,3.1c15.7,14.3,34,25.5,48.6,41.1,15.9,17,24.2,39.3,33.8,60.1C129.91,875.37,136,871.77,134,867.77Z"/><path d="M629.51,535.47c-.5-6.7-1.3-13.3-2.2-19.9-.5-3.7-1.1-7.3-1.7-11-.2-1.4-.5-2.8-.7-4.2-.2-1.1-.4-2.2-.5-3.3,3.9-.8,6.1-6.8,1.7-8.7a15.25,15.25,0,0,0-2.6-.8,3,3,0,0,0-3-.7c-4.1,1.1-8.1,1.8-12.1,3.5-4.6,1.9-9,4.2-13.6,6.1a121.55,121.55,0,0,1-29.1,7.2,171.81,171.81,0,0,1-30.4,1.1c-5.5-.3-10.9-.8-16.3-1.5-2.7-.4-5.2-1.4-7.5-.6a2.8,2.8,0,0,0-4.2,1.8c-7.1,25.8-4.8,53.2.6,79.1,4.3,20.7,9.7,45.5,30.6,55.6,10.1,4.9,21.9,6.8,33,8.1,11.9,1.4,22.8-1.1,31.8-9.3,16.4-15.1,23.4-40.2,26-61.6A223.56,223.56,0,0,0,629.51,535.47Zm-17.6,73.9c-4.3,9.5-9.9,19.3-18.8,25.2-10.5,7-22.9,4.2-34.4,1.9s-22.1-6.1-29.1-15.9c-5.8-8.2-8.8-18.1-11.3-27.7-7.1-27.5-12.4-56.2-6-84.3,2.1.7,4.6.7,6.8,1.1,5,.7,10.1,1.3,15.2,1.5a173.33,173.33,0,0,0,31.4-1.1,128,128,0,0,0,27.4-6.2c4.4-1.6,8.7-3.6,12.9-5.6a70.61,70.61,0,0,1,9.7-4.1c-.9,3.9.4,8.1,1.2,12a332.55,332.55,0,0,1,4.7,34.5C623.21,563.67,621.51,588,611.91,609.37Z"/><path class="l" d="M584.21,211.57l12-3.5,12.8,4.8,7.3,7,.8,10-1.5,8.3-3,5-6.3-2.3s-6.3-3.8-7.5-6-9.3-12.8-9.3-12.8l-5.5-3.3,1.5-6.5"/><path d="M546.11,207.57c-1.8-7.9-4-15.7-11.4-20.1-4.6-2.8-12.7-3.9-16.8.4-5.2,2.3-9.7,8.3-11.4,13a91.28,91.28,0,0,0-3.5,14.6c-.9,5-1.6,10.2-.6,15.2,1.3,6.9,6.3,16.6,13,19.7,7.2,3.4,16.5.2,22.6-4.6,3.7-2.2,7-7,8.2-10C549.71,227.07,548.11,216.47,546.11,207.57Zm-17.6,39.3c-5.2,2.3-10.1.8-14.3-2.8-5.8-4.9-7.3-12.8-7.4-20v-4.4c.1-.1.2-.2.2-.3,3.7-7.1,16.2-.4,19.8,3.6a23.19,23.19,0,0,1,5.1,20.1,2.42,2.42,0,0,0-.6,2h0v.2A12.75,12.75,0,0,1,528.51,246.87Zm7.6-6a1.23,1.23,0,0,0,.2,1.3c-.1.1-.2.1-.3.2a5.85,5.85,0,0,1-1.3.2c3.5-8.6-2-21.3-8.3-26.7a17.07,17.07,0,0,0-13.8-4.4,14.86,14.86,0,0,0-5.5,1.8,25,25,0,0,1,1.7-7.5,1.75,1.75,0,0,0,1.4-.7c7.8-9.8,20.2,2.6,24.1,10.1C538.51,222.87,540,232.87,536.11,240.87Zm6.6-7.2c-.3-8.2-4.9-19.6-6.4-22.6-3.2-6.7-7.7-11-15.3-12.1-2.9-.4-6.1-.7-8.8,0a34.32,34.32,0,0,1,3.7-5.4,29.56,29.56,0,0,1,2.6-2.4c6.1-1.8,11.1-3,16.5,1.8a26.11,26.11,0,0,1,8.5,17.4C543.81,215.17,544.71,225.87,542.71,233.67Z"/><path d="M618.91,201.57c-5.4-11.8-19.2-13.6-28.7-6.4-4.6,1.8-7,8.5-8.4,12.7a55.55,55.55,0,0,0-2.5,22.2c.5,6.4,2.5,12.8,7.1,17.5,2.6,2.6,8.3,6.6,12.1,4.7,3.4.3,7.6-1.7,10-2.9,4.2-2.3,6.6-5,7.9-8.6.1-.1.2-.1.3-.3,4.3-5.1,5.5-11.7,5.5-18.2C622.31,215.27,622,208.17,618.91,201.57Zm-16.7,45.6a8.54,8.54,0,0,1-3.8.7,17.38,17.38,0,0,0-3.2-1,14.39,14.39,0,0,1-6.9-5c-3.5-4.7-4.2-10.9-4.2-16.7v-2.8a3,3,0,0,0,1.6-.2c6.8-3.7,14.2-.4,18.2,6a21.2,21.2,0,0,1,3,9.8c.1,2-.5,4.4-.1,6.4-.1.1-.3.2-.4.3A29.09,29.09,0,0,1,602.21,247.17Zm11.8-10.6a24,24,0,0,1-3.2,4.1,27.58,27.58,0,0,0-.2-5.9,24.51,24.51,0,0,0-5.5-12.9c-4-4.7-15.1-10.1-20.6-5.6l.3-2.4c6.8-4.5,14.1-3.4,21.3.3,3.7,1.9,7.2,4.7,8.3,8.9S614.21,232.17,614,236.57Zm3.6-2.6a.76.76,0,0,0-.2-.4c2.3-9.6-2.2-19.2-11.1-24.2-4.9-2.8-14.7-4.6-20-1.1,1.5-3.8,4.8-7.1,6.2-10.9,4.4-1.8,9.2-2.3,13.6-.3,5.1,2.3,7.9,6.2,9.6,11.4a67.73,67.73,0,0,1,3.2,14.7A29.18,29.18,0,0,1,617.61,234Z"/><path d="M553.31,272.27c-6.9-3.6-11-9.7-8.7-17.8,1.6-5.6,6.2-9.7,7.7-15.1a1.1,1.1,0,0,0-1.1-1.4c-7.5.7-12,13.5-12.3,20-.2,4.6,1.4,7.9,4.4,11.2,2.6,2.9,4.8,6.6,9.1,6.5C554.11,275.47,554.91,273.07,553.31,272.27Z"/><path d="M592,281.37a2.65,2.65,0,0,0-5.1,1.4c1.1,5,.6,9.1-2.3,13.3-1.2,1.7-2.6,3.3-4.8,3.7-1.8.3-3.4-.5-5.2-.4a2.25,2.25,0,0,0-1.9,3.4c3.2,5.8,11.9,3.2,15.3-.9C593,295.87,594.51,288.77,592,281.37Z"/><path class="m" d="M602.11,161.67l12.7,14.7,36,11.7,26,7.3,26.3,27,6.3,24-2,9.3-7,17.3,2.3,19.7,10.7,11-1-25-3-53.7,7,81.7,5.3,3.3,5.7-15s7.7-34.3,7.7-35.3-9-46.3-9-46.3l-36-35-39.7-11.7-15.3.3-25-5.3-7-7-2.3,7.3"/><path class="i" d="M471.11,548l-7.3-7.3s-24,6.7-35.3,22-34.7,57.3-49.3,62-66.7,16-93.3,16.7-80.7,3.3-120,13.3-56.7,18-56.7,18l40.3,13.5,61.1-.2,39.3-5.3,52.7-8,72.7,1.3,28.6-13.4,27.4-22.6,12-31.3,8-24,14-24.7Z"/><path class="m" d="M544.41,104c0-1,18.3-35,18.3-35l19.7-18.7,31.3,6.3s0,8.3-1,8.3-25.3,8.3-25.3,8.3l-16,14-3,11.3Z"/><polygon class="m" points="597.11 97.27 610.41 85.27 630.71 76.97 630.41 96.67 621.41 98.67 597.11 97.27"/><polygon class="m" points="583.41 140.67 590.11 140.67 595.41 133.27 584.71 124.67 538.41 118.97 501.71 134.97 496.41 146.67 523.41 139.67 540.41 138.67 566.71 138.27 583.41 140.67"/><polygon class="m" points="601.41 121.67 604.71 140.97 630.41 125.67 672.41 128.97 708.71 150.67 733.11 181.97 742.11 219.27 741.71 259.97 748.71 204.97 725.71 136.97 703.41 116.27 657.11 100.27 628.11 103.97 601.41 121.67"/><polyline class="m" points="738.11 156.97 759.11 150.27 771.71 155.67 774.11 145.27 771.71 130.67 752.11 132.27 730.41 143.97 738.11 158.27"/><polygon class="m" points="747.41 176.67 752.11 207.27 759.11 204.67 771.71 189.67 772.71 178.97 762.11 173.27 747.41 176.67"/><path class="m" d="M748.11,250l13,2,26-3.7,19.3-10.3,16.3-25.3s7.3-19,7-20-3.3-22.7-3.3-22.7l-11.7-13.3-5.3,27.7-3.3,10-3.3,9-13,17-6.7,7.3-16.7,10.7-8.7,1.3-9-2.3Z"/><path d="M503.41,410.77c-2.4,6.3-10.3,24.8-12.5,31.2a890.63,890.63,0,0,0-27.2,96.1v.1c-12.8-2.5-26.7-.5-39.3,2.9a50,50,0,0,0-13.5,5.8c.2-3.1-.2-6.5.1-9.4a95.58,95.58,0,0,1,3.6-18.3c3-9.9,8-19.8,5.8-30.4a19.69,19.69,0,0,0-5.6-10.4c-3.2-2.9-6.8-2.3-10.7-1.6-12.7,2.6-25.7,3.1-38.6,2.7-1.2,0-1.5,1.9-.3,2.1a105.08,105.08,0,0,0,29.1.9c4.6-.5,12.2-3.2,16.5-1.5,4.9,1.9,5.5,11.2,5.1,15.4-.8,10.1-5.9,19.5-7.8,29.4a86.15,86.15,0,0,0-1.7,13.4c-.2,3.4-.9,7.5.2,10.8a57.24,57.24,0,0,0-9.6,10c-3.7,4.8-7.5,9.8-12.2,13.7a66.15,66.15,0,0,1-17.4,9.8c-12.5,5-25.7,8.4-38.6,12.4-16,4.9-32,10.2-48.5,13.6-15.1,3.1-30.5,4.4-45.8,5.5-29.2,2.2-60.4,4.8-86.5,19.1-.6.3-.2,1.4.5,1.1a201.16,201.16,0,0,1,38.1-9.8c13-2.1,26-2.3,39.1-3.2,26.9-1.8,53.2-4,79.2-11.4,13.6-3.9,27.1-8.1,40.6-12.2,11.8-3.6,24-6.8,34.8-12.9,10.6-5.9,16.4-15.3,23.7-24.5,8.3-10.4,19.1-14.3,31.9-16.6a84.38,84.38,0,0,1,20.7-1.7c2.7.2,8.9.1,10.5,2.8,1.1,1.8,0,2.6-1,4.5-1.2,2.3-2.3,4.7-3.5,7-6.3,12.6-13,25.1-18.5,38a144.47,144.47,0,0,0-6.5,18.1c-1.8,6.6-3.2,13.3-6.8,19.2-6.4,10.8-17.5,17.9-27.7,24.8-11.5,7.8-23.2,10-36.9,10-14.9.1-29.8-.6-44.7-.6a317.91,317.91,0,0,0-42.5,2.5c-13.9,1.9-27.5,4.8-41.3,7.4-31.4,6-64.2,7-95.5-.2-19.5-4.5-46.4-15.4-64.7-3.9a2.63,2.63,0,0,0-3.5,1.1c-.2.4.3,1,.7.7a2.51,2.51,0,0,1,.7-.4,33.78,33.78,0,0,0-7.3,7.7c-1.3,1.9,1.8,4.3,3.2,2.5,8.7-11.2,23.5-12.4,36.5-9.6,14.1,3,27.4,8.5,41.5,11.3s28,4.8,42.2,4.9a248.89,248.89,0,0,0,43-3.7c15.3-2.5,30.4-5.8,45.8-7.9,14.9-2,30-2.4,45.1-2.5,14.7-.1,29.5.3,44.2-.2a81.17,81.17,0,0,0,18.3-2.3c6.7-1.8,12-5.3,17.7-9.1,10.3-6.9,20.9-14.1,28.3-24.3a45.72,45.72,0,0,0,6-11.6,75.22,75.22,0,0,1,6.4,4.7,110.12,110.12,0,0,1,10.2,10.3,151.18,151.18,0,0,1,17.5,25.2,145.69,145.69,0,0,1,11.7,27.6c.8,2.6,1.9,5.8,5.3,5.4a3.77,3.77,0,0,0,1.6-.5,27.17,27.17,0,0,1-12.1,3.4c-5.8.3-11.6-.1-17.4.7-6.4.9-11.6,4.2-17.7,5.9-6.9,1.9-14,.6-20.8-.9-12-2.7-23.8-6.7-36.2-5a55.16,55.16,0,0,0-30,14.6,68.93,68.93,0,0,0-5.2,5.6,19.25,19.25,0,0,1-2.9,3.4c-3.1,2.2-3.8.9-6.4-.5a42.71,42.71,0,0,0-14.7-5c-21.3-3-43.2,8.7-64.1,2.2-5.7-1.8-10.7-6.2-16.9-6.3-4.5-.1-8.6,1.8-12.2,4.3-4,2.8-7.4,6.3-11.2,9.3-3.4,2.6-7.2,3.9-10.7,5.9-3.3.1-6.4.3-10-.6-4.2-1.1-8.4-2.4-12.7-3.1-6.6-1.1-13.7-1.4-20.2.3a26,26,0,0,0-8.1,3.7,17.22,17.22,0,0,0-3.4,3.2c-.6.8-1.2,2.3-1.9,2.8-2.3,1.6-8.6-1.4-11.5-2.2-3.5-1-6.7-2.7-10.2-1.2-.6.2-.7,1.1-.4,1.6,2.1,3.1,5.9,3.3,9.3,4.3,3.7,1.1,7.8,3,11.7,3.4,2.8.3,4.1-1.1,5.6-3.3a16,16,0,0,1,9.7-6.9c8.3-2.3,17.5-.9,25.6,1.5,1.4.4,2.9.9,4.5,1.4v.4c1.7,11.6,6.4,23,9.6,34.3s6.2,22.9,8.8,34.5a591.15,591.15,0,0,1,11.4,71.3c.4,4.6,7.6,4.6,7.2,0a568.74,568.74,0,0,0-11.8-72.2c-2.8-11.9-5.9-23.7-9.4-35.3-3.2-10.5-6.2-22.1-11.6-31.8,4.6,1,9.4,1.1,13.1-1.8h0c5-.9,10.1-5.5,13.7-8.5,2.3-1.9,4.7-4.1,7.2-5.8,1.3,5.4,3.3,10.6,4.6,16a181.27,181.27,0,0,1,3.4,19.3c1.6,12.8,1.9,25.7,2,38.5s-.3,25.5-.4,38.2c0,6.7.1,13.3.3,20,.2,4.8-.8,12.3,3,15.8a2.06,2.06,0,0,0,3.1-.4c3.2-4.2,1-12.2.8-17.2-.2-6.7-.3-13.3-.4-20-.1-13.3.2-26.7-.1-40a308.55,308.55,0,0,0-2.8-38.4c-1.6-11-3.5-24-8.8-34.1,4.4-1.1,8.1,1.2,12.3,3.2,15.3,7.4,31.8,3.6,48,1.3-6.4,24.6-9.4,50.1-11.9,75.4-1.3,12.7-2,25.5-2.6,38.3-.3,6.6-.5,13.1-.6,19.7-.1,6.1-1.2,13.5.6,19.3a2.4,2.4,0,0,0,4.6,0c1.8-5.6.8-12.5,1-18.4.2-6.6.4-13.1.7-19.7.5-12.8,1.5-25.5,2.4-38.3,1.9-25.7,5.7-51.1,8-76.7,3.7-.5,7.4-.9,11.1-1.1a45.22,45.22,0,0,1,15.1,1.6c4.2,1.3,8.3,4.9,12.7,5.5-2.3,11.3-2.6,23.2-3.9,34.6-1.5,12.7-3,25.4-4.7,38.1-3.4,25.7-7.6,51.4-11.7,77-.6,3.7,5,5.4,5.7,1.6,4.9-25.1,8.6-50.4,12-75.7,1.7-12.7,3.3-25.4,4.6-38.1,1.3-12.5,3.7-25.7,3.2-38.4,3.1-1.6,5.2-4.8,7.5-7.5a44.25,44.25,0,0,1,14.4-11c11.9-5.8,24.5-5.6,37.2-2.6,9.2,2.2,18.5,5,27.9,4.5-2.7,4.9-4.6,10.6-6.6,15.8-2.6,6.8-5.3,13.5-7.9,20.2l-16.2,41.4c-5.2,13.5-10.5,27-15.8,40.4-2.6,6.7-5.3,13.5-7.9,20.2-2.8,7.1-6.9,14.7-8.2,22.2a1.86,1.86,0,0,0,3.4,1.4c3.9-5.6,6.2-13.1,8.8-19.4l8.7-21c5.6-13.7,11.2-27.4,16.6-41.2s10.7-27.6,15.8-41.5c2.5-6.8,5-13.6,7.4-20.4,2.2-6,4.9-12.2,5.9-18.5a27.41,27.41,0,0,0,2.8-.5c7.2-1.7,13.1-6.6,20.6-7.2,5.2-.4,10.3-.1,15.5-.4-16.9,22.1-31.4,46-44.8,70.5a611.87,611.87,0,0,0-36.9,80.7c-1,2.6,3.2,3.8,4.2,1.2a621.49,621.49,0,0,1,36.5-80.6c13.6-25.2,29.7-48.9,46.2-72.3a31.31,31.31,0,0,0,14.2-7.1c4.3-3.6,11.8-11,17-4.6l.2.2a20.48,20.48,0,0,0-2.4.5c-2.1.5-1.9,3.5,0,4.1.2.1.4.1.5.2-.7,1.1-1.3,2.4-2,3.6-2.3,4-4.7,8-7,12-4.6,8-9.2,16-13.8,24.1l-28.2,50.1c-17.4,30.9-34.9,61.7-52.2,92.7a2.88,2.88,0,0,0-1.6,0c-4.2,1.3-8,3.4-12.1,5-4.6,1.7-9.3,3.2-14.1,4.7-9.3,2.9-18.7,5.4-28.2,7.8a386.12,386.12,0,0,1-57.4,9.5c-39.8,3.5-79.2-.1-118.8-4.6a273.34,273.34,0,0,1-29.7-4.6c-9.3-2.1-18.2-5.3-27.2-8.7-2.6-6-6.9-11.9-10.3-17.3q-6-9.9-12.3-19.5-13.2-20.1-27.4-39.3-14.1-18.9-29.4-36.7c-5-5.8-10.1-11.6-15.5-17.1s-10.7-12-16.9-16.7c-2-1.5-5,1.5-3.5,3.5,4.4,6.1,10.3,11.4,15.3,17,5.3,6,10.7,11.9,15.9,17.9,10.3,11.8,20.3,24,29.8,36.5,9.4,12.2,18.3,24.8,26.8,37.6,4.2,6.4,8.4,12.9,12.4,19.5s7.3,14.5,12.5,20.1a2.09,2.09,0,0,0,3,.1c13.4,8.8,30.2,11.9,45.8,14.1q30.3,4.2,60.8,6.4c40.9,3.1,81.6,1.1,121.7-8a311.33,311.33,0,0,0,32.7-9.2c5.3-1.8,10.6-3.6,15.7-5.7a62.49,62.49,0,0,0,6.9-3.1c-.1,3.4,5,5.8,7,2.1,18.7-33.5,37.1-67.1,55.7-100.6,7.9-14.2,15.8-28.5,23.7-42.7a3.27,3.27,0,0,0,2.1,2.2,234.89,234.89,0,0,0,50.8,12.1c-.3,7.2-1.2,17.5,7.1,19.5,1.3.3,2.1-1.5.9-2.1-6.4-3.8-5.4-10.6-5.5-17.1,22.9,2.7,46.2,2.4,69.3.2a197.64,197.64,0,0,1-7,43.3c-3.8,13.8-9.8,26.4-16.1,39.1a2.36,2.36,0,0,0-3.7,1.9,136.46,136.46,0,0,1-2,24.7c-.7,4-1.4,8.3-3.4,11.9-2.3,3.9-7,7.8-11.8,5.5-7.4-3.5-6.4-13.8-5.8-20.4.4-3.8.8-7.6,1.1-11.4.2-2.6.8-5.2.5-7.6a12.75,12.75,0,0,0,0-3.9.88.88,0,0,0-1.5-.4,7,7,0,0,0-.8,1c-2.2-11.2-4.3-22.4-6.7-33.6-1.2-5.6-2.3-11.2-3.5-16.9-.9-4.2-.8-11.1-4.2-14a.71.71,0,0,0-1.1.1c-2,3.8.1,9.1.9,13.1,1.1,6,2.4,11.9,3.7,17.8,2.5,11.6,4.9,23.3,8.3,34.7a1.35,1.35,0,0,0,1.3,1c-2.1,4.5-2.7,10.6-3.5,14.9a110.58,110.58,0,0,0-2.5,19.8c-.1,10,4.3,21.8,14.8,24.9a2.06,2.06,0,0,0,2-.6c6.2,4.4,14.4-6.4,16.6-12,5.3-13.5,5.2-29.6,4.2-43.8a1.29,1.29,0,0,0-.9-1.2c8.7-12.9,14.5-28.4,18.5-43.3s5.6-29.6,5.7-44.9c6.6-.7,13.1-1.6,19.7-2.6a556.55,556.55,0,0,0,73.9-17,2,2,0,0,0,1.1,1.5c4.2,2.6,9,5.4,13.8,6.5h.1c.9,2.3,2.6,4.1,4.1,6.1,2.4,3.1,4.9,6.1,7.6,9A182.81,182.81,0,0,0,760,789c10.7,8.7,37,24.9,39.2,24.9a10.8,10.8,0,0,1,1.8,1.3,112.82,112.82,0,0,0,14.5,12.2c10.5,7.1,24.1,12.2,36.9,11.4a3,3,0,0,0,.9-5.8c.9-3.7-1-10-1.8-12.7-1.8-6-4.9-11.2-8.3-16.5-4.4-6.9-11-20.3-21-17-1.4-4.4-4.4-8.8-6.3-12.5-3.3-6.3-6.7-12.6-10.2-18.8-3.2-5.6-6.5-11.2-10.1-16.5-3-4.4-6.2-10-10.5-13.3,1.4-.5,2.8-1,4.1-1.6,13.9-5.3,27.7-10.9,41.6-16.5l19.8-8.1c6.6-2.8,14.4-4.8,20.2-9a3,3,0,0,0,1.1-1.7c2.3-1.2,3.2-5.2.3-6.4-14.3-6.1-25.7-16.8-37.3-26.8-12.6-10.8-25.2-21.5-37.8-32.3-23.7-20.2-47.3-40.4-66.4-65.1-9.8-12.5-17.9-25.9-25.7-39.7a10.1,10.1,0,0,0,2.3-1.9c3.7-4,3.1-10.3,1.3-15-1.5-4.2-4.5-8-9.1-9.1a9.35,9.35,0,0,0-9.4,2.9,5,5,0,0,0-.3-1.6c-4.8-9.8-9.4-19.8-13.5-29.9l-1.2-3.3c33.9.3,69.7,6.9,96.7,28.8a81.37,81.37,0,0,1,17,18.6c4.7,7.3,6.8,14.6,8.4,23,1,5.2,3.7,8.4,9,5.6,5.7-3.1,9.4-8,12-13.7,4.3,8.4,9.2,17.6,16.3,23.9,4.6,4.1,13.1,5.8,14.6-2.2.7-3.6-.8-7.6-1.5-11.1q-.9-4.65-2.1-9.3c3.5,1.8,9.4,2.2,12,1.8,4.5-.7,6.2-5,4.5-9-1.1-2.7-3.4-4.9-5.3-7.1-2.8-3.3-5.7-6.4-8.7-9.5-5.4-5.6-11.2-12.6-17.8-16.8a1.65,1.65,0,0,0-1.9,0c-4.7-8.5-9.7-16.9-16-24.2-7.7-8.9-17.2-16.7-26.5-24-18.2-14.2-38.7-24.8-59.7-34.3-14.3-6.5-65.8-26.7-74.5-30a2,2,0,0,0-.7-.1c-.3-4.5-.7-8.9-1.1-13.4,5.4-2.2,10.8-4.4,16.1-6.9a149.27,149.27,0,0,0,21.5-12.6c9.5-6.5,19.7-14.1,25.7-24.3a12.59,12.59,0,0,0,5.9.5,2.92,2.92,0,0,0,2.3-1.6,3,3,0,0,0,1.8-2.6v-.2c7.6-3.1,10.9-14.1,13.1-20.9,1.8-5.7,3.5-11.4,4.8-17.2a55,55,0,0,0,1.5-6.9,2.34,2.34,0,0,0,.7-.7c2.1-3.4,2.6-7.4,3.3-11.2.1-.4.2-.9.3-1.3a79,79,0,0,0,51.1-6.2,48.75,48.75,0,0,0,18.8-16.4c5-7.1,10.6-14.9,12.6-23.5,1.9-8.2,3.3-18.7.9-26.9-2.6-9.3-7.7-18.5-11.9-27.1-4-8.3-9.6-13.5-17.1-18.7-3.2-2.2-6.5-4.5-9.9-6.6a2.62,2.62,0,0,0-3.1-1.9,68.25,68.25,0,0,0-12.9-6c-9.6-3-21.8-2.2-31.6-.9-8.6,1.1-17.5,3.4-23.9,9.5-1.8-2.3-3.6-4.6-5.6-6.7-11.5-11.7-27.3-16.1-42.9-19.1-9.8-1.9-19.2-4.2-29.2-2.9a44.43,44.43,0,0,0-11.9,3.1c8.4-10.5,7.1-24.8-.8-35.6-9-12.1-23.5-18.3-38.1-20-29.1-3.4-65.5,8.1-78.8,36.3-5.7,12-8.8,29.4.2,40.5a6.47,6.47,0,0,0-1.1,2.9,71.84,71.84,0,0,0-8,5,36.6,36.6,0,0,0-6.6,5.8c-2.2,2.5-2.7,4.6-4.1,7.5a1.55,1.55,0,0,0,.9,2.1,75.47,75.47,0,0,0-16.6,10.2c-6.7,5.6-13.5,14.3-14.6,23.4a58.21,58.21,0,0,0-8.1,17.5c-4.9,16.4-6.6,34.9-3.3,51.8.5,2.4,4,1.7,4.1-.6.8-16.8.7-33.2,5.5-49.5,2.3-7.9,5.4-14.8,11.2-20.7,5.5-5.7,11.7-11.2,18.6-15.1,13.8-7.8,31.5-9.4,47.1-9,8.2.2,16.7.5,24.9-.4,3.9-.5,7.7-1.4,11.6-2.1,3.3-.6,6.6-.4,9.3-2.6a1.87,1.87,0,0,0,0-2.6c-3-2.4-6.5-1.9-10.2-1.7-3.9.2-7.9.5-11.7,1-9.8,1.2-19.7,2.2-29.6,3.2-16.8,1.6-32.7,3.4-47.6,12.2a81.38,81.38,0,0,0-15,11.2,28.62,28.62,0,0,1,2.2-3,51.78,51.78,0,0,1,11.3-10.1c9.2-6.2,19.5-9.9,30-13.3,21.6-7.1,46.3-9.4,67.9-1.5,4.3,1.6,6.3-5.5,1.9-6.9-12.1-4-24.7-6.5-37.5-5.4s-25.5,4.7-37.5,8.8q-5.85,2-11.7,4.5c2.9-2,5.8-3.6,8.6-5.9a61.89,61.89,0,0,1,10.8-7.6,70.49,70.49,0,0,1,26.6-7.4c9.5-.8,19.3-1.1,28.7.7,3.9.7,26.8,7.4,18.3,13.8-1.9,1.4-1.4,4.7,1.3,4.7,4,0,6.3-3.4,7.2-7,1.1-4.7-1.3-8.9-5-11.6-9.9-7.4-23.8-7.8-35.6-7.9-9.8-.1-20.2.1-29.8,2.5,2.2-1.4,4.3-2.7,6.6-4a112,112,0,0,1,26.7-10.1c10.7-2.7,21.5-3.6,32.4-4.5,5.2-.4,10.3-.5,15.5-.7,5-.2,12.1-1.8,16.3,1.8a3.51,3.51,0,0,0,.8.5c-5.6.3-9.9,4.1-14.1,7.5-4.5,3.6-12.1,7.6-14.2,13.1a1,1,0,0,0,1,1.3c5-.6,9.1-5.2,13-8.2a71.81,71.81,0,0,1,9.2-6.3,1.45,1.45,0,0,0,2,.4c13.8-8.9,32-7.2,47.5-3.9,14.4,3,30,8.1,40.6,18.7,5.2,5.2,9.2,11.7,13.4,17.8s8.3,12.5,11.9,19.1a93.05,93.05,0,0,1,11.3,46.5,195,195,0,0,1-1.9,21.5c-.2-1.6-.4-3.2-.5-4.8-.2-4.3-.2-8.7-.4-13-.9-15-5-31.6-14.4-43.6-19.9-25.3-48.9-47.7-82.5-46.8-13.8.4-37.7-.2-41.8,16.9-.2,1,1.2,1.7,1.7.7,5.2-8.7,16-10.2,25.2-11.1,4.9-.5,9.9-.9,14.9-1a32.55,32.55,0,0,0-4.4,1.5c-6.2,2.5-12.6,4.3-18.8,6.9-3.7,1.6-7.5,3.2-11.3,4.7-2.8,1.1-5.9,2.6-9,2.9-.7-1.4-2.9-1.3-3.9,0-6.4,8.4-2,22,4.2,29.2a22.94,22.94,0,0,0,6.5,5.2c7.2,10.2,17.7,19,27.1,26.2,6.3,4.9,13.6,8.7,19.2,14.3,5.4,5.4,9.5,12.3,12.6,19.3,6.9,15.5,10.5,33.7,9,50.7-1.4,16.7-8.2,31.4-14.3,46.7-.9,2.3,2.5,3.4,3.8,1.6,9.2-13.3,12.3-30.8,13.1-46.6a147.47,147.47,0,0,0-2.3-34.6,35.3,35.3,0,0,0-.1-6.5,71.44,71.44,0,0,0-1.5-7.8c-1.4-6.9-2.7-13.9-4.7-20.6-2.4-8.1-6-17.7-11.4-25,9.3,2.9,18.3,6.5,25.9,12.8a58.83,58.83,0,0,1,13.8,16.4c3.9,7.1,5.3,15.2,6.7,23.1a5.78,5.78,0,0,0,.5,1.4v1.1a15.17,15.17,0,0,0-2.8-4.3c-5.7-5.9-14.5-3.7-18.5,2.9-1.9,3.1-2.3,7.1.1,10,1.9,2.4,5.1,3.4,7.7,1.6,1.3-.8,2-3,.5-4.2-4.9-3.8,1.7-9.1,5.8-4.8,2.7,2.9,2.2,7.3.8,10.7a37.12,37.12,0,0,1-5,8.6c-2.3,3-5.4,4.9-7.8,7.7-1.2,1.4-.5,4,1.6,3.9a12.48,12.48,0,0,0,6.5-2.5,24.92,24.92,0,0,0-.4,9c.8,4.5,3.3,8.6,5.6,12.5a46.77,46.77,0,0,0,5.9,8.6c-7.9,8.1-15.2,16.9-24.7,23.4-10.3,7-39,18.2-39,18.5-.8.2-1.5.5-2.3.7a3.13,3.13,0,0,0-1,.5c-.1-.5-5.3,9.8-6.1,15.5a135.89,135.89,0,0,1-3.7,16.8,116.59,116.59,0,0,1-6,16.2c-1.6,3.5-3.7,6.8-5.5,10.3-7.2.5-14.6,3.4-21.6,4.6a130.6,130.6,0,0,1-25.7,2.2c-8.3-.1-16.7-.5-25-1-3.8-.2-7.7-.6-11.5-.9-2.4-.2-6.1-.2-9-.9.5-2.7-.2-5.9-.1-8.5a122.06,122.06,0,0,1,1.5-17.1c1.7-10.9,8.1-31.6,13.2-41.4,1.7-3.4-1-5.3-2.5-1.8-4.6,11.2-14.5,31.5-16.2,43.5a121.38,121.38,0,0,0-1.1,15.9c0,2.3-.4,5.3,0,7.9a2.47,2.47,0,0,0-1,2.4c1.4,6.6,12.1,6.3,17.3,7,9.9,1.2,19.9,1.5,29.8,1.9a150.9,150.9,0,0,0,27.7-1.4c4.8-.7,9.5-1.6,14.2-2.6,3.1-.7,12.6-3.1,12.8-3.4.3-.1,2.7-2.2,2.6-3.4a79.05,79.05,0,0,0,5.6-11.3,117.17,117.17,0,0,0,6.2-16.8c2.3-7.9,4.7-17.5,4.8-26.5a3.18,3.18,0,0,0,2.7,0,3.55,3.55,0,0,0,.9-.4c3.4,41,2.8,82.5,9.4,123.2,3.6,22.2,10.4,43.5,18.8,64.4,7.9,19.8,16.2,39.5,25.1,58.9,10,21.6,21,42.6,34.9,61.9-34.9,10.9-70,19.4-106.2,24.4-18.4,2.5-37,4.3-55.6,5.3-9.5.5-18.9.8-28.4.9-6.5.1-13.5-.6-20.1-.1a3.6,3.6,0,0,0,0-4.3c-6.7-8.7-18.1-2.2-24.4,3.3a33.21,33.21,0,0,1-5.6,4.1,4,4,0,0,0,1.6-4.4,2.75,2.75,0,0,0-2.3-2.2l-.9-3c-.6-2.1-1.3-4.3-2.1-6.4-1.3-3.6-2.7-7.1-4.3-10.6a150.91,150.91,0,0,0-13.2-22.7l-1.5-2.1c1.7-.3,3.1-1.7,2.3-3.7a105.25,105.25,0,0,1-8.3-43.9c.2-7.6.9-15.1,1.3-22.7.3-5,.3-9.9.4-14.9a10.91,10.91,0,0,1,.6-1.1c1.7-3.5,3.5-7,5.2-10.5,1.1-2.3,2.8-4.8,3-7.4.3-3.5-1.6-5.4-4.2-6.5v-.1a872.86,872.86,0,0,1,26.7-95.2c2.6-7.4,5.2-14.8,8-22.2a3.08,3.08,0,0,0,.5-1.2c2.8-7.4,5.7-14.7,8.6-22.1,6.3-15.5,16-37.7,21.9-53.4,1-2.6-1.4-4.6-2.8-2.4-8.4,14.1-18.8,37-25,52.2-3,7.2.1-.8-2.7,6.5-5.1-1.9-27.8-9.4-33.5-13.7-11.7-8.8-20.9-12.1-30.5-23.1-19.1-22-41.6-42.5-61.9-63.4-11.3-11.6-23.8-22.1-38.2-29.8a2.6,2.6,0,0,0-3.5.9c-7.5-2.1-15.7,5.1-21.3,8.9-9.6,6.5-19.7,6.4-30.7,4.6-.7-3.1,2-4.7,4.5-7a28,28,0,0,0,5.4-6,11.53,11.53,0,0,0,1.6-7.7,1.06,1.06,0,0,0,.8-.1c3.1-2.1,1.6-6.3-1.1-8.2-4.4-3-10.3-.7-14,2.1-5.2,3.9-7.7,9.9-11,15.3-4.3,7-9.5,9-16.5,12.3-.7.4-2.6-1.6-3.2-2.4a28.2,28.2,0,0,1,1.4-3.9,16.92,16.92,0,0,0,1.3-3.1c1.4-3.6,2.8-7.3,4.4-10.8a113.06,113.06,0,0,1,9.1-14.7,75.64,75.64,0,0,1,10.9-8.7,3.53,3.53,0,0,0,1.3-.8h0a41.32,41.32,0,0,1,8.6-3.7c7.2-2.2,15.9-2.3,23.3-1.9,17.9,1.1,35.3,9.9,51,17.8,34.6,17.4,68.9,35.7,103.3,53.4,19.2,9.9,37.5,21.8,57.6,29.8a3.18,3.18,0,0,0,1.3.2,77.56,77.56,0,0,0,7.6,5.4,83.7,83.7,0,0,0,14.3,7.3c4.1,1.6,9.4,4.2,13.9,3.1a.68.68,0,0,0,.3-1.2c-2.8-3.1-7.9-4.3-11.6-6a123.37,123.37,0,0,1-12.9-7,70.53,70.53,0,0,1-11.4-9c-.5-.4-10.2-12.2-12.8-15.5-5.4-6.8-9.3-14.6-13.2-22.3-7.3-14.5-9.9-30.7-10.4-46.8a200.05,200.05,0,0,1,4.5-46.9,100.5,100.5,0,0,1,6.8-21.6c3-6.5,7.2-12.4,10.9-18.5.9-1.4-.9-3.1-2.3-2.3-13.5,8.1-18.9,26-22.1,40.6-3.6,16.6-5.7,34.2-4.9,51.3s4.4,34,12.6,49.1c2.4,4.4,5.5,8,8.4,12,2.4,3.4,4.4,7.2,7.3,10.3a47.69,47.69,0,0,1,4,5.5c-14-7.8-28.9-14.1-43.2-21.5-18.4-9.5-36.9-18.8-55.2-28.4-17.7-9.2-35.5-18.1-53.6-26.6-16.1-7.5-32.4-12.8-50.2-13.8a74.15,74.15,0,0,0-25.3,2.4c-2.7.8-15.8,3.2-16.2,3.2-9.1,1.3-18.8,3.1-27.3,6.7-4.5,1.9-10.6,5.6-10.1,11.3a1.23,1.23,0,0,0,.4.8,1.63,1.63,0,0,0,.2,1.5c2.3,3.3,6.9,3.3,10.7,3.5,4.1.2,9.1.2,12.7-2.3-.4.9-.9,1.8-1.3,2.6-3.2,6.6-6.8,14.1-8.1,21.3-.1.8,2.8,4.5,4.4,5,.5.2,3.2,1.3,4.4,1.2,7.9-.1,15.2-6.3,19.4-12.5,2.8-4,4.6-8.8,7.8-12.5,1.9-2.3,6.6-6,9.9-5-.3,1.4.2,1.3.3,3.7.1,3.1-1.5,5.5-3.7,7.5-2.8,2.5-6.6,3.2-9,6.1-2.1,2.5-2.9,7.9-.4,10.1a3.22,3.22,0,0,0,2.5,2.9c9,2.7,20,.9,28.6-2.6,4.5-1.8,8.4-4.4,12.5-6.9a37.08,37.08,0,0,1,8.1-4.3c2.4-.8,4.9-.7,7.4-1a1.45,1.45,0,0,0,.7-.2c49.7,31.2,86.5,84,132.5,119.5m58.2-288.8a66.14,66.14,0,0,0-13,8.5l-2.3,2c-8.3-12-2.3-30.8,5.6-41.3,9.6-12.9,26.4-18.9,41.7-21.9a108.5,108.5,0,0,1,12.6-1.6c-7.4,4-13.5,11.4-18.1,17.6a194.33,194.33,0,0,0-11.3,17.1c-3.1,5.3-6.4,10.6-8.4,16.4A61,61,0,0,0,532.51,108.47Zm30-10.2a109.49,109.49,0,0,0-15.9,4.2c1.2-3.3,2.4-6.6,3.9-9.8a88,88,0,0,1,10-15.6,84.77,84.77,0,0,1,12.2-12.5c4.7-4,9.9-6,15.3-8.6a1.93,1.93,0,0,0,1.1-1.4,62.88,62.88,0,0,1,22.2,6.8c.3.2.7.4,1,.6-10.6,2.5-20.3,7.7-28.9,14.3-6.5,4.9-15.5,12.9-17.8,21.4Zm64.5-.9c-6.8-5-17.5-3.5-25.8-3a64.11,64.11,0,0,1,5.5-4.9,38.85,38.85,0,0,1,8.9-5.5c3.2-1.5,6.9-1.9,9.9-3.7,1.4-.8,1.2-3.3-.5-3.6-6.9-1.5-15.6,3.8-20.8,7.7a46.14,46.14,0,0,0-8.6,7.9c-.7.8-1.5,1.7-2.2,2.6-7.5.4-14.9,1-22.3,2.1,1.4-2.2,2.7-4.5,4.2-6.6a77,77,0,0,1,10.4-11.7c8-7.2,17.8-11.3,28.2-13.6a1.37,1.37,0,0,0,1.1-1.4C625.71,71.07,632.71,84.77,627,97.37Zm185.9,85.2a104.17,104.17,0,0,0,2.6-22.1c2.1,4.5,4,9,6.1,13.5,1.8,3.8,3.7,7.8,4.1,12s-.2,8.4-.6,12.5c-1.7,15.2-11.3,30.8-23.4,40.2-14.6,11.3-35.7,14-53.2,8.8.4-2.4.9-4.8,1.3-7.2,8.5,4.2,19.5.5,27.1-4.1,9.3-5.5,16.5-13.4,22.4-22.4C805.81,203.77,810.51,194.17,812.91,182.57Zm-63.7-3.6c2.7-.4,5.3-1.5,8.1-1.8,4.8-.5,9.4,2.7,14.1,3.6-2.4,11-7.4,22.1-18.3,24.1A95,95,0,0,0,749.21,179Zm42.2-16.3c1-8.9,2.5-17.9,2.1-26.8,6.2,4,12.5,8,16.6,14.2a192,192,0,0,1-1.7,29.3c-1.6,10.3-6.1,19.1-11.5,27.8s-11.6,16.5-20,22.2-16.5,7.6-26.5,7c.2-1.1.4-2.2.5-3.4,9.1,1.4,16.7-5,22.1-11.8,6.3-7.8,9.8-16.7,12.6-26.2C788.81,184.37,790.21,173.57,791.41,162.67Zm-5-31.3c.8,8.7-.6,17.8-1.4,26.4-.9,9.8-1.7,19.8-3.5,29.5-2.5,14.1-11.8,41.1-29.9,40.3.6-5,1.1-10,1.4-15.1.1-1.3.1-2.5.1-3.8,5.3.4,10.6-3.1,13.8-7.2,5.3-6.9,7.9-16.8,10.2-25,2.4-8.6,2.8-18.2,2.2-27.1-.5-7.4-.9-16.5-4.1-23.7A59,59,0,0,1,786.41,131.37Zm-56.2,10c-.2-.2-.3-.5-.5-.7-1.8-2.7-3.5-5.4-5.3-8.1,10.6-10.1,29.2-9.8,43-8.5a3,3,0,0,0,.5,1.5,18.29,18.29,0,0,1,1.8,3.4c-6.4-.7-13.8.8-19.4,2.5C744,133.37,734.61,136.07,730.21,141.37Zm1.4,2.1c2.8-.9,5.3-2.8,7.9-4a60.76,60.76,0,0,1,11.8-4,72.53,72.53,0,0,1,12.3-1.5c2.5-.1,5.1.2,7.7.2a95,95,0,0,1,1.7,13.3c.1,1,.2,2.1.3,3.1-5.2-3.5-13.2-2.1-19-1.5-4.3.4-12.1,1.2-16.4,4.3C735.81,150.17,733.71,146.77,731.61,143.47Zm11.3,19.6c-.9-1.8-1.8-3.6-2.8-5.4a40.73,40.73,0,0,1,5.4-1.7,50.65,50.65,0,0,1,9.6-1.6c5.5-.4,11.5-1.2,16.6,1.3a2.51,2.51,0,0,0,1.9.1,98.46,98.46,0,0,1-.3,13.3,77.6,77.6,0,0,1-1,7.7,25.61,25.61,0,0,0-12.1-6,27,27,0,0,0-13.2,1.5A83.35,83.35,0,0,0,742.91,163.07Zm-139.4-12.2c.1-1.1.2-2.2.3-3.4,4,.6,8.1-1.4,12-3,6.3-2.6,12.7-5.1,18.9-7.9a63.23,63.23,0,0,1,21.5-5.1c3.8-.3,7.6-.6,11.4.2,3.1.6,5.9,1.9,9.1,2.1a3.08,3.08,0,0,0,1-.1c3.6,1.7,7,3.6,10.5,5.6a109.39,109.39,0,0,1,21.6,16.1c14,13.5,23.5,28.2,26.6,47.6,1.4,8.8,3.1,18,3.1,26.9,0,9.6.2,19.8-1.4,29.3h0c.1-1.2.2-2.5.2-3.8,0-15.1-2.5-31.3-10.8-44.2-8-12.5-16.9-23.6-29.8-31.3s-27.7-11.3-42.4-13.7c-8.6-1.4-17.3-2.2-25.9-2.9-7.7-.6-18.8-2.7-24.3-9.2a1.62,1.62,0,0,0,.7-1.9c0-.1,0-.1-.1-.2a1.94,1.94,0,0,0-1.7-1.3C603.61,150.87,603.61,150.87,603.51,150.87Zm59,54.8a108.72,108.72,0,0,1,7.3,17.6c.8,2.3,1.5,4.7,2.1,7a50.77,50.77,0,0,0-6.6-12.1c-4.9-6.4-11.3-10.7-17.9-15.1a168.57,168.57,0,0,1-21.1-16.5c-1.1-1.1-2.3-2.2-3.4-3.3,6.9,2.6,13.9,5,21,7.3,3.6,1.2,7.4,2.2,11.1,3.3C657.41,197.77,660.31,201.47,662.51,205.67Zm36.8,3.1c-9.7-10.5-22.3-16.6-35.9-20.6-14.8-4.4-29.8-8-44.3-13.4-6.6-2.5-11.7-6.3-14.3-13a17.23,17.23,0,0,1-.7-2.1c6,7.5,18.8,6.4,28.2,7.8,15.6,2.3,31.7,4.7,46.1,11.2,13.2,6,25.2,13.7,34.2,25.3,4.5,5.9,9,12.2,12.2,18.8,3.6,7.3,4.6,15.7,5.9,23.6,1.5,9.5,2.1,18.4,0,27.8-1.8,8.2-5.5,16.8-5,25.3-1.9,3.1-4.4,4.9-7.1,7.4-.1-.2-.1-.4-.2-.5-2.8-4.3-1.7-11.1-1.9-16.1-.2-5.9-.5-11.7-.7-17.6-.2-5.5-.4-11-.7-16.6-.1-2.5-.2-5-.4-7.5a3.77,3.77,0,0,0,.5-2.8C713.21,231.57,709.31,219.47,699.31,208.77Zm8.6,86.3c-1.4-2.3-3.1-4.6-3.8-7.2-.8-2.9-.2-6.1,0-9.1a2.17,2.17,0,0,0,2.2-.1c3.2-1.9,4-6.1,4.6-9.9l.2,6.9c.2,6.5.2,13.1.5,19.6a56.68,56.68,0,0,0,.6,7.2C710.61,300.17,709.31,297.47,707.91,295.07Zm-450.1-34.5c-3.6-.8-7.3-.1-11-.5-3.2-.4-6.7-2.2-10-1.7a15.42,15.42,0,0,1,4.9-5.3,31.94,31.94,0,0,1,8.4-3.3c5.7-1.6,21.4-5.8,21.5-5.7,0,.3-12.7,16.6-13,17.4A1,1,0,0,0,257.81,260.57Zm198.7,373.7c-4.1-4.1-9.1-8.6-14.5-11.2,1.7-6,3-12.1,5.1-18,3.8-10.9,9.3-21.3,14.7-31.6a260.34,260.34,0,0,0-3.4,30.6,106.35,106.35,0,0,0,5.8,38.8C461.71,639.87,459.21,637,456.51,634.27Zm139.1,256.2a48.11,48.11,0,0,1-4.1,13.2c-2.1,4.1-7.5,11.1-12.7,8.5a1.85,1.85,0,0,0-.8-.7c-.3-.1-.5-.3-.8-.4l-.3-.3a.65.65,0,0,0-.5-.2c-6.1-3.7-8.7-9.7-9.5-16.3,2,3.8,5.3,6.8,9.9,7.4,8.6,1,14.6-6.5,16.8-14,2.2-7.2,3.1-15.1,3.5-22.9A105.77,105.77,0,0,1,595.61,890.47Zm244.6-392.8c4,3.9,7.8,7.8,11.5,11.9,1.6,1.8,3.3,3.6,4.9,5.5.8.9,3.3,3.4,3,4.6-.4,2-3.2,2.7-4.7,2.8-3.1.2-6.9-2.4-9.9-1.9-.4-1.4-.8-2.8-1.3-4.1a178.55,178.55,0,0,0-10.7-25.1C835.41,493.47,837.91,495.47,840.21,497.67Zm-159.1-111.5c9.8,3.8,19.4,7.9,29,12.2,18.3,8.2,36.8,16.8,54.1,27.2a221.2,221.2,0,0,1,25.2,17.9c7.6,6.1,15.8,11.6,22.5,18.8a123.89,123.89,0,0,1,16.4,22.7,2,2,0,0,0,.3,2.1c.6.7,1.3,1.4,2,2.1a197.82,197.82,0,0,1,11.2,26c.7,2,1.3,3.9,1.9,5.9-.1.1-.2.1-.3.2a.37.37,0,0,0-.1.3,3.75,3.75,0,0,0,1.2,2.1c.7,2.3,1.3,4.7,1.9,7,1.2,4.8,4.6,21-6.4,16.3-4.7-2-8.7-8.8-11.5-12.8a114.06,114.06,0,0,1-8.9-14,1.12,1.12,0,0,0-1.9,0,33.57,33.57,0,0,1-7.8,10.9c-1.6,1.5-5.5,5.3-8,2.3-1-1.2-.7-4.6-.9-6.2a55.4,55.4,0,0,0-6.2-18.5c-7.1-13.2-18.8-23.6-31.2-31.6-26.1-16.6-58.4-22.6-89-19.6-2-8.1-2.1-16.3-3.4-24.7-1.6-9.9-2.5-19.2.3-28.9A54.24,54.24,0,0,1,681.11,386.17Zm-20,105c-4.3-21.9-5.9-44.2-7-66.5-.8-16.3-1.1-32.5-2.1-48.7,8.1,2.5,16,5.3,23.8,8.2-9.9,11.9-13.8,28.8-11.6,43.8.9,6.4,1.9,12.6,2.3,19a60.5,60.5,0,0,0,3.5,17.3c4.3,11.3,9.5,22.3,14.9,33.1,1,2.1,3.2,1.9,4.6.7a2.93,2.93,0,0,0,.4,1.6h-.1c-4.7,2.6-9,5.7-14,7.7-3.3,1.3-6.8,1.9-10.1,2.8A195,195,0,0,1,661.11,491.17Zm174.8,310.4c2.9,4,5.9,8,8.5,12.1s5.4,8.3,6.4,13.3a24.9,24.9,0,0,1,0,6.1,89.14,89.14,0,0,1-11.7-1.2c2-5.1-1.4-13.8-2.5-18-1.8-7-4.3-14.8-9-20.6C831.21,794.57,833.51,798.37,835.91,801.57Zm-43.5-57.1c3.4,5.2,6.5,10.5,9.6,15.8,3.2,5.7,6.5,11.4,9.9,16.9,2.3,3.7,4.6,8.8,7.8,12.3a3,3,0,0,0,3.6,3.4,8.58,8.58,0,0,1,2.2-.2,64.61,64.61,0,0,1,8,17c.9,3.2,6.3,20.5.5,20.3a1.69,1.69,0,0,0-1,.3,50.17,50.17,0,0,1-10-4.1,77,77,0,0,1-12.5-8.6c-1.6-1.3-13.2-13-13.9-12.3a154.47,154.47,0,0,1-34.1-20.3,160.13,160.13,0,0,1-16.7-15.2c-2.6-2.7-5.1-5.5-7.6-8.3a54.68,54.68,0,0,0-4.5-5.1,2.14,2.14,0,0,0-.8-3.3c-3.9-1.8-7.8-3.2-11.6-5.1,20.2-6.1,40.1-13.1,59.7-20.5a3,3,0,0,0,.2,1C783.91,734.37,789,739.27,792.41,744.47Zm60.1-51.5c-6.3,2.7-12.7,5.4-19,8-12,4.9-24,9.6-36.2,14-23.4,8.6-46.9,17-70.6,24.5-47.2,14.8-96.2,25.9-145.9,24.8a288.93,288.93,0,0,1-82-13.4,2.66,2.66,0,0,0-1.5-.1c.6-1.1,1.3-2.3,1.9-3.4,4.5-8.1,8.9-16.2,13.3-24.4,2.2-4.1,4.4-8.2,6.6-12.2.9-1.7,2.1-3.4,2.5-5.2,7,1.1,14.6.6,21.5.7,9.5.1,19-.1,28.4-.4q28.05-1.05,55.8-4.8c37.4-5.1,75-13.1,110.8-25.1a4.32,4.32,0,0,0,2.1-6.6,2.73,2.73,0,0,0-.2-3.2c-24.8-34.1-41.3-72.9-57.8-111.5-3.9-9.2-7.7-18.4-11-27.7,8.8-.6,18.1-8.3,24.5-13.3,2.4-1.9,5.4-4.7,3.9-8.1-1.2-2.7-3.9-3.1-6-1.4a1.28,1.28,0,0,0,.3,2c1.9,1.4-10.2,9.7-11.6,10.6-4,2.6-8.4,4-12.6,6-.9-2.8-1.9-5.6-2.7-8.4a42.61,42.61,0,0,0,11.4-2.1c5.4-1.6,10.9-3.9,15-7.9a2.65,2.65,0,0,0,.6-3,2.3,2.3,0,0,0,1.3-1.1,3.26,3.26,0,0,0,.4-1.4c3.2-1.3,6.3,2.3,7.4,5.6a11.81,11.81,0,0,1,.4,6.7,3.59,3.59,0,0,1-1.8,2.6,2.11,2.11,0,0,0-1.8.6c-.4.1-.9.2-1.4.3a2.53,2.53,0,0,0-1.1,4.2,6.22,6.22,0,0,0,3.3,1.5c26.9,58.3,79.9,98.2,127.1,139.3,11.8,10.3,23.4,21,37.6,27.7C860.91,688.67,856.81,691.07,852.51,693Z"/><path d="M632.61,360.37c-11.3,10.9-26.1,17.8-42.1,17.1-3.5-.2-7-.7-10.5-1.2-5.1-.8-8.7-3.6-12.6-6.7-6.7-5.2-12.4-11.8-19.3-16.8-1.9-1.4-4.4,1.3-3.2,3.2,5.2,7.7,13.8,14.1,21.4,19.2a42.34,42.34,0,0,0,24.1,7.2c16.6-.3,33.4-6.9,44.5-19.4C636.51,361.17,634.21,358.87,632.61,360.37Z"/><path d="M668.21,70.67c-.5-2.6-4.5-1.5-4,1.1a49.39,49.39,0,0,1-.4,22.3c-.1.4-3.5,8.5-1.3,8.4h.7a1.6,1.6,0,0,0,1.4-.8A53.3,53.3,0,0,0,668.21,70.67Z"/><path d="M836.61,79.47c-.2-7.7-1.8-15.5-5.6-22.2-3.6-6.4-8.8-10.5-15.3-13.8-6.9-3.5-10-10.8-16.3-15.5a147.62,147.62,0,0,0-45.6-22.7c-15.9-4.7-33.9-7.9-50-2.3-7.9,2.8-14.9,7.7-22.7,10.4s-15.6,1.6-23.6,1.8-15.1,2.5-20.1,9a40.33,40.33,0,0,0-8.1,21c-.5,7.2,1.8,14.4,7.7,18.9,6.4,4.9,14.4,5.6,22.2,5.3,1.7-.1,2.2-2.7.4-3.1-6.1-1.3-13.3-2.1-18.5-5.8-6.4-4.6-7.2-12.6-5.5-19.8,1.6-6.4,5.1-14.1,11-17.5s13.7-2.2,20.3-2a45,45,0,0,0,19.2-3.3c6.5-2.7,12.6-6.6,19.4-8.8,14.7-4.8,31.2-1.7,45.7,2.5A139.44,139.44,0,0,1,791,30.27c3.3,2.2,6.8,4.4,9.4,7.4,2.3,2.6,3.5,5.9,6.2,8.2,4.7,4,10.7,5.4,14.9,10.2,9.8,11.3,8.4,29.1,7.1,42.9-.8,8.4-6.8,13.3-14,16.9-7.6,3.8-15.6,3.3-23.6,1.1a157.94,157.94,0,0,1-24.5-8.6c-7.2-3.3-12.5-8.3-18.8-12.9-5.9-4.3-12.8-5.5-20-5.1a181.07,181.07,0,0,0-25.5,3c-1.9.4-1.5,3.4.5,3.4,9.2-.2,18.3-2.4,27.5-2.3a23.58,23.58,0,0,1,12.7,3.2c3.9,2.4,6.9,6,10.5,8.8l.3.3a43.54,43.54,0,0,0-7.7,13.6c-.5,1.4,1.8,2,2.3.6a43.86,43.86,0,0,1,7.3-12.8,83.32,83.32,0,0,0,18.3,9.4c7.8,3.1,16.1,6.3,24.5,7.4,13.6,1.7,30.9-6.8,36-20.2C837.11,97.07,836.91,87.47,836.61,79.47Z"/><path d="M506.71,215.57h11.5l9.3,6.5,6.3,9.3-.5,15.5-7.5,2.3c-1,.3-13.5-2.8-13.5-2.8l-6.8-9.3Z"/><path d="M582.41,220.07l8-3,11.8,5,5.5,9.3.5,9.8s-1.5,5.3-2.3,6-9.8,1.8-9.8,1.8l-10-6.3-4.3-15Z"/><circle class="c" cx="513.91" cy="214.57" r="8.8"/><circle class="c" cx="531.81" cy="226.87" r="4.6"/><circle class="c" cx="596.51" cy="219.67" r="8.4"/><circle class="c" cx="610.31" cy="239.37" r="3.1"/><path class="c" d="M101,580.57c-4.2-.3-8.4.6-12.6.4-4.7-.2-9-1.4-13.5-2.4a19.81,19.81,0,0,0-17.8,4.2c-4.8,4-4.3,9.7-2,15,1.8,4,3.9,8,6,11.8,1.9,3.5,3.7,7.7,6.8,10.1,1,.8,3.1.4,2.9-1.2-.7-5.9-5.2-11.5-8.3-16.6-1.7-2.8-4-5.9-4.6-9.1-1-5.1,3.4-8.2,7.7-9.7,6.1-2.1,13,1.7,19.2,2.5,5.6.7,12,1,17.2-1.4C103.91,583.37,102.81,580.67,101,580.57Z"/><path class="c" d="M218.51,560.67c-3.7-.3-7.4.7-11,.9-3.4.2-6.9.3-10.4.3-7.2,0-14.4-.2-21.6.2a73.89,73.89,0,0,0-18.7,3.1c-3.9,1.3-10.3,3-9.9,8.1.1.7,1.1,1.2,1.5.4,2.3-5,14.9-6.4,19.6-6.9a133.32,133.32,0,0,1,17.9-.6c5.8.1,11.5.3,17.3.2,5.3-.1,11.4.1,16.3-2.2C221.31,563.27,220.21,560.77,218.51,560.67Z"/><path class="c" d="M249.91,543.77c-3.8,1.7-7.2,4.6-10.8,6.7s-7.5,4-11.2,5.9c-1,.5-.3,2.1.8,1.8a84,84,0,0,0,11.9-5.2c3.7-2,8-4,10.9-7.2A1.3,1.3,0,0,0,249.91,543.77Z"/><path class="c" d="M387.91,587.77c-2.4.7-4,2.4-6.2,3.5a30.35,30.35,0,0,1-8.3,2.4c-6.3,1.1-11.5,1.8-16.8,5.7-.7.5-.3,2.1.7,1.6,6.5-2.7,14-2.2,20.7-3.9,4.1-1,10.7-3,11.4-7.8A1.2,1.2,0,0,0,387.91,587.77Z"/><path class="c" d="M459,547.07c-5.3-2.4-13-1.7-18.6-.9a62.84,62.84,0,0,0-18.4,5.9,64.38,64.38,0,0,0-15.8,11.1c-4.4,4.3-9.6,9.7-11,15.9a.65.65,0,0,0,1.1.6c4.2-4,7.1-9,11.4-12.9a65.65,65.65,0,0,1,15.8-10.7,63,63,0,0,1,17.4-5.5c5.9-1,12-.2,17.8-1.2C459.81,549.37,460,547.57,459,547.07Z"/><path class="c" d="M420.31,628.37c-3.9,2.2-7,5.7-10.5,8.5a111.69,111.69,0,0,1-12.1,8.2,130.7,130.7,0,0,1-11.8,6c-3.3,1.5-8.4,2.4-11,5.1a2.36,2.36,0,0,0,1,3.9,1.36,1.36,0,0,0,1.5-.1c3-2,7.1-2.7,10.5-4.1a102.14,102.14,0,0,0,13.2-6.7c7.4-4.4,17.6-10.4,22-18.1A2,2,0,0,0,420.31,628.37Z"/><path class="c" d="M261.91,444.07c-7-.7-14.6,1.9-21.5,3.2-7.2,1.4-14.7,2.4-21.2,5.8-.8.4-.4,1.6.5,1.7,7.4.3,14.7-1.7,22-3.1,6.9-1.3,14.7-1.7,21-5C264.11,446.07,263.31,444.27,261.91,444.07Z"/><path class="c" d="M235.41,307.07c-6.1,1-12.3,6.5-16.1,11.2a34.66,34.66,0,0,0-7.4,17.1c-.1.6.9.9,1.2.3a69.81,69.81,0,0,1,9.7-15.9c3.9-4.7,8.8-7.5,13.2-11.6A.65.65,0,0,0,235.41,307.07Z"/><path class="c" d="M284.81,337.47a36.31,36.31,0,0,0-19.3-27.4,1.61,1.61,0,0,0-1.6,2.8,33.89,33.89,0,0,1,17.3,28.8c.2,6.3-.9,12.6-2.2,18.7-1.2,5.6-4,11.9-3.8,17.7a1.32,1.32,0,0,0,2.4.7c3.9-5.5,4.8-14.3,6.1-20.8A64.36,64.36,0,0,0,284.81,337.47Z"/><path class="c" d="M361.41,422.37c-3-4.1-7.5-5.9-12.4-6.7-6.8-1.1-13.5-1.9-20.2-3.5a1.27,1.27,0,0,0-1,2.3c7.6,4.8,15.3,3.7,23.5,6.2,5.9,1.8,9.8,6.6,6.2,12.5-2.4,3.9-6,7-8.8,10.6-.8,1,.2,2.8,1.5,2C357.61,441.27,367.81,431.27,361.41,422.37Z"/><path class="c" d="M403.41,513.17c-3.6,8.1-6.2,16.6-10.3,24.6a106.57,106.57,0,0,1-6.5,10.8c-2.9,4.2-6.7,6.8-10.5,10-.6.5.2,1.5.9,1.1,3.8-2.3,6.8-6,9.9-9.1a51.24,51.24,0,0,0,7.7-10.3,107.59,107.59,0,0,0,11.4-26C406.41,512.77,404.11,511.67,403.41,513.17Z"/><path class="c" d="M355.61,562.87c-11,2-21.8,7.8-31.4,13.4-.3.2,0,.6.2.4,10.1-5.8,20.7-8.8,31.4-12.9C356.51,563.57,356.31,562.77,355.61,562.87Z"/><path class="c" d="M59.61,715c1.7-6.4,5.8-12.9,6.2-19.5.1-1.4-1.6-1.8-2.5-1-5.5,4.8-8.3,14.6-10,21.6-1.6,6.8-2.8,15.9.8,22.2a1.78,1.78,0,0,0,3.3-.9c.4-3.4-.2-6.8,0-10.3A69.72,69.72,0,0,1,59.61,715Z"/><path class="c" d="M137,759.17c-3.9-.1-5.9-4.2-9.6-4.9-4.1-.7-8.3,1.6-12.1,3a183.14,183.14,0,0,1-29.1,7.6,1,1,0,0,0,.3,2,108.64,108.64,0,0,0,28.8-6c2.3-.8,4.5-1.8,6.8-2.5,2.5-.7,3.4-.9,5.9.3,1.6.8,2.2,1.5,3.6,2.3,2.1,1.3,3.9,2.1,6.1.5A1.27,1.27,0,0,0,137,759.17Z"/><path class="c" d="M180.41,847.17c-1.3-6.6-4-13.1-6.2-19.5q-3.45-10-7.2-20.1c-2.2-5.9-4.6-11.8-7.2-17.6-1.4-3.1-2.9-6.1-4.5-9.1-1.3-2.6-2.1-4.9-4.8-6.2a.73.73,0,0,0-1.1.6c-.2,2.7.9,4.3,2.1,6.7,1.5,3,3,6.1,4.4,9.2,3.1,6.6,6.1,13.2,8.8,19.9,4.9,12,8.1,25.2,13.9,36.8C179.11,849,180.61,848.27,180.41,847.17Z"/><path class="c" d="M94.21,829.37c-4.1-9.9-11-19.1-17.8-27.3-6.3-7.6-14.5-17.1-24.1-20.2a1.07,1.07,0,0,0-1,1.8c3.6,3.2,7.6,5.9,11.1,9.1a144.12,144.12,0,0,1,10.8,11.3c7.3,8.2,12.8,17.3,19.1,26.2C92.81,831.07,94.71,830.57,94.21,829.37Z"/><path class="c" d="M279.31,742.77c-5.7,1.1-10.9,1.3-15.4-3.1-1-1-2.4.5-1.5,1.5,4.1,4.8,12.5,7.3,17.7,2.9C280.81,743.57,280.11,742.67,279.31,742.77Z"/><path class="c" d="M292.41,741.77c-2.3,15.8-3.8,31.6-5,47.5-.6,7.9-1.2,15.8-1.6,23.7l-.7,11.8c-.2,3.9-1,8.2-.1,12a.78.78,0,0,0,1.5,0c2.5-6.4,2-15,2.7-21.9q1.2-12.3,2.1-24.6c1.3-16.1,2.2-32.1,2.3-48.3C293.81,741.17,292.61,741,292.41,741.77Z"/><path class="c" d="M408.71,725.87c-6-2.5-14.2-1.7-20.3.1-5.2,1.6-12.5,4.8-14.7,10.1-.4.9.7,1.6,1.4,1.4,2.4-.6,4.3-2.2,6.5-3.5a53.87,53.87,0,0,1,8.8-4c6.1-2.1,11.8-1.9,18.1-2.4C409.61,727.57,409.71,726.27,408.71,725.87Z"/><path class="c" d="M371,755.27c-4.4,6.5-6,16.1-8.1,23.6-2.4,8.2-4.6,16.4-6.5,24.8a283.47,283.47,0,0,0-6.2,50.3c-.1,1.4,2,1.3,2.1,0,1.9-17.2,4.9-34.2,8.3-51.1,1.6-8.1,3.4-16.1,5.6-24.1,1.1-4,2.3-7.9,3.5-11.8,1.2-3.7,2.8-7.4,3.1-11.2A1,1,0,0,0,371,755.27Z"/><path class="c" d="M377.81,780.57c-7.8,13.7-11.4,30.8-15.1,46.1a251.55,251.55,0,0,0-7,48c-.1,1.2,1.9,1.5,2.1.3,2.9-15.7,5.9-31.5,9.5-47,1.8-7.7,3.8-15.3,6.1-22.8,2.3-7.8,5.3-15.6,6.8-23.5C380.31,780.17,378.51,779.27,377.81,780.57Z"/><path class="c" d="M457.11,720c-2.3-.2-4.6,1.7-6.5,2.7s-4.3,2-5.5,4a1.6,1.6,0,0,0,1.4,2.4c2.3.2,4.5-1.3,6.5-2.3s4.7-1.7,5.9-3.7A2.1,2.1,0,0,0,457.11,720Z"/><path class="c" d="M444.61,802.67c-4.7,4.3-7.5,10.4-10.5,15.9-3.4,6.3-6.6,12.6-9.6,19-2.8,5.8-5.2,11.8-7.7,17.8-2.6,6.5-5.8,13.1-6.9,20.1a1.78,1.78,0,0,0,3.2,1.4c3.7-5.6,5.9-12.2,8.7-18.3s5.8-12.3,8.8-18.4,6-12.2,9.2-18.2c3-5.5,6.7-11.1,8.2-17.3A2.06,2.06,0,0,0,444.61,802.67Z"/><path class="c" d="M454.51,663.57c-4.4-6.6-13-10-20.7-10.5-2-.1-2.5,3.2-.5,3.5a29.42,29.42,0,0,1,14.6,6.8c1.2,1.1,5,5.7,6.6,2.4A2.43,2.43,0,0,0,454.51,663.57Z"/><path class="c" d="M463.51,680.57c-.8-1.7-1.5-3.4-2.2-5.1-.4-1-2.1-.3-1.8.8.5,1.8,1,3.6,1.5,5.5.4,1.6.5,3.4,1.7,4.7,1,1,2.3.2,2.5-1C465.31,683.57,464.21,682.07,463.51,680.57Z"/><path class="c" d="M601.31,547.67c-4.1-6.2-12.2-8.4-19.2-6.8a20.14,20.14,0,0,0-8.6,4.4,19.64,19.64,0,0,0-1.3-9.8c-2.2-5-6.9-9.1-12.6-8.6-5.4.5-9.5,5.1-11,10.1a21.54,21.54,0,0,0-.1,10.4c-3.8-3.2-8.2-5.9-12.8-6.5-6.9-.9-12.2,4.8-12.5,11.5a16.12,16.12,0,0,0,9.9,15.4,19.53,19.53,0,0,0,4.6,1.2,70.7,70.7,0,0,0-5.6,6.5c-4.1,5.4-7.9,12.7-3.5,19.1,9.1,13.3,23.8-6,28.6-15.7a19.42,19.42,0,0,0,2.4.2c-.3,6.5.8,13.8,5.3,18.6s11.3,4.2,16.1,0c8.3-7.2,7.8-18.3,1.8-25.8,6-.1,11.9-.6,16.5-4.9C604.91,562.07,605.31,553.77,601.31,547.67ZM559.11,531c5.1-1.3,9.6,3.5,10.8,8.1,1,3.8.3,8.1-1.2,11.9a21.35,21.35,0,0,0-2,4,13.28,13.28,0,0,0-10.7-.7C552.81,547.27,548.61,533.67,559.11,531Zm-30.8,21.5c0-3.7,2.4-6.6,6.1-6.8,2.9-.1,5.5,1.6,7.8,3.2a50.4,50.4,0,0,1,9.1,8.2l-.1.1a15.37,15.37,0,0,0-1.7,1.9l-2.1,1.5C539.91,564.87,528.21,563.47,528.31,552.47Zm16.7,34.2a23.1,23.1,0,0,1-5.4,4.5c-4.4,2.6-7.3-1.2-5.9-5.6,2.1-6.3,7.8-12.2,13.5-16.9a11,11,0,0,0,3.1,6.5,17.38,17.38,0,0,0,1.5,1.3A32.54,32.54,0,0,1,545,586.67Zm13.3-12.3a3.47,3.47,0,0,0-3.4-1.3,6.24,6.24,0,0,1-2.5-3.2,8.74,8.74,0,0,1-.5-4.5,23.48,23.48,0,0,0,2.5-1.9,2.79,2.79,0,0,0,.5-3.7l1.2-.9c3-1.8,6.5-1.6,9.9-.9a2.74,2.74,0,0,0,3,2c5.7,3.1.7,10.5-3.1,12.8a20,20,0,0,1-2.1,1,2.83,2.83,0,0,0-3,.7A20.08,20.08,0,0,1,558.31,574.37Zm19.7,18.2c-4.9,5.3-9.9,1.8-11.8-3.9a26.39,26.39,0,0,1-1.3-10.4,16.53,16.53,0,0,0,6.6-4,12,12,0,0,0,1.7-2.1A12.66,12.66,0,0,1,578,592.57Zm13.1-28.3c-4.9,1.7-10.4,1.1-15.6,1.3.4-3.5-.5-6.9-4-8.3a23.33,23.33,0,0,1,9-8.9c5-2.5,12.3-1.9,15.4,3.2C599.21,556.77,596.71,562.37,591.11,564.27Z"/><path class="c" d="M544.71,427.67a6.75,6.75,0,0,0-3.1.5,12.81,12.81,0,0,1-2,1.1.69.69,0,0,0,0,1.3,12.81,12.81,0,0,1,2,1.1,5.52,5.52,0,0,0,3.1.5A2.25,2.25,0,0,0,544.71,427.67Z"/><path class="c" d="M564.71,430.37a8.87,8.87,0,0,0-6,.5,2.07,2.07,0,0,0,0,3.6,9.45,9.45,0,0,0,6,.5A2.43,2.43,0,0,0,564.71,430.37Z"/><path class="c" d="M587.81,429.27c-1.1-.8-2.8-.3-4.1-.2a1.5,1.5,0,0,0,0,3c1.3.1,3,.6,4.1-.2A1.5,1.5,0,0,0,587.81,429.27Z"/><path class="c" d="M606.21,428.37a2.55,2.55,0,0,0-2.4,0l-2.4.9c-1.6.6-1,3.2.7,2.6.9-.3,1.7-.5,2.6-.8a3,3,0,0,0,2-1.6A1,1,0,0,0,606.21,428.37Z"/><path class="c" d="M617.41,425.17h0c-1.7-.3-2.5,2.4-.7,2.8a2.19,2.19,0,0,0,2.8-1.6A1.25,1.25,0,0,0,617.41,425.17Z"/><path class="c" d="M631.11,414.67a.82.82,0,0,0-1.2.1,9,9,0,0,0-.9,1,10.91,10.91,0,0,1-.6,1.1c-.5.9.7,1.9,1.4,1.1a3.92,3.92,0,0,0,.8-1,7.46,7.46,0,0,0,.7-1.2A.8.8,0,0,0,631.11,414.67Z"/><path class="c" d="M638.91,399.87c-.2.9-.5,1.8-.7,2.7-.1.2.3.3.3.1l.6-2.7C639.21,399.87,639,399.77,638.91,399.87Z"/><path class="c" d="M641.71,383.67a1,1,0,0,0,0,1.9A1,1,0,0,0,641.71,383.67Z"/><path class="c" d="M523.81,421.67a4.67,4.67,0,0,0-1-.5.6.6,0,0,1-.4-.1l-.9-.3a2.32,2.32,0,0,0-2.8,2.8,3.78,3.78,0,0,0,3.9,2.9,2.58,2.58,0,0,0,2.5-1.9A2.83,2.83,0,0,0,523.81,421.67Z"/><path class="c" d="M517.51,413.47c-.2-.8-.5-2-1.3-2.3-.5-.2-1.2-.1-1.3.5-.1.8.3,1.3.4,2a4.52,4.52,0,0,1-.1,2c-.4,1.5,2,2.1,2.3.6A6.6,6.6,0,0,0,517.51,413.47Z"/><path class="c" d="M505.31,442.27a1.43,1.43,0,0,0-1.5-1.1,3.6,3.6,0,0,0-2.2.9,6.9,6.9,0,0,0-1.6,1.8c-.8,1.3-2.1,3.4-.4,4.7s3.2-.4,4.1-1.6C504.81,445.47,505.81,444.07,505.31,442.27Z"/><path class="c" d="M492.61,462.67c0,.2.1.4.1.7.1.5.7.5.7,0,0-.2.1-.4.1-.7C493.61,462.07,492.61,462.07,492.61,462.67Z"/><path class="c" d="M501.11,458.17c-.3-1.5-2.7-1.5-3.1,0a13.76,13.76,0,0,1-2.1,4.4c-.9,1.4-2,2.8-1.7,4.5a1.39,1.39,0,0,0,1.1,1.1c2.3.8,4.4-1.6,5.2-3.5A9.06,9.06,0,0,0,501.11,458.17Z"/><path class="c" d="M488.31,482.17c-.4,1.3-2.2,5,0,5.6s2.6-3.4,3-4.8A1.56,1.56,0,0,0,488.31,482.17Z"/><path class="c" d="M485.11,497.77a29.31,29.31,0,0,0-.5,2.9c0,.5.7.7.9.3a14.26,14.26,0,0,0,.9-2.7C486.61,497.37,485.21,496.87,485.11,497.77Z"/><path class="c" d="M480.21,515.07c-.3,1-.7,2-1,3-.4,1.6,2.2,2.3,2.4.7.2-1.1.2-2.3.3-3.4S480.51,514.17,480.21,515.07Z"/><path class="c" d="M477.11,528.47a.8.8,0,0,0,0,1.6A.8.8,0,0,0,477.11,528.47Z"/><path class="c" d="M473.51,561.77a1.82,1.82,0,0,0-2.5-.7,5.39,5.39,0,0,0-2.1,3.7c-.2,1.3-.5,2.9.2,4a1.61,1.61,0,0,0,2.2.6c1.1-.6,1.6-2.2,2.1-3.3A5,5,0,0,0,473.51,561.77Z"/><path class="c" d="M470.51,586.27c-.3-1.5-2.6-1.1-2.6.4,0,2-.6,5.4,1.2,6.8.4.3,1.2.5,1.6,0C472.21,591.47,471,588.47,470.51,586.27Z"/><path class="c" d="M470.31,612.67v.7c0,.1.1.1.1,0v-.7C470.51,612.57,470.31,612.57,470.31,612.67Z"/><path class="c" d="M475.31,639.57c-.3-1.1-.5-2.2-.8-3.3-.4-1.8-3.2-1-2.7.7.3,1.1.5,2.2.8,3.3s.4,2.1,1.4,2.6a1.11,1.11,0,0,0,1.4-.4C476,641.57,475.51,640.47,475.31,639.57Z"/><path class="c" d="M475.81,600.67a2.05,2.05,0,0,0-4.1,0c-.2,2.6-.8,5.4.1,7.9a2,2,0,0,0,3.8,0C476.51,606,476,603.17,475.81,600.67Z"/><path class="c" d="M485.11,661.17c-.1-.1-.1-.2-.2-.3a.31.31,0,0,0-.1-.2l-.3-.9v-.1a6.37,6.37,0,0,1-.2-.7c-.3-.7-.4-.8-.2-.5a.9.9,0,0,1-.1-.5c-.5-1.8-3.3-2.4-4.1-.5a5.58,5.58,0,0,0-.5,3.8,4.82,4.82,0,0,0,1.9,2.9,2.57,2.57,0,0,0,3.3.2A2.88,2.88,0,0,0,485.11,661.17Z"/><path class="c" d="M497.71,679.77a4.35,4.35,0,0,0-.7-.6c-.2-.1-.3-.2-.5-.3h0c-.1-.1-.1-.2-.2-.2h0c-.1-.1-.1-.2-.2-.3v-.2a1.84,1.84,0,0,0-1.9-1.3,1.65,1.65,0,0,0-1.5,1.7,5.83,5.83,0,0,0,.6,2.6,3.7,3.7,0,0,0,2.4,2A2,2,0,0,0,497.71,679.77Z"/><path class="c" d="M541.71,686.87c-1-1.2-2.9-1.3-4.3-.9a9.87,9.87,0,0,0-3.2,1.7,1.77,1.77,0,0,0-.8,2.1,1.83,1.83,0,0,0,1.8,1.3c2.3-.3,4.7.8,6.6-.8C542.81,689.37,542.51,687.87,541.71,686.87Z"/><path class="c" d="M565.91,688.47c-1.3-1.4-3.1-1.1-4.9-1.1a45.43,45.43,0,0,0-5.1.9c-1.6.3-1.6,3,0,3.3a41.75,41.75,0,0,0,5.1.9c1.7.1,3.6.4,4.9-1.1A2.05,2.05,0,0,0,565.91,688.47Z"/><path class="c" d="M593.81,684.47c-1.8-1.4-3.2-.7-5.2-.1-1.8.6-3.6,1.4-5.3,2.1-1.3.5-1.7,2.8,0,3.1a17.86,17.86,0,0,0,6.1.1c1.8-.4,4.6-1.1,4.9-3.2A1.71,1.71,0,0,0,593.81,684.47Z"/><path class="c" d="M614.31,681.67c-.4-2.8-4.8-.9-6.3-.4a1.33,1.33,0,0,0,.4,2.6C610,683.87,614.71,684.47,614.31,681.67Z"/><path class="c" d="M627.91,677.47a1.94,1.94,0,0,0-2.3-1.3c-1.1.2-2.1.3-3.2.5a1.35,1.35,0,1,0,0,2.7c1.1.1,2.1.3,3.2.5a1.94,1.94,0,0,0,2.3-1.3A2,2,0,0,0,627.91,677.47Z"/><path class="c" d="M646.71,674.07c-2.3-.1-4.7-.2-7-.2-3,0-3.6,3.7-1.4,5.2,2.7,2,6.9,1.9,9.8.2C650.61,677.87,649.41,674.17,646.71,674.07Z"/><path class="c" d="M677.91,667.57a15.13,15.13,0,0,0-4.4,2.2,16.14,16.14,0,0,1-4.8,2.2c-1.3.4-1.1,2.6.3,2.5,3.9-.3,8.6-.7,11-4.2C681,668.87,679.41,667.17,677.91,667.57Z"/><path class="c" d="M699.61,662.77c-1.5.1-3,.5-4.5.5-2.2,0-2.8,3.5-.5,3.9a13.09,13.09,0,0,0,4.4.3c1.5-.2,3.7-.9,3.7-2.8C702.71,663.07,700.91,662.67,699.61,662.77Z"/><path class="c" d="M713.11,662.07a.5.5,0,1,0,0,1C713.71,663.17,713.71,662.07,713.11,662.07Z"/><path class="c" d="M645.31,405.07a2.12,2.12,0,0,0-3.1,0,7.23,7.23,0,0,0-1.2,5c.1,1.7,0,3.6,1.3,4.8a2.05,2.05,0,0,0,2.9,0c1.4-1.3,1.3-3.1,1.3-4.8S646.51,406.47,645.31,405.07Z"/><path class="c" d="M644.61,437.17c-.3-1-.8-1.8-1.1-2.8a1.11,1.11,0,0,0-2.1,0c-.3.9-.7,1.7-1,2.5a8.92,8.92,0,0,0-.3,2.8c0,1.7.2,4.1,2.4,4.1s2.4-2.2,2.4-3.8A24,24,0,0,0,644.61,437.17Z"/><path class="c" d="M643.81,468.87V466a1.45,1.45,0,0,0-2.9,0v2.9a3.4,3.4,0,0,0,.6,2.6,1.22,1.22,0,0,0,1.6,0C643.91,470.77,643.81,469.77,643.81,468.87Z"/><path class="c" d="M646.21,501.17c-.3-2-.7-4.1-1-6.1-.1-.9-1.6-.7-1.5.2.2,2,.4,4.1.7,6.1a13.43,13.43,0,0,0,1.1,4.8.66.66,0,0,0,1.1-.1A16.26,16.26,0,0,0,646.21,501.17Z"/><path class="c" d="M655.81,517.77a1.66,1.66,0,0,0-3,1.3c.5,2.1,1.8,11,5.6,9.4S657,519.67,655.81,517.77Z"/><path class="c" d="M666.11,546c-1-1.3-3.1-.2-2.2,1.3a40,40,0,0,1,2.7,5.5,12.65,12.65,0,0,0,2.4,4.6,1.2,1.2,0,0,0,2-.5C671.61,553.07,668.31,548.87,666.11,546Z"/><path class="c" d="M681.91,581.07c-.3-1.7-1.4-3.2-2.3-4.7s-2-3.3-2.9-4.9c-.5-.9-1.8-.1-1.3.8.9,1.7,1.7,3.4,2.6,5.1s1.4,3.3,2.7,4.5C681.11,582.47,682,581.87,681.91,581.07Z"/><path class="c" d="M689.21,600.17a48.56,48.56,0,0,0-2.5-6.3,1.52,1.52,0,0,0-2.8.8,28.42,28.42,0,0,0,1.6,7c.6,1.9,1.2,4.5,3.1,5.4a1.52,1.52,0,0,0,2.2-.9C691.41,604.17,690,602.07,689.21,600.17Z"/><path class="c" d="M704.31,624.47a22,22,0,0,0-2.3-2,34.46,34.46,0,0,1-2.6-2.8c-.2-.3-.7.1-.5.4a17.79,17.79,0,0,1,1.7,3c.5,1.1.6,2.4,1,3.5.7,1.8,1.5,3.6,3.1,4.7a1.25,1.25,0,0,0,1.9-1.1C706.91,628,705.71,626.07,704.31,624.47Z"/><path class="c" d="M715.81,648.37c-.3-1.3-1.6-2.2-2.3-3.2a18.33,18.33,0,0,1-2.3-3.8c-.5-1.1-2.1-.1-1.6.9a21.35,21.35,0,0,0,2.3,4.2c.8,1.1,1.6,2.5,2.9,2.8C715.51,649.57,716,649.07,715.81,648.37Z"/><path class="c" d="M724.21,666.47a21.72,21.72,0,0,0-3.2-4.9c-.4-.6-1.4,0-1,.6a23.46,23.46,0,0,0,3.6,4.7A.38.38,0,0,0,724.21,666.47Z"/><path class="m" d="M612.91,261.77a3,3,0,0,0-3,3,3.08,3.08,0,0,0,3,3,3,3,0,0,0,3-3A3.08,3.08,0,0,0,612.91,261.77Z"/><path class="m" d="M623.91,264.17c-2.7,0-2.7,4.2,0,4.2S626.61,264.17,623.91,264.17Z"/><path class="m" d="M616.91,273.67a3.2,3.2,0,1,0,3.2,3.2A3.22,3.22,0,0,0,616.91,273.67Z"/><path class="m" d="M514.41,261.77c-3.3,0-3.3,5.1,0,5.1S517.71,261.77,514.41,261.77Z"/><path class="m" d="M525.41,262.77a1,1,0,0,0,0,2A1,1,0,0,0,525.41,262.77Z"/><path class="m" d="M521,270.17c-.1,0-.2.1-.3.1a1.56,1.56,0,0,0,0,3c.1,0,.2.1.3.1a1.67,1.67,0,0,0,2.1-1.6A1.77,1.77,0,0,0,521,270.17Z"/></svg>